<svg width="183" height="186" viewBox="0 0 183 186" fill="none" xmlns="http://www.w3.org/2000/svg">
<g style="mix-blend-mode:multiply">
<path d="M85.139 196C134.393 196 183 195.923 183 187.353C183 178.784 139.903 167 90.6497 167C41.396 167 0 178.784 0 187.353C0 195.923 35.8853 196 85.139 196Z" fill="#B0C8EA"/>
</g>
<path d="M148.773 7.45312H30.9946C30.188 7.45312 29.5342 8.10696 29.5342 8.9135V10.8765C29.5342 11.683 30.188 12.3368 30.9946 12.3368H148.773C149.579 12.3368 150.233 11.683 150.233 10.8765V8.9135C150.233 8.10696 149.579 7.45312 148.773 7.45312Z" fill="#F79E1C"/>
<path d="M35.9541 7.45312L36.6511 186.695H43.2749L39.4391 7.45312H35.9541Z" fill="#F79E1C"/>
<path d="M39.4385 7.45312H41.8803L51.2542 171.105H44.5688L39.4385 7.45312Z" fill="#F79E1C"/>
<path d="M134.99 7.45226L137.432 185.997H143.359L139.874 7.39062L134.99 7.45226Z" fill="#F79E1C"/>
<path d="M142.315 7.80273L145.8 185.964H139.873L136.734 7.80273H142.315Z" fill="#F79E1C"/>
<path d="M42.2314 155.66L136.734 153.915V141.711L48.5044 143.105L42.2314 148.335V155.66Z" fill="#F8F6F2"/>
<path d="M41.8193 155.661V161.237L137.147 159.146V153.916L41.8193 155.661Z" fill="#F79E1C"/>
<path d="M39.6712 12.2168C39.5622 12.6957 39.5053 13.0181 39.51 13.5871C39.7281 25.1515 40.8139 83.0829 40.8139 83.0829C40.8139 83.0829 41.8144 136.344 42.0135 146.974C42.0278 147.543 42.0989 147.866 42.2222 148.335C42.3312 147.856 42.3881 147.534 42.3834 146.965C42.1842 136.33 41.1838 83.0734 41.1838 83.0734C41.1838 83.0734 40.0932 25.1468 39.8799 13.5776C39.8656 13.0086 39.7945 12.6862 39.6712 12.2168Z" fill="#F9F7F4"/>
<path d="M139.873 185.964C139.987 185.489 140.049 185.167 140.049 184.598C139.93 169.8 139.333 95.6954 139.333 95.6954C139.333 95.6954 138.783 27.6362 138.674 14.0472C138.664 13.4782 138.598 13.1558 138.479 12.6816C138.365 13.1558 138.304 13.4782 138.304 14.0472C138.413 27.6362 138.963 95.6954 138.963 95.6954C138.963 95.6954 139.56 169.8 139.679 184.598C139.688 185.167 139.755 185.489 139.873 185.964Z" fill="#F9F7F4"/>
<path d="M61.06 21.3976C61.06 21.3976 69.3006 13.6595 79.7461 24.0196L88.6459 40.2687V52.203H53.6206L51.6055 30.193L61.06 21.3976Z" fill="#D63C5D"/>
<path d="M61.0594 32.6738H79.4279V35.0019H60.5947L61.0594 32.6738Z" fill="#2F1316"/>
<path d="M60.6287 22.49C61.7288 21.9021 62.6865 21.0723 63.4025 20.0529C64.6448 18.2796 66.9396 16.0748 68.9642 15.705C71.5199 15.2403 74.0044 18.3413 75.8204 20.3564C76.9726 21.6318 78.8407 23.0875 79.7464 24.0215L83.6107 26.1694L82.2167 28.0281L73.5398 24.1401C70.4957 22.7745 67.0013 22.8504 64.0189 24.3392L56.6412 28.0281L55.4795 25.2401L60.6287 22.4948V22.49Z" fill="#2F1316"/>
<path d="M63.4068 20.0527C63.4068 20.0527 59.2011 25.2352 62.9231 32.6745C66.6452 40.1139 68.2715 45.4623 68.2715 45.4623C68.2715 45.4623 75.9432 35.9319 76.6402 31.7452C77.3372 27.5585 76.9294 21.4562 76.9294 21.4562L94.7716 32.4422L102.211 65.22L93.1453 71.4977L93.8423 99.8612C93.8423 99.8612 88.7262 99.6289 82.6856 102.185C76.6402 104.74 54.3221 102.417 52.6958 100.558C51.0695 98.6996 46.1857 97.5379 43.3977 98.2349C43.3977 98.2349 45.4887 89.4015 45.7211 83.1238C45.9534 76.8461 46.1857 68.4774 46.1857 68.4774L39.4434 65.6894C39.4434 65.6894 41.302 47.0886 42.2313 41.048C43.1607 35.0026 44.5547 31.9823 45.9487 31.2853C47.3427 30.5883 55.479 25.2399 55.479 25.2399L63.402 20.0575L63.4068 20.0527Z" fill="#D63C5D"/>
<path d="M43.3936 98.2337C43.3936 98.2337 49.6713 106.138 56.8783 106.602C64.0853 107.067 78.2671 108.229 82.2167 106.602C86.1664 104.976 91.9794 100.789 93.8428 99.8601L91.2872 98.6984L44.7923 96.6074L43.3983 98.2337H43.3936Z" fill="#D63C5D"/>
<path d="M69.0444 17.5628C69.2483 16.7378 69.3621 16.1783 69.3668 15.1921C69.3668 15.0261 69.3668 14.7511 69.3668 14.1869C69.3668 13.305 69.3668 11.8161 69.3668 10.5454C69.3668 9.9148 69.3668 9.34108 69.3668 8.92383C69.381 8.53029 69.4284 8.28373 69.4284 8.28373C69.4284 8.28373 69.4521 8.07985 69.5422 7.75269C69.6276 7.43027 69.7888 6.98457 70.0638 6.53887C70.3293 6.09317 70.7229 5.64747 71.1686 5.32505C71.3867 5.1591 71.6237 5.05479 71.8513 4.98367C72.0789 4.91255 72.297 4.92203 72.4914 4.95048C73.0983 5.09272 73.4018 5.45307 73.5677 5.58583C73.8807 5.91774 74.1225 6.19748 74.3501 6.47249C74.5587 6.7143 74.7958 6.98931 75.0898 7.3307C74.9949 6.91819 74.9048 6.56732 74.7484 6.22119C74.5966 5.87032 74.3833 5.5242 74.0229 5.13065C73.9186 5.04531 73.7953 4.89832 73.5725 4.74659C73.3591 4.59013 73.0462 4.40521 72.61 4.31038C72.3255 4.2677 71.9983 4.26296 71.6806 4.35779C71.3677 4.45262 71.0595 4.59961 70.7987 4.79875C70.2677 5.18281 69.8267 5.69015 69.5185 6.20223C69.2056 6.71431 69.0254 7.2169 68.9306 7.58674C68.831 7.95657 68.8026 8.18416 68.8026 8.18416C68.8026 8.18416 68.7504 8.45917 68.7362 8.90012C68.7362 9.32212 68.7362 9.90532 68.7314 10.5407C68.7314 11.8066 68.7314 13.2955 68.7314 14.1821C68.7314 14.7464 68.7314 15.0214 68.7314 15.1873C68.7362 16.1735 68.8452 16.733 69.0539 17.5581L69.0444 17.5628Z" fill="#2F1316"/>
<path d="M46.182 68.4751C46.3005 68.0009 46.3622 67.6785 46.3669 67.1095V37.0628C46.3669 36.4938 46.3005 36.1714 46.182 35.6973C46.0635 36.1714 46.0018 36.4938 45.9971 37.0628V67.1095C45.9971 67.6785 46.0635 68.0009 46.182 68.4751Z" fill="#F9F7F4"/>
<path d="M68.2671 45.4629C68.1533 45.937 68.0869 46.2595 68.0869 46.8284C68.1059 51.3328 68.2007 73.888 68.2007 73.888C68.2007 73.888 68.2908 94.7884 68.305 98.9609C68.3098 99.5299 68.3761 99.8523 68.4947 100.326C68.6085 99.8523 68.6749 99.5299 68.6749 98.9609C68.6559 94.7884 68.5705 73.888 68.5705 73.888C68.5705 73.888 68.4757 51.3328 68.4567 46.8284C68.452 46.2595 68.3856 45.937 68.2671 45.4629Z" fill="#F9F7F4"/>
<path d="M70.4766 49.6485C71.0553 49.6485 71.5244 49.1793 71.5244 48.6006C71.5244 48.0219 71.0553 47.5527 70.4766 47.5527C69.8979 47.5527 69.4287 48.0219 69.4287 48.6006C69.4287 49.1793 69.8979 49.6485 70.4766 49.6485Z" fill="#F8F6F2"/>
<path d="M70.3574 58.3672C70.9362 58.3672 71.4053 57.8981 71.4053 57.3193C71.4053 56.7406 70.9362 56.2715 70.3574 56.2715C69.7787 56.2715 69.3096 56.7406 69.3096 57.3193C69.3096 57.8981 69.7787 58.3672 70.3574 58.3672Z" fill="#F8F6F2"/>
<path d="M70.5899 66.0391C71.1686 66.0391 71.6377 65.5699 71.6377 64.9912C71.6377 64.4125 71.1686 63.9434 70.5899 63.9434C70.0111 63.9434 69.542 64.4125 69.542 64.9912C69.542 65.5699 70.0111 66.0391 70.5899 66.0391Z" fill="#F8F6F2"/>
<path d="M70.8233 73.3594C71.402 73.3594 71.8711 72.8903 71.8711 72.3115C71.8711 71.7328 71.402 71.2637 70.8233 71.2637C70.2445 71.2637 69.7754 71.7328 69.7754 72.3115C69.7754 72.8903 70.2445 73.3594 70.8233 73.3594Z" fill="#F8F6F2"/>
<path d="M71.6377 80.1026C71.6377 80.681 71.1683 81.1504 70.5899 81.1504C70.0114 81.1504 69.542 80.681 69.542 80.1026C69.542 79.5241 70.0114 79.0547 70.5899 79.0547C71.1683 79.0547 71.6377 79.5241 71.6377 80.1026Z" fill="#F8F6F2"/>
<path d="M71.0557 89.752C71.6344 89.752 72.1036 89.2828 72.1036 88.7041C72.1036 88.1254 71.6344 87.6562 71.0557 87.6562C70.477 87.6562 70.0078 88.1254 70.0078 88.7041C70.0078 89.2828 70.477 89.752 71.0557 89.752Z" fill="#F8F6F2"/>
<path d="M88.0303 100.094C88.1109 99.6105 88.1488 99.2834 88.1109 98.7191C87.7695 94.2337 86.0484 71.7733 86.0484 71.7733C86.0484 71.7733 84.4552 50.963 84.1376 46.8095C84.0901 46.2452 84.0048 45.9276 83.8483 45.4629C83.7677 45.9465 83.7298 46.2737 83.7677 46.8379C84.0854 50.9914 85.6785 71.8018 85.6785 71.8018C85.6785 71.8018 87.3997 94.2621 87.7411 98.7476C87.7885 99.3118 87.8738 99.6295 88.0303 100.094Z" fill="#F9F7F4"/>
<path d="M55.4795 25.234C55.214 25.6466 55.048 25.931 54.8584 26.4668C54.8252 26.5664 54.7636 26.7324 54.6924 26.941C54.4269 27.7091 54.1377 28.5483 53.8342 29.4397C53.6446 29.985 53.4549 30.5445 53.2558 31.1182C53.1562 31.4027 53.0566 31.6919 52.9571 31.9812L52.7958 32.4506L52.72 32.6734L52.6821 32.7825L52.6631 32.8394H52.72L53.1609 32.8868C54.37 32.9958 55.6075 33.1096 56.5938 33.1997C57.0869 33.2424 57.5136 33.2851 57.8455 33.3135C57.9024 33.3183 57.8835 33.3135 57.8882 33.3135C57.8787 33.2851 57.9072 33.3846 57.9214 33.4273C57.9498 33.5364 57.9735 33.6122 57.9878 33.6596C58.3434 34.9398 58.6848 36.1726 58.9171 37.0119C58.955 37.1541 58.993 37.2869 59.0261 37.4102C59.0451 37.4481 59.0451 37.5145 59.0736 37.5334C59.121 37.5239 59.1636 37.5145 59.2063 37.505C59.2822 37.4908 59.358 37.4765 59.4292 37.4623C59.5904 37.4291 59.7184 37.4054 59.8085 37.3864C59.9934 37.3485 60.0408 37.339 59.9033 37.3675C60.33 37.2821 60.7426 37.2015 61.1076 37.1257C61.1977 37.1067 61.2878 37.0877 61.3732 37.0735L61.4348 37.0593C61.4348 37.0593 61.4348 37.0593 61.4396 37.0593C61.5296 37.1731 61.6055 37.2726 61.6766 37.3627C61.9848 37.7563 62.0986 37.9033 61.8568 37.5951C66.309 43.2754 67.6936 45.0439 67.6936 45.0439C67.6936 45.0439 67.7078 45.0629 67.8643 45.262C67.9022 45.3142 67.9543 45.3758 68.0112 45.4517C68.0255 45.4707 68.0397 45.4896 68.0586 45.5133L68.0824 45.5465L68.0966 45.5607V45.5702H68.1061C67.8216 45.7267 68.4949 45.3569 68.4285 45.3948C68.4095 45.3379 68.3858 45.281 68.3668 45.2146C68.2768 44.9586 68.1535 44.6267 67.997 44.1905C67.888 43.9012 67.281 42.2275 66.3185 39.8236C65.8349 38.624 65.2659 37.2442 64.6069 35.7743C64.2797 35.0394 63.9241 34.2855 63.5495 33.5174C63.1702 32.7493 62.7482 31.9954 62.4495 31.1846C61.8141 29.5772 61.5202 27.8039 61.5723 26.1017C61.5865 25.2483 61.7193 24.4138 61.9042 23.6219C61.9943 23.2237 62.1223 22.8443 62.2503 22.4698C62.3262 22.2896 62.3973 22.1142 62.4685 21.9435C62.5965 21.6353 62.7387 21.3982 62.7956 21.2654C62.9284 21.0236 63.0374 20.834 63.118 20.6396C63.2129 20.4546 63.2982 20.2745 63.393 20.0469C63.2034 20.1986 63.0422 20.3314 62.8952 20.4878C62.7577 20.6538 62.6154 20.834 62.4732 21.09C62.4116 21.2228 62.2646 21.4741 62.1271 21.7965C62.0512 21.9767 61.9801 22.1568 61.8995 22.3465C61.7667 22.7353 61.634 23.1288 61.5439 23.5366C61.3495 24.3569 61.212 25.2151 61.1977 26.0923C61.1456 27.8466 61.449 29.6673 62.1034 31.3221C65.2564 37.6188 67.4233 43.7495 67.6461 44.3232C67.8026 44.7594 67.9259 45.0913 68.016 45.3426C68.0397 45.4043 68.0587 45.4659 68.0776 45.5181C68.0065 45.556 68.6845 45.1862 68.3953 45.3426L68.3906 45.3284L68.3763 45.3142L68.3526 45.281C68.3526 45.281 68.3194 45.2383 68.3052 45.2194C68.2436 45.1435 68.1962 45.0819 68.1582 45.0297C68.0018 44.8306 67.9875 44.8116 67.9875 44.8116C67.9875 44.8116 66.603 43.043 62.1508 37.3627C62.3926 37.6709 62.2788 37.5239 61.9706 37.1304C61.8853 37.0213 61.7857 36.8933 61.6766 36.7558L61.6008 36.661C61.5676 36.6468 61.5202 36.6705 61.4822 36.6752C61.4206 36.6894 61.3637 36.6989 61.2973 36.7132C61.212 36.7321 61.1219 36.7463 61.0318 36.7653C60.662 36.8412 60.2494 36.9218 59.8275 37.0071C59.965 36.9787 59.9223 36.9882 59.7326 37.0261C59.6378 37.0451 59.5098 37.0688 59.3533 37.102C59.3249 37.1067 59.3201 37.1067 59.3249 37.1067C59.3249 37.0925 59.3343 37.1399 59.3154 37.0688C59.3011 37.0214 59.2869 36.9692 59.2727 36.917C59.0404 36.0778 58.699 34.845 58.3434 33.5648C58.3291 33.5174 58.3102 33.4368 58.277 33.3325C58.258 33.2614 58.2343 33.176 58.2059 33.0859C58.1964 33.0527 58.1869 33.0195 58.1774 32.9816C58.1585 32.9579 58.1063 32.9674 58.0731 32.9626C58.0115 32.9579 57.9451 32.9532 57.874 32.9437C57.5421 32.9152 57.1153 32.8726 56.6222 32.8299C55.636 32.7398 54.3985 32.626 53.1894 32.517C53.1372 32.5122 53.1752 32.517 53.1657 32.517L53.3079 32.1092C53.4075 31.82 53.5071 31.5307 53.6066 31.2462C53.801 30.6725 53.9954 30.113 54.1851 29.5678C54.4933 28.6764 54.7825 27.8371 55.0433 27.069C55.1144 26.8604 55.1713 26.6897 55.2045 26.5901C55.3847 26.0496 55.4321 25.7272 55.4748 25.2388L55.4795 25.234Z" fill="#F9F7F4"/>
<path d="M83.6111 26.1624C83.5731 26.6507 83.5636 26.9779 83.6537 27.5374C83.6727 27.6512 83.7059 27.8456 83.7438 28.0827C83.905 29.0499 84.0805 30.1073 84.2654 31.212C84.3649 31.8 84.4645 32.4021 84.5641 33.009C84.6162 33.3125 84.6637 33.6207 84.7158 33.9242L84.7869 34.3604H84.6969C83.2602 34.4836 81.7998 34.5974 80.6666 34.6875C80.0976 34.7349 79.614 34.7729 79.2536 34.8013C79.211 34.8013 79.1635 34.8061 79.1209 34.8108C79.1019 34.8155 79.0735 34.8108 79.064 34.825L79.0355 34.8772C79.0071 34.9341 78.9786 34.9862 78.9502 35.0337C78.917 35.0953 78.8838 35.1522 78.8601 35.1996C78.8079 35.2944 78.7748 35.3561 78.7605 35.3845C78.5329 35.8065 78.3053 36.219 78.1015 36.5889C78.0019 36.7738 77.9023 36.9492 77.817 37.1152C77.7743 37.1958 77.7316 37.2764 77.689 37.3475C77.6605 37.3996 77.6652 37.3854 77.6652 37.3854C77.6558 37.3854 77.689 37.3807 77.6368 37.3949C77.0536 37.5419 76.7833 37.6083 77.0868 37.5324C76.3993 37.7031 75.7449 37.8691 75.1712 38.0113C74.882 38.0824 74.6165 38.1488 74.3699 38.2104C74.3083 38.2247 74.2514 38.2389 74.1897 38.2531C74.1328 38.2673 74.0902 38.2768 73.9622 38.3148C73.8768 38.4191 73.7962 38.5139 73.7251 38.5992C73.2272 39.2014 73.0376 39.4243 73.3837 39.007C69.619 43.5209 68.756 44.5593 68.756 44.5593C68.756 44.5593 68.737 44.583 68.5426 44.8153C68.4952 44.8722 68.4383 44.9433 68.3672 45.0287C68.3293 45.0714 68.2914 45.1188 68.2487 45.1709C68.2297 45.1946 68.206 45.2231 68.1823 45.2515L68.1491 45.2942L68.1301 45.3179L68.1207 45.3274V45.3321C67.8741 45.114 68.4573 45.6308 68.4004 45.5787C68.6138 45.3464 68.884 45.0429 69.2254 44.6351C69.4483 44.3649 70.5957 43.0467 72.0181 40.9937C72.7341 39.9743 73.5117 38.7605 74.2514 37.3996C74.9958 36.0436 75.707 34.5358 76.1906 32.9142C76.3329 32.5159 76.4182 32.0987 76.5131 31.6814L76.6553 31.0556L76.7312 30.4202C76.8497 29.5667 76.8545 28.737 76.9066 27.912C76.9777 26.499 77.0489 25.1287 77.1152 23.877C77.1342 23.5403 77.1437 23.2653 77.1532 23.1231C77.1816 22.5541 77.1342 22.2317 77.0394 21.748C76.8971 22.2175 76.8165 22.5351 76.7833 23.1041C76.7739 23.2464 76.7596 23.5214 76.7454 23.858C76.679 25.1145 76.6079 26.4848 76.5368 27.893C76.4846 28.7133 76.4799 29.5667 76.3613 30.3775L76.2902 30.9939L76.1527 31.6008C76.0626 32.0086 75.982 32.4116 75.8398 32.8052C75.3656 34.3936 74.6686 35.8824 73.929 37.2242C73.194 38.5661 72.4307 39.7704 71.7147 40.7851C70.3017 42.8192 69.1638 44.1278 68.9409 44.3981C68.5995 44.8011 68.3293 45.1045 68.1254 45.3321C68.0638 45.28 68.6517 45.7968 68.4051 45.5787V45.574L68.4146 45.5645L68.4336 45.5408L68.4668 45.4981C68.4905 45.4696 68.5142 45.4459 68.5332 45.4175C68.5758 45.3653 68.6138 45.3179 68.6517 45.2752C68.7228 45.1899 68.7797 45.1188 68.8271 45.0619C69.0168 44.8343 69.0405 44.8058 69.0405 44.8058C69.0405 44.8058 69.9035 43.7675 73.6682 39.2536C73.3221 39.6708 73.507 39.4432 74.0096 38.8458C74.0617 38.7842 74.1139 38.7178 74.1755 38.6467C74.2656 38.623 74.3604 38.5992 74.46 38.5755C74.7018 38.5139 74.9721 38.4475 75.2613 38.3764C75.835 38.2342 76.4894 38.0682 77.1769 37.8975C76.8734 37.9734 77.1437 37.907 77.7269 37.76C77.7459 37.7553 77.8549 37.7316 77.9165 37.7078C77.9497 37.6509 77.9782 37.5893 78.0114 37.5324C78.054 37.4566 78.092 37.3807 78.1394 37.3001C78.2295 37.1389 78.3243 36.9634 78.4239 36.7738C78.6278 36.3992 78.8506 35.9914 79.0829 35.5694C79.1019 35.5363 79.1778 35.394 79.2963 35.1759C79.6472 35.1475 80.1308 35.1095 80.6903 35.0621C81.8188 34.972 83.2792 34.8535 84.7206 34.7397L85.0999 34.7112C85.1378 34.7065 85.1852 34.7112 85.2137 34.697L85.1947 34.5832L85.1568 34.3509L85.0762 33.8673C85.024 33.5591 84.9719 33.2556 84.9244 32.9521C84.8249 32.3452 84.7206 31.7431 84.6257 31.1551C84.4408 30.0504 84.2654 28.9978 84.1042 28.0258C84.0662 27.7887 84.033 27.5943 84.0141 27.4805C83.9193 26.921 83.8007 26.6128 83.6063 26.1624H83.6111Z" fill="#F9F7F4"/>
<path d="M43.3934 98.2337C43.877 98.2906 44.1947 98.338 44.759 98.3285C44.8348 98.3285 44.9486 98.3285 45.0909 98.3285C45.162 98.3285 45.2378 98.3285 45.3232 98.3285C45.4607 98.3333 45.6029 98.3428 45.7499 98.3475C45.9111 98.3522 46.0771 98.3712 46.243 98.3854C46.5749 98.4186 46.9211 98.4566 47.2672 98.5135C48.6612 98.7316 50.1453 99.1773 51.5677 99.879C52.2884 100.225 53.0044 100.6 53.7346 100.96C54.46 101.325 55.2139 101.676 55.9915 101.927C57.5515 102.43 59.1256 102.634 60.5718 102.828C62.0179 103.013 63.3503 103.155 64.4835 103.25C66.7499 103.445 68.215 103.516 68.215 103.516C68.215 103.516 69.6801 103.606 71.9513 103.653C73.0893 103.672 74.4264 103.686 75.8867 103.639C77.3424 103.582 78.926 103.525 80.5334 103.203C80.7325 103.151 80.9364 103.117 81.1355 103.051C81.3299 102.975 81.548 102.914 81.7235 102.823C82.0886 102.658 82.4584 102.492 82.833 102.335C83.5774 102.022 84.336 101.733 85.0852 101.472C85.8391 101.211 86.5882 100.979 87.3232 100.78C87.6883 100.676 88.0581 100.595 88.4137 100.51C88.5939 100.472 88.7741 100.434 88.9495 100.396C89.1154 100.367 89.2766 100.339 89.4331 100.31C89.7982 100.239 90.1017 100.216 90.2534 100.187C90.8129 100.121 91.1211 100.045 91.5952 99.9169C91.1211 99.8079 90.7844 99.7605 90.2107 99.8221C90.059 99.8458 89.7461 99.8743 89.3715 99.9454C89.2103 99.9738 89.0443 100.002 88.8784 100.035C88.6982 100.073 88.518 100.111 88.3331 100.149C87.968 100.235 87.5982 100.32 87.2236 100.424C86.4792 100.623 85.7205 100.86 84.9619 101.126C84.2033 101.392 83.4399 101.681 82.686 101.998C82.3067 102.155 81.9321 102.321 81.5623 102.492C81.3774 102.582 81.1972 102.629 81.017 102.7C80.8321 102.762 80.6377 102.795 80.448 102.842C78.8976 103.155 77.3139 103.212 75.8678 103.269C74.4169 103.317 73.0845 103.302 71.9513 103.283C69.6849 103.236 68.2245 103.146 68.2245 103.146C68.2245 103.146 66.7641 103.079 64.5072 102.88C63.3787 102.786 62.0511 102.643 60.6144 102.458C59.1778 102.264 57.6131 102.06 56.1053 101.572C54.6023 101.079 53.1798 100.22 51.7242 99.5376C50.2733 98.8216 48.7465 98.3617 47.3194 98.1389C46.9637 98.0772 46.6129 98.0393 46.2715 98.0061C46.1008 97.9919 45.9301 97.9729 45.7642 97.9682C45.6172 97.9634 45.4702 97.954 45.3279 97.9492C45.2426 97.9492 45.162 97.9492 45.0909 97.9492C44.9439 97.9492 44.8301 97.9492 44.7495 97.9492C44.1758 97.9587 43.8439 98.044 43.3887 98.2242L43.3934 98.2337Z" fill="#F9F7F4"/>
<path d="M52.6918 100.557C52.8103 100.083 52.8719 99.7605 52.8767 99.1915V59.6097C52.8767 59.0407 52.8103 58.7183 52.6918 58.2441C52.5732 58.7183 52.5116 59.0407 52.5068 59.6097V99.1915C52.5068 99.7605 52.5732 100.083 52.6918 100.557Z" fill="#F9F7F4"/>
<path d="M101.59 22.5219L109.186 18.5723L115.738 21.7538L121.817 25.4664L108.251 53.057L97.9482 24.8452L101.59 22.5219Z" fill="#F8F6F2"/>
<path d="M98.8397 30.6953H117.203V33.0234H98.375L98.8397 30.6953Z" fill="#2F1316"/>
<path d="M100.618 23.4181C101.718 22.8301 102.676 22.0004 103.392 20.9809C104.634 19.2076 106.929 17.0029 108.953 16.633C111.509 16.1684 113.923 19.7434 115.739 21.7538C116.891 23.0293 118.237 24.1151 119.736 24.9448L123.6 27.0927L122.206 28.9514L113.529 25.0634C110.485 23.6978 106.991 23.7737 104.008 25.2625L96.6304 28.9514L95.4688 26.1634L100.618 23.4181Z" fill="#2F1316"/>
<path d="M109.03 17.5608C109.234 16.7358 109.347 16.1763 109.352 15.1901C109.352 15.0242 109.352 14.7492 109.352 14.1849C109.352 13.303 109.352 11.8142 109.352 10.5435C109.352 9.91285 109.352 9.33913 109.352 8.92188C109.366 8.52834 109.414 8.28178 109.414 8.28178C109.414 8.28178 109.438 8.0779 109.528 7.75074C109.613 7.42831 109.774 6.98262 110.049 6.53692C110.315 6.09122 110.708 5.64552 111.154 5.3231C111.372 5.15715 111.609 5.05284 111.837 4.98171C112.064 4.91059 112.282 4.92007 112.477 4.94852C113.084 5.09077 113.387 5.45112 113.553 5.58388C113.866 5.91578 114.108 6.19553 114.335 6.47054C114.544 6.71235 114.781 6.98736 115.075 7.32874C114.98 6.91624 114.89 6.56537 114.734 6.21924C114.582 5.86837 114.369 5.52224 114.008 5.1287C113.904 5.04335 113.781 4.89637 113.558 4.74464C113.344 4.58817 113.032 4.40325 112.595 4.30843C112.311 4.26575 111.984 4.26101 111.666 4.35584C111.353 4.45067 111.045 4.59765 110.784 4.7968C110.253 5.18086 109.812 5.68819 109.504 6.20027C109.191 6.71235 109.011 7.21495 108.916 7.58478C108.816 7.95462 108.788 8.18221 108.788 8.18221C108.788 8.18221 108.736 8.45721 108.722 8.89817C108.722 9.32016 108.722 9.90336 108.717 10.5387C108.717 11.8047 108.717 13.2935 108.717 14.1802C108.717 14.7444 108.717 15.0194 108.717 15.1854C108.722 16.1716 108.831 16.7311 109.039 17.5561L109.03 17.5608Z" fill="#2F1316"/>
<path d="M102.241 22.2969L96.1954 25.6966C96.02 25.7961 95.3941 26.1849 95.2045 26.2513C93.8437 26.735 87.6703 29.1579 86.6366 33.6006C85.0245 40.5279 83.8486 57.0804 83.8486 57.0804L90.8233 61.0348L92.2173 101.717C92.2173 101.717 98.0304 105.202 108.955 105.202C119.879 105.202 130.808 104.04 132.667 100.318C132.667 100.318 131.505 79.8584 132.202 72.8837C132.899 65.909 132.899 61.49 132.899 61.49H134.758C134.758 61.49 137.546 51.2626 137.081 45.4496C136.616 39.6365 135.222 33.5911 135.222 33.5911L115.74 21.7422L113.606 34.5205L108.49 46.3789L102.677 34.0558L102.241 22.2875V22.2969Z" fill="#F8F6F2"/>
<g style="mix-blend-mode:multiply" opacity="0.5">
<path d="M102.24 22.2988L102.676 34.0672L97.0954 35.4659L96.3984 25.5278L102.24 22.2988Z" fill="#F79E1C"/>
</g>
<g style="mix-blend-mode:multiply" opacity="0.5">
<path d="M115.739 21.7539L120.732 24.926L119.414 35.0016L113.601 34.5322L115.739 21.7539Z" fill="#F79E1C"/>
</g>
<g style="mix-blend-mode:multiply" opacity="0.5">
<path d="M102.677 34.0664L99.8838 39.1825L108.49 46.3895L102.677 34.0664Z" fill="#F79E1C"/>
</g>
<g style="mix-blend-mode:multiply" opacity="0.5">
<path d="M113.601 34.5332L117.01 39.1087L108.489 46.3916L113.601 34.5332Z" fill="#F79E1C"/>
</g>
<g style="mix-blend-mode:multiply" opacity="0.5">
<path d="M108.49 46.3926C108.371 46.8667 108.305 47.1891 108.3 47.7581C108.281 52.2199 108.186 74.5759 108.186 74.5759C108.186 74.5759 108.096 95.2914 108.082 99.426C108.082 99.9949 108.144 100.317 108.262 100.792C108.381 100.317 108.447 99.9949 108.452 99.426C108.471 95.2914 108.556 74.5759 108.556 74.5759C108.556 74.5759 108.651 52.2199 108.67 47.7581C108.67 47.1891 108.608 46.8667 108.49 46.3926Z" fill="#F8AA39"/>
</g>
<g style="mix-blend-mode:multiply" opacity="0.5">
<path d="M135.221 33.6016C134.823 33.8861 134.567 34.1042 134.235 34.5736C134.193 34.6352 134.121 34.7348 134.041 34.8533C134.003 34.915 133.956 34.9813 133.913 35.0525C133.742 35.299 133.529 35.6594 133.334 35.9913C132.941 36.6788 132.566 37.4611 132.244 38.2909C131.936 39.1254 131.694 40.0168 131.552 40.9082C131.438 41.7996 131.386 42.6862 131.49 43.497C131.514 43.7009 131.533 43.9 131.556 44.0897C131.59 44.2794 131.627 44.4643 131.661 44.6445C131.722 45.0048 131.798 45.3367 131.869 45.6449C132.149 46.8682 132.377 47.6411 132.377 47.6411C132.377 47.6411 132.585 48.4187 132.912 49.6183C133.23 50.8179 133.581 52.4679 133.643 54.2222C133.723 55.9671 133.505 57.8305 133.202 59.3193C133.135 59.6844 133.078 59.9879 133.036 60.1348C132.908 60.6849 132.893 61.012 132.898 61.5051C133.121 61.0737 133.259 60.7702 133.396 60.2155C133.439 60.0685 133.5 59.7603 133.567 59.3904C133.87 57.8826 134.093 55.9861 134.012 54.208C133.951 52.4157 133.59 50.7372 133.268 49.5282C132.941 48.3238 132.727 47.5462 132.727 47.5462C132.727 47.5462 132.5 46.7734 132.225 45.5643C132.154 45.2608 132.083 44.9337 132.021 44.5781C131.988 44.4026 131.955 44.2177 131.917 44.0328C131.898 43.8479 131.874 43.6535 131.855 43.4591C131.755 42.6815 131.803 41.8233 131.912 40.9651C132.049 40.1021 132.282 39.2392 132.585 38.4236C132.903 37.6128 133.268 36.8495 133.652 36.1762C133.846 35.8538 134.055 35.4982 134.221 35.2563C134.268 35.1852 134.311 35.1236 134.349 35.0619C134.43 34.9434 134.496 34.8533 134.539 34.7917C134.861 34.3317 135.003 34.0425 135.226 33.6063L135.221 33.6016Z" fill="#F8AA39"/>
</g>
<g style="mix-blend-mode:multiply" opacity="0.5">
<path d="M131.737 44.0664C132.041 44.4457 132.226 44.7065 132.6 45.119C132.662 45.1901 132.776 45.2992 132.97 45.5505C133.454 46.1242 134.151 47.191 134.577 48.182C134.682 48.4333 134.781 48.6704 134.871 48.8885C134.942 49.1113 135.009 49.3152 135.066 49.4859C135.123 49.6566 135.165 49.7941 135.198 49.8889C135.227 49.9838 135.236 50.0407 135.236 50.0407C135.236 50.0407 135.279 50.2208 135.345 50.5196C135.379 50.6665 135.421 50.8467 135.469 51.0459C135.497 51.2497 135.53 51.4726 135.564 51.7097C135.592 51.9467 135.644 52.1933 135.658 52.4493C135.673 52.7054 135.687 52.9662 135.701 53.2222C135.748 53.7343 135.701 54.2369 135.701 54.6494C135.696 55.0808 135.677 55.3464 135.654 55.4839C135.592 56.0434 135.62 56.3658 135.682 56.8542C135.853 56.399 135.952 56.0813 136.019 55.5123C136.042 55.3701 136.061 55.0998 136.071 54.6636C136.076 54.2416 136.123 53.7295 136.071 53.2032C136.057 52.9424 136.042 52.6722 136.028 52.4114C136.014 52.1506 135.962 51.8946 135.929 51.6528C135.895 51.4109 135.857 51.1834 135.829 50.9747C135.782 50.7709 135.739 50.5859 135.706 50.4342C135.635 50.126 135.592 49.9411 135.592 49.9411C135.592 49.9411 135.582 49.8842 135.554 49.7846C135.521 49.6851 135.478 49.5428 135.421 49.3674C135.364 49.1919 135.298 48.9833 135.222 48.7557C135.127 48.5329 135.028 48.2863 134.919 48.0303C134.478 47.0061 133.762 45.9014 133.259 45.3134C133.055 45.0526 132.937 44.9436 132.87 44.8677C132.477 44.4457 132.183 44.2608 131.732 44.0664H131.737Z" fill="#F8AA39"/>
</g>
<g style="mix-blend-mode:multiply" opacity="0.5">
<path d="M107.556 54.7594C107.556 55.2715 107.139 55.6887 106.627 55.6887C106.115 55.6887 105.697 55.2715 105.697 54.7594C105.697 54.2473 106.115 53.8301 106.627 53.8301C107.139 53.8301 107.556 54.2473 107.556 54.7594Z" fill="#F79E1C"/>
</g>
<g style="mix-blend-mode:multiply" opacity="0.5">
<path d="M107.556 63.1286C107.556 63.6406 107.139 64.0579 106.627 64.0579C106.115 64.0579 105.697 63.6406 105.697 63.1286C105.697 62.6165 106.115 62.1992 106.627 62.1992C107.139 62.1992 107.556 62.6165 107.556 63.1286Z" fill="#F79E1C"/>
</g>
<g style="mix-blend-mode:multiply" opacity="0.5">
<path d="M107.556 71.0328C107.556 71.5449 107.139 71.9622 106.627 71.9622C106.115 71.9622 105.697 71.5449 105.697 71.0328C105.697 70.5208 106.115 70.1035 106.627 70.1035C107.139 70.1035 107.556 70.5208 107.556 71.0328Z" fill="#F79E1C"/>
</g>
<g style="mix-blend-mode:multiply" opacity="0.5">
<path d="M107.556 77.775C107.556 78.2871 107.139 78.7044 106.627 78.7044C106.115 78.7044 105.697 78.2871 105.697 77.775C105.697 77.2629 106.115 76.8457 106.627 76.8457C107.139 76.8457 107.556 77.2629 107.556 77.775Z" fill="#F79E1C"/>
</g>
<g style="mix-blend-mode:multiply" opacity="0.5">
<path d="M107.556 84.5172C107.556 85.0293 107.139 85.4466 106.627 85.4466C106.115 85.4466 105.697 85.0293 105.697 84.5172C105.697 84.0051 106.115 83.5879 106.627 83.5879C107.139 83.5879 107.556 84.0051 107.556 84.5172Z" fill="#F79E1C"/>
</g>
<g style="mix-blend-mode:multiply" opacity="0.5">
<path d="M107.556 92.6539C107.556 93.166 107.139 93.5833 106.627 93.5833C106.115 93.5833 105.697 93.166 105.697 92.6539C105.697 92.1419 106.115 91.7246 106.627 91.7246C107.139 91.7246 107.556 92.1419 107.556 92.6539Z" fill="#F79E1C"/>
</g>
<g style="mix-blend-mode:multiply" opacity="0.5">
<path d="M92.5392 60.786C92.1978 61.4782 90.875 61.3265 87.6792 59.2355C85.4223 57.7609 83.0895 57.2583 83.7722 56.4855C84.2843 55.907 86.3469 56.1962 88.7697 57.3816C91.1926 58.567 92.8759 60.0937 92.5392 60.786Z" fill="#F79E1C"/>
</g>
<g style="mix-blend-mode:multiply" opacity="0.5">
<path d="M92.2119 101.717C92.2119 101.717 93.9188 99.1616 100.581 101.02C107.242 102.879 112.671 104.586 118.247 101.793C123.828 99.0051 131.267 98.6922 132.661 100.319C132.661 100.319 129.717 105.354 113.444 104.889C113.444 104.889 97.6362 105.819 92.2119 101.713V101.717Z" fill="#F79E1C"/>
</g>
<g style="mix-blend-mode:multiply" opacity="0.5">
<path d="M91.1317 58.8652C91.2455 58.3911 91.3071 58.0686 91.3071 57.4997C91.2977 55.8117 91.236 47.3529 91.236 47.3529C91.236 47.3529 91.1791 39.354 91.1696 37.7562C91.1649 37.1872 91.0985 36.8648 90.9752 36.3906C90.8614 36.8648 90.7998 37.1872 90.7998 37.7562C90.8093 39.354 90.8662 47.3529 90.8662 47.3529C90.8662 47.3529 90.9231 55.8117 90.9373 57.4997C90.942 58.0686 91.0084 58.3911 91.1317 58.8652Z" fill="#F8AA39"/>
</g>
<path d="M95.037 127.638C95.037 127.638 97.5405 120.863 102.4 118.506C107.26 116.15 108.735 121.896 107.701 125.429C106.673 128.966 99.0103 133.679 95.0322 127.638H95.037Z" fill="#19AF59"/>
<path d="M90.9122 137.805C90.9881 137.321 91.0592 137.008 91.0876 136.453C91.0876 136.377 91.1066 136.264 91.1161 136.126C91.1208 136.055 91.1303 135.979 91.1398 135.899C91.1493 135.747 91.1777 135.557 91.2109 135.372C91.3057 134.623 91.5476 133.76 91.8321 132.954C92.1355 132.157 92.5148 131.432 92.8183 130.92C93.1502 130.422 93.3683 130.1 93.3683 130.1C93.3683 130.1 93.3967 130.048 93.4631 129.967C93.5295 129.886 93.6291 129.768 93.7523 129.626C93.8756 129.479 94.0179 129.308 94.1838 129.113C94.3403 128.914 94.5631 128.739 94.7718 128.53C95.5968 127.682 96.8201 126.899 97.7115 126.397C98.0718 126.164 98.3326 126.084 98.4559 126.017C98.968 125.78 99.2287 125.591 99.6175 125.287C99.1434 125.372 98.8162 125.448 98.2947 125.685C98.1714 125.752 97.9059 125.832 97.536 126.069C96.6209 126.582 95.3692 127.388 94.5205 128.265C94.3071 128.478 94.0795 128.658 93.9183 128.862C93.7523 129.061 93.6006 129.241 93.4773 129.388C93.3541 129.54 93.2497 129.659 93.1834 129.739C93.117 129.825 93.0838 129.877 93.0838 129.877C93.0838 129.877 92.8609 130.209 92.5148 130.726C92.1971 131.257 91.8083 132.001 91.4954 132.826C91.2014 133.656 90.9549 134.542 90.8553 135.315C90.8269 135.505 90.7937 135.699 90.7842 135.856C90.7747 135.941 90.77 136.022 90.7605 136.093C90.7462 136.24 90.732 136.354 90.732 136.434C90.7131 137.013 90.77 137.345 90.9264 137.809L90.9122 137.805Z" fill="#F8AA39"/>
<path d="M89.5897 127.928C89.5897 127.928 85.3176 123.215 88.4091 116.439C91.5005 109.664 97.5411 109.517 99.0157 111.432C100.49 113.348 104.023 118.947 89.5897 127.933V127.928Z" fill="#19AF59"/>
<path d="M90.4712 139.268C90.457 138.78 90.4475 138.457 90.3289 137.903C90.3147 137.827 90.291 137.713 90.2673 137.575C90.2531 137.504 90.2388 137.428 90.2246 137.348C90.1772 137.125 90.1345 136.821 90.0871 136.537C89.9069 135.371 89.7647 133.981 89.7505 132.649C89.722 131.98 89.7505 131.331 89.7789 130.729C89.7837 130.127 89.869 129.577 89.9117 129.112C89.9354 128.88 89.9591 128.666 89.9781 128.476C90.0113 128.292 90.0397 128.13 90.0634 127.998C90.1108 127.732 90.1345 127.585 90.1345 127.585C90.1345 127.585 90.163 127.438 90.2057 127.173C90.2294 127.04 90.2578 126.879 90.291 126.694C90.3384 126.514 90.3906 126.305 90.4522 126.077C90.5091 125.85 90.5755 125.603 90.6419 125.342C90.7083 125.082 90.7746 124.797 90.8884 124.517C90.988 124.233 91.0971 123.939 91.2014 123.64C91.3152 123.341 91.4005 123.024 91.557 122.725C91.851 122.128 92.107 121.497 92.4341 120.923C92.7755 120.364 93.1027 119.819 93.4062 119.321C93.6337 119.027 93.8187 118.78 93.9087 118.662C94.2501 118.211 94.3924 117.922 94.5915 117.467C94.2122 117.766 93.9656 117.988 93.6148 118.439C93.5199 118.562 93.3303 118.809 93.1027 119.107C92.7945 119.615 92.4579 120.169 92.1117 120.743C91.7751 121.326 91.519 121.971 91.2156 122.578C91.0591 122.877 90.969 123.204 90.8505 123.507C90.7414 123.816 90.6324 124.114 90.5328 124.404C90.419 124.688 90.3526 124.973 90.2815 125.243C90.2104 125.508 90.1488 125.76 90.0871 125.992C90.0255 126.224 89.9733 126.433 89.9259 126.618C89.8927 126.807 89.8643 126.969 89.8406 127.106C89.7931 127.376 89.7647 127.528 89.7647 127.528C89.7647 127.528 89.7363 127.68 89.6888 127.95C89.6651 128.083 89.6367 128.249 89.6035 128.439C89.5845 128.628 89.5608 128.846 89.5371 129.083C89.4944 129.558 89.4091 130.112 89.3996 130.724C89.3712 131.336 89.3427 131.995 89.3712 132.668C89.3806 134.019 89.5276 135.427 89.7078 136.608C89.7552 136.897 89.7979 137.206 89.8453 137.428C89.8595 137.514 89.8785 137.59 89.8927 137.661C89.9212 137.803 89.9449 137.917 89.9591 137.993C90.0824 138.552 90.2199 138.856 90.4617 139.282L90.4712 139.268Z" fill="#F8AA39"/>
<path d="M86.4935 129.112C86.4935 129.112 81.3396 128.818 78.3904 122.189C75.4459 115.561 78.3904 112.763 80.4529 112.318C82.5154 111.877 88.1151 114.38 86.4935 129.112Z" fill="#19AF59"/>
<path d="M81.0455 117.031C80.908 117.501 80.8653 117.842 80.927 118.416C80.9365 118.492 80.9554 118.61 80.9744 118.752C80.9839 118.824 80.9934 118.904 81.0123 118.989C81.055 119.222 81.1166 119.539 81.1925 119.829C81.4817 121.024 82.027 122.384 82.7193 123.589C83.4163 124.798 84.2413 125.817 84.7439 126.628C84.9999 127.036 85.2133 127.368 85.3603 127.6C85.4978 127.837 85.5784 127.97 85.5784 127.97C85.5784 127.97 85.9008 128.501 86.3512 129.345C86.7922 130.194 87.3564 131.369 87.8021 132.654C88.2526 133.925 88.5608 135.343 88.5845 136.509C88.5845 136.879 88.5987 137.178 88.575 137.329C88.5465 137.884 88.537 138.197 88.556 138.69C88.7646 138.254 88.9069 137.936 88.9448 137.353C88.9685 137.197 88.9638 136.884 88.959 136.5C88.9353 135.286 88.6129 133.835 88.1577 132.536C87.7073 131.227 87.1336 130.037 86.6831 129.174C86.2232 128.316 85.9008 127.78 85.9008 127.78C85.9008 127.78 85.8202 127.647 85.6827 127.406C85.5357 127.169 85.3223 126.832 85.0615 126.424C84.5495 125.594 83.7197 124.57 83.0464 123.404C82.3684 122.228 81.8421 120.905 81.5576 119.743C81.4865 119.464 81.4248 119.155 81.3822 118.928C81.3632 118.847 81.3585 118.771 81.3442 118.7C81.3253 118.563 81.3063 118.449 81.2968 118.373C81.2304 117.818 81.1451 117.51 81.0455 117.036V117.031Z" fill="#F8AA39"/>
<path d="M93.387 150.005C93.387 150.55 91.8318 150.986 89.4279 150.986C87.0239 150.986 85.0752 150.545 85.0752 150.005C85.0752 149.464 87.0239 149.023 89.4279 149.023C91.8318 149.023 93.387 149.464 93.387 150.005Z" fill="#9966FF"/>
<g style="mix-blend-mode:multiply">
<path d="M89.5141 132.937C92.8895 132.937 95.6259 132.377 95.6259 131.685C95.6259 130.994 92.8895 130.434 89.5141 130.434C86.1387 130.434 83.4023 130.994 83.4023 131.685C83.4023 132.377 86.1387 132.937 89.5141 132.937Z" fill="#9966FF"/>
</g>
<path d="M83.4019 131.684C83.4019 131.684 82.814 133.969 81.4863 137.354C80.1587 140.745 77.8022 147.52 86.7873 150.318H92.8279C92.8279 150.318 98.4276 147.373 98.4276 142.067C98.4276 136.762 96.0711 136.766 95.6302 131.684C95.6302 131.684 95.1513 132.935 89.7934 132.935C83.7148 132.935 83.4019 131.684 83.4019 131.684Z" fill="#9966FF"/>
<g style="mix-blend-mode:multiply">
<path d="M85.3164 149.678C85.8048 149.63 86.1225 149.611 86.6677 149.502C86.7578 149.479 86.9143 149.46 87.2272 149.407C87.5354 149.365 88.0617 149.308 88.5122 149.298C88.9626 149.279 89.3324 149.298 89.3324 149.298C89.3324 149.298 89.6406 149.303 90.0389 149.346C90.2381 149.36 90.4514 149.393 90.6648 149.426C90.8734 149.455 91.0773 149.488 91.248 149.531C91.6652 149.616 91.9213 149.687 92.054 149.73C92.5946 149.872 92.9028 149.948 93.3959 150C92.9976 149.725 92.7131 149.531 92.1583 149.374C92.0208 149.327 91.7601 149.256 91.3286 149.166C91.1579 149.123 90.9445 149.085 90.7264 149.057C90.5083 149.023 90.2855 148.985 90.0816 148.976C89.6738 148.933 89.3561 148.929 89.3561 148.929C89.3561 148.929 88.9721 148.905 88.5122 148.929C88.0475 148.938 87.507 149 87.1893 149.042C86.8621 149.099 86.7057 149.118 86.6108 149.142C86.0466 149.26 85.7384 149.407 85.3306 149.678H85.3164Z" fill="#A679FF"/>
</g>
<path d="M57.8508 21.7499C57.59 32.9209 48.1687 42.6219 37.178 43.9068C25.8127 45.2297 14.8599 36.4912 12.5223 25.5052C8.36881 6.00351 32.2563 -6.34803 47.7373 3.41467C54.949 7.96174 58.012 14.8938 57.8556 21.7499H57.8508Z" fill="#9966FF"/>
<g style="mix-blend-mode:multiply">
<path d="M49.1512 20.1333C49.1512 29.5451 39.8721 34.6422 31.309 32.8879C21.2571 30.8301 17.1462 18.91 24.3058 11.1435C28.9667 6.08907 37.0177 4.87999 42.8166 8.66843C46.6477 11.1719 49.1464 15.5388 49.1464 20.1286L49.1512 20.1333Z" fill="#9966FF"/>
</g>
<path d="M46.4864 17.3252C46.3774 21.1279 43.2622 24.4374 39.5544 25.8362C32.9922 28.316 23.6562 24.5133 23.6562 17.3252C23.6562 8.73369 36.5104 5.33879 42.8924 10.4406C45.486 12.5174 46.5528 14.964 46.4864 17.3205V17.3252Z" fill="#9966FF"/>
<path d="M28.392 32.5859C27.9226 32.7282 27.6144 32.8467 27.1355 33.1644C27.0691 33.2071 26.9743 33.2734 26.8558 33.3541C26.7989 33.3967 26.7325 33.4394 26.6614 33.4868C26.5049 33.6006 26.3342 33.7239 26.1588 33.8519C25.4523 34.383 24.6368 35.0468 23.9635 35.8054C23.6316 36.1847 23.3329 36.5925 23.1337 37.024C22.9298 37.4507 22.8492 37.9248 22.9488 38.3136C23.0389 38.7072 23.2617 38.9632 23.4135 39.1149C23.4941 39.1908 23.5557 39.2477 23.5984 39.2856C23.6458 39.3188 23.6743 39.3378 23.6743 39.3378C23.6837 39.3283 23.7643 39.4326 23.9872 39.5085C24.1958 39.6033 24.5751 39.6507 24.9402 39.4753C25.6704 39.1339 26.2299 38.2947 26.7088 37.4222C27.1877 36.5403 27.5812 35.5588 27.8799 34.748C28.0032 34.3924 28.1075 34.0985 28.1597 33.9515C28.3399 33.4062 28.3731 33.0791 28.392 32.5907C28.1455 33.0127 27.989 33.2972 27.8088 33.8329C27.7567 33.9752 27.6571 34.2644 27.5291 34.62C27.2351 35.4213 26.8416 36.3886 26.3769 37.2468C25.9217 38.0955 25.348 38.8874 24.7838 39.1387C24.504 39.2714 24.2669 39.2335 24.1152 39.1671C23.9587 39.1149 23.8876 39.0296 23.8829 39.0391C23.8829 39.0391 23.8639 39.0249 23.826 39.0012C23.7928 38.968 23.7406 38.9205 23.6695 38.8589C23.5415 38.7356 23.3708 38.5317 23.3044 38.2378C23.129 37.6356 23.6031 36.7679 24.2432 36.0567C24.8833 35.3313 25.6846 34.6769 26.3816 34.1554C26.5523 34.0321 26.7183 33.9088 26.8747 33.7998C26.9411 33.7523 27.0075 33.7097 27.0644 33.667C27.1829 33.5864 27.2778 33.52 27.3394 33.4773C27.8088 33.1597 28.0411 32.9368 28.392 32.5954V32.5859Z" fill="#F9F7F4"/>
<path d="M28.3545 32.5527C28.217 33.0221 28.1459 33.3493 28.1506 33.9183C28.1506 33.9941 28.1506 34.1127 28.1554 34.2549C28.1554 34.326 28.1554 34.4066 28.1601 34.492C28.1696 34.6864 28.1791 34.895 28.1885 35.1084C28.2454 35.9903 28.3498 37.0382 28.62 38.0149C28.7575 38.5033 28.933 38.9727 29.1843 39.3805C29.4261 39.7835 29.7817 40.1154 30.161 40.2434C30.5403 40.3856 30.877 40.3382 31.0856 40.2956C31.1899 40.2671 31.2752 40.2481 31.3321 40.2339C31.389 40.2102 31.4175 40.2007 31.4175 40.2007C31.4175 40.1912 31.5455 40.177 31.7304 40.0348C31.9201 39.9115 32.1714 39.6175 32.2235 39.2192C32.3373 38.4227 31.9438 37.4933 31.4744 36.6114C31.0002 35.7295 30.3981 34.8618 29.8813 34.1648C29.6537 33.8661 29.464 33.6196 29.3692 33.4963C29.0136 33.0506 28.7575 32.8372 28.3592 32.5575C28.5773 32.9937 28.7338 33.2829 29.0799 33.7286C29.1748 33.8519 29.3597 34.0937 29.5825 34.3924C30.0899 35.0799 30.6873 35.9381 31.1472 36.7916C31.6071 37.6403 31.9533 38.5507 31.8584 39.1623C31.8158 39.4658 31.6546 39.646 31.5171 39.7361C31.389 39.8404 31.2752 39.8499 31.2847 39.8593C31.2847 39.8593 31.261 39.8688 31.2183 39.8878C31.1709 39.8973 31.1046 39.9162 31.0145 39.94C30.839 39.9779 30.5782 40.0111 30.2938 39.902C29.6963 39.7218 29.2269 38.8447 28.9851 37.9248C28.7291 36.9908 28.62 35.9619 28.5679 35.0942C28.5584 34.8808 28.5489 34.6769 28.5394 34.4873C28.5394 34.4019 28.5347 34.326 28.5347 34.2549C28.5347 34.1127 28.5299 33.9989 28.5299 33.923C28.5204 33.3588 28.4636 33.0411 28.364 32.5622L28.3545 32.5527Z" fill="#F9F7F4"/>
<path d="M28.3551 32.5527C28.1465 32.9937 28.0184 33.2971 27.8999 33.8519C27.6391 35.1321 26.3305 41.5426 26.3305 41.5426C26.3305 41.5426 25.0835 47.6638 24.8322 48.8871C24.7231 49.4466 24.7184 49.7738 24.7421 50.2621C24.9507 49.8212 25.0787 49.5177 25.1973 48.963C25.4486 47.7397 26.6956 41.6184 26.6956 41.6184C26.6956 41.6184 28.0042 35.208 28.265 33.9278C28.374 33.3683 28.3788 33.0411 28.3551 32.5527Z" fill="#F9F7F4"/>
<path d="M28.3921 32.5859C28.2451 33.0506 28.1598 33.3683 28.1218 33.9373C28.0602 34.9472 27.7425 39.9874 27.7425 39.9874C27.7425 39.9874 27.5386 43.2068 27.4296 44.9944C27.4011 45.4258 27.3869 45.6961 27.3774 45.8384C27.3442 46.4073 27.3869 46.7298 27.477 47.2134C27.624 46.7487 27.7093 46.431 27.7473 45.8621C27.7567 45.7198 27.7757 45.4543 27.7994 45.0181C27.9085 43.2305 28.1123 40.0111 28.1123 40.0111C28.1123 40.0111 28.43 34.9662 28.4917 33.961C28.5249 33.392 28.4822 33.0696 28.3921 32.5859Z" fill="#F9F7F4"/>
<path d="M49.1502 20.1337C49.0032 20.6079 48.9179 20.9208 48.88 21.4803C48.8752 21.5562 48.8657 21.67 48.861 21.8122C48.8515 21.8833 48.8326 21.9592 48.8183 22.0398C48.7709 22.2863 48.7235 22.5376 48.6713 22.7937C48.605 23.0829 48.5813 23.3864 48.4675 23.6709C48.2636 24.2446 48.1213 24.861 47.8037 25.4205C47.6614 25.7097 47.5286 26.0037 47.3769 26.2929C47.1967 26.5679 47.0166 26.8429 46.8364 27.1227C46.7416 27.2602 46.6562 27.4071 46.5566 27.5399L46.2295 27.9287C46.0066 28.1847 45.798 28.455 45.5609 28.7063C44.5842 29.6783 43.4462 30.546 42.1755 31.2288C39.6199 32.5564 36.6138 33.206 33.7167 33.0068C32.2706 32.9262 30.8387 32.6749 29.5253 32.2103C28.2071 31.7408 27.0028 31.0818 25.9597 30.2947C23.8545 28.7205 22.4984 26.6295 21.7635 24.7377C21.3889 23.7894 21.1708 22.879 21.0475 22.0682C20.9717 21.6652 20.9574 21.2812 20.9195 20.9303C20.91 20.5794 20.891 20.2523 20.8958 19.963C20.91 19.6738 20.9148 19.413 20.929 19.1854C20.9527 18.9626 20.9717 18.7682 20.9906 18.6164C21.0048 18.46 21.0191 18.3462 21.038 18.2656C21.0523 18.185 21.057 18.147 21.057 18.147C21.057 18.147 21.0854 17.9858 21.1376 17.6776C21.1613 17.5259 21.2135 17.341 21.2656 17.1181C21.313 16.8953 21.3794 16.644 21.4743 16.369C21.5169 16.2315 21.5643 16.0845 21.6118 15.928C21.6687 15.7763 21.7303 15.6198 21.7967 15.4539C21.9152 15.122 22.0906 14.7806 22.2661 14.406C22.6454 13.6806 23.1243 12.8793 23.7644 12.078C24.0915 11.6892 24.4282 11.2719 24.836 10.8926C25.0351 10.7029 25.2248 10.4943 25.4429 10.3046C25.6657 10.1245 25.8886 9.93481 26.1162 9.74989C27.0597 9.03867 28.1171 8.34642 29.3356 7.84856C30.5399 7.34122 31.8628 6.96191 33.2473 6.76751C34.6318 6.58259 36.0827 6.60155 37.5099 6.83389C38.9371 7.06622 40.3501 7.5214 41.6492 8.19469C42.9389 8.8822 44.1195 9.7736 45.1152 10.812C46.1252 11.8409 46.9312 13.031 47.5571 14.259C47.723 14.5625 47.8416 14.8849 47.9838 15.1931C48.1024 15.5108 48.2304 15.8237 48.33 16.1414C48.4248 16.4638 48.5338 16.7768 48.6002 17.0944C48.6382 17.2556 48.6761 17.4121 48.714 17.5686C48.733 17.6492 48.7425 17.7298 48.7567 17.8057L48.7851 17.9621C48.8515 18.3272 48.8894 18.6259 48.8989 18.7777C48.9701 19.3324 49.0222 19.6453 49.1645 20.1195C49.264 19.6453 49.3351 19.3087 49.2688 18.735C49.2593 18.5785 49.2214 18.2703 49.1502 17.8957L49.1218 17.7345C49.1076 17.6539 49.0981 17.5686 49.0791 17.488C49.0412 17.3268 49.0032 17.1608 48.9653 16.9996C48.8989 16.6677 48.7851 16.3453 48.6903 16.0181C48.586 15.691 48.458 15.3685 48.3347 15.0414C48.1877 14.7237 48.0597 14.3965 47.8937 14.0836C47.2536 12.8224 46.4239 11.5991 45.3902 10.5417C44.3661 9.47489 43.157 8.55978 41.8294 7.8533C40.4923 7.16105 39.0462 6.69164 37.581 6.45457C36.1159 6.21749 34.6318 6.19379 33.2094 6.38819C31.787 6.58733 30.4356 6.97613 29.1981 7.49769C27.9511 8.00503 26.8653 8.71625 25.898 9.44644C25.6657 9.64084 25.4334 9.8305 25.2058 10.0154C24.9829 10.2051 24.7885 10.4232 24.5799 10.6176C24.1627 11.0064 23.8165 11.4331 23.4846 11.8314C22.8303 12.6517 22.3372 13.4767 21.9484 14.2211C21.7682 14.6052 21.588 14.956 21.4695 15.2974C21.4031 15.4681 21.3415 15.6293 21.2798 15.7858C21.2277 15.9423 21.1803 16.094 21.1376 16.241C21.0428 16.5255 20.9717 16.7862 20.9242 17.0138C20.8721 17.2414 20.8152 17.4311 20.7915 17.5875C20.7393 17.9005 20.7061 18.0712 20.7061 18.0712C20.7061 18.0712 20.6966 18.1139 20.6872 18.1945C20.6729 18.2751 20.654 18.3983 20.6397 18.5548C20.6255 18.716 20.6018 18.9104 20.5781 19.1428C20.5639 19.3751 20.5591 19.6406 20.5449 19.9441C20.5449 20.2428 20.5544 20.5794 20.5686 20.9398C20.6066 21.3001 20.6255 21.6984 20.7014 22.1109C20.8247 22.9454 21.0523 23.8795 21.4363 24.8562C22.1902 26.805 23.5889 28.9576 25.7558 30.5744C26.8274 31.3852 28.0696 32.0633 29.421 32.5469C30.777 33.021 32.2374 33.2818 33.7167 33.3624C36.6802 33.5663 39.7526 32.9072 42.3747 31.5417C43.6786 30.8447 44.8497 29.9533 45.8549 28.9481C46.1015 28.6921 46.3148 28.4123 46.5472 28.1468L46.8838 27.7485C46.9881 27.611 47.0735 27.4593 47.173 27.3171C47.3627 27.0278 47.5476 26.7433 47.7325 26.4588C47.889 26.1601 48.0265 25.8567 48.1735 25.558C48.4959 24.9795 48.6429 24.3441 48.8563 23.7515C48.9748 23.4575 48.9985 23.1446 49.0649 22.8506C49.117 22.5898 49.1645 22.329 49.2119 22.0777C49.2261 21.9924 49.2451 21.9165 49.2545 21.8454C49.264 21.6984 49.2688 21.5846 49.2735 21.504C49.3067 20.9303 49.264 20.5984 49.1739 20.1242L49.1502 20.1337Z" fill="#F9F7F4"/>
</svg>
