<svg width="360" height="107" viewBox="0 0 360 107" fill="none" xmlns="http://www.w3.org/2000/svg">
<path style="mix-blend-mode:screen" d="M213.17 62.49C211.33 62.21 209.62 62.12 208.29 62.2C208.08 61.06 206.66 60.1 204.85 59.96C203.02 59.82 201.45 60.59 201.1 61.71C200.36 60.93 199.32 60.43 198.16 60.43C197.1 60.43 196.14 60.85 195.42 61.52C194.57 60.33 193.23 59.53 191.69 59.4C191.2 57.95 189.85 56.91 188.24 56.91C187.68 56.91 187.16 57.05 186.68 57.27C185.51 55.2 183.29 53.79 180.74 53.79C179.02 53.79 177.45 54.43 176.25 55.48C174.62 54.25 172.61 53.51 170.41 53.51C169.01 53.51 167.69 53.81 166.49 54.35C166.06 50.99 163.2 48.4 159.73 48.4C159.23 48.4 158.75 48.45 158.28 48.56C158.28 48.51 158.28 48.46 158.28 48.4C158.28 44.63 155.23 41.58 151.46 41.58C150.95 41.58 150.46 41.64 149.98 41.74C148.12 34.87 141.86 29.81 134.39 29.81C130.87 29.81 127.63 30.94 124.98 32.85C124.34 26.9 119.31 22.27 113.2 22.27C109.75 22.27 106.65 23.76 104.48 26.11C103.51 15.3 94.45 6.83 83.39 6.83C78.3 6.83 73.64 8.63 69.98 11.61C64.97 4.59 56.75 0 47.46 0C34.11 0 22.96 9.46 20.37 22.05C18.48 21.5 16.48 21.2 14.41 21.2C7.24 21.2 0.91 24.71 -3 30.09V77.23C-2.94 77.23 -2.89 77.23 -2.83 77.23C2.97 77.23 7.87 73.41 9.51 68.16C11.36 73.04 16.06 76.52 21.59 76.52C26.52 76.52 30.8 73.76 32.98 69.71C36.76 75.94 43.58 80.12 51.4 80.12C57.42 80.12 62.85 77.65 66.76 73.67C69.17 77.54 73.45 80.12 78.34 80.12C82.42 80.12 86.06 78.33 88.56 75.5C92.66 79.05 98 81.2 103.84 81.2C110.89 81.2 117.2 78.07 121.48 73.13C124.13 75.25 127.48 76.53 131.13 76.53C136.25 76.53 140.78 74.03 143.59 70.19C145.74 72.33 148.69 73.66 151.97 73.66C156.2 73.66 159.9 71.44 162 68.11C163.68 71 166.8 72.94 170.38 72.94C173.19 72.94 175.72 71.74 177.49 69.82C178.63 70.7 180.05 71.23 181.61 71.23C184.09 71.23 186.25 69.89 187.42 67.89C188.36 68.94 189.71 69.61 191.22 69.61C192.95 69.61 194.46 68.75 195.39 67.44C196.11 68.11 197.07 68.53 198.13 68.53C199.35 68.53 200.43 67.98 201.17 67.13C201.74 67.63 202.48 67.94 203.3 67.94C204.31 67.94 205.19 67.47 205.79 66.75C206.64 67.22 208.08 67.5 209.71 67.45C211.53 67.39 213.08 66.92 213.82 66.29C217.29 66.68 220.03 66.34 220.17 65.45C220.32 64.45 217.18 63.14 213.15 62.51L213.17 62.49Z" fill="url(#paint0_linear_1566_1828)"/>
<path style="mix-blend-mode:screen" d="M430.64 85.4484C428.26 85.1984 425.71 85.0684 423.18 85.0484C423.07 83.7084 422.32 82.4484 421.05 81.7584C419.06 80.6884 416.58 81.4284 415.51 83.4184C415.03 76.5484 395.97 72.5784 392.7 79.0184C392.37 76.5484 390.92 74.2584 388.56 72.9784C384.64 70.8684 379.76 72.3284 377.64 76.2384C377.58 76.3384 377.56 76.4584 377.51 76.5584C376.32 76.2784 375.11 76.0984 373.89 75.9984C374.28 73.7684 373.26 71.4384 371.15 70.2984C368.64 68.9484 365.54 69.7984 364.03 72.1684C363.2 71.4884 362.29 70.8684 361.31 70.3384C358.87 69.0184 356.26 68.3784 353.67 68.2984C352.27 64.5284 349.56 61.2284 345.74 59.1684C339.05 55.5584 331.04 56.8484 325.79 61.7984C325.77 58.5284 324.06 55.3584 320.97 53.6884C317.99 52.0784 314.53 52.3084 311.82 53.9284C311.12 49.5184 308.46 45.4784 304.23 43.1884C298.71 40.2084 292.13 41.0984 287.61 44.9184C286.35 42.3684 284.32 40.1584 281.62 38.7084C274.7 34.9784 266.05 37.5584 262.31 44.4784C262.15 44.7684 262.03 45.0584 261.89 45.3584C260.66 44.1784 259.26 43.1284 257.69 42.2784C248.2 37.1584 236.34 40.6984 231.22 50.1884C230.29 51.9184 229.65 53.7184 229.28 55.5484C224.03 55.4784 218.93 58.2384 216.26 63.1784C215.51 64.5684 215.02 66.0284 214.75 67.5084C211.66 66.8484 208.47 67.7784 206.21 69.9784C205.61 69.4884 204.96 69.0384 204.26 68.6584C198.48 65.5384 191.31 67.5484 187.95 73.1084C187.77 72.9684 187.58 72.8284 187.37 72.7184C185.19 71.5384 182.47 72.3584 181.29 74.5384C180.79 75.4784 180.67 76.5084 180.85 77.4784C180.27 77.6184 179.71 77.7984 179.16 78.0284C178.77 77.1784 178.12 76.4384 177.23 75.9584C175.05 74.7884 172.33 75.5984 171.16 77.7784C170.69 78.6484 170.55 79.6084 170.68 80.5184C169.93 80.6884 169.21 80.9284 168.53 81.2684C166.64 80.8684 164.63 81.7184 163.67 83.5084C163.57 83.6984 163.5 83.8884 163.43 84.0884C162.87 83.9684 162.29 83.8784 161.67 83.8784C159.49 83.8784 157.61 84.7084 156.57 85.9384C156.41 85.9384 156.25 85.9384 156.09 85.9384C149.96 85.9384 145 86.8884 145 88.0684C145 89.2484 149.96 90.1984 156.09 90.1984C156.25 90.1984 156.41 90.1984 156.57 90.1984C157.61 91.4284 159.49 92.2584 161.67 92.2584C162.9 92.2584 164.05 91.9984 164.99 91.5484C165.76 92.9384 166.98 94.1384 168.62 94.9284C171.03 96.0984 173.77 96.0984 176.11 95.2084C176.76 95.8184 177.49 96.3684 178.31 96.8084C181.55 98.5584 185.31 98.4084 188.31 96.7484C189.07 97.5684 189.98 98.2884 191.02 98.8484C195.77 101.418 201.62 99.9584 204.66 95.6584C205.46 98.0284 207.12 100.108 209.49 101.388C214.4 104.038 220.5 102.268 223.25 97.4484C224.92 99.7284 227.08 101.698 229.74 103.128C238.1 107.648 248.27 105.438 254.09 98.3684C255.21 100.298 256.84 101.958 258.95 103.088C265.02 106.368 272.6 104.098 275.87 98.0284C275.92 97.9384 275.95 97.8484 276 97.7584C276.82 100.238 278.54 102.418 281.01 103.758C286.15 106.538 292.57 104.618 295.34 99.4784C295.53 99.1284 295.69 98.7684 295.84 98.4184C297.39 100.778 299.53 102.798 302.2 104.238C310.4 108.668 320.54 105.908 325.45 98.1484C326.48 99.7684 327.92 101.168 329.73 102.148C334.49 104.718 340.23 103.608 343.74 99.8284C344.15 100.098 344.57 100.358 345 100.598C351.64 104.188 359.59 102.938 364.84 98.0784C371.47 100.128 379.15 99.0984 384.12 95.7384C387.46 96.3084 390.98 96.3384 394.23 95.8784C394.86 96.6084 395.61 97.2484 396.5 97.7384C400.42 99.8584 405.3 98.3984 407.42 94.4784C407.44 94.4484 407.45 94.4084 407.46 94.3784C412.13 94.1284 416.45 93.2084 419.2 91.7484C426.39 92.0284 433.96 91.3684 437.62 90.0284C442.13 88.3884 439.01 86.3284 430.66 85.4484H430.64Z" fill="url(#paint1_linear_1566_1828)"/>
<path style="mix-blend-mode:screen" opacity="0.5" d="M322.86 55.75C321.22 55.5 319.7 55.42 318.51 55.49C318.33 54.47 317.06 53.61 315.44 53.49C313.8 53.37 312.4 54.05 312.1 55.05C311.44 54.35 310.52 53.91 309.48 53.91C308.53 53.91 307.68 54.28 307.03 54.88C306.28 53.82 305.08 53.11 303.71 52.99C303.27 51.7 302.07 50.77 300.63 50.77C300.13 50.77 299.66 50.89 299.24 51.09C298.2 49.24 296.22 47.99 293.94 47.99C292.4 47.99 291.01 48.56 289.93 49.5C288.48 48.41 286.68 47.75 284.73 47.75C283.48 47.75 282.3 48.02 281.23 48.49C280.85 45.5 278.3 43.18 275.2 43.18C274.76 43.18 274.32 43.23 273.91 43.32C273.91 43.27 273.91 43.23 273.91 43.18C273.91 39.82 271.19 37.09 267.83 37.09C267.38 37.09 266.94 37.14 266.51 37.24C264.85 31.11 259.27 26.6 252.61 26.6C249.48 26.6 246.58 27.61 244.22 29.31C243.65 24.01 239.17 19.87 233.71 19.87C230.63 19.87 227.87 21.19 225.94 23.29C225.08 13.65 216.99 6.09 207.13 6.09C202.59 6.09 198.43 7.69 195.18 10.35C190.71 4.09 183.39 0 175.1 0C163.19 0 153.26 8.44 150.94 19.66C149.25 19.17 147.47 18.9 145.63 18.9C135.78 18.9 127.67 26.31 126.56 35.86C125.41 35.46 124.18 35.23 122.89 35.23C118.72 35.23 115.09 37.52 113.16 40.9C111.98 40.55 110.73 40.36 109.44 40.36C104.85 40.36 100.82 42.71 98.47 46.28C97.58 45.68 96.5 45.33 95.34 45.33C92.79 45.33 90.64 47.04 89.96 49.37C89.45 49.15 88.89 49.02 88.29 49.02C88.19 49.02 88.1 49.04 88 49.04V60.45C88.25 60.27 88.48 60.07 88.69 59.84C89.72 61.15 91.31 61.99 93.1 61.99C95.04 61.99 96.76 61 97.76 59.5C99.94 63.73 104.34 66.64 109.43 66.64C113.54 66.64 117.2 64.75 119.61 61.8C121.35 65.96 125.46 68.88 130.25 68.88C135.42 68.88 139.8 65.48 141.26 60.79C142.91 65.14 147.1 68.24 152.03 68.24C156.42 68.24 160.24 65.78 162.19 62.16C165.56 67.72 171.64 71.44 178.62 71.44C183.99 71.44 188.83 69.24 192.32 65.69C194.47 69.14 198.28 71.44 202.64 71.44C206.27 71.44 209.53 69.84 211.76 67.32C215.41 70.48 220.17 72.4 225.39 72.4C231.68 72.4 237.31 69.61 241.12 65.21C243.48 67.1 246.47 68.24 249.73 68.24C254.3 68.24 258.33 66.01 260.84 62.59C262.75 64.5 265.39 65.68 268.31 65.68C272.08 65.68 275.38 63.7 277.25 60.73C278.75 63.3 281.53 65.04 284.72 65.04C287.23 65.04 289.48 63.97 291.06 62.26C292.08 63.05 293.35 63.52 294.73 63.52C296.94 63.52 298.87 62.32 299.91 60.55C300.75 61.48 301.95 62.08 303.3 62.08C304.84 62.08 306.19 61.31 307.02 60.15C307.66 60.75 308.52 61.12 309.47 61.12C310.56 61.12 311.52 60.63 312.18 59.87C312.69 60.32 313.35 60.6 314.08 60.6C314.98 60.6 315.77 60.18 316.3 59.54C317.06 59.96 318.34 60.21 319.79 60.16C321.42 60.1 322.8 59.69 323.46 59.12C326.56 59.47 329 59.17 329.12 58.37C329.26 57.48 326.46 56.31 322.86 55.75Z" fill="url(#paint2_linear_1566_1828)"/>
<defs>
<linearGradient id="paint0_linear_1566_1828" x1="108.61" y1="81.17" x2="108.61" y2="-0.0100016" gradientUnits="userSpaceOnUse">
<stop offset="0.22"/>
<stop offset="0.29" stop-color="#0B0C0D"/>
<stop offset="0.41" stop-color="#2B2F2F"/>
<stop offset="0.58" stop-color="#5E6667"/>
<stop offset="0.79" stop-color="#A3B2B3"/>
<stop offset="0.97" stop-color="#E8FDFF"/>
</linearGradient>
<linearGradient id="paint1_linear_1566_1828" x1="292.33" y1="106.378" x2="292.33" y2="37.0384" gradientUnits="userSpaceOnUse">
<stop offset="0.22"/>
<stop offset="0.29" stop-color="#0B0C0D"/>
<stop offset="0.41" stop-color="#2B2F2F"/>
<stop offset="0.58" stop-color="#5E6667"/>
<stop offset="0.79" stop-color="#A3B2B3"/>
<stop offset="0.97" stop-color="#E8FDFF"/>
</linearGradient>
<linearGradient id="paint2_linear_1566_1828" x1="208.57" y1="72.41" x2="208.57" y2="0.0200033" gradientUnits="userSpaceOnUse">
<stop offset="0.22"/>
<stop offset="0.29" stop-color="#0B0C0D"/>
<stop offset="0.41" stop-color="#2B2F2F"/>
<stop offset="0.58" stop-color="#5E6667"/>
<stop offset="0.79" stop-color="#A3B2B3"/>
<stop offset="0.97" stop-color="#E8FDFF"/>
</linearGradient>
</defs>
</svg>
