<svg width="360" height="541" viewBox="0 0 360 541" fill="none" xmlns="http://www.w3.org/2000/svg">
<path d="M78.7978 534.508L88.0234 540.024L110.692 509.352L101.466 503.836L78.7978 534.508Z" fill="#FDA829"/>
<path d="M-3.46802 44.1062L-5.86328 50.5975L11.999 57.716L14.3943 51.2247L-3.46802 44.1062Z" fill="#FF4409"/>
<path d="M227.643 214.74L227.398 221.689L243.585 219.738L243.83 212.789L227.643 214.74Z" fill="#FF2828"/>
<path d="M105.799 182.348L110.955 191.27L120.394 186.27L115.238 177.347L105.799 182.348Z" fill="#F6F5FC"/>
<path d="M-24.1087 468.71L-17.9434 478.857L5.71144 475.617L-0.453859 465.47L-24.1087 468.71Z" fill="#F6F5FC"/>
<path d="M-9.15563 444.387L-12.7988 452.467L10.8014 464.359L14.4446 456.28L-9.15563 444.387Z" fill="#FF2828"/>
<path d="M178.068 85.1668L175.094 95.954L191.95 103.407L194.924 92.6203L178.068 85.1668Z" fill="#FF2828"/>
<path d="M322.237 3.35221L318.834 11.5487L340.433 24.1752L343.836 15.9787L322.237 3.35221Z" fill="#FF4409"/>
<path d="M288.852 438.386L297.182 444.561L305.041 428.777L296.711 422.602L288.852 438.386Z" fill="#FF4409"/>
<path d="M207.639 20.2644L217.314 26.0221L222.995 12.8656L213.319 7.10791L207.639 20.2644Z" fill="#FF4409"/>
<path d="M245.038 106L234 113.458L244.612 129.843L255.65 122.386L245.038 106Z" fill="#FDA829"/>
<path d="M232.87 302.535L222.281 306.116L225.593 317.462L236.182 313.881L232.87 302.535Z" fill="#FF4409"/>
<path d="M306.431 434.431L314.316 436.101L317.867 413.517L309.982 411.848L306.431 434.431Z" fill="#FF4409"/>
<path d="M364.9 107.724L358.406 119.2L377.544 126.036L384.037 114.56L364.9 107.724Z" fill="#FF4409"/>
<path d="M336.334 389.33L336.525 400.305L355.615 402.969L355.424 391.994L336.334 389.33Z" fill="#FF2828"/>
<path d="M119.879 80.3433L110.162 86.8523L122.107 101.595L131.824 95.0859L119.879 80.3433Z" fill="#FF2828"/>
<path d="M109.948 397.181L112.223 404.181L120.967 403.394L118.692 396.394L109.948 397.181Z" fill="#FF2828"/>
<path d="M287.703 67.4921L295.984 77.2733L318.649 56.9492L310.368 47.168L287.703 67.4921Z" fill="#F6F5FC"/>
<path d="M158.368 241.835L146.799 243.105L156.473 278.347L168.042 277.077L158.368 241.835Z" fill="#FF2828"/>
<path d="M94.5883 324.448L101.35 336.415L114.334 330.554L107.572 318.587L94.5883 324.448Z" fill="#FDA829"/>
<path d="M222.055 106.612L230.732 118.103L246.547 114.959L237.87 103.468L222.055 106.612Z" fill="#F6F5FC"/>
<path d="M226.165 37.5329L227.646 48.5514L241.788 49.7784L240.307 38.7599L226.165 37.5329Z" fill="#FF2828"/>
<path d="M32 151.06L41.3223 162.841L70.5443 146.782L61.222 135L32 151.06Z" fill="#FF2828"/>
<path d="M119.9 193.72L118.639 205.72L143.128 210.579L144.389 198.579L119.9 193.72Z" fill="#F6F5FC"/>
<path d="M150.697 135.173L140.77 134.996L148.826 153.271L158.753 153.448L150.697 135.173Z" fill="#FDA829"/>
<path d="M34.9993 14.1896L44.6172 23.9455L58.6112 9.7558L48.9932 -5.3473e-05L34.9993 14.1896Z" fill="#FF2828"/>
<path d="M76 40.5494L87.2422 51.2243L108.059 31.675L96.8172 21L76 40.5494Z" fill="#FF2828"/>
<path d="M134.304 206.901L142.426 215.89L159.325 198.024L151.203 189.035L134.304 206.901Z" fill="#FF4409"/>
<path d="M232 97L233.742 107.209L259.446 108.6L257.704 98.391L232 97Z" fill="#F6F5FC"/>
<path d="M84.4278 84L76 91.2167L85.6433 102.537L94.0711 95.3207L84.4278 84Z" fill="#FF4409"/>
<path d="M292 390.713L300.736 402.896L322.582 393.183L313.846 381L292 390.713Z" fill="#F6F5FC"/>
<path d="M12.7101 256.985L13.2031 266.685L35.3022 277.566L34.8092 267.866L12.7101 256.985Z" fill="#FF2828"/>
<path d="M309.421 160.331L298.973 164.727L309.118 185.725L319.566 181.329L309.421 160.331Z" fill="#FF4409"/>
<path d="M236.575 519.834L243.92 523.195L244.366 505.29L237.021 501.929L236.575 519.834Z" fill="#F6F5FC"/>
<path d="M283.322 321.375L274.865 322.48L281.251 335.48L289.709 334.375L283.322 321.375Z" fill="#FF4409"/>
<path d="M215.731 155.219L217.73 167.582L244.383 176.344L242.383 163.981L215.731 155.219Z" fill="#F6F5FC"/>
<path d="M300.902 205.788L291.068 208.21L305.122 227.935L314.956 225.514L300.902 205.788Z" fill="#FF4409"/>
<path d="M209.081 162.526L198.037 165.189L200.961 192.374L212.005 189.711L209.081 162.526Z" fill="#FDA829"/>
<path d="M126.933 140.781L137.191 142.86L137.02 133.077L126.762 130.998L126.933 140.781Z" fill="#FF4409"/>
<path d="M292.288 281.714L299.057 294.912L320.526 294.522L313.757 281.324L292.288 281.714Z" fill="#FF4409"/>
<path d="M59.161 201.322L63.0039 212.834L98.7244 194.673L94.8815 183.161L59.161 201.322Z" fill="#FF2828"/>
</svg>
