<svg width="95" height="102" viewBox="0 0 95 102" fill="none" xmlns="http://www.w3.org/2000/svg">
<g clip-path="url(#clip0_1546_1920)">
<path d="M82.6623 25.4657C82.8493 24.8604 83.2418 24.3274 83.4942 23.7402C84.0737 22.3942 83.8868 20.8766 83.6531 19.4312C84.5878 19.5757 85.1766 19.386 85.7467 19.1511C86.0365 19.8467 86.5132 20.4791 87.1207 20.9579C88.2517 21.8522 89.7378 22.1865 91.0089 22.8911C91.3361 23.0718 91.6539 23.2795 91.8595 23.5776C92.0651 23.8758 92.1492 24.2823 91.9717 24.6075C91.8034 24.9237 91.4389 25.0863 91.0744 25.1585C90.1958 25.3302 89.2237 25.014 88.6349 24.3636C88.9714 24.9959 89.177 25.7006 89.2237 26.4052C89.2424 26.6581 89.2424 26.9201 89.1303 27.146C88.9059 27.6338 88.2891 27.8416 87.7376 27.8235C86.5786 27.7874 85.5037 26.884 85.3075 25.7728C85.2327 26.2787 84.999 26.7756 84.5784 27.0918C84.1578 27.3989 83.5316 27.4802 83.0923 27.2002C82.5502 26.8478 82.4567 26.089 82.6343 25.4747L82.6623 25.4657ZM91.6071 12.8004C91.6071 13.3063 91.3454 13.8122 90.9342 14.1193C91.4482 13.9116 91.981 13.7038 92.5418 13.7399C92.925 13.767 93.3456 13.9658 93.4391 14.3271C93.4858 14.5078 93.4391 14.6975 93.3737 14.8691C93.1026 15.5376 92.4203 16.0255 91.6819 16.0797C92.0277 16.1881 92.3642 16.3416 92.6259 16.5855C92.8876 16.8295 93.0465 17.1818 92.9998 17.5341C92.9437 17.9225 92.6259 18.2387 92.2521 18.3923C91.8782 18.5459 91.4576 18.5639 91.0557 18.5368C90.0836 18.4646 89.149 18.1574 88.1769 18.0851C87.2422 18.0129 86.2795 18.1664 85.4196 18.5368C85.457 17.5341 85.1018 16.8746 84.6532 16.3055C83.6064 16.6669 82.6063 17.0643 82.0828 17.3986C81.2042 16.2332 79.9051 15.375 78.4563 14.9956C77.9235 14.8601 77.3721 14.7878 76.8861 14.5439C76.4 14.3 75.9794 13.8393 75.9981 13.3153C75.9981 13.0895 76.1009 12.8637 76.2224 12.6649C76.6524 11.9693 77.531 11.5538 78.3722 11.6531C78.0451 11.2557 77.7273 10.7949 77.7273 10.289C77.7273 9.66572 78.232 9.0966 78.8582 8.95206C79.4844 8.80752 80.1761 9.0695 80.5874 9.54828C80.6061 9.04239 80.8023 8.49134 81.2603 8.24743C81.8585 7.92222 82.6063 8.22936 83.1951 8.57264C83.4381 8.71718 83.6905 8.87075 83.8494 9.10563C84.0643 9.41278 84.1017 9.80123 84.1111 10.1716C84.1204 11.2195 83.9241 12.2584 83.9241 13.3063C83.9241 14.3362 84.1204 15.4112 84.784 16.2061C86.6347 15.357 88.046 13.8032 89.177 12.15C89.4574 11.7435 89.8126 11.2737 90.3266 11.2737C90.551 11.2737 90.7659 11.3731 90.9529 11.5086C91.3735 11.8157 91.6352 12.3216 91.6352 12.8275L91.6071 12.8004ZM83.0362 19.9913C81.5314 20.6688 80.2883 21.8703 79.5966 23.3337C79.4471 23.6589 79.3162 23.9932 79.0732 24.2552C78.8863 24.4539 78.6432 24.5985 78.3815 24.6888C78.0077 24.8243 77.5777 24.8514 77.2039 24.7249C76.83 24.5894 76.5028 24.2823 76.4187 23.9029C76.3066 23.406 76.587 22.9091 76.8674 22.4755C76.4468 22.6381 76.0262 22.8098 75.5682 22.8459C75.1195 22.882 74.6335 22.7827 74.3157 22.4665C73.8951 22.0419 73.8951 21.3463 74.1662 20.8224C74.4372 20.2984 74.9419 19.919 75.4467 19.6028C74.9419 19.657 74.4372 19.3499 74.2129 18.9162C73.9886 18.4826 74.0073 17.9406 74.2129 17.498C74.3438 17.2269 74.54 16.974 74.8204 16.8566C75.1476 16.712 75.5401 16.7572 75.8673 16.8927C76.2038 17.0192 76.4935 17.2269 76.8019 17.4076C78.2507 18.2478 80.0733 18.4646 81.6996 17.9858C81.8772 18.7536 82.223 19.4944 83.0269 20.0003L83.0362 19.9913Z" fill="#ED3634"/>
<path d="M87.0834 21.4014C86.588 20.6787 86.0272 19.956 85.2607 19.4952C85.5131 19.0345 85.6627 18.3389 85.5692 17.6614C86.4945 17.5259 87.3451 17.0923 88.1489 16.6316C88.9527 16.1708 89.7472 15.6649 90.6351 15.3759C91.523 15.0868 92.5418 15.0326 93.3643 15.4662C93.8878 15.7372 94.3364 16.2702 94.271 16.8484C94.2429 17.1465 94.0747 17.4175 93.8971 17.6614C93.57 18.1041 93.1307 18.5106 92.5792 18.6009C93.0185 18.7454 93.4578 18.9623 93.7476 19.3236C94.0373 19.685 94.1308 20.2089 93.8878 20.5883C93.7476 20.8142 93.5045 20.9677 93.2522 21.0852C92.626 21.3743 91.8969 21.4646 91.2053 21.3381C91.6072 21.6633 91.9997 22.0247 92.2147 22.4944C92.4297 22.9552 92.4297 23.5423 92.0932 23.9398C91.8595 24.2108 91.495 24.3554 91.1305 24.4006C90.2332 24.518 89.3453 24.0844 88.691 23.4881C88.0367 22.8919 87.5694 22.1331 87.0647 21.4104L87.0834 21.4014ZM82.6156 19.1971C83.2138 19.5765 83.8307 19.6036 84.4476 19.6307C83.9709 20.778 83.9616 22.106 84.4102 23.2623C84.8308 24.3463 85.6253 25.2588 86.1113 26.3157C86.2702 26.668 86.401 27.0565 86.2982 27.4268C86.1674 27.8966 85.6907 28.2218 85.1953 28.3212C84.6626 28.4386 84.0644 28.3212 83.6531 27.9779C83.1764 27.5804 83.0175 26.9481 82.868 26.3518C82.6811 27.0745 82.2324 27.8424 81.4753 27.9598C80.9052 28.0502 80.2976 27.6888 80.1294 27.1649C79.9144 26.5144 80.3163 25.8279 80.3444 25.1503C79.7555 25.5027 79.0732 25.7014 78.3722 25.7195C77.8768 25.7195 77.316 25.602 77.0637 25.1955C76.9609 25.0329 76.9235 24.8432 76.9141 24.6535C76.8954 23.994 77.3254 23.3978 77.8581 22.9913C78.3909 22.5848 79.0265 22.3318 79.6247 22.0247C80.8865 21.3923 82.0642 20.4709 82.6063 19.1971H82.6156ZM79.7649 14.3731C80.3444 15.5746 81.4286 16.5412 82.7184 17.0019C82.3913 17.6433 82.1763 18.2396 82.0081 18.8448C80.6622 18.3389 79.148 18.7454 77.8114 19.2694C77.2132 19.5043 76.6244 19.7663 75.9982 19.9018C75.3719 20.0373 74.6803 20.0282 74.1101 19.7392C73.7549 19.5585 73.4278 19.2242 73.4465 18.8358C73.4558 18.5015 73.7082 18.2305 73.9699 18.0227C74.4746 17.6343 75.0822 17.3723 75.7271 17.3001C75.2504 17.2187 74.7924 17.02 74.4092 16.7219C74.1195 16.4961 73.8671 16.1889 73.8578 15.8276C73.8391 15.3488 74.269 14.9603 74.7177 14.7616C75.2411 14.5448 75.8486 14.4996 76.4001 14.6532C75.9888 14.0027 75.6243 13.1987 75.9327 12.5031C76.157 12.0153 76.7085 11.6991 77.26 11.6811C77.8114 11.663 78.3535 11.925 78.7274 12.3225C79.2508 12.8916 79.4377 13.6685 79.7649 14.3551V14.3731ZM88.1395 9.98274C88.1115 10.4525 87.8965 10.8861 87.6442 11.2836C88.1208 11.0307 88.6443 10.8319 89.1864 10.8319C89.7285 10.8319 90.2893 11.0758 90.5697 11.5185C90.9622 12.1599 90.6351 13.0723 89.9715 13.4427C89.635 13.6324 89.2518 13.7046 88.8779 13.813C87.2703 14.2828 85.9337 15.5114 85.3636 17.0381C84.6906 16.7761 83.9802 16.6135 83.2605 16.5503C83.4475 14.9603 83.2232 13.3523 82.5595 11.934C82.1576 11.0849 81.5968 10.1725 81.8679 9.27811C82.0081 8.79933 82.4007 8.40184 82.8773 8.2302C83.3634 8.05856 83.9242 8.1218 84.3541 8.39281C84.8588 8.71802 85.1579 9.35942 84.971 9.91951C85.2888 9.51299 85.6159 9.09744 86.0646 8.83546C86.5132 8.57348 87.1114 8.48315 87.56 8.75416C87.9713 9.0071 88.1582 9.50396 88.1208 9.97371L88.1395 9.98274Z" fill="#ED5958"/>
<path d="M82.3635 20.4355C83.5505 21.3027 85.2329 21.0769 86.1302 19.9296C87.0275 18.7823 86.7938 17.1562 85.6068 16.289C84.4198 15.4218 82.7374 15.6476 81.8401 16.7949C80.9428 17.9422 81.1765 19.5682 82.3635 20.4355Z" fill="#FFAF6F"/>
<path d="M77.9611 -4.07414C78.4378 -3.64052 78.7556 -3.06236 79.1762 -2.58357C80.1576 -1.48146 81.6531 -0.957502 83.0831 -0.514851C82.5316 0.225914 82.4475 0.82214 82.4008 1.41836C81.625 1.35513 80.8305 1.49063 80.1202 1.79778C78.7836 2.37594 77.8022 3.50515 76.5871 4.29109C76.2787 4.48983 75.9422 4.6705 75.5683 4.7247C75.1945 4.76987 74.7832 4.66147 74.5682 4.36336C74.3533 4.07428 74.3626 3.68583 74.4654 3.34255C74.6991 2.50241 75.4281 1.81585 76.2974 1.59C75.559 1.59 74.8206 1.4545 74.1476 1.18349C73.9046 1.08412 73.671 0.966679 73.5027 0.767937C73.1569 0.36142 73.241 -0.27094 73.5027 -0.73166C74.0635 -1.71633 75.3721 -2.24029 76.4843 -1.91508C76.0544 -2.21319 75.6898 -2.63777 75.5964 -3.13463C75.4936 -3.64052 75.7085 -4.20964 76.1665 -4.46258C76.7367 -4.77876 77.4844 -4.51679 77.9611 -4.08317V-4.07414ZM85.6628 9.3319C85.1955 9.10606 84.8403 8.65437 84.7468 8.15752C84.7094 8.69051 84.6627 9.2506 84.3823 9.72035C84.186 10.0365 83.8121 10.3166 83.4383 10.2262C83.2513 10.1811 83.1018 10.0636 82.9709 9.92812C82.4756 9.39514 82.326 8.5821 82.6064 7.92264C82.3541 8.17558 82.055 8.39239 81.7185 8.50983C81.3726 8.61824 80.9707 8.6092 80.681 8.41046C80.3445 8.18462 80.195 7.76907 80.2137 7.38062C80.2324 6.99217 80.4099 6.62179 80.6156 6.28754C81.1109 5.48354 81.8213 4.80601 82.326 4.00201C82.812 3.22511 83.1018 2.32174 83.1485 1.41836C84.0645 1.89715 84.8216 1.88812 85.56 1.75261C85.7002 0.695667 85.775 -0.352243 85.7002 -0.957502C87.177 -1.19238 88.5509 -1.93314 89.5417 -3.00816C89.9062 -3.40564 90.224 -3.84829 90.6633 -4.16447C91.1026 -4.48065 91.7195 -4.63423 92.2055 -4.38128C92.4111 -4.27288 92.5794 -4.0922 92.7102 -3.90249C93.1589 -3.21593 93.1495 -2.27643 92.6822 -1.5989C93.1962 -1.69827 93.7664 -1.77054 94.2337 -1.54469C94.8132 -1.27368 95.1123 -0.569054 94.9628 0.0362053C94.8132 0.641464 94.2618 1.12025 93.6355 1.26479C94.0935 1.5087 94.5141 1.92425 94.5328 2.43014C94.5609 3.09864 93.944 3.60452 93.3645 3.95684C93.1215 4.10138 92.8691 4.24592 92.5794 4.29109C92.2055 4.34529 91.8223 4.20075 91.4858 4.03814C90.5137 3.57742 89.6351 2.94506 88.6724 2.46628C87.7284 1.99652 86.6348 1.68938 85.6067 1.90619C85.56 3.88457 86.3731 5.79972 87.3919 7.52516C87.6443 7.94974 87.9153 8.4737 87.691 8.90731C87.5882 9.10606 87.4013 9.24156 87.1957 9.34093C86.719 9.56678 86.1395 9.56678 85.6721 9.34093L85.6628 9.3319ZM82.8588 -1.30078C82.9149 -2.90879 82.3541 -4.52582 81.3166 -5.77247C81.0829 -6.05252 80.8305 -6.3145 80.6997 -6.63971C80.5969 -6.89265 80.5782 -7.16367 80.6062 -7.43468C80.653 -7.82313 80.8118 -8.20254 81.1109 -8.47355C81.4007 -8.74457 81.8306 -8.88007 82.2232 -8.7807C82.7373 -8.65423 83.0644 -8.18448 83.3448 -7.75086C83.3822 -8.18448 83.4196 -8.62713 83.5785 -9.03364C83.7467 -9.44016 84.0645 -9.81054 84.4945 -9.94605C85.0739 -10.1177 85.7189 -9.81054 86.0834 -9.33176C86.4386 -8.862 86.5694 -8.25675 86.6348 -7.67859C86.8124 -8.13931 87.3172 -8.43742 87.8219 -8.43742C88.3266 -8.43742 88.8126 -8.17544 89.1304 -7.79603C89.3267 -7.56115 89.4669 -7.2811 89.4576 -6.98299C89.4482 -6.63068 89.2239 -6.32353 88.9528 -6.08865C88.6818 -5.86281 88.3546 -5.7002 88.0556 -5.5105C86.6255 -4.63423 85.6161 -3.1527 85.3263 -1.54469C84.5318 -1.7344 83.7 -1.77054 82.8681 -1.30078H82.8588Z" fill="#FFB100"/>
<path d="M79.7369 1.56368C80.6342 1.45527 81.5409 1.3017 82.3166 0.840981C82.6251 1.26556 83.2046 1.70822 83.8682 1.93406C83.5784 2.79226 83.5971 3.72274 83.6626 4.62611C83.728 5.52948 83.8401 6.44188 83.7093 7.33622C83.5784 8.23056 83.1672 9.13393 82.4008 9.65789C81.9147 9.99213 81.2231 10.1367 80.7183 9.8205C80.4566 9.65789 80.279 9.39591 80.1388 9.13393C79.8771 8.65515 79.6902 8.09505 79.8584 7.58013C79.522 7.89631 79.1294 8.17636 78.6714 8.2667C78.2134 8.35703 77.6807 8.20346 77.4376 7.81501C77.2974 7.58917 77.2601 7.30912 77.2694 7.04714C77.2788 6.36962 77.5218 5.70112 77.9517 5.16813C77.4657 5.37591 76.961 5.54755 76.4282 5.52948C75.9048 5.51141 75.3627 5.24943 75.1477 4.77968C74.9982 4.45447 75.0355 4.07505 75.1477 3.7408C75.4468 2.91873 76.2319 2.34058 77.0825 2.04246C77.933 1.74435 78.8397 1.68112 79.7369 1.57271V1.56368ZM83.7841 -1.30904C83.1672 -0.956729 82.8587 -0.441807 82.5596 0.0821486C81.7091 -0.839291 80.494 -1.44455 79.2229 -1.58006C78.0358 -1.69749 76.8395 -1.42648 75.6431 -1.48068C75.2505 -1.49875 74.8299 -1.56199 74.5308 -1.81493C74.1476 -2.14015 74.0728 -2.6912 74.1943 -3.16999C74.3345 -3.68491 74.6991 -4.15466 75.2038 -4.35341C75.7833 -4.57925 76.4469 -4.44374 77.0544 -4.2992C76.4749 -4.77799 75.9609 -5.51875 76.1852 -6.22338C76.3534 -6.75637 76.961 -7.11772 77.5311 -7.02739C78.2321 -6.91898 78.6808 -6.26855 79.2976 -5.93431C79.2322 -6.6028 79.3537 -7.28033 79.6528 -7.88559C79.8678 -8.31921 80.2323 -8.74379 80.7277 -8.77993C80.924 -8.79799 81.1203 -8.74379 81.2978 -8.66249C81.9054 -8.38244 82.2699 -7.74105 82.4101 -7.09965C82.5503 -6.45826 82.4942 -5.7988 82.5036 -5.13934C82.5223 -3.76621 82.8494 -2.33889 83.7747 -1.30001L83.7841 -1.30904ZM89.5136 -1.60716C88.1396 -1.65233 86.7563 -1.14644 85.7562 -0.234032C85.3076 -0.803155 84.8589 -1.25484 84.3729 -1.67943C85.4478 -2.6099 85.7562 -4.10046 85.859 -5.49165C85.9058 -6.11498 85.9245 -6.73831 86.0927 -7.34357C86.2516 -7.94882 86.5694 -8.53602 87.0928 -8.89736C87.4199 -9.12321 87.8779 -9.24968 88.2331 -9.05997C88.5322 -8.89736 88.6817 -8.56312 88.7472 -8.2379C88.8874 -7.63264 88.8406 -6.98222 88.6257 -6.39503C88.9154 -6.77444 89.308 -7.08159 89.7473 -7.2713C90.0838 -7.41583 90.4857 -7.49714 90.8221 -7.3526C91.2708 -7.15386 91.4484 -6.61183 91.4203 -6.13305C91.3923 -5.58199 91.1493 -5.03997 90.7661 -4.63345C91.5512 -4.69669 92.4578 -4.66055 92.9625 -4.07336C93.3177 -3.65781 93.3644 -3.04352 93.1308 -2.56473C92.8971 -2.08594 92.4111 -1.73363 91.8783 -1.58909C91.1212 -1.39035 90.3174 -1.58909 89.5323 -1.60716H89.5136ZM89.822 7.5982C89.4014 7.36332 89.1023 6.98391 88.8406 6.58642C88.8593 7.11038 88.8126 7.6524 88.5602 8.12216C88.3172 8.59191 87.8405 8.97132 87.2984 9.00746C86.532 9.06166 85.831 8.3751 85.7843 7.6253C85.7562 7.25492 85.8684 6.88454 85.9338 6.51416C86.2236 4.91519 85.6814 3.20781 84.5225 2.03343C85.0646 1.57271 85.5412 1.03069 85.9151 0.434464C87.2984 1.31073 88.8874 1.83469 90.495 1.89793C91.4577 1.93406 92.5513 1.85276 93.2616 2.49415C93.6355 2.8284 93.8318 3.34332 93.7757 3.84017C93.7196 4.33703 93.4112 4.78871 92.9625 5.04166C92.4391 5.33977 91.7101 5.30364 91.2708 4.89712C91.5045 5.35784 91.7381 5.82759 91.7755 6.33348C91.8222 6.83937 91.626 7.39946 91.1773 7.66144C90.7661 7.90535 90.2146 7.84211 89.794 7.5982H89.822Z" fill="#FFD940"/>
<path d="M82.7556 -2.07779C81.419 -1.44543 80.8769 0.117401 81.5312 1.40922C82.1854 2.70104 83.8024 3.225 85.139 2.59264C86.4756 1.96028 87.0177 0.397446 86.3634 -0.894375C85.7092 -2.1862 84.0922 -2.71015 82.7556 -2.07779Z" fill="#FFBE73"/>
<path d="M76.9518 37.373C77.5874 37.2284 78.251 37.3007 78.8959 37.2284C80.3727 37.0568 81.6438 36.1625 82.8122 35.2681C83.1393 36.1083 83.5973 36.5148 84.0833 36.8761C83.6066 37.4633 83.2795 38.1589 83.1487 38.8906C82.8963 40.2638 83.3262 41.673 83.3262 43.0732C83.3262 43.4346 83.2982 43.7959 83.13 44.1212C82.9617 44.4373 82.6439 44.7083 82.2701 44.7174C81.9055 44.7264 81.5784 44.5006 81.3447 44.2386C80.7652 43.5882 80.5783 42.6306 80.8681 41.8176C80.4662 42.4047 79.9427 42.9197 79.3352 43.2991C79.1202 43.4346 78.8866 43.5611 78.6249 43.5882C78.0827 43.6424 77.5967 43.2268 77.3444 42.7571C76.8116 41.7724 77.092 40.4444 77.9893 39.7308C77.5032 39.9114 76.9424 39.9566 76.4564 39.7669C75.9704 39.5682 75.6059 39.0894 75.6432 38.5835C75.69 37.9602 76.3256 37.5085 76.9611 37.3639L76.9518 37.373ZM92.5888 38.6467C92.1309 38.8906 91.5607 38.9268 91.084 38.728C91.5233 39.0532 91.972 39.3965 92.2056 39.8843C92.3739 40.2186 92.4019 40.6612 92.1215 40.9142C91.9813 41.0407 91.7944 41.0949 91.6074 41.122C90.8784 41.2213 90.112 40.8871 89.7007 40.2999C89.7755 40.6432 89.8035 40.9955 89.7007 41.3297C89.6072 41.664 89.3736 41.9711 89.0371 42.0976C88.6632 42.2421 88.2239 42.1337 87.9061 41.8989C87.5883 41.664 87.3734 41.3207 87.1958 40.9774C86.7845 40.1373 86.6069 39.2068 86.1957 38.3667C85.8031 37.5536 85.1956 36.8309 84.4479 36.2889C85.3638 35.8282 85.7751 35.2229 86.0648 34.5635C85.2423 33.8679 84.3918 33.2355 83.8403 32.9555C84.4479 31.6546 84.5881 30.155 84.2142 28.7729C84.0833 28.267 83.8777 27.7701 83.8497 27.2462C83.831 26.7222 84.0366 26.1441 84.5133 25.9092C84.7189 25.8008 84.9619 25.7737 85.1956 25.7737C86.0274 25.7917 86.8219 26.3247 87.1397 27.0655C87.336 26.5957 87.5883 26.117 88.0463 25.864C88.5978 25.5569 89.3549 25.7014 89.7848 26.1531C90.2148 26.6048 90.3176 27.3094 90.0933 27.8785C90.5513 27.6437 91.1401 27.5443 91.5794 27.8063C92.1589 28.1495 92.2524 28.9174 92.2337 29.5769C92.2337 29.8479 92.2056 30.137 92.0841 30.3809C91.9159 30.7061 91.5887 30.9319 91.2616 31.1126C90.3363 31.6366 89.3081 31.9798 88.3735 32.4857C87.4575 32.9826 86.5883 33.6691 86.205 34.6087C87.8594 35.7379 89.9344 36.1534 91.9626 36.2889C92.4673 36.3251 93.0562 36.3883 93.2992 36.8129C93.4114 37.0026 93.43 37.2284 93.3927 37.4452C93.3272 37.9421 93.0001 38.4028 92.5515 38.6558L92.5888 38.6467ZM82.0084 35.0061C80.6718 34.0757 78.9894 33.633 77.3537 33.7685C76.9892 33.7956 76.6247 33.8589 76.2695 33.7776C75.9984 33.7233 75.7554 33.5878 75.5498 33.4162C75.2413 33.1723 75.0077 32.829 74.9422 32.4496C74.8768 32.0702 74.9983 31.6546 75.2974 31.3927C75.69 31.0584 76.2695 31.0494 76.7835 31.0674C76.4284 30.7964 76.0732 30.5254 75.8208 30.1731C75.5685 29.8208 75.4283 29.3601 75.5498 28.9445C75.718 28.3844 76.3443 28.0502 76.9424 28.0231C77.5406 27.996 78.1201 28.2309 78.6529 28.5019C78.3631 28.1134 78.3912 27.5443 78.6622 27.1378C78.9426 26.7313 79.4287 26.4964 79.9334 26.4512C80.2325 26.4241 80.5596 26.4693 80.8026 26.6409C81.0924 26.8397 81.2419 27.192 81.2887 27.5353C81.3354 27.8785 81.2887 28.2218 81.2887 28.5651C81.2513 30.1821 81.9429 31.8082 83.158 32.9193C82.5598 33.4433 82.0738 34.0847 82.0084 35.0061Z" fill="#FF961C"/>
<path d="M82.7276 39.0706C83.1295 38.3028 83.5034 37.4897 83.5314 36.6315C84.0642 36.6135 84.7652 36.4057 85.3167 35.9992C85.8868 36.7038 86.6906 37.2007 87.4944 37.6433C88.2983 38.086 89.1301 38.5015 89.8218 39.0977C90.5134 39.694 91.0555 40.516 91.0742 41.4104C91.0836 41.9795 90.8312 42.6119 90.2891 42.8377C90.0087 42.9551 89.6909 42.9551 89.3825 42.919C88.831 42.8648 88.2515 42.7022 87.9057 42.2776C87.9898 42.7203 88.0085 43.19 87.8309 43.5965C87.6533 44.0121 87.2327 44.3463 86.7654 44.3283C86.4943 44.3192 86.242 44.1928 86.0177 44.0392C85.4475 43.6598 85.0176 43.0906 84.7932 42.4583C84.6998 42.9551 84.5689 43.461 84.2605 43.8585C83.952 44.265 83.4286 44.5541 82.9145 44.4638C82.5594 44.4005 82.2509 44.1657 82.036 43.8856C81.5032 43.199 81.4471 42.2505 81.6621 41.4104C81.8771 40.5702 82.3257 39.8114 82.7276 39.0435V39.0706ZM82.5126 34.2737C82.4752 34.9603 82.7463 35.4842 83.0174 36.0172C81.7649 36.1798 80.5779 36.8122 79.7647 37.7517C79.0076 38.628 78.5777 39.7301 77.8767 40.6515C77.643 40.9587 77.3533 41.2478 76.9794 41.3471C76.4934 41.4736 75.9793 41.2297 75.6428 40.8683C75.2783 40.4799 75.0913 39.9288 75.1942 39.4139C75.325 38.8267 75.8017 38.375 76.2597 37.9685C75.5306 38.1673 74.624 38.1673 74.1473 37.5891C73.7922 37.1645 73.8108 36.478 74.2034 36.0805C74.6801 35.5836 75.4839 35.5836 76.1008 35.2765C75.4933 34.9603 74.9885 34.4815 74.6427 33.9124C74.3903 33.5059 74.2314 32.9819 74.4745 32.5664C74.5679 32.4038 74.7175 32.2773 74.8857 32.1779C75.4652 31.8437 76.2036 31.9159 76.8298 32.1598C77.4467 32.4037 77.9888 32.8103 78.5496 33.1626C79.7273 33.9033 81.12 34.4363 82.522 34.2737H82.5126ZM85.4288 29.5581C84.6343 30.6241 84.3072 31.9972 84.5222 33.2981C83.7931 33.3433 83.1576 33.4517 82.5313 33.6052C82.335 32.2411 81.2321 31.1752 80.1105 30.317C79.6058 29.9375 79.0824 29.5762 78.6618 29.1155C78.2412 28.6548 77.9141 28.0766 77.886 27.4623C77.8767 27.0739 78.0169 26.6493 78.372 26.4686C78.6711 26.315 79.0357 26.3873 79.3534 26.5138C79.9423 26.7396 80.4751 27.1281 80.8489 27.6249C80.69 27.1913 80.6433 26.7125 80.7181 26.2518C80.7741 25.8995 80.933 25.5381 81.2415 25.3575C81.6621 25.1135 82.2135 25.2762 82.6061 25.5562C83.0547 25.8814 83.3819 26.3692 83.5127 26.9022C83.896 26.2428 84.4287 25.5472 85.2045 25.4749C85.7466 25.4207 86.2981 25.7278 86.5785 26.1795C86.8589 26.6312 86.8962 27.2094 86.7187 27.7153C86.4756 28.4289 85.8681 28.9619 85.4101 29.5672L85.4288 29.5581ZM93.4203 34.3912C92.9903 34.5899 92.4949 34.626 92.0182 34.608C92.4762 34.879 92.9062 35.2223 93.1679 35.674C93.4296 36.1256 93.495 36.7128 93.224 37.1645C92.8501 37.8059 91.878 37.9776 91.2144 37.6072C90.8873 37.4175 90.6349 37.1284 90.3545 36.8754C89.1582 35.7643 87.401 35.2494 85.7746 35.5204C85.6812 34.8338 85.4849 34.1653 85.1858 33.533C86.7 32.9187 88.0179 31.943 88.9619 30.7054C89.532 29.9556 90.0554 29.0432 90.9901 28.8354C91.4855 28.727 92.0276 28.8535 92.4202 29.1697C92.8034 29.4859 93.0277 29.9918 92.9903 30.4796C92.9529 31.0577 92.523 31.6178 91.9341 31.7443C92.4482 31.8166 92.981 31.8888 93.4296 32.1327C93.8876 32.3766 94.2521 32.8374 94.2241 33.3342C94.196 33.7949 93.8409 34.1924 93.4109 34.4002L93.4203 34.3912Z" fill="#FF6E29"/>
<path d="M81.298 34.6632C81.1017 36.0724 82.1205 37.3642 83.5786 37.554C85.0367 37.7437 86.3733 36.759 86.5695 35.3497C86.7658 33.9405 85.747 32.6486 84.2889 32.4589C82.8309 32.2692 81.4943 33.2539 81.298 34.6632Z" fill="#FFBE73"/>
<path d="M47.5188 -7.03687C47.3318 -6.43161 46.9393 -5.89862 46.6869 -5.31143C46.1074 -3.96541 46.2943 -2.44774 46.528 -1.00235C45.5933 -1.14689 45.0045 -0.957182 44.4343 -0.722305C44.1446 -1.4179 43.6679 -2.05026 43.0604 -2.52905C41.9294 -3.42339 40.4433 -3.75763 39.1721 -4.45323C38.845 -4.6339 38.5272 -4.84168 38.3216 -5.13979C38.116 -5.4379 38.0318 -5.84442 38.2094 -6.16964C38.3777 -6.48582 38.7422 -6.64842 39.1067 -6.72069C39.9853 -6.89233 40.9574 -6.57615 41.5462 -5.92573C41.2097 -6.55809 41.0041 -7.26272 40.9574 -7.96734C40.9387 -8.22029 40.948 -8.48227 41.0508 -8.70811C41.2751 -9.19593 41.892 -9.40371 42.4435 -9.38564C43.6025 -9.3495 44.6773 -8.44613 44.8736 -7.33499C44.9484 -7.84087 45.1821 -8.33773 45.6027 -8.65391C46.0233 -8.96105 46.6495 -9.04236 47.0888 -8.76231C47.6309 -8.41 47.7244 -7.65117 47.5468 -7.03687H47.5188ZM38.5739 5.62839C38.5739 5.12251 38.8357 4.61662 39.2469 4.30947C38.7328 4.51725 38.2001 4.72502 37.6393 4.68889C37.2561 4.66179 36.8355 4.46305 36.742 4.1017C36.6953 3.92102 36.742 3.73132 36.8074 3.55968C37.0785 2.89118 37.7608 2.40336 38.4992 2.34916C38.1533 2.24075 37.8169 2.08718 37.5552 1.84327C37.2934 1.59936 37.1346 1.24704 37.1813 0.89473C37.2374 0.50628 37.5552 0.1901 37.929 0.0365257C38.3029 -0.117047 38.7235 -0.135115 39.1254 -0.108013C40.0975 -0.0357437 41.0321 0.271403 42.0042 0.343673C42.9482 0.415942 43.9016 0.262369 44.7615 -0.108013C44.7241 0.89473 45.0793 1.55419 45.5279 2.12331C46.5747 1.76197 47.5748 1.36448 48.0982 1.03024C48.9768 2.19558 50.276 3.05379 51.7248 3.4332C52.2575 3.56871 52.809 3.64098 53.295 3.88489C53.7811 4.1288 54.2017 4.58952 54.183 5.11347C54.183 5.33932 54.0801 5.56516 53.9586 5.7639C53.5287 6.4595 52.6501 6.87505 51.8089 6.77568C52.136 7.17316 52.4538 7.63388 52.4538 8.13977C52.4538 8.76309 51.9491 9.33222 51.3229 9.47676C50.6966 9.6213 50.005 9.35932 49.5937 8.88053C49.575 9.38642 49.3787 9.93748 48.9208 10.1814C48.3226 10.5066 47.5748 10.1995 46.986 9.85617C46.743 9.71163 46.4906 9.55806 46.3317 9.32318C46.1167 9.01604 46.0794 8.62759 46.07 8.2572C46.0607 7.20929 46.2569 6.17042 46.2569 5.12251C46.2569 4.09266 46.0607 3.01765 45.397 2.22268C43.5464 3.07185 42.135 4.62565 41.0041 6.27882C40.7237 6.68534 40.3685 7.15509 39.8544 7.15509C39.6301 7.15509 39.4152 7.05572 39.2282 6.92022C38.8076 6.61307 38.5459 6.10718 38.5459 5.60129L38.5739 5.62839ZM47.1542 -1.56244C48.6591 -2.23997 49.9022 -3.44145 50.5938 -4.90492C50.7434 -5.23013 50.8742 -5.56438 51.1172 -5.82635C51.3042 -6.0251 51.5472 -6.16964 51.8089 -6.25997C52.1828 -6.39548 52.6127 -6.42258 52.9866 -6.29611C53.3604 -6.1606 53.6876 -5.85346 53.7717 -5.47404C53.8839 -4.97719 53.6035 -4.48033 53.3231 -4.04671C53.7437 -4.20932 54.1643 -4.38096 54.6223 -4.4171C55.0709 -4.45323 55.5569 -4.35386 55.8747 -4.03768C56.2953 -3.61309 56.2953 -2.9175 56.0243 -2.39354C55.7439 -1.86959 55.2485 -1.49017 54.7438 -1.17399C55.2485 -1.22819 55.7532 -0.921047 55.9775 -0.48743C56.2018 -0.0538111 56.1832 0.488213 55.9775 0.930864C55.8467 1.20188 55.6504 1.45482 55.37 1.57226C55.0429 1.7168 54.6503 1.67163 54.3232 1.53612C53.9867 1.40965 53.6969 1.20188 53.3885 1.0212C51.9397 0.181066 50.1171 -0.0357428 48.4908 0.443044C48.3132 -0.324821 47.9674 -1.06559 47.1636 -1.57148L47.1542 -1.56244Z" fill="#ED3634"/>
<path d="M43.0977 -2.97154C43.5931 -2.24884 44.1539 -1.52614 44.9203 -1.06542C44.668 -0.604706 44.5184 0.0908899 44.6119 0.768418C43.6866 0.903924 42.836 1.33754 42.0322 1.79826C41.2284 2.25898 40.4339 2.76487 39.546 3.05395C38.658 3.34303 37.6392 3.39723 36.8167 2.96361C36.2933 2.6926 35.8447 2.15961 35.9101 1.58145C35.9381 1.28334 36.1064 1.01233 36.284 0.768418C36.6111 0.325767 37.0504 -0.0807505 37.6019 -0.171088C37.1626 -0.315627 36.7233 -0.532436 36.4335 -0.893785C36.1438 -1.25513 36.0503 -1.77909 36.2933 -2.1585C36.4335 -2.38435 36.6765 -2.53792 36.9289 -2.65536C37.5551 -2.94444 38.2842 -3.03478 38.9758 -2.9083C38.5739 -3.23352 38.1814 -3.59487 37.9664 -4.06462C37.7514 -4.52534 37.7514 -5.11253 38.0879 -5.51001C38.3216 -5.78102 38.6861 -5.92556 39.0506 -5.97073C39.9479 -6.08817 40.8358 -5.65455 41.4901 -5.05833C42.1444 -4.4621 42.6117 -3.70327 43.1164 -2.98057L43.0977 -2.97154ZM47.5748 -0.767313C46.9766 -1.14673 46.3597 -1.17383 45.7429 -1.20093C46.2195 -2.34821 46.2289 -3.67617 45.7802 -4.83249C45.3596 -5.91653 44.5652 -6.82894 44.0791 -7.88588C43.9202 -8.2382 43.7894 -8.62665 43.8922 -8.99703C44.0231 -9.46678 44.4997 -9.79199 44.9951 -9.89137C45.5279 -10.0088 46.1261 -9.89137 46.5373 -9.54808C47.014 -9.1506 47.1729 -8.51824 47.3224 -7.92202C47.5094 -8.64471 47.958 -9.41258 48.7151 -9.53002C49.2853 -9.62035 49.8928 -9.25901 50.061 -8.73505C50.276 -8.08462 49.8741 -7.39806 49.8461 -6.72053C50.4349 -7.07285 51.1172 -7.27159 51.8182 -7.28966C52.3136 -7.28966 52.8744 -7.17222 53.1268 -6.7657C53.2296 -6.60309 53.267 -6.41339 53.2763 -6.22368C53.295 -5.57325 52.865 -4.96799 52.3323 -4.56147C51.7995 -4.15496 51.1639 -3.90201 50.5658 -3.59487C49.3039 -2.96251 48.1263 -2.04107 47.5842 -0.767313H47.5748ZM50.4162 4.05669C49.8367 2.85521 48.7525 1.8886 47.4626 1.42788C47.7898 0.786486 48.0048 0.190261 48.173 -0.414998C49.5189 0.0908899 51.0331 -0.315627 52.3697 -0.839582C52.9679 -1.07446 53.5567 -1.33644 54.1829 -1.47194C54.8092 -1.60745 55.5008 -1.59842 56.071 -1.30934C56.4261 -1.12866 56.7533 -0.794415 56.7346 -0.405965C56.7252 -0.0717173 56.4729 0.199295 56.2112 0.40707C55.7064 0.79552 55.0989 1.0575 54.454 1.12977C54.9307 1.21107 55.3887 1.40981 55.7719 1.70792C56.0616 1.93377 56.314 2.24091 56.3233 2.60226C56.342 3.08105 55.9121 3.47853 55.4634 3.66824C54.94 3.88505 54.3325 3.93022 53.781 3.77665C54.1923 4.42707 54.5568 5.23107 54.2484 5.92667C54.024 6.41449 53.4726 6.73067 52.9211 6.74874C52.3697 6.76681 51.8276 6.50483 51.4537 6.10734C50.9303 5.53822 50.7433 4.76132 50.4162 4.07476V4.05669ZM42.0416 8.44708C42.0696 7.97732 42.2846 7.5437 42.5369 7.14622C42.0602 7.39916 41.5368 7.59791 40.9947 7.59791C40.4526 7.59791 39.8918 7.354 39.6114 6.91134C39.2095 6.26995 39.546 5.35755 40.2096 4.98716C40.5461 4.79746 40.9293 4.72519 41.3032 4.61678C42.9108 4.14703 44.2474 2.91844 44.8175 1.39174C45.4905 1.65372 46.2008 1.81633 46.9205 1.87957C46.7336 3.4695 46.9579 5.0775 47.6215 6.49579C48.0235 7.34496 48.5843 8.25737 48.3132 9.15171C48.173 9.63049 47.7804 10.028 47.3038 10.1996C46.8271 10.3713 46.2569 10.308 45.827 10.037C45.3222 9.7118 45.0232 9.0704 45.2101 8.51031C44.8923 8.91683 44.5652 9.33238 44.1165 9.59436C43.6679 9.85634 43.0697 9.94667 42.621 9.67566C42.2098 9.42272 42.0229 8.92586 42.0602 8.45611L42.0416 8.44708Z" fill="#ED5958"/>
<path d="M47.8177 -1.99615C46.6307 -2.86338 44.9483 -2.63754 44.051 -1.49026C43.1537 -0.342977 43.3874 1.28309 44.5744 2.15033C45.7615 3.01757 47.4439 2.79172 48.3412 1.64444C49.2384 0.497159 49.0048 -1.12891 47.8177 -1.99615Z" fill="#FFAF6F"/>
<path d="M46.883 48.2397C46.6961 48.845 46.3035 49.378 46.0512 49.9652C45.4717 51.3112 45.6586 52.8289 45.8923 54.2743C44.9669 54.1297 44.3687 54.3194 43.7986 54.5543C43.5088 53.8587 43.0322 53.2263 42.4246 52.7476C41.2937 51.8532 39.8075 51.519 38.527 50.8143C38.1999 50.6337 37.8821 50.4259 37.6765 50.1278C37.4709 49.8297 37.3867 49.4232 37.5643 49.0979C37.7326 48.7818 38.0971 48.6192 38.4616 48.5469C39.3402 48.3752 40.3123 48.6914 40.9011 49.3419C40.5646 48.7095 40.359 48.0049 40.3123 47.3002C40.2936 47.0473 40.3029 46.7853 40.4057 46.5595C40.6301 46.0716 41.2469 45.8639 41.7984 45.8819C42.9574 45.9181 44.0323 46.8214 44.2285 47.9326C44.3033 47.4267 44.537 46.9298 44.9576 46.6137C45.3782 46.3065 46.0044 46.2252 46.4437 46.5053C46.9858 46.8576 47.0793 47.6164 46.9017 48.2307L46.883 48.2397ZM37.9382 60.905C37.9382 60.3991 38.1999 59.8932 38.6112 59.5861C38.0971 59.7939 37.5643 60.0016 37.0035 59.9655C36.6203 59.9384 36.1997 59.7397 36.1063 59.3783C36.0595 59.1976 36.1062 59.0079 36.1717 58.8363C36.4427 58.1678 37.125 57.68 37.8634 57.6258C37.5176 57.5174 37.1811 57.3638 36.9194 57.1199C36.6577 56.876 36.4988 56.5237 36.5455 56.1713C36.6016 55.7829 36.9194 55.4667 37.2933 55.3131C37.6671 55.1596 38.0878 55.1415 38.4897 55.1686C39.4617 55.2409 40.3964 55.548 41.3684 55.6203C42.3125 55.6926 43.2658 55.539 44.1257 55.1686C44.0883 56.1713 44.4435 56.8308 44.8922 57.3999C45.939 57.0386 46.9391 56.6411 47.4625 56.3068C48.3411 57.4722 49.6403 58.3304 51.089 58.7098C51.6218 58.8453 52.1733 58.9176 52.6593 59.1615C53.1453 59.4054 53.5659 59.8661 53.5472 60.3901C53.5472 60.6159 53.4444 60.8418 53.3229 61.0405C52.8929 61.7361 52.0144 62.1517 51.1732 62.0523C51.5003 62.4498 51.8181 62.9105 51.8181 63.4164C51.8181 64.0397 51.3134 64.6088 50.6871 64.7534C50.0609 64.8979 49.3692 64.6359 48.958 64.1571C48.9393 64.663 48.743 65.2141 48.285 65.458C47.6868 65.7832 46.9391 65.4761 46.3502 65.1328C46.1072 64.9882 45.8549 64.8347 45.696 64.5998C45.481 64.2927 45.4436 63.9042 45.4343 63.5338C45.4249 62.4859 45.6212 61.447 45.6212 60.3991C45.6212 59.3693 45.4249 58.2943 44.7613 57.4993C42.9107 58.3485 41.4993 59.9023 40.3683 61.5554C40.0879 61.962 39.7328 62.4317 39.2187 62.4317C38.9944 62.4317 38.7794 62.3323 38.5925 62.1968C38.1719 61.8897 37.9102 61.3838 37.9102 60.8779L37.9382 60.905ZM46.5185 53.7142C48.0233 53.0366 49.2664 51.8352 49.9581 50.3717C50.1076 50.0465 50.2385 49.7122 50.4815 49.4503C50.6684 49.2515 50.9114 49.107 51.1732 49.0166C51.547 48.8811 51.977 48.854 52.3508 48.9805C52.7247 49.116 53.0518 49.4232 53.136 49.8026C53.2481 50.2994 52.9677 50.7963 52.6873 51.2299C53.1079 51.0673 53.5285 50.8957 53.9865 50.8595C54.4352 50.8234 54.9212 50.9228 55.239 51.2389C55.6596 51.6635 55.6596 52.3591 55.3885 52.8831C55.1081 53.407 54.6127 53.7864 54.108 54.1026C54.6127 54.0484 55.1175 54.3556 55.3418 54.7892C55.5661 55.2228 55.5474 55.7648 55.3418 56.2075C55.2109 56.4785 55.0146 56.7314 54.7342 56.8489C54.4071 56.9934 54.0146 56.9482 53.6874 56.8127C53.3509 56.6863 53.0612 56.4785 52.7527 56.2978C51.304 55.4577 49.4721 55.2409 47.8551 55.7197C47.6775 54.9518 47.3317 54.211 46.5278 53.7051L46.5185 53.7142Z" fill="#ED3634"/>
<path d="M42.462 52.3058C42.9574 53.0285 43.5182 53.7512 44.2846 54.2119C44.0322 54.6726 43.8827 55.3682 43.9762 56.0458C43.0508 56.1813 42.2003 56.6149 41.3965 57.0756C40.5926 57.5363 39.7982 58.0422 38.9102 58.3313C38.0223 58.6204 37.0035 58.6746 36.181 58.241C35.6576 57.9699 35.2089 57.437 35.2744 56.8588C35.3024 56.5607 35.4706 56.2897 35.6482 56.0458C35.9754 55.6031 36.4147 55.1966 36.9661 55.1063C36.5268 54.9617 36.0875 54.7449 35.7978 54.3836C35.508 54.0222 35.4146 53.4983 35.6576 53.1188C35.7978 52.893 36.0408 52.7394 36.2932 52.622C36.9194 52.3329 37.6484 52.2426 38.3401 52.369C37.9382 52.0438 37.5456 51.6825 37.3306 51.2127C37.1157 50.752 37.1157 50.1648 37.4522 49.7673C37.6858 49.4963 38.0503 49.3518 38.4149 49.3066C39.3121 49.1892 40.2001 49.6228 40.8544 50.219C41.5086 50.8152 41.976 51.5741 42.4807 52.2968L42.462 52.3058ZM46.9391 54.51C46.3409 54.1306 45.724 54.1035 45.1071 54.0764C45.5838 52.9291 45.5931 51.6012 45.1445 50.4449C44.7239 49.3608 43.9294 48.4484 43.4434 47.3915C43.2845 47.0391 43.1536 46.6507 43.2565 46.2803C43.3873 45.8106 43.864 45.4853 44.3594 45.386C44.8921 45.2685 45.4903 45.386 45.9016 45.7293C46.3783 46.1267 46.5372 46.7591 46.6867 47.3553C46.8736 46.6326 47.3223 45.8648 48.0794 45.7473C48.6495 45.657 49.2571 46.0183 49.4253 46.5423C49.6403 47.1927 49.2384 47.8793 49.2103 48.5568C49.7992 48.2045 50.4815 48.0058 51.1825 47.9877C51.6778 47.9877 52.2387 48.1051 52.491 48.5116C52.5938 48.6742 52.6312 48.864 52.6406 49.0537C52.6593 49.7131 52.2293 50.3094 51.6965 50.7159C51.1638 51.1224 50.5282 51.3753 49.93 51.6825C48.6682 52.3148 47.4905 53.2363 46.9484 54.51H46.9391ZM49.7805 59.334C49.201 58.1326 48.1168 57.1659 46.8269 56.7052C47.154 56.0638 47.369 55.4676 47.5373 54.8623C48.8832 55.3682 50.3973 54.9617 51.7339 54.4378C52.3321 54.2029 52.921 53.9409 53.5472 53.8054C54.1734 53.6699 54.8651 53.6789 55.4352 53.968C55.7904 54.1487 56.1175 54.4829 56.0988 54.8714C56.0895 55.2056 55.8371 55.4766 55.5754 55.6844C55.0707 56.0729 54.4632 56.3348 53.8182 56.4071C54.2949 56.4884 54.7529 56.6872 55.1268 56.9853C55.4165 57.2111 55.6689 57.5183 55.6782 57.8796C55.6969 58.3584 55.267 58.7468 54.8183 58.9456C54.2949 59.1624 53.6874 59.2076 53.1359 59.054C53.5472 59.7044 53.9117 60.5084 53.6033 61.204C53.3789 61.6918 52.8275 62.008 52.276 62.0261C51.7246 62.0442 51.1825 61.7822 50.8086 61.3847C50.2852 60.8156 50.0983 60.0387 49.7711 59.3521L49.7805 59.334ZM41.4058 63.7244C41.4339 63.2547 41.6488 62.821 41.9012 62.4236C41.4245 62.6765 40.9011 62.8752 40.359 62.8752C39.8169 62.8752 39.2561 62.6313 38.9757 62.1887C38.5831 61.5473 38.9102 60.6349 39.5739 60.2645C39.9103 60.0748 40.2936 60.0025 40.6674 59.8941C42.2751 59.4244 43.6116 58.1958 44.1818 56.6691C44.8547 56.9311 45.5651 57.0937 46.2848 57.1569C46.0979 58.7468 46.3222 60.3548 46.9858 61.7731C47.3877 62.6223 47.9485 63.5347 47.6775 64.429C47.5373 64.9078 47.1447 65.3053 46.668 65.477C46.182 65.6486 45.6212 65.5854 45.1912 65.3144C44.6865 64.9891 44.3874 64.3477 44.565 63.7877C44.2472 64.1942 43.9201 64.6097 43.4714 64.8717C43.0228 65.1337 42.4246 65.224 41.976 64.953C41.5647 64.7001 41.3778 64.2032 41.4152 63.7335L41.4058 63.7244Z" fill="#ED5958"/>
<path d="M47.182 53.2812C45.995 52.414 44.3126 52.6398 43.4153 53.7871C42.518 54.9344 42.7517 56.5604 43.9387 57.4277C45.1257 58.2949 46.8081 58.0691 47.7054 56.9218C48.6027 55.7745 48.369 54.1484 47.182 53.2812Z" fill="#FFAF6F"/>
<path d="M52.7434 22.8019C52.2667 22.3683 51.9489 21.7902 51.5283 21.3114C50.5469 20.2093 49.0514 19.6853 47.6214 19.2426C48.1728 18.5019 48.2569 17.9057 48.3037 17.3094C49.0795 17.3727 49.8739 17.2372 50.5843 16.93C51.9209 16.3519 52.9023 15.2226 54.1173 14.4367C54.4258 14.238 54.7623 14.0573 55.1361 14.0031C55.51 13.9579 55.9213 14.0663 56.1362 14.3644C56.3512 14.6535 56.3419 15.042 56.239 15.3853C56.0054 16.2254 55.2763 16.912 54.4071 17.1378C55.1455 17.1378 55.8839 17.2733 56.5568 17.5443C56.7998 17.6437 57.0335 17.7611 57.2018 17.9599C57.5476 18.3664 57.4635 18.9987 57.2018 19.4595C56.641 20.4441 55.3324 20.9681 54.2202 20.6429C54.6501 20.941 55.0146 21.3656 55.1081 21.8624C55.2109 22.3683 54.9959 22.9374 54.5379 23.1904C53.9678 23.5066 53.2201 23.2446 52.7434 22.811V22.8019ZM45.0417 9.3959C45.509 9.62174 45.8642 10.0734 45.9577 10.5703C45.995 10.0373 46.0418 9.47721 46.3222 9.00745C46.5185 8.69127 46.8923 8.41123 47.2662 8.50156C47.4531 8.54673 47.6027 8.66417 47.7335 8.79968C48.2289 9.33266 48.3785 10.1457 48.0981 10.8052C48.3504 10.5522 48.6495 10.3354 48.986 10.218C49.3318 10.1096 49.7337 10.1186 50.0235 10.3173C50.36 10.5432 50.5095 10.9587 50.4908 11.3472C50.4721 11.7356 50.2945 12.106 50.0889 12.4403C49.5935 13.2443 48.8832 13.9218 48.3785 14.7258C47.8924 15.5027 47.6027 16.4061 47.5559 17.3094C46.64 16.8306 45.8829 16.8397 45.1445 16.9752C45.0043 18.0321 44.9295 19.08 45.0043 19.6853C43.5275 19.9202 42.1535 20.6609 41.1628 21.736C40.7983 22.1334 40.4805 22.5761 40.0412 22.8923C39.6019 23.2085 38.985 23.362 38.499 23.1091C38.2934 23.0007 38.1251 22.82 37.9943 22.6303C37.5456 21.9437 37.555 21.0042 38.0223 20.3267C37.5082 20.4261 36.9381 20.4983 36.4707 20.2725C35.8912 20.0015 35.5921 19.2969 35.7417 18.6916C35.8912 18.0863 36.4427 17.6075 37.0689 17.463C36.6109 17.2191 36.1903 16.8035 36.1716 16.2977C36.1436 15.6292 36.7605 15.1233 37.34 14.771C37.583 14.6264 37.8354 14.4819 38.1251 14.4367C38.499 14.3825 38.8822 14.5271 39.2187 14.6897C40.1907 15.1504 41.0693 15.7827 42.032 16.2615C42.9761 16.7313 44.0696 17.0384 45.0978 16.8216C45.1445 14.8432 44.3313 12.9281 43.3125 11.2026C43.0602 10.7781 42.7891 10.2541 43.0134 9.82049C43.1163 9.62174 43.3032 9.48624 43.5088 9.38687C43.9855 9.16102 44.565 9.16102 45.0323 9.38687L45.0417 9.3959ZM47.8457 20.0286C47.7896 21.6366 48.3504 23.2536 49.3879 24.5003C49.6122 24.7713 49.8739 25.0423 50.0048 25.3675C50.1076 25.6205 50.1263 25.8915 50.0983 26.1625C50.0515 26.5509 49.8926 26.9303 49.5935 27.2014C49.3038 27.4724 48.8738 27.6079 48.4813 27.5085C47.9672 27.382 47.6401 26.9123 47.3597 26.4787C47.3223 26.9123 47.2849 27.3549 47.126 27.7614C46.9578 28.168 46.64 28.5383 46.21 28.6738C45.6305 28.8455 44.9856 28.5383 44.6211 28.0596C44.2659 27.5898 44.135 26.9845 44.0696 26.4064C43.892 26.8671 43.3873 27.1652 42.8826 27.1652C42.3779 27.1652 41.8918 26.9032 41.574 26.5238C41.3778 26.2889 41.2376 26.0089 41.2469 25.7108C41.2563 25.3585 41.4806 25.0513 41.7516 24.8165C42.0227 24.5906 42.3498 24.428 42.6489 24.2383C44.079 23.362 45.0884 21.8805 45.3782 20.2725C46.1726 20.4622 47.0045 20.4983 47.8363 20.0286H47.8457Z" fill="#FFB100"/>
<path d="M50.968 17.1553C50.0708 17.2637 49.1641 17.4172 48.3884 17.878C48.0799 17.4534 47.5004 17.0107 46.8368 16.7849C47.1265 15.9267 47.1079 14.9962 47.0331 14.0928C46.9677 13.1895 46.8555 12.2771 46.9863 11.3827C47.1172 10.4884 47.5285 9.58501 48.2949 9.06105C48.7809 8.7268 49.4726 8.58226 49.9773 8.89844C50.239 9.06105 50.4166 9.32303 50.5568 9.58501C50.8185 10.0638 51.0054 10.6239 50.8372 11.1388C51.1737 10.8226 51.5662 10.5426 52.0242 10.4522C52.4822 10.3619 53.015 10.5155 53.258 10.9039C53.3982 11.1298 53.4356 11.4098 53.4262 11.6718C53.4169 12.3493 53.1739 13.0178 52.7439 13.5508C53.2299 13.343 53.7347 13.1714 54.2674 13.1895C54.7908 13.2075 55.333 13.4695 55.5479 13.9393C55.6975 14.2645 55.6601 14.6439 55.5479 14.9781C55.2488 15.8002 54.4637 16.3784 53.6132 16.6765C52.7626 16.9746 51.856 17.0378 50.9587 17.1462L50.968 17.1553ZM46.9209 20.028C47.5378 19.6757 47.8462 19.1607 48.1453 18.6368C48.9959 19.5582 50.211 20.1635 51.4821 20.299C52.6691 20.4164 53.8749 20.1454 55.0619 20.1996C55.4545 20.2177 55.8751 20.2809 56.1742 20.5339C56.548 20.8591 56.6322 21.4101 56.5106 21.8889C56.3704 22.4038 56.0059 22.8736 55.5012 23.0723C54.9217 23.2982 54.2581 23.1627 53.6505 23.0181C54.23 23.4969 54.7441 24.2377 54.5198 24.9423C54.3516 25.4753 53.744 25.8367 53.1739 25.7554C52.4729 25.647 52.0242 24.9965 51.4073 24.6623C51.4728 25.3308 51.3513 26.0083 51.0522 26.6136C50.8372 27.0472 50.4727 27.4718 49.9773 27.5079C49.781 27.526 49.5847 27.4718 49.4071 27.3905C48.7996 27.1104 48.4351 26.469 48.2949 25.8276C48.1547 25.1862 48.2108 24.5268 48.2014 23.8673C48.1827 22.4942 47.8556 21.0669 46.9303 20.028H46.9209ZM41.1914 20.3261C42.5653 20.3713 43.9487 19.8654 44.9488 18.953C45.3974 19.5221 45.846 19.9738 46.3321 20.3984C45.2572 21.3288 44.9488 22.8194 44.8459 24.2106C44.7992 24.8339 44.7805 25.4572 44.6123 26.0625C44.4534 26.6678 44.1356 27.255 43.6122 27.6163C43.285 27.8421 42.8271 27.9686 42.4719 27.7789C42.1728 27.6163 42.0232 27.2821 41.9578 26.9568C41.8176 26.3516 41.8643 25.7012 42.0793 25.114C41.7896 25.4934 41.397 25.8005 40.9577 25.9902C40.6212 26.1348 40.2193 26.2161 39.8828 26.0715C39.4342 25.8728 39.2566 25.3308 39.2846 24.852C39.3127 24.3009 39.5557 23.7589 39.9389 23.3524C39.1538 23.4156 38.2472 23.3795 37.7424 22.7923C37.3873 22.3767 37.3405 21.7625 37.5742 21.2837C37.8079 20.7958 38.2939 20.4526 38.8267 20.308C39.5837 20.1093 40.3876 20.308 41.1727 20.3261H41.1914ZM40.8829 11.1207C41.3035 11.3556 41.6026 11.735 41.8643 12.1325C41.8457 11.6086 41.8924 11.0665 42.1447 10.5968C42.3878 10.127 42.8644 9.74761 43.4066 9.71148C44.173 9.65728 44.874 10.3438 44.9207 11.0936C44.9488 11.464 44.8366 11.8344 44.7712 12.2048C44.4814 13.8038 45.0235 15.5111 46.1825 16.6855C45.6404 17.1462 45.1637 17.6882 44.7899 18.2845C43.4066 17.4082 41.8176 16.8842 40.21 16.821C39.2473 16.7849 38.1537 16.8662 37.4433 16.2248C37.0695 15.8905 36.8732 15.3756 36.9293 14.8788C36.9854 14.3819 37.3031 13.9302 37.7424 13.6773C38.2659 13.3792 38.9949 13.4153 39.4342 13.8218C39.2005 13.3611 38.9669 12.8913 38.9295 12.3855C38.8827 11.8796 39.079 11.3195 39.5277 11.0575C39.9389 10.8136 40.4904 10.8768 40.911 11.1207H40.8829Z" fill="#FFD940"/>
<path d="M47.9486 20.7958C49.2852 20.1634 49.8273 18.6006 49.173 17.3087C48.5187 16.0169 46.9017 15.493 45.5652 16.1253C44.2286 16.7577 43.6865 18.3205 44.3407 19.6123C44.995 20.9042 46.612 21.4281 47.9486 20.7958Z" fill="#FFBE73"/>
<path d="M51.6223 78.1789C51.1456 77.7453 50.8278 77.1671 50.4072 76.6883C49.4258 75.5862 47.9303 75.0623 46.5003 74.6196C47.0517 73.8788 47.1359 73.2826 47.1826 72.6864C47.9584 72.7496 48.7528 72.6141 49.4632 72.307C50.7998 71.7288 51.7812 70.5996 52.9962 69.8137C53.3047 69.6149 53.6412 69.4343 54.015 69.3801C54.3889 69.3349 54.8002 69.4433 55.0151 69.7414C55.2301 70.0305 55.2208 70.4189 55.118 70.7622C54.8843 71.6023 54.1552 72.2889 53.286 72.5147C54.0244 72.5147 54.7628 72.6503 55.4357 72.9213C55.6788 73.0206 55.9124 73.1381 56.0807 73.3368C56.4265 73.7433 56.3424 74.3757 56.0807 74.8364C55.5199 75.8211 54.2113 76.345 53.0991 76.0198C53.529 76.3179 53.8935 76.7425 53.987 77.2394C54.0898 77.7453 53.8748 78.3144 53.4168 78.5673C52.8467 78.8835 52.099 78.6215 51.6223 78.1879V78.1789ZM43.9206 64.7729C44.3879 64.9987 44.7431 65.4504 44.8366 65.9472C44.874 65.4142 44.9207 64.8542 45.2011 64.3844C45.3974 64.0682 45.7712 63.7882 46.1451 63.8785C46.332 63.9237 46.4816 64.0411 46.6124 64.1766C47.1078 64.7096 47.2574 65.5227 46.977 66.1821C47.2293 65.9292 47.5284 65.7124 47.8649 65.5949C48.2107 65.4865 48.6126 65.4956 48.9024 65.6943C49.2389 65.9201 49.3884 66.3357 49.3697 66.7241C49.351 67.1126 49.1734 67.483 48.9678 67.8172C48.4724 68.6212 47.7621 69.2987 47.2574 70.1027C46.7713 70.8796 46.4816 71.783 46.4349 72.6864C45.5189 72.2076 44.7618 72.2166 44.0234 72.3521C43.8832 73.4091 43.8084 74.457 43.8832 75.0623C42.4064 75.2971 41.0325 76.0379 40.0417 77.1129C39.6772 77.5104 39.3594 77.953 38.9201 78.2692C38.4808 78.5854 37.8639 78.739 37.3779 78.486C37.1723 78.3776 37.004 78.197 36.8732 78.0072C36.4245 77.3207 36.4339 76.3812 36.9012 75.7037C36.3871 75.803 35.817 75.8753 35.3497 75.6494C34.7702 75.3784 34.4711 74.6738 34.6206 74.0685C34.7702 73.4633 35.3216 72.9845 35.9478 72.84C35.4899 72.596 35.0693 72.1805 35.0506 71.6746C35.0225 71.0061 35.6394 70.5002 36.2189 70.1479C36.4619 70.0034 36.7143 69.8588 37.004 69.8137C37.3779 69.7595 37.7611 69.904 38.0976 70.0666C39.0696 70.5273 39.9482 71.1597 40.9109 71.6385C41.855 72.1082 42.9485 72.4154 43.9767 72.1986C44.0234 70.2202 43.2102 68.305 42.1914 66.5796C41.9391 66.155 41.668 65.6311 41.8924 65.1974C41.9952 64.9987 42.1821 64.8632 42.3877 64.7638C42.8644 64.538 43.4439 64.538 43.9112 64.7638L43.9206 64.7729ZM46.7246 75.4055C46.6685 77.0135 47.2293 78.6306 48.2668 79.8772C48.5005 80.1482 48.7528 80.4192 48.8837 80.7445C48.9865 80.9974 49.0052 81.2684 48.9772 81.5394C48.9304 81.9279 48.7715 82.3073 48.4724 82.5783C48.1827 82.8493 47.7527 82.9848 47.3602 82.8855C46.8461 82.759 46.519 82.2892 46.2386 81.8556C46.2012 82.2892 46.1638 82.7319 46.0049 83.1384C45.8367 83.5449 45.5189 83.9153 45.0889 84.0508C44.5094 84.2224 43.8645 83.9153 43.5 83.4365C43.1448 82.9668 43.014 82.3615 42.9485 81.7833C42.7709 82.2441 42.2662 82.5422 41.7615 82.5422C41.2568 82.5422 40.7707 82.2802 40.453 81.9008C40.2567 81.6659 40.1165 81.3859 40.1258 81.0877C40.1352 80.7354 40.3595 80.4283 40.6305 80.1934C40.9016 79.9676 41.2287 79.805 41.5278 79.6152C42.9579 78.739 43.9673 77.2574 44.2571 75.6494C45.0515 75.8392 45.8834 75.8753 46.7153 75.4055H46.7246Z" fill="#FFB100"/>
<path d="M49.8463 72.542C48.949 72.6504 48.0424 72.804 47.2666 73.2647C46.9582 72.8401 46.3787 72.3974 45.7151 72.1716C46.0048 71.3134 45.9861 70.3829 45.9207 69.4795C45.8553 68.5762 45.7431 67.6638 45.874 66.7694C46.0048 65.8751 46.4161 64.9717 47.1825 64.4478C47.6685 64.1135 48.3602 63.969 48.8649 64.2852C49.1266 64.4478 49.3042 64.7097 49.4444 64.9717C49.7061 65.4505 49.8931 66.0106 49.7248 66.5255C50.0613 66.2093 50.4539 65.9293 50.9118 65.839C51.3698 65.7486 51.9026 65.9022 52.1456 66.2906C52.2858 66.5165 52.3232 66.7965 52.3139 67.0585C52.3045 67.736 52.0615 68.4045 51.6315 68.9375C52.1176 68.7297 52.6223 68.5581 53.1551 68.5762C53.6785 68.5942 54.2206 68.8562 54.4356 69.326C54.5851 69.6512 54.5477 70.0306 54.4356 70.3649C54.1365 71.1869 53.3513 71.7651 52.5008 72.0632C51.6502 72.3613 50.7436 72.4245 49.8463 72.5329V72.542ZM45.7992 75.4147C46.4161 75.0624 46.7245 74.5475 47.0236 74.0235C47.8742 74.9449 49.0892 75.5502 50.3604 75.6857C51.5474 75.8031 52.7438 75.5321 53.9402 75.5863C54.3327 75.6044 54.7533 75.6676 55.0524 75.9206C55.4357 76.2458 55.5104 76.7969 55.3889 77.2756C55.2487 77.7906 54.8842 78.2603 54.3795 78.4591C53.8 78.6849 53.1364 78.5494 52.5288 78.4049C53.1083 78.8836 53.6224 79.6244 53.3981 80.329C53.2298 80.862 52.6223 81.2234 52.0521 81.133C51.3511 81.0246 50.9025 80.3742 50.2856 80.04C50.351 80.7085 50.2295 81.386 49.9304 81.9912C49.7155 82.4249 49.3509 82.8494 48.8556 82.8856C48.6593 82.9036 48.463 82.8494 48.2854 82.7681C47.6779 82.4881 47.3134 81.8467 47.1732 81.2053C47.033 80.5639 47.089 79.9045 47.0797 79.245C47.061 77.8719 46.7339 76.4445 45.8085 75.4057L45.7992 75.4147ZM40.0603 75.7038C41.4343 75.7489 42.8176 75.2431 43.8177 74.3307C44.2663 74.8998 44.715 75.3515 45.201 75.776C44.1261 76.7065 43.8177 78.1971 43.7149 79.5883C43.6681 80.2116 43.6494 80.8349 43.4812 81.4402C43.3223 82.0454 43.0045 82.6326 42.4811 82.994C42.154 83.2198 41.696 83.3463 41.3408 83.1566C41.0417 82.994 40.8922 82.6597 40.8267 82.3345C40.6865 81.7293 40.7333 81.0788 40.9482 80.4916C40.6585 80.8711 40.2659 81.1782 39.8266 81.3679C39.4902 81.5125 39.0882 81.5938 38.7518 81.4492C38.3031 81.2505 38.1255 80.7085 38.1536 80.2297C38.1816 79.6786 38.4246 79.1366 38.8078 78.7301C38.0227 78.7933 37.1161 78.7572 36.6114 78.17C36.2562 77.7544 36.2095 77.1401 36.4431 76.6614C36.6768 76.1735 37.1628 75.8302 37.6956 75.6857C38.4527 75.487 39.2565 75.6857 40.0416 75.7038H40.0603ZM39.7612 66.4984C40.1818 66.7333 40.4809 67.1127 40.7426 67.5102C40.7239 66.9862 40.7707 66.4442 41.023 65.9745C41.266 65.5047 41.7427 65.1253 42.2848 65.0892C43.0513 65.035 43.7523 65.7215 43.799 66.4713C43.827 66.8417 43.7149 67.2121 43.6494 67.5825C43.3597 69.1814 43.9018 70.8888 45.0608 72.0632C44.5187 72.5239 44.042 73.0659 43.6681 73.6622C42.2848 72.7859 40.6959 72.2619 39.0883 72.1987C38.1255 72.1626 37.032 72.2439 36.3216 71.6025C35.9478 71.2682 35.7515 70.7533 35.8076 70.2564C35.8636 69.7596 36.1721 69.3079 36.6207 69.055C37.1441 68.7569 37.8732 68.793 38.3125 69.1995C38.0788 68.7388 37.8451 68.269 37.8078 67.7631C37.761 67.2573 37.9573 66.6972 38.4059 66.4352C38.8172 66.1913 39.3687 66.2545 39.7893 66.4984H39.7612Z" fill="#FFD940"/>
<path d="M46.8275 76.1727C48.1641 75.5404 48.7062 73.9775 48.0519 72.6857C47.3976 71.3939 45.7807 70.8699 44.4441 71.5023C43.1075 72.1346 42.5654 73.6975 43.2197 74.9893C43.8739 76.2811 45.4909 76.8051 46.8275 76.1727Z" fill="#FFBE73"/>
<path d="M53.6877 34.3017C53.0521 34.4462 52.3885 34.374 51.7435 34.4462C50.2668 34.6179 48.9956 35.5122 47.8273 36.4066C47.5001 35.5664 47.0421 35.1599 46.5561 34.7986C47.0328 34.2114 47.3599 33.5158 47.4908 32.784C47.7431 31.4109 47.3132 30.0017 47.3132 28.6014C47.3132 28.2401 47.3412 27.8787 47.5095 27.5535C47.6777 27.2373 47.9955 26.9663 48.3694 26.9573C48.7339 26.9483 49.061 27.1741 49.2947 27.4361C49.8742 28.0865 50.0611 29.0441 49.7714 29.8571C50.1733 29.2699 50.6967 28.755 51.3042 28.3756C51.5192 28.2401 51.7529 28.1136 52.0146 28.0865C52.5567 28.0323 53.0427 28.4479 53.2951 28.9176C53.8279 29.9023 53.5475 31.2302 52.6502 31.9439C53.1362 31.7632 53.697 31.7181 54.183 31.9078C54.6691 32.1065 55.0336 32.5853 54.9962 33.0912C54.9495 33.7145 54.3139 34.1662 53.6783 34.3107L53.6877 34.3017ZM38.0413 33.0189C38.4993 32.775 39.0694 32.7389 39.5461 32.9376C39.1068 32.6124 38.6581 32.2691 38.4245 31.7813C38.2562 31.447 38.2282 31.0044 38.5086 30.7515C38.6488 30.625 38.8357 30.5708 39.0227 30.5437C39.7517 30.4443 40.5181 30.7786 40.9294 31.3657C40.8546 31.0225 40.8266 30.6702 40.9294 30.3359C41.0322 30.0017 41.2565 29.6945 41.593 29.568C41.9669 29.4235 42.4062 29.5319 42.724 29.7668C43.0418 30.0017 43.2567 30.3449 43.4343 30.6882C43.8456 31.5284 44.0232 32.4588 44.4344 33.299C44.827 34.112 45.4345 34.8347 46.1822 35.3767C45.2663 35.8374 44.855 36.4427 44.5653 37.1022C45.3878 37.7978 46.2383 38.4301 46.7898 38.7102C46.1822 40.011 46.042 41.5106 46.4159 42.8928C46.5468 43.3987 46.7524 43.8955 46.7804 44.4195C46.7991 44.9434 46.5935 45.5216 46.1168 45.7565C45.9112 45.8649 45.6682 45.892 45.4345 45.892C44.6027 45.8739 43.8082 45.3409 43.4904 44.6001C43.2941 45.0699 43.0417 45.5487 42.5838 45.8016C42.0323 46.1088 41.2752 45.9642 40.8359 45.5125C40.406 45.0609 40.3032 44.3562 40.5275 43.7871C40.0695 44.022 39.4807 44.1214 39.0414 43.8594C38.4619 43.5161 38.3684 42.7482 38.3871 42.0888C38.3871 41.8178 38.4151 41.5287 38.5366 41.2848C38.7049 40.9596 39.032 40.7337 39.3591 40.553C40.2845 40.0291 41.3126 39.6858 42.2473 39.1799C43.1633 38.6831 44.0325 37.9965 44.4157 37.057C42.7614 35.9278 40.6864 35.5122 38.6581 35.3767C38.1534 35.3406 37.5646 35.2773 37.3216 34.8528C37.2094 34.6631 37.1907 34.4372 37.2281 34.2204C37.2935 33.7235 37.6207 33.2628 38.0693 33.0099L38.0413 33.0189ZM48.6217 36.6595C49.9583 37.59 51.6407 38.0326 53.2764 37.8971C53.6409 37.87 54.0054 37.8068 54.3606 37.8881C54.6317 37.9423 54.8747 38.0778 55.0803 38.2494C55.3888 38.4933 55.6224 38.8366 55.6879 39.216C55.7533 39.5955 55.6318 40.011 55.3327 40.273C54.9401 40.6072 54.3606 40.6163 53.8466 40.5982C54.2017 40.8692 54.5569 41.1402 54.8093 41.4925C55.0616 41.8449 55.2018 42.3056 55.0803 42.7211C54.9121 43.2812 54.2858 43.6155 53.6877 43.6426C53.0895 43.6697 52.51 43.4348 51.9772 43.1638C52.267 43.5522 52.2389 44.1214 51.9679 44.5279C51.6875 44.9344 51.2014 45.1693 50.6967 45.2144C50.3976 45.2415 50.0705 45.1964 49.8275 45.0247C49.5377 44.826 49.3882 44.4737 49.3414 44.1304C49.2947 43.7871 49.3414 43.4438 49.3414 43.1005C49.3788 41.4835 48.6872 39.8574 47.4721 38.7463C48.0703 38.2223 48.5563 37.5809 48.6217 36.6595Z" fill="#FF961C"/>
<path d="M47.9114 32.5933C47.5094 33.3612 47.1356 34.1742 47.1075 35.0324C46.5748 35.0505 45.8738 35.2583 45.3223 35.6648C44.7522 34.9602 43.9483 34.4633 43.1445 34.0207C42.3407 33.578 41.5089 33.1624 40.8172 32.5662C40.1255 31.97 39.5834 31.1479 39.5647 30.2536C39.5554 29.6845 39.8077 29.0521 40.3499 28.8263C40.6303 28.7088 40.948 28.7088 41.2565 28.745C41.8079 28.7992 42.3874 28.9618 42.7333 29.3864C42.6492 28.9437 42.6305 28.474 42.808 28.0674C42.9856 27.6519 43.4062 27.3176 43.8736 27.3357C44.1446 27.3447 44.397 27.4712 44.6213 27.6248C45.1915 28.0042 45.6214 28.5733 45.8457 29.2057C45.9392 28.7088 46.07 28.2029 46.3785 27.8055C46.6869 27.3989 47.2103 27.1099 47.7244 27.2002C48.0796 27.2634 48.388 27.4983 48.603 27.7784C49.1358 28.4649 49.1919 29.4135 48.9769 30.2536C48.7619 31.0937 48.3133 31.8526 47.9114 32.6204V32.5933ZM48.117 37.3993C48.1544 36.7127 47.8833 36.1887 47.6123 35.6558C48.8647 35.4931 50.0517 34.8608 50.8649 33.9213C51.622 33.045 52.0519 31.9429 52.7529 31.0215C52.9866 30.7143 53.2764 30.4252 53.6502 30.3259C54.1363 30.1994 54.6503 30.4433 54.9868 30.8046C55.3513 31.1931 55.5383 31.7442 55.4355 32.2591C55.3046 32.8463 54.8279 33.298 54.3699 33.7045C55.099 33.5057 56.0056 33.5057 56.4823 34.0749C56.8375 34.4994 56.8188 35.186 56.4262 35.5835C55.9495 36.0803 55.1457 36.0803 54.5288 36.3875C55.1364 36.7037 55.6411 37.1825 55.9869 37.7516C56.2393 38.1581 56.3982 38.682 56.1552 39.0976C56.0617 39.2602 55.9121 39.3867 55.7439 39.486C55.1644 39.8203 54.426 39.748 53.7998 39.5041C53.1829 39.2602 52.6408 38.8537 52.08 38.5014C50.9023 37.7606 49.5096 37.2276 48.1076 37.3902L48.117 37.3993ZM45.2102 42.1058C46.0046 41.0398 46.3318 39.6667 46.1168 38.3659C46.8458 38.3207 47.4814 38.2123 48.1076 38.0587C48.3039 39.4228 49.4068 40.4888 50.5284 41.347C51.0332 41.7264 51.5566 42.0878 51.9772 42.5485C52.3978 43.0092 52.7249 43.5874 52.7529 44.2016C52.7623 44.5901 52.6221 45.0147 52.2669 45.1954C51.9678 45.3489 51.6033 45.2767 51.2855 45.1502C50.6967 44.9243 50.1639 44.5359 49.79 44.039C49.9489 44.4727 49.9957 44.9514 49.9209 45.4122C49.8648 45.7645 49.7059 46.1258 49.3975 46.3065C48.9769 46.5504 48.4254 46.3878 48.0329 46.1078C47.5842 45.7825 47.2571 45.2947 47.1262 44.7617C46.743 45.4212 46.2103 46.1168 45.4345 46.1891C44.8924 46.2433 44.3409 45.9361 44.0605 45.4844C43.7801 45.0327 43.7427 44.4546 43.9203 43.9487C44.1633 43.235 44.7709 42.7021 45.2288 42.0968L45.2102 42.1058ZM37.2187 37.2728C37.6487 37.074 38.144 37.0379 38.6207 37.056C38.1627 36.785 37.7328 36.4417 37.4711 35.99C37.2094 35.5383 37.1439 34.9511 37.415 34.4994C37.7889 33.858 38.7609 33.6864 39.4245 34.0568C39.7517 34.2465 40.004 34.5356 40.2844 34.7885C41.4808 35.8997 43.238 36.4146 44.8643 36.1436C44.9578 36.8301 45.1541 37.4986 45.4532 38.131C43.939 38.7453 42.6211 39.7209 41.6771 40.9585C41.1069 41.7083 40.5835 42.6207 39.6489 42.8285C39.1535 42.9369 38.6114 42.8105 38.2188 42.4943C37.8356 42.1781 37.6113 41.6722 37.6487 41.1844C37.686 40.6062 38.116 40.0461 38.7048 39.9197C38.1908 39.8474 37.658 39.7751 37.2094 39.5312C36.7514 39.2873 36.3869 38.8266 36.4149 38.3297C36.4429 37.869 36.7981 37.4715 37.2281 37.2638L37.2187 37.2728Z" fill="#FF6E29"/>
<path d="M49.341 37.0021C49.5373 35.5928 48.5185 34.301 47.0604 34.1113C45.6023 33.9216 44.2658 34.9063 44.0695 36.3155C43.8732 37.7248 44.892 39.0166 46.3501 39.2063C47.8082 39.396 49.1447 38.4113 49.341 37.0021Z" fill="#FFBE73"/>
</g>
<defs>
<clipPath id="clip0_1546_1920">
<rect width="95" height="112" fill="white" transform="matrix(-1 0 0 1 95 -10)"/>
</clipPath>
</defs>
</svg>
