<svg width="72" height="102" viewBox="0 0 72 102" fill="none" xmlns="http://www.w3.org/2000/svg">
<g clip-path="url(#clip0_1546_1921)">
<path d="M12.2074 25.4657C12.0225 24.8604 11.634 24.3274 11.3843 23.7402C10.8109 22.3942 10.9959 20.8766 11.2271 19.4312C10.3023 19.5757 9.71963 19.386 9.15548 19.1511C8.86878 19.8467 8.39712 20.4791 7.79598 20.9579C6.67693 21.8522 5.20644 22.1865 3.94867 22.8911C3.62498 23.0718 3.31054 23.2795 3.10707 23.5776C2.90361 23.8758 2.82038 24.2823 2.99609 24.6075C3.16256 24.9237 3.52325 25.0863 3.88393 25.1585C4.75328 25.3302 5.7151 25.014 6.29775 24.3636C5.96481 24.9959 5.76134 25.7006 5.7151 26.4052C5.69661 26.6581 5.69661 26.9201 5.80759 27.146C6.02955 27.6338 6.63993 27.8416 7.18559 27.8235C8.33238 27.7874 9.39594 26.884 9.59015 25.7728C9.66414 26.2787 9.89535 26.7756 10.3115 27.0918C10.7277 27.3989 11.3473 27.4802 11.782 27.2002C12.3184 26.8478 12.4109 26.089 12.2352 25.4747L12.2074 25.4657ZM3.35678 12.8004C3.35678 13.3063 3.61573 13.8122 4.02266 14.1193C3.514 13.9116 2.98685 13.7038 2.43195 13.7399C2.05276 13.767 1.63659 13.9658 1.54411 14.3271C1.49786 14.5078 1.54411 14.6975 1.60884 14.8691C1.87705 15.5376 2.55217 16.0255 3.28279 16.0797C2.9406 16.1881 2.60766 16.3416 2.34871 16.5855C2.08976 16.8295 1.93254 17.1818 1.97878 17.5341C2.03427 17.9225 2.34871 18.2387 2.71864 18.3923C3.08858 18.5459 3.50475 18.5639 3.90243 18.5368C4.86426 18.4646 5.78909 18.1574 6.75091 18.0851C7.67575 18.0129 8.62832 18.1664 9.47917 18.5368C9.44218 17.5341 9.79361 16.8746 10.2375 16.3055C11.2733 16.6669 12.2629 17.0643 12.7808 17.3986C13.6502 16.2332 14.9357 15.375 16.3692 14.9956C16.8963 14.8601 17.442 14.7878 17.9229 14.5439C18.4038 14.3 18.82 13.8393 18.8015 13.3153C18.8015 13.0895 18.6998 12.8637 18.5795 12.6649C18.1541 11.9693 17.2848 11.5538 16.4524 11.6531C16.7761 11.2557 17.0905 10.7949 17.0905 10.289C17.0905 9.66572 16.5911 9.0966 15.9715 8.95206C15.3519 8.80752 14.6675 9.0695 14.2606 9.54828C14.2421 9.04239 14.0478 8.49134 13.5947 8.24743C13.0028 7.92222 12.2629 8.22936 11.6803 8.57264C11.4398 8.71718 11.1901 8.87075 11.0329 9.10563C10.8202 9.41278 10.7832 9.80123 10.7739 10.1716C10.7647 11.2195 10.9589 12.2584 10.9589 13.3063C10.9589 14.3362 10.7647 15.4112 10.1081 16.2061C8.27689 15.357 6.88039 13.8032 5.76134 12.15C5.48389 11.7435 5.13246 11.2737 4.6238 11.2737C4.40184 11.2737 4.18913 11.3731 4.00416 11.5086C3.58799 11.8157 3.32903 12.3216 3.32903 12.8275L3.35678 12.8004ZM11.8375 19.9913C13.3265 20.6688 14.5565 21.8703 15.2409 23.3337C15.3889 23.6589 15.5183 23.9932 15.7588 24.2552C15.9438 24.4539 16.1842 24.5985 16.4432 24.6888C16.8131 24.8243 17.2385 24.8514 17.6085 24.7249C17.9784 24.5894 18.3021 24.2823 18.3853 23.9029C18.4963 23.406 18.2188 22.9091 17.9414 22.4755C18.3576 22.6381 18.7737 22.8098 19.2269 22.8459C19.6708 22.882 20.1517 22.7827 20.4662 22.4665C20.8824 22.0419 20.8824 21.3463 20.6142 20.8224C20.346 20.2984 19.8465 19.919 19.3471 19.6028C19.8465 19.657 20.346 19.3499 20.5679 18.9162C20.7899 18.4826 20.7714 17.9406 20.5679 17.498C20.4384 17.2269 20.2442 16.974 19.9668 16.8566C19.6431 16.712 19.2547 16.7572 18.931 16.8927C18.598 17.0192 18.3113 17.2269 18.0061 17.4076C16.5726 18.2478 14.7692 18.4646 13.16 17.9858C12.9843 18.7536 12.6421 19.4944 11.8467 20.0003L11.8375 19.9913Z" fill="#ED3634"/>
<path d="M7.8331 21.4014C8.32327 20.6787 8.87817 19.956 9.63653 19.4952C9.38682 19.0345 9.23885 18.3389 9.33133 17.6614C8.41575 17.5259 7.57415 17.0923 6.77879 16.6316C5.98344 16.1708 5.19733 15.6649 4.31874 15.3759C3.44015 15.0868 2.43208 15.0326 1.61823 15.4662C1.10032 15.7372 0.656402 16.2702 0.72114 16.8484C0.748885 17.1465 0.915355 17.4175 1.09107 17.6614C1.41476 18.1041 1.84944 18.5106 2.39509 18.6009C1.96042 18.7454 1.52574 18.9623 1.23905 19.3236C0.952348 19.685 0.859865 20.2089 1.10032 20.5883C1.23905 20.8142 1.4795 20.9677 1.72921 21.0852C2.34885 21.3743 3.07022 21.4646 3.75459 21.3381C3.35691 21.6633 2.96848 22.0247 2.75577 22.4944C2.54306 22.9552 2.54306 23.5423 2.876 23.9398C3.10721 24.2108 3.46789 24.3554 3.82858 24.4006C4.71642 24.518 5.59501 24.0844 6.24239 23.4881C6.88977 22.8919 7.35219 22.1331 7.8516 21.4104L7.8331 21.4014ZM12.2538 19.1971C11.6619 19.5765 11.0515 19.6036 10.4411 19.6307C10.9128 20.778 10.922 22.106 10.4781 23.2623C10.062 24.3463 9.27584 25.2588 8.79493 26.3157C8.63771 26.668 8.50823 27.0565 8.60996 27.4268C8.73944 27.8966 9.21111 28.2218 9.70127 28.3212C10.2284 28.4386 10.8203 28.3212 11.2272 27.9779C11.6989 27.5804 11.8561 26.9481 12.0041 26.3518C12.1891 27.0745 12.633 27.8424 13.3821 27.9598C13.9462 28.0502 14.5474 27.6888 14.7139 27.1649C14.9266 26.5144 14.5289 25.8279 14.5011 25.1503C15.0838 25.5027 15.7589 25.7014 16.4525 25.7195C16.9427 25.7195 17.4976 25.602 17.7473 25.1955C17.849 25.0329 17.886 24.8432 17.8953 24.6535C17.9138 23.994 17.4884 23.3978 16.9612 22.9913C16.434 22.5848 15.8052 22.3318 15.2133 22.0247C13.9647 21.3923 12.7995 20.4709 12.2631 19.1971H12.2538ZM15.0745 14.3731C14.5011 15.5746 13.4283 16.5412 12.1521 17.0019C12.4758 17.6433 12.6885 18.2396 12.8549 18.8448C14.1867 18.3389 15.6849 18.7454 17.0074 19.2694C17.5993 19.5043 18.182 19.7663 18.8016 19.9018C19.4213 20.0373 20.1056 20.0282 20.6698 19.7392C21.0212 19.5585 21.3449 19.2242 21.3264 18.8358C21.3172 18.5015 21.0675 18.2305 20.8085 18.0227C20.3091 17.6343 19.708 17.3723 19.0698 17.3001C19.5415 17.2187 19.9947 17.02 20.3738 16.7219C20.6605 16.4961 20.9102 16.1889 20.9195 15.8276C20.938 15.3488 20.5126 14.9603 20.0686 14.7616C19.5507 14.5448 18.9496 14.4996 18.4039 14.6532C18.8109 14.0027 19.1716 13.1987 18.8664 12.5031C18.6444 12.0153 18.0987 11.6991 17.5531 11.6811C17.0074 11.663 16.471 11.925 16.1011 12.3225C15.5832 12.8916 15.3982 13.6685 15.0745 14.3551V14.3731ZM6.78804 9.98274C6.81579 10.4525 7.0285 10.8861 7.2782 11.2836C6.80654 11.0307 6.28863 10.8319 5.75223 10.8319C5.21583 10.8319 4.66093 11.0758 4.38348 11.5185C3.99505 12.1599 4.31874 13.0723 4.97537 13.4427C5.30831 13.6324 5.68749 13.7046 6.05743 13.813C7.64814 14.2828 8.97065 15.5114 9.5348 17.0381C10.2007 16.7761 10.9035 16.6135 11.6157 16.5503C11.4307 14.9603 11.6527 13.3523 12.3093 11.934C12.707 11.0849 13.2619 10.1725 12.9937 9.27811C12.8549 8.79933 12.4665 8.40184 11.9949 8.2302C11.5139 8.05856 10.959 8.1218 10.5336 8.39281C10.0342 8.71802 9.73826 9.35942 9.92323 9.91951C9.60878 9.51299 9.28509 9.09744 8.84117 8.83546C8.39725 8.57348 7.80536 8.48315 7.36144 8.75416C6.95451 9.0071 6.76955 9.50396 6.80654 9.97371L6.78804 9.98274Z" fill="#ED5958"/>
<path d="M12.5042 20.4355C11.3297 21.3027 9.66496 21.0769 8.77712 19.9296C7.88928 18.7823 8.12049 17.1562 9.29503 16.289C10.4696 15.4218 12.1343 15.6476 13.0221 16.7949C13.9099 17.9422 13.6787 19.5682 12.5042 20.4355Z" fill="#FFAF6F"/>
<path d="M16.8595 -4.07414C16.3879 -3.64052 16.0734 -3.06236 15.6573 -2.58357C14.6862 -1.48146 13.2064 -0.957502 11.7915 -0.514851C12.3371 0.225914 12.4203 0.82214 12.4666 1.41836C13.2342 1.35513 14.0203 1.49063 14.7232 1.79778C16.0457 2.37594 17.0168 3.50515 18.219 4.29109C18.5242 4.48983 18.8572 4.6705 19.2271 4.7247C19.597 4.76987 20.004 4.66147 20.2167 4.36336C20.4294 4.07428 20.4201 3.68583 20.3184 3.34255C20.0872 2.50241 19.3658 1.81585 18.5057 1.59C19.2364 1.59 19.967 1.4545 20.6329 1.18349C20.8733 1.08412 21.1045 0.966679 21.271 0.767937C21.6132 0.36142 21.5299 -0.27094 21.271 -0.73166C20.7161 -1.71633 19.4213 -2.24029 18.3208 -1.91508C18.7462 -2.21319 19.1069 -2.63777 19.1994 -3.13463C19.3011 -3.64052 19.0884 -4.20964 18.6352 -4.46258C18.0711 -4.77876 17.3312 -4.51679 16.8595 -4.08317V-4.07414ZM9.23891 9.3319C9.70133 9.10606 10.0528 8.65437 10.1452 8.15752C10.1822 8.69051 10.2285 9.2506 10.5059 9.72035C10.7001 10.0365 11.0701 10.3166 11.44 10.2262C11.625 10.1811 11.773 10.0636 11.9024 9.92812C12.3926 9.39514 12.5406 8.5821 12.2631 7.92264C12.5128 8.17558 12.8088 8.39239 13.1417 8.50983C13.4839 8.61824 13.8816 8.6092 14.1683 8.41046C14.5012 8.18462 14.6492 7.76907 14.6307 7.38062C14.6122 6.99217 14.4365 6.62179 14.233 6.28754C13.7428 5.48354 13.04 4.80601 12.5406 4.00201C12.0597 3.22511 11.773 2.32174 11.7267 1.41836C10.8204 1.89715 10.0713 1.88812 9.34064 1.75261C9.20192 0.695667 9.12793 -0.352243 9.20192 -0.957502C7.74068 -1.19238 6.38118 -1.93314 5.40086 -3.00816C5.04017 -3.40564 4.72573 -3.84829 4.29106 -4.16447C3.85639 -4.48065 3.246 -4.63423 2.76508 -4.38128C2.56162 -4.27288 2.39515 -4.0922 2.26567 -3.90249C1.82175 -3.21593 1.831 -2.27643 2.29342 -1.5989C1.78476 -1.69827 1.22061 -1.77054 0.758196 -1.54469C0.184799 -1.27368 -0.111147 -0.569054 0.036826 0.0362053C0.184799 0.641464 0.730451 1.12025 1.35009 1.26479C0.896921 1.5087 0.480746 1.92425 0.462249 2.43014C0.434504 3.09864 1.04489 3.60452 1.61829 3.95684C1.85875 4.10138 2.10845 4.24592 2.39515 4.29109C2.76508 4.34529 3.14426 4.20075 3.4772 4.03814C4.43903 3.57742 5.30837 2.94506 6.26095 2.46628C7.19503 1.99652 8.27709 1.68938 9.2944 1.90619C9.34064 3.88457 8.53604 5.79972 7.52797 7.52516C7.27827 7.94974 7.01007 8.4737 7.23203 8.90731C7.33376 9.10606 7.51872 9.24156 7.72219 9.34093C8.19385 9.56678 8.76725 9.56678 9.22966 9.34093L9.23891 9.3319ZM12.0134 -1.30078C11.9579 -2.90879 12.5128 -4.52582 13.5394 -5.77247C13.7706 -6.05252 14.0203 -6.3145 14.1498 -6.63971C14.2515 -6.89265 14.27 -7.16367 14.2423 -7.43468C14.196 -7.82313 14.0388 -8.20254 13.7428 -8.47355C13.4562 -8.74457 13.0307 -8.88007 12.6423 -8.7807C12.1336 -8.65423 11.8099 -8.18448 11.5325 -7.75086C11.4955 -8.18448 11.4585 -8.62713 11.3013 -9.03364C11.1348 -9.44016 10.8204 -9.81054 10.395 -9.94605C9.82156 -10.1177 9.18342 -9.81054 8.82274 -9.33176C8.4713 -8.862 8.34182 -8.25675 8.27709 -7.67859C8.10137 -8.13931 7.60196 -8.43742 7.10255 -8.43742C6.60314 -8.43742 6.12223 -8.17544 5.80778 -7.79603C5.61357 -7.56115 5.47484 -7.2811 5.48409 -6.98299C5.49334 -6.63068 5.7153 -6.32353 5.9835 -6.08865C6.2517 -5.86281 6.57539 -5.7002 6.87134 -5.5105C8.28633 -4.63423 9.28516 -3.1527 9.57185 -1.54469C10.358 -1.7344 11.1811 -1.77054 12.0042 -1.30078H12.0134Z" fill="#FFB100"/>
<path d="M15.1025 1.56368C14.2146 1.45527 13.3176 1.3017 12.5499 0.840981C12.2448 1.26556 11.6714 1.70822 11.0147 1.93406C11.3014 2.79226 11.2829 3.72274 11.2182 4.62611C11.1535 5.52948 11.0425 6.44188 11.1719 7.33622C11.3014 8.23056 11.7084 9.13393 12.4667 9.65789C12.9476 9.99213 13.632 10.1367 14.1314 9.8205C14.3904 9.65789 14.5661 9.39591 14.7048 9.13393C14.9638 8.65515 15.1487 8.09505 14.9823 7.58013C15.3152 7.89631 15.7036 8.17636 16.1568 8.2667C16.61 8.35703 17.1371 8.20346 17.3776 7.81501C17.5163 7.58917 17.5533 7.30912 17.544 7.04714C17.5348 6.36962 17.2943 5.70112 16.8689 5.16813C17.3498 5.37591 17.8492 5.54755 18.3764 5.52948C18.8943 5.51141 19.4307 5.24943 19.6434 4.77968C19.7914 4.45447 19.7544 4.07505 19.6434 3.7408C19.3475 2.91873 18.5706 2.34058 17.729 2.04246C16.8874 1.74435 15.9903 1.68112 15.1025 1.57271V1.56368ZM11.098 -1.30904C11.7084 -0.956729 12.0135 -0.441807 12.3095 0.0821486C13.1511 -0.839291 14.3534 -1.44455 15.6111 -1.58006C16.7857 -1.69749 17.9695 -1.42648 19.1533 -1.48068C19.5417 -1.49875 19.9579 -1.56199 20.2538 -1.81493C20.633 -2.14015 20.707 -2.6912 20.5867 -3.16999C20.448 -3.68491 20.0873 -4.15466 19.5879 -4.35341C19.0145 -4.57925 18.3579 -4.44374 17.7568 -4.2992C18.3302 -4.77799 18.8388 -5.51875 18.6169 -6.22338C18.4504 -6.75637 17.8492 -7.11772 17.2851 -7.02739C16.5915 -6.91898 16.1475 -6.26855 15.5372 -5.93431C15.6019 -6.6028 15.4817 -7.28033 15.1857 -7.88559C14.973 -8.31921 14.6123 -8.74379 14.1222 -8.77993C13.928 -8.79799 13.7337 -8.74379 13.558 -8.66249C12.9569 -8.38244 12.5962 -7.74105 12.4575 -7.09965C12.3187 -6.45826 12.3742 -5.7988 12.365 -5.13934C12.3465 -3.76621 12.0228 -2.33889 11.1072 -1.30001L11.098 -1.30904ZM5.42874 -1.60716C6.78824 -1.65233 8.15699 -1.14644 9.14657 -0.234032C9.59049 -0.803155 10.0344 -1.25484 10.5153 -1.67943C9.45176 -2.6099 9.14657 -4.10046 9.04483 -5.49165C8.99859 -6.11498 8.9801 -6.73831 8.81363 -7.34357C8.6564 -7.94882 8.34196 -8.53602 7.82406 -8.89736C7.50036 -9.12321 7.0472 -9.24968 6.69576 -9.05997C6.39981 -8.89736 6.25184 -8.56312 6.1871 -8.2379C6.04838 -7.63264 6.09462 -6.98222 6.30733 -6.39503C6.02063 -6.77444 5.6322 -7.08159 5.19753 -7.2713C4.86459 -7.41583 4.46691 -7.49714 4.13397 -7.3526C3.69005 -7.15386 3.51433 -6.61183 3.54208 -6.13305C3.56982 -5.58199 3.81028 -5.03997 4.18946 -4.63345C3.4126 -4.69669 2.51552 -4.66055 2.01611 -4.07336C1.66467 -3.65781 1.61843 -3.04352 1.84964 -2.56473C2.08084 -2.08594 2.56176 -1.73363 3.08891 -1.58909C3.83803 -1.39035 4.63338 -1.58909 5.41024 -1.60716H5.42874ZM5.12354 7.5982C5.53972 7.36332 5.83567 6.98391 6.09462 6.58642C6.07612 7.11038 6.12236 7.6524 6.37207 8.12216C6.61252 8.59191 7.08419 8.97132 7.62059 9.00746C8.37895 9.06166 9.07258 8.3751 9.11882 7.6253C9.14657 7.25492 9.03559 6.88454 8.97085 6.51416C8.68415 4.91519 9.22055 3.20781 10.3673 2.03343C9.83094 1.57271 9.35928 1.03069 8.98934 0.434464C7.62059 1.31073 6.04838 1.83469 4.45766 1.89793C3.50509 1.93406 2.42303 1.85276 1.72016 2.49415C1.35023 2.8284 1.15601 3.34332 1.2115 3.84017C1.26699 4.33703 1.57219 4.78871 2.01611 5.04166C2.53401 5.33977 3.25538 5.30364 3.69005 4.89712C3.45884 5.35784 3.22764 5.82759 3.19064 6.33348C3.1444 6.83937 3.33862 7.39946 3.78254 7.66144C4.18946 7.90535 4.73511 7.84211 5.15129 7.5982H5.12354Z" fill="#FFD940"/>
<path d="M12.1156 -2.07779C13.4381 -1.44543 13.9745 0.117401 13.3271 1.40922C12.6798 2.70104 11.0798 3.225 9.75729 2.59264C8.43478 1.96028 7.89838 0.397446 8.54576 -0.894375C9.19314 -2.1862 10.7931 -2.71015 12.1156 -2.07779Z" fill="#FFBE73"/>
<path d="M17.8584 37.373C17.2295 37.2284 16.5728 37.3007 15.9347 37.2284C14.4735 37.0568 13.2157 36.1625 12.0597 35.2681C11.736 36.1083 11.2828 36.5148 10.8019 36.8761C11.2736 37.4633 11.5972 38.1589 11.7267 38.8906C11.9764 40.2638 11.551 41.673 11.551 43.0732C11.551 43.4346 11.5787 43.7959 11.7452 44.1212C11.9117 44.4373 12.2261 44.7083 12.5961 44.7174C12.9567 44.7264 13.2804 44.5006 13.5116 44.2386C14.085 43.5882 14.27 42.6306 13.9833 41.8176C14.381 42.4047 14.8989 42.9197 15.5 43.2991C15.7128 43.4346 15.944 43.5611 16.2029 43.5882C16.7393 43.6424 17.2202 43.2268 17.4699 42.7571C17.9971 41.7724 17.7196 40.4444 16.8318 39.7308C17.3127 39.9114 17.8676 39.9566 18.3485 39.7669C18.8294 39.5682 19.1901 39.0894 19.1531 38.5835C19.1069 37.9602 18.478 37.5085 17.8491 37.3639L17.8584 37.373ZM2.38591 38.6467C2.83908 38.8906 3.40323 38.9268 3.87489 38.728C3.44022 39.0532 2.9963 39.3965 2.76509 39.8843C2.59862 40.2186 2.57088 40.6612 2.84833 40.9142C2.98705 41.0407 3.17202 41.0949 3.35699 41.122C4.07836 41.2213 4.83672 40.8871 5.24365 40.2999C5.16966 40.6432 5.14191 40.9955 5.24365 41.3297C5.33613 41.664 5.56734 41.9711 5.90028 42.0976C6.27021 42.2421 6.70488 42.1337 7.01932 41.8989C7.33377 41.664 7.54648 41.3207 7.7222 40.9774C8.12912 40.1373 8.30484 39.2068 8.71177 38.3667C9.1002 37.5536 9.70134 36.8309 10.4412 36.2889C9.53487 35.8282 9.12794 35.2229 8.84125 34.5635C9.6551 33.8679 10.4967 33.2355 11.0423 32.9555C10.4412 31.6546 10.3025 30.155 10.6724 28.7729C10.8019 28.267 11.0054 27.7701 11.0331 27.2462C11.0516 26.7222 10.8481 26.1441 10.3765 25.9092C10.173 25.8008 9.93255 25.7737 9.70134 25.7737C8.87824 25.7917 8.09213 26.3247 7.77769 27.0655C7.58347 26.5957 7.33377 26.117 6.8806 25.864C6.33495 25.5569 5.58583 25.7014 5.16041 26.1531C4.73499 26.6048 4.63326 27.3094 4.85522 27.8785C4.40205 27.6437 3.8194 27.5443 3.38473 27.8063C2.81134 28.1495 2.71885 28.9174 2.73735 29.5769C2.73735 29.8479 2.76509 30.137 2.88532 30.3809C3.05179 30.7061 3.37548 30.9319 3.69918 31.1126C4.61476 31.6366 5.63208 31.9798 6.55691 32.4857C7.46324 32.9826 8.32334 33.6691 8.70252 34.6087C7.06557 35.7379 5.01244 36.1534 3.00555 36.2889C2.50614 36.3251 1.9235 36.3883 1.68304 36.8129C1.57206 37.0026 1.55356 37.2284 1.59056 37.4452C1.65529 37.9421 1.97899 38.4028 2.42291 38.6558L2.38591 38.6467ZM12.855 35.0061C14.1775 34.0757 15.8422 33.633 17.4607 33.7685C17.8214 33.7956 18.1821 33.8589 18.5335 33.7776C18.8017 33.7233 19.0421 33.5878 19.2456 33.4162C19.5508 33.1723 19.782 32.829 19.8468 32.4496C19.9115 32.0702 19.7913 31.6546 19.4953 31.3927C19.1069 31.0584 18.5335 31.0494 18.0248 31.0674C18.3763 30.7964 18.7277 30.5254 18.9774 30.1731C19.2271 29.8208 19.3658 29.3601 19.2456 28.9445C19.0791 28.3844 18.4595 28.0502 17.8676 28.0231C17.2757 27.996 16.7023 28.2309 16.1752 28.5019C16.4619 28.1134 16.4341 27.5443 16.1659 27.1378C15.8885 26.7313 15.4076 26.4964 14.9081 26.4512C14.6122 26.4241 14.2885 26.4693 14.0481 26.6409C13.7614 26.8397 13.6134 27.192 13.5671 27.5353C13.5209 27.8785 13.5671 28.2218 13.5671 28.5651C13.6041 30.1821 12.9198 31.8082 11.7175 32.9193C12.3094 33.4433 12.7903 34.0847 12.855 35.0061Z" fill="#FF961C"/>
<path d="M12.1426 39.0706C11.7449 38.3028 11.375 37.4897 11.3472 36.6315C10.8201 36.6135 10.1264 36.4057 9.58078 35.9992C9.01663 36.7038 8.22128 37.2007 7.42592 37.6433C6.63056 38.086 5.80746 38.5015 5.12309 39.0977C4.43871 39.694 3.90231 40.516 3.88381 41.4104C3.87456 41.9795 4.12427 42.6119 4.66067 42.8377C4.93812 42.9551 5.25256 42.9551 5.55776 42.919C6.10341 42.8648 6.67681 42.7022 7.01899 42.2776C6.93576 42.7203 6.91726 43.19 7.09298 43.5965C7.2687 44.0121 7.68488 44.3463 8.14729 44.3283C8.41549 44.3192 8.6652 44.1928 8.88716 44.0392C9.4513 43.6598 9.87673 43.0906 10.0987 42.4583C10.1912 42.9551 10.3206 43.461 10.6258 43.8585C10.931 44.265 11.4489 44.5541 11.9576 44.4638C12.309 44.4005 12.6142 44.1657 12.8269 43.8856C13.3541 43.199 13.4096 42.2505 13.1969 41.4104C12.9842 40.5702 12.5402 39.8114 12.1426 39.0435V39.0706ZM12.3553 34.2737C12.3923 34.9603 12.1241 35.4842 11.8559 36.0172C13.0951 36.1798 14.2697 36.8122 15.0743 37.7517C15.8234 38.628 16.2488 39.7301 16.9424 40.6515C17.1737 40.9587 17.4604 41.2478 17.8303 41.3471C18.3112 41.4736 18.8199 41.2297 19.1528 40.8683C19.5135 40.4799 19.6985 39.9288 19.5967 39.4139C19.4672 38.8267 18.9956 38.375 18.5424 37.9685C19.2638 38.1673 20.1609 38.1673 20.6325 37.5891C20.984 37.1645 20.9655 36.478 20.577 36.0805C20.1054 35.5836 19.31 35.5836 18.6996 35.2765C19.3008 34.9603 19.8002 34.4815 20.1424 33.9124C20.3921 33.5059 20.5493 32.9819 20.3088 32.5664C20.2164 32.4038 20.0684 32.2773 19.9019 32.1779C19.3285 31.8437 18.5979 31.9159 17.9783 32.1598C17.3679 32.4037 16.8315 32.8103 16.2766 33.1626C15.1113 33.9033 13.7333 34.4363 12.346 34.2737H12.3553ZM9.4698 29.5581C10.2559 30.6241 10.5796 31.9972 10.3669 33.2981C11.0883 33.3433 11.7171 33.4517 12.3368 33.6052C12.531 32.2411 13.6223 31.1752 14.7321 30.317C15.2315 29.9375 15.7494 29.5762 16.1656 29.1155C16.5818 28.6548 16.9055 28.0766 16.9332 27.4623C16.9424 27.0739 16.8037 26.6493 16.4523 26.4686C16.1563 26.315 15.7957 26.3873 15.4812 26.5138C14.8986 26.7396 14.3714 27.1281 14.0015 27.6249C14.1587 27.1913 14.2049 26.7125 14.131 26.2518C14.0755 25.8995 13.9182 25.5381 13.6131 25.3575C13.1969 25.1135 12.6512 25.2762 12.2628 25.5562C11.8189 25.8814 11.4952 26.3692 11.3657 26.9022C10.9865 26.2428 10.4594 25.5472 9.69176 25.4749C9.15536 25.4207 8.60971 25.7278 8.33226 26.1795C8.05481 26.6312 8.01781 27.2094 8.19353 27.7153C8.43399 28.4289 9.03513 28.9619 9.4883 29.5672L9.4698 29.5581ZM1.56248 34.3912C1.9879 34.5899 2.47807 34.626 2.94973 34.608C2.49656 34.879 2.07114 35.2223 1.81219 35.674C1.55323 36.1256 1.48849 36.7128 1.7567 37.1645C2.12663 37.8059 3.08846 37.9776 3.74509 37.6072C4.06878 37.4175 4.31848 37.1284 4.59593 36.8754C5.77972 35.7643 7.5184 35.2494 9.12761 35.5204C9.2201 34.8338 9.41431 34.1653 9.71026 33.533C8.21203 32.9187 6.90801 31.943 5.97393 30.7054C5.40979 29.9556 4.89188 29.0432 3.96705 28.8354C3.47689 28.727 2.94048 28.8535 2.55205 29.1697C2.17287 29.4859 1.95091 29.9918 1.9879 30.4796C2.0249 31.0577 2.45032 31.6178 3.03297 31.7443C2.52431 31.8166 1.99715 31.8888 1.55323 32.1327C1.10006 32.3766 0.73938 32.8374 0.767125 33.3342C0.79487 33.7949 1.14631 34.1924 1.57173 34.4002L1.56248 34.3912Z" fill="#FF6E29"/>
<path d="M13.5584 34.6632C13.7526 36.0724 12.7445 37.3642 11.3018 37.554C9.85904 37.7437 8.53653 36.759 8.34231 35.3497C8.1481 33.9405 9.15616 32.6486 10.5989 32.4589C12.0416 32.2692 13.3642 33.2539 13.5584 34.6632Z" fill="#FFBE73"/>
<path d="M46.9815 -7.03687C47.1665 -6.43161 47.5549 -5.89862 47.8046 -5.31143C48.378 -3.96541 48.1931 -2.44774 47.9619 -1.00235C48.8867 -1.14689 49.4693 -0.957182 50.0335 -0.722305C50.3202 -1.4179 50.7918 -2.05026 51.393 -2.52905C52.512 -3.42339 53.9825 -3.75763 55.2403 -4.45323C55.564 -4.6339 55.8784 -4.84168 56.0819 -5.13979C56.2854 -5.4379 56.3686 -5.84442 56.1929 -6.16964C56.0264 -6.48582 55.6657 -6.64842 55.305 -6.72069C54.4357 -6.89233 53.4739 -6.57615 52.8912 -5.92573C53.2242 -6.55809 53.4276 -7.26272 53.4739 -7.96734C53.4924 -8.22029 53.4831 -8.48227 53.3814 -8.70811C53.1594 -9.19593 52.549 -9.40371 52.0034 -9.38564C50.8566 -9.3495 49.793 -8.44613 49.5988 -7.33499C49.5248 -7.84087 49.2936 -8.33773 48.8774 -8.65391C48.4613 -8.96105 47.8416 -9.04236 47.407 -8.76231C46.8706 -8.41 46.7781 -7.65117 46.9538 -7.03687H46.9815ZM55.8322 5.62839C55.8322 5.12251 55.5732 4.61662 55.1663 4.30947C55.675 4.51725 56.2021 4.72502 56.757 4.68889C57.1362 4.66179 57.5524 4.46305 57.6449 4.1017C57.6911 3.92102 57.6449 3.73132 57.5801 3.55968C57.3119 2.89118 56.6368 2.40336 55.9062 2.34916C56.2484 2.24075 56.5813 2.08718 56.8403 1.84327C57.0992 1.59936 57.2564 1.24704 57.2102 0.89473C57.1547 0.50628 56.8403 0.1901 56.4703 0.0365257C56.1004 -0.117047 55.6842 -0.135115 55.2865 -0.108013C54.3247 -0.0357437 53.3999 0.271403 52.4381 0.343673C51.504 0.415942 50.5606 0.262369 49.7098 -0.108013C49.7468 0.89473 49.3954 1.55419 48.9514 2.12331C47.9156 1.76197 46.926 1.36448 46.4081 1.03024C45.5388 2.19558 44.2533 3.05379 42.8198 3.4332C42.2926 3.56871 41.747 3.64098 41.2661 3.88489C40.7852 4.1288 40.369 4.58952 40.3875 5.11347C40.3875 5.33932 40.4892 5.56516 40.6094 5.7639C41.0349 6.4595 41.9042 6.87505 42.7366 6.77568C42.4129 7.17316 42.0984 7.63388 42.0984 8.13977C42.0984 8.76309 42.5978 9.33222 43.2175 9.47676C43.8371 9.6213 44.5215 9.35932 44.9284 8.88053C44.9469 9.38642 45.1411 9.93748 45.5943 10.1814C46.1862 10.5066 46.926 10.1995 47.5087 9.85617C47.7491 9.71163 47.9989 9.55806 48.1561 9.32318C48.3688 9.01604 48.4058 8.62759 48.415 8.2572C48.4243 7.20929 48.2301 6.17042 48.2301 5.12251C48.2301 4.09266 48.4243 3.01765 49.0809 2.22268C50.9121 3.07185 52.3086 4.62565 53.4276 6.27882C53.7051 6.68534 54.0565 7.15509 54.5652 7.15509C54.7871 7.15509 54.9998 7.05572 55.1848 6.92022C55.601 6.61307 55.8599 6.10718 55.8599 5.60129L55.8322 5.62839ZM47.3422 -1.56244C45.8532 -2.23997 44.6232 -3.44145 43.9388 -4.90492C43.7909 -5.23013 43.6614 -5.56438 43.4209 -5.82635C43.236 -6.0251 42.9955 -6.16964 42.7366 -6.25997C42.3666 -6.39548 41.9412 -6.42258 41.5713 -6.29611C41.2013 -6.1606 40.8776 -5.85346 40.7944 -5.47404C40.6834 -4.97719 40.9609 -4.48033 41.2383 -4.04671C40.8222 -4.20932 40.406 -4.38096 39.9528 -4.4171C39.5089 -4.45323 39.028 -4.35386 38.7135 -4.03768C38.2974 -3.61309 38.2974 -2.9175 38.5656 -2.39354C38.843 -1.86959 39.3332 -1.49017 39.8326 -1.17399C39.3332 -1.22819 38.8338 -0.921047 38.6118 -0.48743C38.3898 -0.0538111 38.4083 0.488213 38.6118 0.930864C38.7413 1.20188 38.9355 1.45482 39.2129 1.57226C39.5366 1.7168 39.9251 1.67163 40.2488 1.53612C40.5817 1.40965 40.8684 1.20188 41.1736 1.0212C42.6071 0.181066 44.4105 -0.0357428 46.0197 0.443044C46.1954 -0.324821 46.5376 -1.06559 47.333 -1.57148L47.3422 -1.56244Z" fill="#ED3634"/>
<path d="M51.3564 -2.97154C50.8662 -2.24884 50.3113 -1.52614 49.5529 -1.06542C49.8027 -0.604706 49.9506 0.0908899 49.8581 0.768418C50.7737 0.903924 51.6153 1.33754 52.4107 1.79826C53.206 2.25898 53.9921 2.76487 54.8707 3.05395C55.7493 3.34303 56.7574 3.39723 57.5712 2.96361C58.0892 2.6926 58.5331 2.15961 58.4683 1.58145C58.4406 1.28334 58.2741 1.01233 58.0984 0.768418C57.7747 0.325767 57.34 -0.0807505 56.7944 -0.171088C57.2291 -0.315627 57.6637 -0.532436 57.9504 -0.893785C58.2371 -1.25513 58.3296 -1.77909 58.0892 -2.1585C57.9504 -2.38435 57.71 -2.53792 57.4603 -2.65536C56.8406 -2.94444 56.1193 -3.03478 55.4349 -2.9083C55.8326 -3.23352 56.221 -3.59487 56.4337 -4.06462C56.6464 -4.52534 56.6464 -5.11253 56.3135 -5.51001C56.0823 -5.78102 55.7216 -5.92556 55.3609 -5.97073C54.4731 -6.08817 53.5945 -5.65455 52.9471 -5.05833C52.2997 -4.4621 51.8373 -3.70327 51.3379 -2.98057L51.3564 -2.97154ZM46.9264 -0.767313C47.5183 -1.14673 48.1287 -1.17383 48.7391 -1.20093C48.2674 -2.34821 48.2582 -3.67617 48.7021 -4.83249C49.1183 -5.91653 49.9044 -6.82894 50.3853 -7.88588C50.5425 -8.2382 50.672 -8.62665 50.5703 -8.99703C50.4408 -9.46678 49.9691 -9.79199 49.479 -9.89137C48.9518 -10.0088 48.3599 -9.89137 47.953 -9.54808C47.4813 -9.1506 47.3241 -8.51824 47.1761 -7.92202C46.9912 -8.64471 46.5472 -9.41258 45.7981 -9.53002C45.234 -9.62035 44.6328 -9.25901 44.4664 -8.73505C44.2537 -8.08462 44.6513 -7.39806 44.6791 -6.72053C44.0964 -7.07285 43.4213 -7.27159 42.7277 -7.28966C42.2375 -7.28966 41.6826 -7.17222 41.4329 -6.7657C41.3312 -6.60309 41.2942 -6.41339 41.2849 -6.22368C41.2664 -5.57325 41.6919 -4.96799 42.219 -4.56147C42.7462 -4.15496 43.3751 -3.90201 43.967 -3.59487C45.2155 -2.96251 46.3808 -2.04107 46.9172 -0.767313H46.9264ZM44.1149 4.05669C44.6883 2.85521 45.7611 1.8886 47.0374 1.42788C46.7137 0.786486 46.501 0.190261 46.3345 -0.414998C45.0028 0.0908899 43.5045 -0.315627 42.182 -0.839582C41.5901 -1.07446 41.0075 -1.33644 40.3879 -1.47194C39.7682 -1.60745 39.0838 -1.59842 38.5197 -1.30934C38.1683 -1.12866 37.8446 -0.794415 37.8631 -0.405965C37.8723 -0.0717173 38.122 0.199295 38.381 0.40707C38.8804 0.79552 39.4815 1.0575 40.1197 1.12977C39.648 1.21107 39.1948 1.40981 38.8156 1.70792C38.5289 1.93377 38.2792 2.24091 38.27 2.60226C38.2515 3.08105 38.6769 3.47853 39.1208 3.66824C39.6387 3.88505 40.2399 3.93022 40.7855 3.77665C40.3786 4.42707 40.0179 5.23107 40.3231 5.92667C40.5451 6.41449 41.0907 6.73067 41.6364 6.74874C42.182 6.76681 42.7184 6.50483 43.0884 6.10734C43.6063 5.53822 43.7912 4.76132 44.1149 4.07476V4.05669ZM52.4014 8.44708C52.3737 7.97732 52.161 7.5437 51.9113 7.14622C52.3829 7.39916 52.9008 7.59791 53.4372 7.59791C53.9736 7.59791 54.5285 7.354 54.806 6.91134C55.2037 6.26995 54.8707 5.35755 54.2141 4.98716C53.8812 4.79746 53.502 4.72519 53.1321 4.61678C51.5413 4.14703 50.2188 2.91844 49.6547 1.39174C48.9888 1.65372 48.2859 1.81633 47.5738 1.87957C47.7588 3.4695 47.5368 5.0775 46.8802 6.49579C46.4825 7.34496 45.9276 8.25737 46.1958 9.15171C46.3345 9.63049 46.723 10.028 47.1946 10.1996C47.6663 10.3713 48.2304 10.308 48.6559 10.037C49.1553 9.7118 49.4512 9.0704 49.2662 8.51031C49.5807 8.91683 49.9044 9.33238 50.3483 9.59436C50.7922 9.85634 51.3841 9.94667 51.828 9.67566C52.235 9.42272 52.4199 8.92586 52.3829 8.45611L52.4014 8.44708Z" fill="#ED5958"/>
<path d="M46.6857 -1.99615C47.8602 -2.86338 49.5249 -2.63754 50.4127 -1.49026C51.3006 -0.342977 51.0694 1.28309 49.8948 2.15033C48.7203 3.01757 47.0556 2.79172 46.1677 1.64444C45.2799 0.497159 45.5111 -1.12891 46.6857 -1.99615Z" fill="#FFAF6F"/>
<path d="M47.6104 48.2397C47.7954 48.845 48.1838 49.378 48.4335 49.9652C49.0069 51.3112 48.822 52.8289 48.5908 54.2743C49.5064 54.1297 50.0982 54.3194 50.6624 54.5543C50.9491 53.8587 51.4208 53.2263 52.0219 52.7476C53.1409 51.8532 54.6114 51.519 55.8784 50.8143C56.2021 50.6337 56.5166 50.4259 56.72 50.1278C56.9235 49.8297 57.0067 49.4232 56.831 49.0979C56.6646 48.7818 56.3039 48.6192 55.9432 48.5469C55.0738 48.3752 54.112 48.6914 53.5294 49.3419C53.8623 48.7095 54.0658 48.0049 54.112 47.3002C54.1305 47.0473 54.1213 46.7853 54.0195 46.5595C53.7976 46.0716 53.1872 45.8639 52.6415 45.8819C51.4947 45.9181 50.4312 46.8214 50.237 47.9326C50.163 47.4267 49.9318 46.9298 49.5156 46.6137C49.0994 46.3065 48.4798 46.2252 48.0451 46.5053C47.5087 46.8576 47.4162 47.6164 47.5919 48.2307L47.6104 48.2397ZM56.4611 60.905C56.4611 60.3991 56.2021 59.8932 55.7952 59.5861C56.3039 59.7939 56.831 60.0016 57.3859 59.9655C57.7651 59.9384 58.1813 59.7397 58.2738 59.3783C58.32 59.1976 58.2738 59.0079 58.209 58.8363C57.9408 58.1678 57.2657 57.68 56.5351 57.6258C56.8773 57.5174 57.2102 57.3638 57.4692 57.1199C57.7281 56.876 57.8853 56.5237 57.8391 56.1713C57.7836 55.7829 57.4692 55.4667 57.0992 55.3131C56.7293 55.1596 56.3131 55.1415 55.9154 55.1686C54.9536 55.2409 54.0288 55.548 53.067 55.6203C52.1329 55.6926 51.1895 55.539 50.3387 55.1686C50.3757 56.1713 50.0243 56.8308 49.5803 57.3999C48.5445 57.0386 47.555 56.6411 47.037 56.3068C46.1677 57.4722 44.8822 58.3304 43.4487 58.7098C42.9215 58.8453 42.3759 58.9176 41.895 59.1615C41.4141 59.4054 40.9979 59.8661 41.0164 60.3901C41.0164 60.6159 41.1181 60.8418 41.2383 61.0405C41.6638 61.7361 42.5331 62.1517 43.3655 62.0523C43.0418 62.4498 42.7273 62.9105 42.7273 63.4164C42.7273 64.0397 43.2267 64.6088 43.8464 64.7534C44.466 64.8979 45.1504 64.6359 45.5573 64.1571C45.5758 64.663 45.77 65.2141 46.2232 65.458C46.8151 65.7832 47.555 65.4761 48.1376 65.1328C48.3781 64.9882 48.6278 64.8347 48.785 64.5998C48.9977 64.2927 49.0347 63.9042 49.0439 63.5338C49.0532 62.4859 48.859 61.447 48.859 60.3991C48.859 59.3693 49.0532 58.2943 49.7098 57.4993C51.541 58.3485 52.9375 59.9023 54.0565 61.5554C54.334 61.962 54.6854 62.4317 55.1941 62.4317C55.416 62.4317 55.6287 62.3323 55.8137 62.1968C56.2299 61.8897 56.4888 61.3838 56.4888 60.8779L56.4611 60.905ZM47.9711 53.7142C46.4821 53.0366 45.2521 51.8352 44.5677 50.3717C44.4198 50.0465 44.2903 49.7122 44.0498 49.4503C43.8649 49.2515 43.6244 49.107 43.3655 49.0166C42.9955 48.8811 42.5701 48.854 42.2002 48.9805C41.8302 49.116 41.5065 49.4232 41.4233 49.8026C41.3123 50.2994 41.5898 50.7963 41.8672 51.2299C41.4511 51.0673 41.0349 50.8957 40.5817 50.8595C40.1378 50.8234 39.6569 50.9228 39.3424 51.2389C38.9263 51.6635 38.9263 52.3591 39.1945 52.8831C39.4719 53.407 39.9621 53.7864 40.4615 54.1026C39.9621 54.0484 39.4627 54.3556 39.2407 54.7892C39.0187 55.2228 39.0372 55.7648 39.2407 56.2075C39.3702 56.4785 39.5644 56.7314 39.8419 56.8489C40.1655 56.9934 40.554 56.9482 40.8777 56.8127C41.2106 56.6863 41.4973 56.4785 41.8025 56.2978C43.236 55.4577 45.0487 55.2409 46.6486 55.7197C46.8243 54.9518 47.1665 54.211 47.9619 53.7051L47.9711 53.7142Z" fill="#ED3634"/>
<path d="M51.9853 52.3058C51.4951 53.0285 50.9402 53.7512 50.1819 54.2119C50.4316 54.6726 50.5795 55.3682 50.487 56.0458C51.4026 56.1813 52.2442 56.6149 53.0396 57.0756C53.8349 57.5363 54.621 58.0422 55.4996 58.3313C56.3782 58.6204 57.3863 58.6746 58.2002 58.241C58.7181 57.9699 59.162 57.437 59.0972 56.8588C59.0695 56.5607 58.903 56.2897 58.7273 56.0458C58.4036 55.6031 57.9689 55.1966 57.4233 55.1063C57.858 54.9617 58.2926 54.7449 58.5793 54.3836C58.866 54.0222 58.9585 53.4983 58.7181 53.1188C58.5793 52.893 58.3389 52.7394 58.0892 52.622C57.4695 52.3329 56.7482 52.2426 56.0638 52.369C56.4615 52.0438 56.8499 51.6825 57.0626 51.2127C57.2753 50.752 57.2753 50.1648 56.9424 49.7673C56.7112 49.4963 56.3505 49.3518 55.9898 49.3066C55.102 49.1892 54.2234 49.6228 53.576 50.219C52.9286 50.8152 52.4662 51.5741 51.9668 52.2968L51.9853 52.3058ZM47.5553 54.51C48.1472 54.1306 48.7576 54.1035 49.368 54.0764C48.8963 52.9291 48.8871 51.6012 49.331 50.4449C49.7472 49.3608 50.5333 48.4484 51.0142 47.3915C51.1714 47.0391 51.3009 46.6507 51.1992 46.2803C51.0697 45.8106 50.598 45.4853 50.1079 45.386C49.5807 45.2685 48.9888 45.386 48.5819 45.7293C48.1102 46.1267 47.953 46.7591 47.805 47.3553C47.6201 46.6326 47.1761 45.8648 46.427 45.7473C45.8629 45.657 45.2617 46.0183 45.0953 46.5423C44.8826 47.1927 45.2802 47.8793 45.308 48.5568C44.7253 48.2045 44.0502 48.0058 43.3566 47.9877C42.8664 47.9877 42.3115 48.1051 42.0618 48.5116C41.9601 48.6742 41.9231 48.864 41.9138 49.0537C41.8954 49.7131 42.3208 50.3094 42.8479 50.7159C43.3751 51.1224 44.004 51.3753 44.5959 51.6825C45.8444 52.3148 47.0097 53.2363 47.5461 54.51H47.5553ZM44.7438 59.334C45.3172 58.1326 46.39 57.1659 47.6663 56.7052C47.3426 56.0638 47.1299 55.4676 46.9634 54.8623C45.6317 55.3682 44.1334 54.9617 42.8109 54.4378C42.219 54.2029 41.6364 53.9409 41.0168 53.8054C40.3971 53.6699 39.7127 53.6789 39.1486 53.968C38.7972 54.1487 38.4735 54.4829 38.492 54.8714C38.5012 55.2056 38.7509 55.4766 39.0099 55.6844C39.5093 56.0729 40.1104 56.3348 40.7486 56.4071C40.2769 56.4884 39.8237 56.6872 39.4538 56.9853C39.1671 57.2111 38.9174 57.5183 38.9081 57.8796C38.8896 58.3584 39.3151 58.7468 39.759 58.9456C40.2769 59.1624 40.878 59.2076 41.4237 59.054C41.0168 59.7044 40.6561 60.5084 40.9613 61.204C41.1832 61.6918 41.7289 62.008 42.2745 62.0261C42.8202 62.0442 43.3566 61.7822 43.7265 61.3847C44.2444 60.8156 44.4294 60.0387 44.7531 59.3521L44.7438 59.334ZM53.0303 63.7244C53.0026 63.2547 52.7899 62.821 52.5402 62.4236C53.0118 62.6765 53.5297 62.8752 54.0662 62.8752C54.6026 62.8752 55.1575 62.6313 55.4349 62.1887C55.8233 61.5473 55.4996 60.6349 54.843 60.2645C54.5101 60.0748 54.1309 60.0025 53.761 59.8941C52.1702 59.4244 50.8477 58.1958 50.2836 56.6691C49.6177 56.9311 48.9148 57.0937 48.2027 57.1569C48.3877 58.7468 48.1657 60.3548 47.5091 61.7731C47.1114 62.6223 46.5565 63.5347 46.8247 64.429C46.9634 64.9078 47.3519 65.3053 47.8235 65.477C48.3044 65.6486 48.8593 65.5854 49.2848 65.3144C49.7842 64.9891 50.0801 64.3477 49.9044 63.7877C50.2188 64.1942 50.5425 64.6097 50.9865 64.8717C51.4304 65.1337 52.0223 65.224 52.4662 64.953C52.8731 64.7001 53.0581 64.2032 53.0211 63.7335L53.0303 63.7244Z" fill="#ED5958"/>
<path d="M47.3146 53.2812C48.4891 52.414 50.1538 52.6398 51.0416 53.7871C51.9295 54.9344 51.6983 56.5604 50.5237 57.4277C49.3492 58.2949 47.6845 58.0691 46.7967 56.9218C45.9088 55.7745 46.14 54.1484 47.3146 53.2812Z" fill="#FFAF6F"/>
<path d="M41.8118 22.8019C42.2834 22.3683 42.5979 21.7902 43.0141 21.3114C43.9851 20.2093 45.4649 19.6853 46.8799 19.2426C46.3342 18.5019 46.251 17.9057 46.2047 17.3094C45.4371 17.3727 44.651 17.2372 43.9481 16.93C42.6256 16.3519 41.6546 15.2226 40.4523 14.4367C40.1471 14.238 39.8141 14.0573 39.4442 14.0031C39.0743 13.9579 38.6674 14.0663 38.4546 14.3644C38.2419 14.6535 38.2512 15.042 38.3529 15.3853C38.5841 16.2254 39.3055 16.912 40.1656 17.1378C39.435 17.1378 38.7043 17.2733 38.0385 17.5443C37.798 17.6437 37.5668 17.7611 37.4003 17.9599C37.0581 18.3664 37.1414 18.9987 37.4003 19.4595C37.9552 20.4441 39.25 20.9681 40.3505 20.6429C39.9251 20.941 39.5644 21.3656 39.472 21.8624C39.3702 22.3683 39.5829 22.9374 40.0361 23.1904C40.6003 23.5066 41.3401 23.2446 41.8118 22.811V22.8019ZM49.4324 9.3959C48.97 9.62174 48.6186 10.0734 48.5261 10.5703C48.4891 10.0373 48.4428 9.47721 48.1654 9.00745C47.9712 8.69127 47.6012 8.41123 47.2313 8.50156C47.0463 8.54673 46.8984 8.66417 46.7689 8.79968C46.2787 9.33266 46.1307 10.1457 46.4082 10.8052C46.1585 10.5522 45.8625 10.3354 45.5296 10.218C45.1874 10.1096 44.7897 10.1186 44.503 10.3173C44.1701 10.5432 44.0221 10.9587 44.0406 11.3472C44.0591 11.7356 44.2348 12.106 44.4383 12.4403C44.9285 13.2443 45.6313 13.9218 46.1308 14.7258C46.6117 15.5027 46.8984 16.4061 46.9446 17.3094C47.8509 16.8306 48.6001 16.8397 49.3307 16.9752C49.4694 18.0321 49.5434 19.08 49.4694 19.6853C50.9306 19.9202 52.2901 20.6609 53.2705 21.736C53.6311 22.1334 53.9456 22.5761 54.3803 22.8923C54.8149 23.2085 55.4253 23.362 55.9062 23.1091C56.1097 23.0007 56.2762 22.82 56.4056 22.6303C56.8496 21.9437 56.8403 21.0042 56.3779 20.3267C56.8866 20.4261 57.4507 20.4983 57.9131 20.2725C58.4865 20.0015 58.7825 19.2969 58.6345 18.6916C58.4865 18.0863 57.9409 17.6075 57.3212 17.463C57.7744 17.2191 58.1906 16.8035 58.2091 16.2977C58.2368 15.6292 57.6264 15.1233 57.053 14.771C56.8126 14.6264 56.5629 14.4819 56.2762 14.4367C55.9062 14.3825 55.5271 14.5271 55.1941 14.6897C54.2323 15.1504 53.3629 15.7827 52.4104 16.2615C51.4763 16.7313 50.3942 17.0384 49.3769 16.8216C49.3307 14.8432 50.1353 12.9281 51.1433 11.2026C51.393 10.7781 51.6612 10.2541 51.4393 9.82049C51.3376 9.62174 51.1526 9.48624 50.9491 9.38687C50.4775 9.16102 49.9041 9.16102 49.4417 9.38687L49.4324 9.3959ZM46.6579 20.0286C46.7134 21.6366 46.1585 23.2536 45.1319 24.5003C44.91 24.7713 44.651 25.0423 44.5215 25.3675C44.4198 25.6205 44.4013 25.8915 44.4291 26.1625C44.4753 26.5509 44.6325 26.9303 44.9285 27.2014C45.2152 27.4724 45.6406 27.6079 46.029 27.5085C46.5377 27.382 46.8614 26.9123 47.1388 26.4787C47.1758 26.9123 47.2128 27.3549 47.37 27.7614C47.5365 28.168 47.8509 28.5383 48.2764 28.6738C48.8498 28.8455 49.4879 28.5383 49.8486 28.0596C50.2 27.5898 50.3295 26.9845 50.3942 26.4064C50.5699 26.8671 51.0694 27.1652 51.5688 27.1652C52.0682 27.1652 52.5491 26.9032 52.8635 26.5238C53.0577 26.2889 53.1965 26.0089 53.1872 25.7108C53.178 25.3585 52.956 25.0513 52.6878 24.8165C52.4196 24.5906 52.0959 24.428 51.8 24.2383C50.385 23.362 49.3862 21.8805 49.0995 20.2725C48.3134 20.4622 47.4903 20.4983 46.6672 20.0286H46.6579Z" fill="#FFB100"/>
<path d="M43.5688 17.1553C44.4566 17.2637 45.3537 17.4172 46.1213 17.878C46.4265 17.4534 46.9999 17.0107 47.6565 16.7849C47.3698 15.9267 47.3883 14.9962 47.4623 14.0928C47.5271 13.1895 47.638 12.2771 47.5086 11.3827C47.3791 10.4884 46.9722 9.58501 46.2138 9.06105C45.7329 8.7268 45.0485 8.58226 44.5491 8.89844C44.2901 9.06105 44.1144 9.32303 43.9757 9.58501C43.7167 10.0638 43.5318 10.6239 43.6982 11.1388C43.3653 10.8226 42.9769 10.5426 42.5237 10.4522C42.0705 10.3619 41.5434 10.5155 41.3029 10.9039C41.1642 11.1298 41.1272 11.4098 41.1365 11.6718C41.1457 12.3493 41.3862 13.0178 41.8116 13.5508C41.3307 13.343 40.8313 13.1714 40.3041 13.1895C39.7862 13.2075 39.2498 13.4695 39.0371 13.9393C38.8891 14.2645 38.9261 14.6439 39.0371 14.9781C39.333 15.8002 40.1099 16.3784 40.9515 16.6765C41.7931 16.9746 42.6902 17.0378 43.578 17.1462L43.5688 17.1553ZM47.5733 20.028C46.9629 19.6757 46.6577 19.1607 46.3618 18.6368C45.5202 19.5582 44.3179 20.1635 43.0601 20.299C41.8856 20.4164 40.6925 20.1454 39.518 20.1996C39.1296 20.2177 38.7134 20.2809 38.4175 20.5339C38.0475 20.8591 37.9643 21.4101 38.0845 21.8889C38.2232 22.4038 38.5839 22.8736 39.0833 23.0723C39.6567 23.2982 40.3134 23.1627 40.9145 23.0181C40.3411 23.4969 39.8324 24.2377 40.0544 24.9423C40.2209 25.4753 40.822 25.8367 41.3862 25.7554C42.0798 25.647 42.5237 24.9965 43.1341 24.6623C43.0694 25.3308 43.1896 26.0083 43.4855 26.6136C43.6982 27.0472 44.0589 27.4718 44.5491 27.5079C44.7433 27.526 44.9375 27.4718 45.1132 27.3905C45.7144 27.1104 46.0751 26.469 46.2138 25.8276C46.3525 25.1862 46.297 24.5268 46.3063 23.8673C46.3248 22.4942 46.6485 21.0669 47.564 20.028H47.5733ZM53.2425 20.3261C51.883 20.3713 50.5143 19.8654 49.5247 18.953C49.0808 19.5221 48.6369 19.9738 48.1559 20.3984C49.2195 21.3288 49.5247 22.8194 49.6264 24.2106C49.6727 24.8339 49.6912 25.4572 49.8576 26.0625C50.0149 26.6678 50.3293 27.255 50.8472 27.6163C51.1709 27.8421 51.6241 27.9686 51.9755 27.7789C52.2714 27.6163 52.4194 27.2821 52.4842 26.9568C52.6229 26.3516 52.5766 25.7012 52.3639 25.114C52.6506 25.4934 53.0391 25.8005 53.4737 25.9902C53.8067 26.1348 54.2044 26.2161 54.5373 26.0715C54.9812 25.8728 55.1569 25.3308 55.1292 24.852C55.1014 24.3009 54.861 23.7589 54.4818 23.3524C55.2587 23.4156 56.1557 23.3795 56.6552 22.7923C57.0066 22.3767 57.0528 21.7625 56.8216 21.2837C56.5904 20.7958 56.1095 20.4526 55.5823 20.308C54.8332 20.1093 54.0379 20.308 53.261 20.3261H53.2425ZM53.5477 11.1207C53.1315 11.3556 52.8356 11.735 52.5766 12.1325C52.5951 11.6086 52.5489 11.0665 52.2992 10.5968C52.0587 10.127 51.5871 9.74761 51.0507 9.71148C50.2923 9.65728 49.5987 10.3438 49.5524 11.0936C49.5247 11.464 49.6357 11.8344 49.7004 12.2048C49.9871 13.8038 49.4507 15.5111 48.3039 16.6855C48.8403 17.1462 49.312 17.6882 49.6819 18.2845C51.0507 17.4082 52.6229 16.8842 54.2136 16.821C55.1662 16.7849 56.2482 16.8662 56.9511 16.2248C57.321 15.8905 57.5153 15.3756 57.4598 14.8788C57.4043 14.3819 57.0898 13.9302 56.6552 13.6773C56.1372 13.3792 55.4159 13.4153 54.9812 13.8218C55.2124 13.3611 55.4436 12.8913 55.4806 12.3855C55.5269 11.8796 55.3326 11.3195 54.8887 11.0575C54.4818 10.8136 53.9361 10.8768 53.52 11.1207H53.5477Z" fill="#FFD940"/>
<path d="M46.5561 20.7958C45.2336 20.1634 44.6972 18.6006 45.3446 17.3087C45.992 16.0169 47.5919 15.493 48.9144 16.1253C50.237 16.7577 50.7734 18.3205 50.126 19.6123C49.4786 20.9042 47.8786 21.4281 46.5561 20.7958Z" fill="#FFBE73"/>
<path d="M42.9212 78.1789C43.3928 77.7453 43.7073 77.1671 44.1234 76.6883C45.0945 75.5862 46.5742 75.0623 47.9892 74.6196C47.4436 73.8788 47.3604 73.2826 47.3141 72.6864C46.5465 72.7496 45.7604 72.6141 45.0575 72.307C43.735 71.7288 42.7639 70.5996 41.5616 69.8137C41.2565 69.6149 40.9235 69.4343 40.5536 69.3801C40.1836 69.3349 39.7767 69.4433 39.564 69.7414C39.3513 70.0305 39.3605 70.4189 39.4623 70.7622C39.6935 71.6023 40.4149 72.2889 41.275 72.5147C40.5443 72.5147 39.8137 72.6503 39.1478 72.9213C38.9074 73.0206 38.6762 73.1381 38.5097 73.3368C38.1675 73.7433 38.2507 74.3757 38.5097 74.8364C39.0646 75.8211 40.3594 76.345 41.4599 76.0198C41.0345 76.3179 40.6738 76.7425 40.5813 77.2394C40.4796 77.7453 40.6923 78.3144 41.1455 78.5673C41.7096 78.8835 42.4495 78.6215 42.9212 78.1879V78.1789ZM50.5418 64.7729C50.0794 64.9987 49.7279 65.4504 49.6354 65.9472C49.5984 65.4142 49.5522 64.8542 49.2748 64.3844C49.0805 64.0682 48.7106 63.7882 48.3407 63.8785C48.1557 63.9237 48.0077 64.0411 47.8783 64.1766C47.3881 64.7096 47.2401 65.5227 47.5176 66.1821C47.2679 65.9292 46.9719 65.7124 46.639 65.5949C46.2968 65.4865 45.8991 65.4956 45.6124 65.6943C45.2795 65.9201 45.1315 66.3357 45.15 66.7241C45.1685 67.1126 45.3442 67.483 45.5477 67.8172C46.0378 68.6212 46.7407 69.2987 47.2401 70.1027C47.721 70.8796 48.0077 71.783 48.054 72.6864C48.9603 72.2076 49.7094 72.2166 50.44 72.3521C50.5788 73.4091 50.6528 74.457 50.5788 75.0623C52.04 75.2971 53.3995 76.0379 54.3798 77.1129C54.7405 77.5104 55.055 77.953 55.4896 78.2692C55.9243 78.5854 56.5347 78.739 57.0156 78.486C57.2191 78.3776 57.3855 78.197 57.515 78.0072C57.9589 77.3207 57.9497 76.3812 57.4873 75.7037C57.9959 75.803 58.5601 75.8753 59.0225 75.6494C59.5959 75.3784 59.8918 74.6738 59.7439 74.0685C59.5959 73.4633 59.0502 72.9845 58.4306 72.84C58.8838 72.596 59.2999 72.1805 59.3184 71.6746C59.3462 71.0061 58.7358 70.5002 58.1624 70.1479C57.9219 70.0034 57.6722 69.8588 57.3855 69.8137C57.0156 69.7595 56.6364 69.904 56.3035 70.0666C55.3417 70.5273 54.4723 71.1597 53.5197 71.6385C52.5857 72.1082 51.5036 72.4154 50.4863 72.1986C50.44 70.2202 51.2446 68.305 52.2527 66.5796C52.5024 66.155 52.7706 65.6311 52.5487 65.1974C52.4469 64.9987 52.262 64.8632 52.0585 64.7638C51.5868 64.538 51.0134 64.538 50.551 64.7638L50.5418 64.7729ZM47.7673 75.4055C47.8228 77.0135 47.2679 78.6306 46.2413 79.8772C46.0101 80.1482 45.7604 80.4192 45.6309 80.7445C45.5292 80.9974 45.5107 81.2684 45.5384 81.5394C45.5847 81.9279 45.7419 82.3073 46.0378 82.5783C46.3245 82.8493 46.75 82.9848 47.1384 82.8855C47.647 82.759 47.9707 82.2892 48.2482 81.8556C48.2852 82.2892 48.3222 82.7319 48.4794 83.1384C48.6459 83.5449 48.9603 83.9153 49.3857 84.0508C49.9591 84.2224 50.5973 83.9153 50.9579 83.4365C51.3094 82.9668 51.4389 82.3615 51.5036 81.7833C51.6793 82.2441 52.1787 82.5422 52.6781 82.5422C53.1775 82.5422 53.6585 82.2802 53.9729 81.9008C54.1671 81.6659 54.3058 81.3859 54.2966 81.0877C54.2873 80.7354 54.0654 80.4283 53.7972 80.1934C53.529 79.9676 53.2053 79.805 52.9093 79.6152C51.4944 78.739 50.4955 77.2574 50.2088 75.6494C49.4227 75.8392 48.5996 75.8753 47.7765 75.4055H47.7673Z" fill="#FFB100"/>
<path d="M44.6788 72.542C45.5666 72.6504 46.4637 72.804 47.2313 73.2647C47.5365 72.8401 48.1099 72.3974 48.7665 72.1716C48.4798 71.3134 48.4983 70.3829 48.5631 69.4795C48.6278 68.5762 48.7388 67.6638 48.6093 66.7694C48.4798 65.8751 48.0729 64.9717 47.3145 64.4478C46.8336 64.1135 46.1492 63.969 45.6498 64.2852C45.3909 64.4478 45.2152 64.7097 45.0764 64.9717C44.8175 65.4505 44.6325 66.0106 44.799 66.5255C44.466 66.2093 44.0776 65.9293 43.6244 65.839C43.1713 65.7486 42.6441 65.9022 42.4037 66.2906C42.2649 66.5165 42.228 66.7965 42.2372 67.0585C42.2464 67.736 42.4869 68.4045 42.9123 68.9375C42.4314 68.7297 41.932 68.5581 41.4049 68.5762C40.8869 68.5942 40.3505 68.8562 40.1378 69.326C39.9899 69.6512 40.0269 70.0306 40.1378 70.3649C40.4338 71.1869 41.2106 71.7651 42.0522 72.0632C42.8938 72.3613 43.7909 72.4245 44.6788 72.5329V72.542ZM48.6833 75.4147C48.0729 75.0624 47.7677 74.5475 47.4718 74.0235C46.6302 74.9449 45.4279 75.5502 44.1701 75.6857C42.9956 75.8031 41.8118 75.5321 40.628 75.5863C40.2396 75.6044 39.8234 75.6676 39.5274 75.9206C39.1483 76.2458 39.0743 76.7969 39.1945 77.2756C39.3332 77.7906 39.6939 78.2603 40.1933 78.4591C40.7667 78.6849 41.4233 78.5494 42.0245 78.4049C41.4511 78.8836 40.9424 79.6244 41.1644 80.329C41.3309 80.862 41.932 81.2234 42.4962 81.133C43.1898 81.0246 43.6337 80.3742 44.2441 80.04C44.1794 80.7085 44.2996 81.386 44.5955 81.9912C44.8082 82.4249 45.1689 82.8494 45.6591 82.8856C45.8533 82.9036 46.0475 82.8494 46.2232 82.7681C46.8244 82.4881 47.1851 81.8467 47.3238 81.2053C47.4625 80.5639 47.407 79.9045 47.4163 79.245C47.4348 77.8719 47.7585 76.4445 48.674 75.4057L48.6833 75.4147ZM54.3618 75.7038C53.0023 75.7489 51.6335 75.2431 50.6439 74.3307C50.2 74.8998 49.7561 75.3515 49.2752 75.776C50.3387 76.7065 50.6439 78.1971 50.7457 79.5883C50.7919 80.2116 50.8104 80.8349 50.9769 81.4402C51.1341 82.0454 51.4485 82.6326 51.9664 82.994C52.2901 83.2198 52.7433 83.3463 53.0947 83.1566C53.3907 82.994 53.5387 82.6597 53.6034 82.3345C53.7421 81.7293 53.6959 81.0788 53.4832 80.4916C53.7699 80.8711 54.1583 81.1782 54.593 81.3679C54.9259 81.5125 55.3236 81.5938 55.6565 81.4492C56.1004 81.2505 56.2762 80.7085 56.2484 80.2297C56.2207 79.6786 55.9802 79.1366 55.601 78.7301C56.3779 78.7933 57.275 78.7572 57.7744 78.17C58.1258 77.7544 58.1721 77.1401 57.9409 76.6614C57.7097 76.1735 57.2287 75.8302 56.7016 75.6857C55.9525 75.487 55.1571 75.6857 54.3803 75.7038H54.3618ZM54.6577 66.4984C54.2415 66.7333 53.9456 67.1127 53.6866 67.5102C53.7051 66.9862 53.6589 66.4442 53.4092 65.9745C53.1687 65.5047 52.6971 65.1253 52.1607 65.0892C51.4023 65.035 50.7087 65.7215 50.6624 66.4713C50.6347 66.8417 50.7457 67.2121 50.8104 67.5825C51.0971 69.1814 50.5607 70.8888 49.4139 72.0632C49.9503 72.5239 50.422 73.0659 50.7919 73.6622C52.1607 72.7859 53.7329 72.2619 55.3236 72.1987C56.2762 72.1626 57.3582 72.2439 58.0611 71.6025C58.431 71.2682 58.6252 70.7533 58.5697 70.2564C58.5143 69.7596 58.2091 69.3079 57.7651 69.055C57.2472 68.7569 56.5259 68.793 56.0912 69.1995C56.3224 68.7388 56.5536 68.269 56.5906 67.7631C56.6368 67.2573 56.4426 66.6972 55.9987 66.4352C55.5918 66.1913 55.0461 66.2545 54.63 66.4984H54.6577Z" fill="#FFD940"/>
<path d="M47.6655 76.1727C46.343 75.5404 45.8066 73.9775 46.454 72.6857C47.1013 71.3939 48.7013 70.8699 50.0238 71.5023C51.3463 72.1346 51.8827 73.6975 51.2354 74.9893C50.588 76.2811 48.988 76.8051 47.6655 76.1727Z" fill="#FFBE73"/>
<path d="M40.878 34.3017C41.5069 34.4462 42.1635 34.374 42.8017 34.4462C44.2629 34.6179 45.5207 35.5122 46.6767 36.4066C47.0004 35.5664 47.4536 35.1599 47.9345 34.7986C47.4628 34.2114 47.1391 33.5158 47.0097 32.784C46.76 31.4109 47.1854 30.0017 47.1854 28.6014C47.1854 28.2401 47.1576 27.8787 46.9912 27.5535C46.8247 27.2373 46.5103 26.9663 46.1403 26.9573C45.7796 26.9483 45.4559 27.1741 45.2247 27.4361C44.6513 28.0865 44.4664 29.0441 44.7531 29.8571C44.3554 29.2699 43.8375 28.755 43.2363 28.3756C43.0236 28.2401 42.7924 28.1136 42.5335 28.0865C41.9971 28.0323 41.5162 28.4479 41.2664 28.9176C40.7393 29.9023 41.0167 31.2302 41.9046 31.9439C41.4237 31.7632 40.8688 31.7181 40.3879 31.9078C39.9069 32.1065 39.5463 32.5853 39.5833 33.0912C39.6295 33.7145 40.2584 34.1662 40.8873 34.3107L40.878 34.3017ZM56.3597 33.0189C55.9065 32.775 55.3424 32.7389 54.8707 32.9376C55.3054 32.6124 55.7493 32.2691 55.9805 31.7813C56.147 31.447 56.1748 31.0044 55.8973 30.7515C55.7586 30.625 55.5736 30.5708 55.3886 30.5437C54.6673 30.4443 53.9089 30.7786 53.502 31.3657C53.576 31.0225 53.6037 30.6702 53.502 30.3359C53.4003 30.0017 53.1783 29.6945 52.8454 29.568C52.4754 29.4235 52.0408 29.5319 51.7263 29.7668C51.4119 30.0017 51.1992 30.3449 51.0234 30.6882C50.6165 31.5284 50.4408 32.4588 50.0339 33.299C49.6454 34.112 49.0443 34.8347 48.3044 35.3767C49.2108 35.8374 49.6177 36.4427 49.9044 37.1022C49.0905 37.7978 48.2489 38.4301 47.7033 38.7102C48.3044 40.011 48.4432 41.5106 48.0732 42.8928C47.9437 43.3987 47.7403 43.8955 47.7125 44.4195C47.694 44.9434 47.8975 45.5216 48.3692 45.7565C48.5726 45.8649 48.8131 45.892 49.0443 45.892C49.8674 45.8739 50.6535 45.3409 50.9679 44.6001C51.1622 45.0699 51.4119 45.5487 51.865 45.8016C52.4107 46.1088 53.1598 45.9642 53.5945 45.5125C54.0199 45.0609 54.1216 44.3562 53.8997 43.7871C54.3528 44.022 54.9355 44.1214 55.3701 43.8594C55.9435 43.5161 56.036 42.7482 56.0175 42.0888C56.0175 41.8178 55.9898 41.5287 55.8696 41.2848C55.7031 40.9596 55.3794 40.7337 55.0557 40.553C54.1401 40.0291 53.1228 39.6858 52.198 39.1799C51.2916 38.6831 50.4315 37.9965 50.0524 37.057C51.6893 35.9278 53.7424 35.5122 55.7493 35.3767C56.2487 35.3406 56.8314 35.2773 57.0718 34.8528C57.1828 34.6631 57.2013 34.4372 57.1643 34.2204C57.0996 33.7235 56.7759 33.2628 56.332 33.0099L56.3597 33.0189ZM45.8906 36.6595C44.5681 37.59 42.9034 38.0326 41.2849 37.8971C40.9243 37.87 40.5636 37.8068 40.2121 37.8881C39.9439 37.9423 39.7035 38.0778 39.5 38.2494C39.1948 38.4933 38.9636 38.8366 38.8989 39.216C38.8341 39.5955 38.9544 40.011 39.2503 40.273C39.6387 40.6072 40.2121 40.6163 40.7208 40.5982C40.3694 40.8692 40.0179 41.1402 39.7682 41.4925C39.5185 41.8449 39.3798 42.3056 39.5 42.7211C39.6665 43.2812 40.2861 43.6155 40.878 43.6426C41.4699 43.6697 42.0433 43.4348 42.5705 43.1638C42.2838 43.5522 42.3115 44.1214 42.5797 44.5279C42.8572 44.9344 43.3381 45.1693 43.8375 45.2144C44.1334 45.2415 44.4571 45.1964 44.6976 45.0247C44.9843 44.826 45.1322 44.4737 45.1785 44.1304C45.2247 43.7871 45.1785 43.4438 45.1785 43.1005C45.1415 41.4835 45.8259 39.8574 47.0282 38.7463C46.4363 38.2223 45.9554 37.5809 45.8906 36.6595Z" fill="#FF961C"/>
<path d="M46.5934 32.5933C46.9911 33.3612 47.361 34.1742 47.3888 35.0324C47.9159 35.0505 48.6096 35.2583 49.1552 35.6648C49.7194 34.9602 50.5147 34.4633 51.3101 34.0207C52.1054 33.578 52.9285 33.1624 53.6129 32.5662C54.2973 31.97 54.8337 31.1479 54.8522 30.2536C54.8614 29.6845 54.6117 29.0521 54.0753 28.8263C53.7979 28.7088 53.4834 28.7088 53.1782 28.745C52.6326 28.7992 52.0592 28.9618 51.717 29.3864C51.8002 28.9437 51.8187 28.474 51.643 28.0674C51.4673 27.6519 51.0511 27.3176 50.5887 27.3357C50.3205 27.3447 50.0708 27.4712 49.8488 27.6248C49.2847 28.0042 48.8593 28.5733 48.6373 29.2057C48.5448 28.7088 48.4153 28.2029 48.1101 27.8055C47.805 27.3989 47.287 27.1099 46.7784 27.2002C46.427 27.2634 46.1218 27.4983 45.909 27.7784C45.3819 28.4649 45.3264 29.4135 45.5391 30.2536C45.7518 31.0937 46.1957 31.8526 46.5934 32.6204V32.5933ZM46.39 37.3993C46.353 36.7127 46.6212 36.1887 46.8894 35.6558C45.6501 35.4931 44.4756 34.8608 43.6709 33.9213C42.9218 33.045 42.4964 31.9429 41.8028 31.0215C41.5716 30.7143 41.2849 30.4252 40.9149 30.3259C40.434 30.1994 39.9254 30.4433 39.5924 30.8046C39.2318 31.1931 39.0468 31.7442 39.1485 32.2591C39.278 32.8463 39.7497 33.298 40.2028 33.7045C39.4815 33.5057 38.5844 33.5057 38.1127 34.0749C37.7613 34.4994 37.7798 35.186 38.1682 35.5835C38.6399 36.0803 39.4352 36.0803 40.0456 36.3875C39.4445 36.7037 38.9451 37.1825 38.6029 37.7516C38.3532 38.1581 38.1959 38.682 38.4364 39.0976C38.5289 39.2602 38.6769 39.3867 38.8433 39.486C39.4167 39.8203 40.1473 39.748 40.767 39.5041C41.3774 39.2602 41.9138 38.8537 42.4687 38.5014C43.634 37.7606 45.012 37.2276 46.3992 37.3902L46.39 37.3993ZM49.2662 42.1058C48.4801 41.0398 48.1564 39.6667 48.3691 38.3659C47.6477 38.3207 47.0188 38.2123 46.3992 38.0587C46.205 39.4228 45.1137 40.4888 44.0039 41.347C43.5045 41.7264 42.9866 42.0878 42.5704 42.5485C42.1542 43.0092 41.8305 43.5874 41.8028 44.2016C41.7935 44.5901 41.9323 45.0147 42.2837 45.1954C42.5796 45.3489 42.9403 45.2767 43.2548 45.1502C43.8374 44.9243 44.3646 44.5359 44.7345 44.039C44.5773 44.4727 44.531 44.9514 44.605 45.4122C44.6605 45.7645 44.8177 46.1258 45.1229 46.3065C45.5391 46.5504 46.0848 46.3878 46.4732 46.1078C46.9171 45.7825 47.2408 45.2947 47.3703 44.7617C47.7495 45.4212 48.2766 46.1168 49.0442 46.1891C49.5806 46.2433 50.1263 45.9361 50.4037 45.4844C50.6812 45.0327 50.7182 44.4546 50.5425 43.9487C50.302 43.235 49.7009 42.7021 49.2477 42.0968L49.2662 42.1058ZM57.1735 37.2728C56.7481 37.074 56.2579 37.0379 55.7863 37.056C56.2394 36.785 56.6648 36.4417 56.9238 35.99C57.1828 35.5383 57.2475 34.9511 56.9793 34.4994C56.6094 33.858 55.6475 33.6864 54.9909 34.0568C54.6672 34.2465 54.4175 34.5356 54.1401 34.7885C52.9563 35.8997 51.2176 36.4146 49.6084 36.1436C49.5159 36.8301 49.3217 37.4986 49.0257 38.131C50.524 38.7453 51.828 39.7209 52.7621 40.9585C53.3262 41.7083 53.8441 42.6207 54.7689 42.8285C55.2591 42.9369 55.7955 42.8105 56.1839 42.4943C56.5631 42.1781 56.7851 41.6722 56.7481 41.1844C56.7111 40.6062 56.2857 40.0461 55.703 39.9197C56.2117 39.8474 56.7388 39.7751 57.1828 39.5312C57.6359 39.2873 57.9966 38.8266 57.9689 38.3297C57.9411 37.869 57.5897 37.4715 57.1643 37.2638L57.1735 37.2728Z" fill="#FF6E29"/>
<path d="M45.1782 37.0021C44.984 35.5928 45.9921 34.301 47.4348 34.1113C48.8776 33.9216 50.2001 34.9063 50.3943 36.3155C50.5885 37.7248 49.5805 39.0166 48.1377 39.2063C46.695 39.396 45.3725 38.4113 45.1782 37.0021Z" fill="#FFBE73"/>
</g>
<defs>
<clipPath id="clip0_1546_1921">
<rect width="94" height="112" fill="white" transform="translate(0 -10)"/>
</clipPath>
</defs>
</svg>
