<svg width="312" height="138" viewBox="0 0 312 138" fill="none" xmlns="http://www.w3.org/2000/svg">
<rect width="312" height="138" rx="16" fill="url(#paint0_linear_1379_3112)"/>
<rect x="0.5" y="0.5" width="311" height="137" rx="15.5" stroke="white" stroke-opacity="0.4"/>
<path d="M17.136 24.144C16.504 24.144 15.924 24.032 15.396 23.808C14.868 23.576 14.408 23.256 14.016 22.848C13.632 22.432 13.332 21.944 13.116 21.384C12.9 20.824 12.792 20.208 12.792 19.536C12.792 18.864 12.9 18.248 13.116 17.688C13.332 17.128 13.632 16.64 14.016 16.224C14.408 15.808 14.868 15.488 15.396 15.264C15.924 15.032 16.504 14.916 17.136 14.916C17.744 14.916 18.288 15.024 18.768 15.24C19.256 15.456 19.664 15.736 19.992 16.08C20.328 16.416 20.568 16.772 20.712 17.148L19.848 17.568C19.624 17.024 19.28 16.596 18.816 16.284C18.352 15.972 17.792 15.816 17.136 15.816C16.48 15.816 15.896 15.972 15.384 16.284C14.872 16.596 14.472 17.032 14.184 17.592C13.896 18.144 13.752 18.792 13.752 19.536C13.752 20.272 13.896 20.92 14.184 21.48C14.472 22.04 14.872 22.476 15.384 22.788C15.896 23.092 16.48 23.244 17.136 23.244C17.72 23.244 18.244 23.116 18.708 22.86C19.18 22.604 19.552 22.256 19.824 21.816C20.096 21.368 20.232 20.856 20.232 20.28V19.788L20.664 20.22H17.136V19.38H21.192V20.124C21.192 20.708 21.088 21.248 20.88 21.744C20.672 22.232 20.384 22.656 20.016 23.016C19.648 23.376 19.216 23.656 18.72 23.856C18.232 24.048 17.704 24.144 17.136 24.144ZM25.7075 24.144C25.1075 24.144 24.5635 24 24.0755 23.712C23.5955 23.416 23.2155 23.012 22.9355 22.5C22.6555 21.988 22.5155 21.408 22.5155 20.76C22.5155 20.112 22.6515 19.54 22.9235 19.044C23.1955 18.54 23.5635 18.144 24.0275 17.856C24.4995 17.568 25.0275 17.424 25.6115 17.424C26.0755 17.424 26.4875 17.512 26.8475 17.688C27.2155 17.856 27.5275 18.088 27.7835 18.384C28.0395 18.672 28.2355 19 28.3715 19.368C28.5075 19.728 28.5755 20.1 28.5755 20.484C28.5755 20.564 28.5715 20.656 28.5635 20.76C28.5555 20.856 28.5435 20.956 28.5275 21.06H23.0915V20.22H28.0115L27.5795 20.58C27.6515 20.14 27.5995 19.748 27.4235 19.404C27.2555 19.052 27.0115 18.776 26.6915 18.576C26.3715 18.368 26.0115 18.264 25.6115 18.264C25.2115 18.264 24.8395 18.368 24.4955 18.576C24.1595 18.784 23.8955 19.076 23.7035 19.452C23.5115 19.82 23.4355 20.26 23.4755 20.772C23.4355 21.284 23.5155 21.732 23.7155 22.116C23.9235 22.492 24.2035 22.784 24.5555 22.992C24.9155 23.2 25.2995 23.304 25.7075 23.304C26.1795 23.304 26.5755 23.192 26.8955 22.968C27.2155 22.744 27.4755 22.464 27.6755 22.128L28.4435 22.536C28.3155 22.824 28.1195 23.092 27.8555 23.34C27.5915 23.58 27.2755 23.776 26.9075 23.928C26.5475 24.072 26.1475 24.144 25.7075 24.144ZM32.6223 24.072C32.0463 24.072 31.6023 23.904 31.2903 23.568C30.9783 23.232 30.8223 22.752 30.8223 22.128V18.468H29.6343V17.568H29.9343C30.2063 17.568 30.4223 17.48 30.5823 17.304C30.7423 17.12 30.8223 16.892 30.8223 16.62V16.08H31.7223V17.568H33.1383V18.468H31.7223V22.128C31.7223 22.344 31.7543 22.536 31.8183 22.704C31.8823 22.864 31.9903 22.992 32.1423 23.088C32.3023 23.184 32.5143 23.232 32.7783 23.232C32.8423 23.232 32.9183 23.228 33.0063 23.22C33.0943 23.212 33.1703 23.204 33.2343 23.196V24C33.1383 24.024 33.0303 24.04 32.9103 24.048C32.7903 24.064 32.6943 24.072 32.6223 24.072ZM39.1337 24.144C38.6857 24.144 38.2777 24.04 37.9097 23.832C37.5417 23.616 37.2497 23.32 37.0337 22.944C36.8257 22.56 36.7217 22.12 36.7217 21.624V17.568H37.6217V21.516C37.6217 21.86 37.6897 22.164 37.8257 22.428C37.9697 22.684 38.1657 22.884 38.4137 23.028C38.6697 23.172 38.9617 23.244 39.2897 23.244C39.6177 23.244 39.9097 23.172 40.1657 23.028C40.4217 22.876 40.6217 22.664 40.7657 22.392C40.9097 22.112 40.9817 21.78 40.9817 21.396V17.568H41.8817V24H40.9817V22.752L41.1857 22.8C41.0337 23.216 40.7737 23.544 40.4057 23.784C40.0377 24.024 39.6137 24.144 39.1337 24.144ZM43.7326 26.4V17.568H44.6326V19.008L44.4886 18.756C44.7446 18.348 45.0846 18.024 45.5086 17.784C45.9406 17.544 46.4326 17.424 46.9846 17.424C47.5926 17.424 48.1326 17.572 48.6046 17.868C49.0846 18.156 49.4606 18.552 49.7326 19.056C50.0126 19.56 50.1526 20.136 50.1526 20.784C50.1526 21.424 50.0126 22 49.7326 22.512C49.4606 23.016 49.0846 23.416 48.6046 23.712C48.1326 24 47.5926 24.144 46.9846 24.144C46.4326 24.144 45.9326 24.02 45.4846 23.772C45.0446 23.516 44.7126 23.156 44.4886 22.692L44.6326 22.56V26.4H43.7326ZM46.9366 23.244C47.3686 23.244 47.7526 23.136 48.0886 22.92C48.4326 22.704 48.7006 22.412 48.8926 22.044C49.0926 21.668 49.1926 21.248 49.1926 20.784C49.1926 20.312 49.0926 19.892 48.8926 19.524C48.7006 19.156 48.4326 18.864 48.0886 18.648C47.7526 18.432 47.3686 18.324 46.9366 18.324C46.5046 18.324 46.1126 18.432 45.7606 18.648C45.4166 18.864 45.1406 19.16 44.9326 19.536C44.7326 19.904 44.6326 20.32 44.6326 20.784C44.6326 21.248 44.7326 21.668 44.9326 22.044C45.1406 22.412 45.4166 22.704 45.7606 22.92C46.1126 23.136 46.5046 23.244 46.9366 23.244ZM54.0793 24.072C53.5033 24.072 53.0593 23.904 52.7473 23.568C52.4353 23.232 52.2793 22.752 52.2793 22.128V18.468H51.0913V17.568H51.3913C51.6633 17.568 51.8793 17.48 52.0393 17.304C52.1993 17.12 52.2793 16.892 52.2793 16.62V16.08H53.1793V17.568H54.5953V18.468H53.1793V22.128C53.1793 22.344 53.2113 22.536 53.2753 22.704C53.3393 22.864 53.4473 22.992 53.5993 23.088C53.7593 23.184 53.9713 23.232 54.2353 23.232C54.2993 23.232 54.3753 23.228 54.4633 23.22C54.5513 23.212 54.6273 23.204 54.6913 23.196V24C54.5953 24.024 54.4873 24.04 54.3673 24.048C54.2473 24.064 54.1513 24.072 54.0793 24.072ZM59.0493 24.144C58.4413 24.144 57.8893 24 57.3933 23.712C56.8973 23.416 56.5013 23.016 56.2053 22.512C55.9173 22 55.7733 21.42 55.7733 20.772C55.7733 20.132 55.9173 19.56 56.2053 19.056C56.4933 18.552 56.8813 18.156 57.3693 17.868C57.8653 17.572 58.4253 17.424 59.0493 17.424C59.6733 17.424 60.2293 17.568 60.7173 17.856C61.2133 18.144 61.6013 18.54 61.8813 19.044C62.1693 19.548 62.3133 20.124 62.3133 20.772C62.3133 21.428 62.1653 22.012 61.8693 22.524C61.5733 23.028 61.1773 23.424 60.6813 23.712C60.1933 24 59.6493 24.144 59.0493 24.144ZM59.0493 23.244C59.4813 23.244 59.8693 23.136 60.2133 22.92C60.5653 22.704 60.8413 22.408 61.0413 22.032C61.2493 21.656 61.3533 21.236 61.3533 20.772C61.3533 20.308 61.2493 19.892 61.0413 19.524C60.8413 19.156 60.5653 18.864 60.2133 18.648C59.8693 18.432 59.4813 18.324 59.0493 18.324C58.6173 18.324 58.2253 18.432 57.8733 18.648C57.5293 18.864 57.2533 19.156 57.0453 19.524C56.8373 19.892 56.7333 20.308 56.7333 20.772C56.7333 21.236 56.8373 21.656 57.0453 22.032C57.2533 22.408 57.5293 22.704 57.8733 22.92C58.2253 23.136 58.6173 23.244 59.0493 23.244Z" fill="white"/>
<path d="M19.008 54.288C18.016 54.288 17.072 54.104 16.176 53.736C15.28 53.352 14.52 52.816 13.896 52.128C13.272 51.44 12.856 50.632 12.648 49.704L15.936 48.6C16.208 49.368 16.608 49.952 17.136 50.352C17.664 50.736 18.288 50.928 19.008 50.928C19.6 50.928 20.104 50.816 20.52 50.592C20.952 50.368 21.288 50.056 21.528 49.656C21.768 49.24 21.888 48.76 21.888 48.216C21.888 47.672 21.768 47.208 21.528 46.824C21.304 46.424 20.976 46.12 20.544 45.912C20.128 45.688 19.616 45.576 19.008 45.576C18.656 45.576 18.304 45.616 17.952 45.696C17.6 45.776 17.28 45.888 16.992 46.032L16.128 44.232L20.712 39.24H13.728V36.12H24.888V39L20.184 44.352L20.304 42.84C21.376 42.84 22.304 43.064 23.088 43.512C23.888 43.944 24.504 44.552 24.936 45.336C25.384 46.12 25.608 47.032 25.608 48.072C25.608 49.256 25.32 50.32 24.744 51.264C24.168 52.208 23.384 52.952 22.392 53.496C21.4 54.024 20.272 54.288 19.008 54.288ZM35.0953 54.288C33.6713 54.288 32.4153 53.904 31.3273 53.136C30.2553 52.368 29.4153 51.288 28.8073 49.896C28.1993 48.504 27.8953 46.888 27.8953 45.048C27.8953 43.192 28.1913 41.576 28.7833 40.2C29.3913 38.824 30.2313 37.752 31.3033 36.984C32.3913 36.216 33.6473 35.832 35.0713 35.832C36.5273 35.832 37.7913 36.216 38.8633 36.984C39.9513 37.752 40.7913 38.832 41.3833 40.224C41.9913 41.6 42.2953 43.208 42.2953 45.048C42.2953 46.888 41.9913 48.504 41.3833 49.896C40.7913 51.272 39.9513 52.352 38.8633 53.136C37.7913 53.904 36.5353 54.288 35.0953 54.288ZM35.1193 50.928C35.8553 50.928 36.4793 50.696 36.9913 50.232C37.5033 49.768 37.8953 49.096 38.1673 48.216C38.4393 47.336 38.5753 46.28 38.5753 45.048C38.5753 43.816 38.4393 42.768 38.1673 41.904C37.8953 41.024 37.4953 40.352 36.9673 39.888C36.4553 39.424 35.8233 39.192 35.0713 39.192C34.3353 39.192 33.7113 39.424 33.1993 39.888C32.6873 40.352 32.2953 41.024 32.0233 41.904C31.7513 42.768 31.6153 43.816 31.6153 45.048C31.6153 46.264 31.7513 47.312 32.0233 48.192C32.2953 49.072 32.6873 49.752 33.1993 50.232C33.7273 50.696 34.3673 50.928 35.1193 50.928ZM47.292 54L61.74 36.12H65.436L50.988 54H47.292ZM50.148 45.192C49.252 45.192 48.444 44.984 47.724 44.568C47.02 44.136 46.46 43.568 46.044 42.864C45.628 42.16 45.42 41.376 45.42 40.512C45.42 39.648 45.628 38.864 46.044 38.16C46.46 37.44 47.02 36.872 47.724 36.456C48.444 36.04 49.252 35.832 50.148 35.832C51.044 35.832 51.844 36.04 52.548 36.456C53.252 36.872 53.812 37.44 54.228 38.16C54.644 38.864 54.852 39.648 54.852 40.512C54.852 41.376 54.644 42.16 54.228 42.864C53.812 43.568 53.252 44.136 52.548 44.568C51.844 44.984 51.044 45.192 50.148 45.192ZM50.148 42.552C50.58 42.552 50.94 42.456 51.228 42.264C51.516 42.056 51.732 41.8 51.876 41.496C52.02 41.176 52.092 40.848 52.092 40.512C52.092 40.16 52.02 39.832 51.876 39.528C51.732 39.224 51.516 38.976 51.228 38.784C50.94 38.576 50.58 38.472 50.148 38.472C49.716 38.472 49.356 38.576 49.068 38.784C48.78 38.976 48.556 39.224 48.396 39.528C48.252 39.832 48.18 40.16 48.18 40.512C48.18 40.848 48.252 41.176 48.396 41.496C48.556 41.8 48.78 42.056 49.068 42.264C49.356 42.456 49.716 42.552 50.148 42.552ZM62.556 54.288C61.66 54.288 60.852 54.08 60.132 53.664C59.428 53.232 58.868 52.664 58.452 51.96C58.036 51.256 57.828 50.472 57.828 49.608C57.828 48.744 58.036 47.96 58.452 47.256C58.868 46.536 59.428 45.968 60.132 45.552C60.852 45.136 61.66 44.928 62.556 44.928C63.452 44.928 64.252 45.136 64.956 45.552C65.66 45.968 66.22 46.536 66.636 47.256C67.052 47.96 67.26 48.744 67.26 49.608C67.26 50.472 67.052 51.256 66.636 51.96C66.22 52.664 65.66 53.232 64.956 53.664C64.252 54.08 63.452 54.288 62.556 54.288ZM62.556 51.648C62.988 51.648 63.348 51.552 63.636 51.36C63.924 51.152 64.14 50.896 64.284 50.592C64.428 50.272 64.5 49.944 64.5 49.608C64.5 49.256 64.428 48.928 64.284 48.624C64.14 48.32 63.924 48.072 63.636 47.88C63.348 47.672 62.988 47.568 62.556 47.568C62.14 47.568 61.78 47.672 61.476 47.88C61.188 48.072 60.964 48.32 60.804 48.624C60.66 48.928 60.588 49.256 60.588 49.608C60.588 49.944 60.66 50.272 60.804 50.592C60.964 50.896 61.188 51.152 61.476 51.36C61.78 51.552 62.14 51.648 62.556 51.648ZM84.036 54.288C82.692 54.288 81.444 54.056 80.292 53.592C79.14 53.128 78.132 52.48 77.268 51.648C76.42 50.8 75.756 49.816 75.276 48.696C74.796 47.576 74.556 46.36 74.556 45.048C74.556 43.736 74.788 42.52 75.252 41.4C75.732 40.28 76.396 39.304 77.244 38.472C78.108 37.64 79.116 36.992 80.268 36.528C81.42 36.064 82.676 35.832 84.036 35.832C85.396 35.832 86.652 36.064 87.804 36.528C88.956 36.992 89.956 37.64 90.804 38.472C91.668 39.304 92.332 40.28 92.796 41.4C93.276 42.52 93.516 43.736 93.516 45.048C93.516 46.36 93.276 47.576 92.796 48.696C92.316 49.816 91.644 50.8 90.78 51.648C89.932 52.48 88.932 53.128 87.78 53.592C86.628 54.056 85.38 54.288 84.036 54.288ZM84.036 50.928C84.852 50.928 85.604 50.784 86.292 50.496C86.996 50.208 87.612 49.808 88.14 49.296C88.668 48.768 89.076 48.144 89.364 47.424C89.652 46.704 89.796 45.912 89.796 45.048C89.796 44.184 89.652 43.4 89.364 42.696C89.076 41.976 88.668 41.352 88.14 40.824C87.612 40.296 86.996 39.896 86.292 39.624C85.604 39.336 84.852 39.192 84.036 39.192C83.22 39.192 82.46 39.336 81.756 39.624C81.068 39.896 80.46 40.296 79.932 40.824C79.404 41.352 78.996 41.976 78.708 42.696C78.42 43.4 78.276 44.184 78.276 45.048C78.276 45.912 78.42 46.704 78.708 47.424C78.996 48.144 79.404 48.768 79.932 49.296C80.46 49.808 81.068 50.208 81.756 50.496C82.46 50.784 83.22 50.928 84.036 50.928ZM96.1543 54V36.12H108.394V39.36H99.8743V43.896H107.194V47.136H99.8743V54H96.1543ZM110.24 54V36.12H122.48V39.36H113.96V43.896H121.28V47.136H113.96V54H110.24Z" fill="white"/>
<path d="M13.056 81V72.06H16.812C17.316 72.06 17.752 72.156 18.12 72.348C18.496 72.532 18.784 72.792 18.984 73.128C19.192 73.464 19.296 73.856 19.296 74.304C19.296 74.768 19.18 75.18 18.948 75.54C18.724 75.892 18.4 76.16 17.976 76.344L17.964 76.056C18.316 76.184 18.616 76.364 18.864 76.596C19.12 76.828 19.316 77.1 19.452 77.412C19.588 77.716 19.656 78.044 19.656 78.396C19.656 79.196 19.4 79.832 18.888 80.304C18.384 80.768 17.696 81 16.824 81H13.056ZM14.016 80.1H16.824C17.392 80.1 17.844 79.952 18.18 79.656C18.524 79.352 18.696 78.936 18.696 78.408C18.696 77.888 18.524 77.476 18.18 77.172C17.844 76.86 17.392 76.704 16.824 76.704H14.016V80.1ZM14.016 75.84H16.74C17.22 75.84 17.604 75.7 17.892 75.42C18.188 75.14 18.336 74.78 18.336 74.34C18.336 73.892 18.188 73.552 17.892 73.32C17.604 73.08 17.22 72.96 16.74 72.96H14.016V75.84ZM21.3763 83.64C21.2483 83.64 21.1163 83.628 20.9803 83.604C20.8523 83.588 20.7243 83.556 20.5963 83.508V82.668C20.6763 82.676 20.7763 82.688 20.8963 82.704C21.0243 82.728 21.1523 82.74 21.2803 82.74C21.6723 82.74 21.9723 82.656 22.1803 82.488C22.3883 82.328 22.5923 82.016 22.7923 81.552L23.2003 80.592L23.1763 81.384L20.4523 74.568H21.4243L23.6563 80.196H23.4043L25.6243 74.568H26.6203L23.6803 81.816C23.5523 82.128 23.3883 82.424 23.1883 82.704C22.9963 82.984 22.7523 83.208 22.4563 83.376C22.1603 83.552 21.8003 83.64 21.3763 83.64ZM32.969 81.144C32.417 81.144 31.917 81.02 31.469 80.772C31.029 80.516 30.697 80.156 30.473 79.692L30.617 79.56V81H29.717V71.916H30.617V76.008L30.473 75.756C30.729 75.348 31.069 75.024 31.493 74.784C31.925 74.544 32.417 74.424 32.969 74.424C33.577 74.424 34.117 74.572 34.589 74.868C35.069 75.156 35.445 75.552 35.717 76.056C35.997 76.56 36.137 77.136 36.137 77.784C36.137 78.424 35.997 79 35.717 79.512C35.445 80.016 35.069 80.416 34.589 80.712C34.117 81 33.577 81.144 32.969 81.144ZM32.921 80.244C33.353 80.244 33.737 80.136 34.073 79.92C34.417 79.704 34.685 79.412 34.877 79.044C35.077 78.668 35.177 78.248 35.177 77.784C35.177 77.312 35.077 76.892 34.877 76.524C34.685 76.156 34.417 75.864 34.073 75.648C33.737 75.432 33.353 75.324 32.921 75.324C32.489 75.324 32.097 75.432 31.745 75.648C31.401 75.864 31.125 76.16 30.917 76.536C30.717 76.904 30.617 77.32 30.617 77.784C30.617 78.248 30.717 78.668 30.917 79.044C31.125 79.412 31.401 79.704 31.745 79.92C32.097 80.136 32.489 80.244 32.921 80.244ZM40.6489 81.144C40.0489 81.144 39.5049 81 39.0169 80.712C38.5369 80.416 38.1569 80.012 37.8769 79.5C37.5969 78.988 37.4569 78.408 37.4569 77.76C37.4569 77.112 37.5929 76.54 37.8649 76.044C38.1369 75.54 38.5049 75.144 38.9689 74.856C39.4409 74.568 39.9689 74.424 40.5529 74.424C41.0169 74.424 41.4289 74.512 41.7889 74.688C42.1569 74.856 42.4689 75.088 42.7249 75.384C42.9809 75.672 43.1769 76 43.3129 76.368C43.4489 76.728 43.5169 77.1 43.5169 77.484C43.5169 77.564 43.5129 77.656 43.5049 77.76C43.4969 77.856 43.4849 77.956 43.4689 78.06H38.0329V77.22H42.9529L42.5209 77.58C42.5929 77.14 42.5409 76.748 42.3649 76.404C42.1969 76.052 41.9529 75.776 41.6329 75.576C41.3129 75.368 40.9529 75.264 40.5529 75.264C40.1529 75.264 39.7809 75.368 39.4369 75.576C39.1009 75.784 38.8369 76.076 38.6449 76.452C38.4529 76.82 38.3769 77.26 38.4169 77.772C38.3769 78.284 38.4569 78.732 38.6569 79.116C38.8649 79.492 39.1449 79.784 39.4969 79.992C39.8569 80.2 40.2409 80.304 40.6489 80.304C41.1209 80.304 41.5169 80.192 41.8369 79.968C42.1569 79.744 42.4169 79.464 42.6169 79.128L43.3849 79.536C43.2569 79.824 43.0609 80.092 42.7969 80.34C42.5329 80.58 42.2169 80.776 41.8489 80.928C41.4889 81.072 41.0889 81.144 40.6489 81.144ZM48.0437 81.144C47.4117 81.144 46.8557 80.996 46.3757 80.7C45.8957 80.404 45.5197 80.004 45.2477 79.5C44.9757 78.988 44.8397 78.412 44.8397 77.772C44.8397 77.132 44.9757 76.56 45.2477 76.056C45.5197 75.552 45.8957 75.156 46.3757 74.868C46.8557 74.572 47.4117 74.424 48.0437 74.424C48.4437 74.424 48.8197 74.496 49.1717 74.64C49.5237 74.784 49.8357 74.98 50.1077 75.228C50.3797 75.468 50.5837 75.748 50.7197 76.068L49.9037 76.488C49.7437 76.144 49.4997 75.864 49.1717 75.648C48.8437 75.432 48.4677 75.324 48.0437 75.324C47.6197 75.324 47.2357 75.432 46.8917 75.648C46.5557 75.856 46.2877 76.148 46.0877 76.524C45.8957 76.892 45.7997 77.312 45.7997 77.784C45.7997 78.248 45.8957 78.668 46.0877 79.044C46.2877 79.412 46.5557 79.704 46.8917 79.92C47.2357 80.136 47.6197 80.244 48.0437 80.244C48.4677 80.244 48.8397 80.136 49.1597 79.92C49.4877 79.704 49.7357 79.416 49.9037 79.056L50.7197 79.5C50.5837 79.812 50.3797 80.092 50.1077 80.34C49.8357 80.588 49.5237 80.784 49.1717 80.928C48.8197 81.072 48.4437 81.144 48.0437 81.144ZM55.311 81.144C54.703 81.144 54.151 81 53.655 80.712C53.159 80.416 52.763 80.016 52.467 79.512C52.179 79 52.035 78.42 52.035 77.772C52.035 77.132 52.179 76.56 52.467 76.056C52.755 75.552 53.143 75.156 53.631 74.868C54.127 74.572 54.687 74.424 55.311 74.424C55.935 74.424 56.491 74.568 56.979 74.856C57.475 75.144 57.863 75.54 58.143 76.044C58.431 76.548 58.575 77.124 58.575 77.772C58.575 78.428 58.427 79.012 58.131 79.524C57.835 80.028 57.439 80.424 56.943 80.712C56.455 81 55.911 81.144 55.311 81.144ZM55.311 80.244C55.743 80.244 56.131 80.136 56.475 79.92C56.827 79.704 57.103 79.408 57.303 79.032C57.511 78.656 57.615 78.236 57.615 77.772C57.615 77.308 57.511 76.892 57.303 76.524C57.103 76.156 56.827 75.864 56.475 75.648C56.131 75.432 55.743 75.324 55.311 75.324C54.879 75.324 54.487 75.432 54.135 75.648C53.791 75.864 53.515 76.156 53.307 76.524C53.099 76.892 52.995 77.308 52.995 77.772C52.995 78.236 53.099 78.656 53.307 79.032C53.515 79.408 53.791 79.704 54.135 79.92C54.487 80.136 54.879 80.244 55.311 80.244ZM60.1623 81V74.568H61.0623V75.792L60.9183 75.612C61.0943 75.236 61.3543 74.944 61.6983 74.736C62.0503 74.528 62.4343 74.424 62.8503 74.424C63.3463 74.424 63.7943 74.564 64.1943 74.844C64.5943 75.124 64.8783 75.488 65.0463 75.936L64.7943 75.948C64.9543 75.452 65.2303 75.076 65.6223 74.82C66.0223 74.556 66.4623 74.424 66.9423 74.424C67.3743 74.424 67.7703 74.528 68.1303 74.736C68.4983 74.944 68.7903 75.232 69.0063 75.6C69.2303 75.96 69.3423 76.368 69.3423 76.824V81H68.4423V77.172C68.4423 76.78 68.3703 76.448 68.2263 76.176C68.0903 75.904 67.9023 75.696 67.6623 75.552C67.4223 75.4 67.1463 75.324 66.8343 75.324C66.5303 75.324 66.2543 75.4 66.0063 75.552C65.7583 75.696 65.5623 75.908 65.4183 76.188C65.2743 76.46 65.2023 76.788 65.2023 77.172V81H64.3023V77.172C64.3023 76.78 64.2303 76.448 64.0863 76.176C63.9503 75.904 63.7623 75.696 63.5223 75.552C63.2823 75.4 63.0063 75.324 62.6943 75.324C62.3823 75.324 62.1023 75.4 61.8543 75.552C61.6143 75.696 61.4223 75.908 61.2783 76.188C61.1343 76.46 61.0623 76.788 61.0623 77.172V81H60.1623ZM71.0607 81V74.568H71.9607V81H71.0607ZM71.0607 73.38V72.06H71.9607V73.38H71.0607ZM73.8029 81V74.568H74.7029V75.816L74.4989 75.768C74.6589 75.352 74.9189 75.024 75.2789 74.784C75.6469 74.544 76.0709 74.424 76.5509 74.424C77.0069 74.424 77.4149 74.528 77.7749 74.736C78.1429 74.944 78.4309 75.232 78.6389 75.6C78.8549 75.96 78.9629 76.368 78.9629 76.824V81H78.0629V77.172C78.0629 76.78 77.9909 76.448 77.8469 76.176C77.7109 75.904 77.5149 75.696 77.2589 75.552C77.0109 75.4 76.7229 75.324 76.3949 75.324C76.0669 75.324 75.7749 75.4 75.5189 75.552C75.2629 75.696 75.0629 75.908 74.9189 76.188C74.7749 76.46 74.7029 76.788 74.7029 77.172V81H73.8029ZM83.7298 83.64C83.2898 83.64 82.8818 83.572 82.5058 83.436C82.1378 83.3 81.8178 83.112 81.5458 82.872C81.2818 82.64 81.0778 82.368 80.9338 82.056L81.7618 81.612C81.8898 81.916 82.1178 82.18 82.4458 82.404C82.7738 82.628 83.1938 82.74 83.7058 82.74C84.0978 82.74 84.4578 82.664 84.7858 82.512C85.1138 82.36 85.3778 82.136 85.5778 81.84C85.7778 81.544 85.8778 81.18 85.8778 80.748V79.32L86.0218 79.452C85.7978 79.916 85.4658 80.276 85.0258 80.532C84.5858 80.78 84.1058 80.904 83.5858 80.904C82.9858 80.904 82.4458 80.76 81.9658 80.472C81.4858 80.184 81.1058 79.796 80.8258 79.308C80.5538 78.812 80.4178 78.264 80.4178 77.664C80.4178 77.056 80.5538 76.508 80.8258 76.02C81.1058 75.532 81.4818 75.144 81.9538 74.856C82.4338 74.568 82.9778 74.424 83.5858 74.424C84.1058 74.424 84.5778 74.544 85.0018 74.784C85.4338 75.024 85.7738 75.348 86.0218 75.756L85.8778 76.008V74.568H86.7778V80.748C86.7778 81.3 86.6458 81.792 86.3818 82.224C86.1258 82.664 85.7658 83.008 85.3018 83.256C84.8458 83.512 84.3218 83.64 83.7298 83.64ZM83.6338 80.004C84.0498 80.004 84.4258 79.9 84.7618 79.692C85.0978 79.476 85.3658 79.192 85.5658 78.84C85.7738 78.48 85.8778 78.088 85.8778 77.664C85.8778 77.24 85.7738 76.852 85.5658 76.5C85.3658 76.14 85.0978 75.856 84.7618 75.648C84.4258 75.432 84.0498 75.324 83.6338 75.324C83.2098 75.324 82.8258 75.432 82.4818 75.648C82.1378 75.856 81.8658 76.136 81.6658 76.488C81.4738 76.84 81.3778 77.232 81.3778 77.664C81.3778 78.088 81.4738 78.48 81.6658 78.84C81.8658 79.192 82.1338 79.476 82.4698 79.692C82.8138 79.9 83.2018 80.004 83.6338 80.004ZM92.5262 81.144C92.1182 81.144 91.7542 81.068 91.4342 80.916C91.1142 80.756 90.8622 80.54 90.6782 80.268C90.4942 79.996 90.4022 79.684 90.4022 79.332C90.4022 78.996 90.4742 78.692 90.6182 78.42C90.7622 78.14 90.9862 77.904 91.2902 77.712C91.5942 77.52 91.9822 77.384 92.4542 77.304L94.9742 76.884V77.7L92.6702 78.084C92.2062 78.164 91.8702 78.312 91.6622 78.528C91.4622 78.744 91.3622 79 91.3622 79.296C91.3622 79.584 91.4742 79.828 91.6982 80.028C91.9302 80.228 92.2262 80.328 92.5862 80.328C93.0262 80.328 93.4102 80.236 93.7382 80.052C94.0662 79.86 94.3222 79.604 94.5062 79.284C94.6902 78.964 94.7822 78.608 94.7822 78.216V76.584C94.7822 76.2 94.6422 75.888 94.3622 75.648C94.0822 75.408 93.7182 75.288 93.2702 75.288C92.8782 75.288 92.5342 75.388 92.2382 75.588C91.9422 75.78 91.7222 76.032 91.5782 76.344L90.7622 75.9C90.8822 75.628 91.0702 75.38 91.3262 75.156C91.5902 74.932 91.8902 74.756 92.2262 74.628C92.5622 74.492 92.9102 74.424 93.2702 74.424C93.7422 74.424 94.1582 74.516 94.5182 74.7C94.8862 74.884 95.1702 75.14 95.3702 75.468C95.5782 75.788 95.6822 76.16 95.6822 76.584V81H94.7822V79.716L94.9142 79.848C94.8022 80.088 94.6262 80.308 94.3862 80.508C94.1542 80.7 93.8782 80.856 93.5582 80.976C93.2462 81.088 92.9022 81.144 92.5262 81.144ZM97.5334 81V74.568H98.4334V75.816L98.2294 75.768C98.3894 75.352 98.6494 75.024 99.0094 74.784C99.3774 74.544 99.8014 74.424 100.281 74.424C100.737 74.424 101.145 74.528 101.505 74.736C101.873 74.944 102.161 75.232 102.369 75.6C102.585 75.96 102.693 76.368 102.693 76.824V81H101.793V77.172C101.793 76.78 101.721 76.448 101.577 76.176C101.441 75.904 101.245 75.696 100.989 75.552C100.741 75.4 100.453 75.324 100.125 75.324C99.7974 75.324 99.5054 75.4 99.2494 75.552C98.9934 75.696 98.7934 75.908 98.6494 76.188C98.5054 76.46 98.4334 76.788 98.4334 77.172V81H97.5334ZM12.864 96V87.06H16.188C16.796 87.06 17.332 87.172 17.796 87.396C18.268 87.612 18.636 87.932 18.9 88.356C19.164 88.772 19.296 89.28 19.296 89.88C19.296 90.496 19.148 91.02 18.852 91.452C18.564 91.884 18.172 92.204 17.676 92.412L19.728 96H17.88L15.684 92.076L16.74 92.7H14.496V96H12.864ZM14.496 91.26H16.212C16.508 91.26 16.764 91.204 16.98 91.092C17.196 90.972 17.364 90.808 17.484 90.6C17.604 90.392 17.664 90.152 17.664 89.88C17.664 89.6 17.604 89.36 17.484 89.16C17.364 88.952 17.196 88.792 16.98 88.68C16.764 88.56 16.508 88.5 16.212 88.5H14.496V91.26ZM20.6656 96V89.472H22.2376V96H20.6656ZM20.6656 88.74V87.06H22.2376V88.74H20.6656ZM23.689 96V89.472H25.165V90.756L25.045 90.528C25.197 90.136 25.445 89.84 25.789 89.64C26.141 89.432 26.549 89.328 27.013 89.328C27.493 89.328 27.917 89.432 28.285 89.64C28.661 89.848 28.953 90.14 29.161 90.516C29.369 90.884 29.473 91.312 29.473 91.8V96H27.901V92.172C27.901 91.884 27.845 91.636 27.733 91.428C27.621 91.22 27.465 91.06 27.265 90.948C27.073 90.828 26.845 90.768 26.581 90.768C26.325 90.768 26.097 90.828 25.897 90.948C25.697 91.06 25.541 91.22 25.429 91.428C25.317 91.636 25.261 91.884 25.261 92.172V96H23.689ZM30.2383 96V94.728L34.0303 90.336L34.2703 90.876H30.4063V89.472H35.6623V90.756L31.9423 95.148L31.7023 94.608H35.6863V96H30.2383ZM39.6757 96.144C39.0037 96.144 38.4157 95.992 37.9117 95.688C37.4077 95.384 37.0157 94.972 36.7357 94.452C36.4557 93.932 36.3157 93.356 36.3157 92.724C36.3157 92.068 36.4557 91.488 36.7357 90.984C37.0237 90.472 37.4117 90.068 37.8997 89.772C38.3957 89.476 38.9477 89.328 39.5557 89.328C40.0677 89.328 40.5157 89.412 40.8997 89.58C41.2917 89.748 41.6237 89.98 41.8957 90.276C42.1677 90.572 42.3757 90.912 42.5197 91.296C42.6637 91.672 42.7357 92.08 42.7357 92.52C42.7357 92.632 42.7277 92.748 42.7117 92.868C42.7037 92.988 42.6837 93.092 42.6517 93.18H37.6117V91.98H41.7637L41.0197 92.544C41.0917 92.176 41.0717 91.848 40.9597 91.56C40.8557 91.272 40.6797 91.044 40.4317 90.876C40.1917 90.708 39.8997 90.624 39.5557 90.624C39.2277 90.624 38.9357 90.708 38.6797 90.876C38.4237 91.036 38.2277 91.276 38.0917 91.596C37.9637 91.908 37.9157 92.288 37.9477 92.736C37.9157 93.136 37.9677 93.492 38.1037 93.804C38.2477 94.108 38.4557 94.344 38.7277 94.512C39.0077 94.68 39.3277 94.764 39.6877 94.764C40.0477 94.764 40.3517 94.688 40.5997 94.536C40.8557 94.384 41.0557 94.18 41.1997 93.924L42.4717 94.548C42.3437 94.86 42.1437 95.136 41.8717 95.376C41.5997 95.616 41.2757 95.804 40.8997 95.94C40.5317 96.076 40.1237 96.144 39.6757 96.144ZM49.2281 98.64C48.7401 98.64 48.2881 98.56 47.8721 98.4C47.4561 98.24 47.0961 98.016 46.7921 97.728C46.4961 97.448 46.2801 97.116 46.1441 96.732L47.6081 96.18C47.7041 96.484 47.8921 96.728 48.1721 96.912C48.4601 97.104 48.8121 97.2 49.2281 97.2C49.5481 97.2 49.8281 97.14 50.0681 97.02C50.3161 96.9 50.5081 96.724 50.6441 96.492C50.7801 96.268 50.8481 95.996 50.8481 95.676V94.188L51.1481 94.548C50.9241 94.94 50.6241 95.236 50.2481 95.436C49.8721 95.636 49.4441 95.736 48.9641 95.736C48.3561 95.736 47.8121 95.596 47.3321 95.316C46.8521 95.036 46.4761 94.652 46.2041 94.164C45.9321 93.676 45.7961 93.128 45.7961 92.52C45.7961 91.904 45.9321 91.356 46.2041 90.876C46.4761 90.396 46.8481 90.02 47.3201 89.748C47.7921 89.468 48.3281 89.328 48.9281 89.328C49.4161 89.328 49.8441 89.432 50.2121 89.64C50.5881 89.84 50.9001 90.132 51.1481 90.516L50.9321 90.912V89.472H52.4201V95.676C52.4201 96.244 52.2801 96.752 52.0001 97.2C51.7281 97.648 51.3521 98 50.8721 98.256C50.4001 98.512 49.8521 98.64 49.2281 98.64ZM49.1561 94.284C49.4921 94.284 49.7841 94.212 50.0321 94.068C50.2881 93.916 50.4881 93.708 50.6321 93.444C50.7761 93.18 50.8481 92.876 50.8481 92.532C50.8481 92.196 50.7721 91.896 50.6201 91.632C50.4761 91.36 50.2761 91.148 50.0201 90.996C49.7721 90.844 49.4841 90.768 49.1561 90.768C48.8281 90.768 48.5321 90.844 48.2681 90.996C48.0041 91.148 47.7961 91.36 47.6441 91.632C47.5001 91.896 47.4281 92.196 47.4281 92.532C47.4281 92.868 47.5001 93.168 47.6441 93.432C47.7961 93.696 48.0001 93.904 48.2561 94.056C48.5201 94.208 48.8201 94.284 49.1561 94.284ZM57.0803 96.144C56.4403 96.144 55.8563 95.996 55.3283 95.7C54.8083 95.404 54.3923 95 54.0803 94.488C53.7763 93.976 53.6243 93.392 53.6243 92.736C53.6243 92.08 53.7763 91.496 54.0803 90.984C54.3923 90.472 54.8083 90.068 55.3283 89.772C55.8483 89.476 56.4323 89.328 57.0803 89.328C57.7203 89.328 58.3003 89.476 58.8203 89.772C59.3403 90.068 59.7523 90.472 60.0563 90.984C60.3683 91.488 60.5243 92.072 60.5243 92.736C60.5243 93.392 60.3683 93.976 60.0563 94.488C59.7443 95 59.3283 95.404 58.8083 95.7C58.2883 95.996 57.7123 96.144 57.0803 96.144ZM57.0803 94.704C57.4323 94.704 57.7403 94.62 58.0043 94.452C58.2763 94.284 58.4883 94.052 58.6403 93.756C58.8003 93.452 58.8803 93.112 58.8803 92.736C58.8803 92.352 58.8003 92.016 58.6403 91.728C58.4883 91.432 58.2763 91.2 58.0043 91.032C57.7403 90.856 57.4323 90.768 57.0803 90.768C56.7203 90.768 56.4043 90.856 56.1323 91.032C55.8603 91.2 55.6443 91.432 55.4843 91.728C55.3323 92.016 55.2563 92.352 55.2563 92.736C55.2563 93.112 55.3323 93.452 55.4843 93.756C55.6443 94.052 55.8603 94.284 56.1323 94.452C56.4043 94.62 56.7203 94.704 57.0803 94.704ZM61.7164 96V86.916H63.2884V96H61.7164ZM67.7758 96.144C67.1438 96.144 66.5798 95.996 66.0838 95.7C65.5878 95.396 65.1958 94.984 64.9078 94.464C64.6198 93.944 64.4758 93.368 64.4758 92.736C64.4758 92.096 64.6198 91.52 64.9078 91.008C65.1958 90.496 65.5878 90.088 66.0838 89.784C66.5878 89.48 67.1478 89.328 67.7638 89.328C68.2598 89.328 68.6998 89.428 69.0838 89.628C69.4758 89.82 69.7838 90.092 70.0078 90.444L69.7678 90.768V86.916H71.3398V96H69.8518V94.74L70.0198 95.052C69.7958 95.404 69.4838 95.676 69.0838 95.868C68.6838 96.052 68.2478 96.144 67.7758 96.144ZM67.9438 94.704C68.3038 94.704 68.6198 94.62 68.8918 94.452C69.1638 94.284 69.3758 94.052 69.5278 93.756C69.6878 93.46 69.7678 93.12 69.7678 92.736C69.7678 92.36 69.6878 92.024 69.5278 91.728C69.3758 91.424 69.1638 91.188 68.8918 91.02C68.6198 90.852 68.3038 90.768 67.9438 90.768C67.5918 90.768 67.2758 90.856 66.9958 91.032C66.7158 91.2 66.4958 91.432 66.3358 91.728C66.1838 92.016 66.1078 92.352 66.1078 92.736C66.1078 93.12 66.1838 93.46 66.3358 93.756C66.4958 94.052 66.7158 94.284 66.9958 94.452C67.2758 94.62 67.5918 94.704 67.9438 94.704ZM74.9351 98.4V89.472H76.4111V90.768L76.2671 90.444C76.4911 90.092 76.7951 89.82 77.1791 89.628C77.5631 89.428 78.0071 89.328 78.5111 89.328C79.1271 89.328 79.6831 89.48 80.1791 89.784C80.6751 90.088 81.0671 90.496 81.3551 91.008C81.6511 91.52 81.7991 92.096 81.7991 92.736C81.7991 93.368 81.6551 93.944 81.3671 94.464C81.0791 94.984 80.6871 95.396 80.1911 95.7C79.6951 95.996 79.1311 96.144 78.4991 96.144C78.0271 96.144 77.5911 96.052 77.1911 95.868C76.7991 95.676 76.4871 95.404 76.2551 95.052L76.5071 94.74V98.4H74.9351ZM78.3191 94.704C78.6791 94.704 78.9991 94.62 79.2791 94.452C79.5591 94.284 79.7751 94.052 79.9271 93.756C80.0871 93.46 80.1671 93.12 80.1671 92.736C80.1671 92.352 80.0871 92.016 79.9271 91.728C79.7751 91.432 79.5591 91.2 79.2791 91.032C78.9991 90.856 78.6791 90.768 78.3191 90.768C77.9751 90.768 77.6631 90.852 77.3831 91.02C77.1111 91.188 76.8951 91.424 76.7351 91.728C76.5831 92.024 76.5071 92.36 76.5071 92.736C76.5071 93.12 76.5831 93.46 76.7351 93.756C76.8951 94.052 77.1111 94.284 77.3831 94.452C77.6631 94.62 77.9751 94.704 78.3191 94.704ZM84.9776 96.144C84.5216 96.144 84.1256 96.068 83.7896 95.916C83.4536 95.764 83.1936 95.548 83.0096 95.268C82.8256 94.98 82.7336 94.648 82.7336 94.272C82.7336 93.912 82.8136 93.592 82.9736 93.312C83.1336 93.024 83.3816 92.784 83.7176 92.592C84.0536 92.4 84.4776 92.264 84.9896 92.184L87.1256 91.836V93.036L85.2896 93.348C84.9776 93.404 84.7456 93.504 84.5936 93.648C84.4416 93.792 84.3656 93.98 84.3656 94.212C84.3656 94.436 84.4496 94.616 84.6176 94.752C84.7936 94.88 85.0096 94.944 85.2656 94.944C85.5936 94.944 85.8816 94.876 86.1296 94.74C86.3856 94.596 86.5816 94.4 86.7176 94.152C86.8616 93.904 86.9336 93.632 86.9336 93.336V91.656C86.9336 91.376 86.8216 91.144 86.5976 90.96C86.3816 90.768 86.0936 90.672 85.7336 90.672C85.3976 90.672 85.0976 90.764 84.8336 90.948C84.5776 91.124 84.3896 91.36 84.2696 91.656L82.9856 91.032C83.1136 90.688 83.3136 90.392 83.5856 90.144C83.8656 89.888 84.1936 89.688 84.5696 89.544C84.9456 89.4 85.3536 89.328 85.7936 89.328C86.3296 89.328 86.8016 89.428 87.2096 89.628C87.6176 89.82 87.9336 90.092 88.1576 90.444C88.3896 90.788 88.5056 91.192 88.5056 91.656V96H87.0176V94.884L87.3536 94.86C87.1856 95.14 86.9856 95.376 86.7536 95.568C86.5216 95.752 86.2576 95.896 85.9616 96C85.6656 96.096 85.3376 96.144 84.9776 96.144ZM92.4426 96.144C91.7466 96.144 91.1386 95.98 90.6186 95.652C90.1066 95.316 89.7546 94.864 89.5626 94.296L90.7386 93.732C90.9066 94.1 91.1386 94.388 91.4346 94.596C91.7386 94.804 92.0746 94.908 92.4426 94.908C92.7306 94.908 92.9586 94.844 93.1266 94.716C93.2946 94.588 93.3786 94.42 93.3786 94.212C93.3786 94.084 93.3426 93.98 93.2706 93.9C93.2066 93.812 93.1146 93.74 92.9946 93.684C92.8826 93.62 92.7586 93.568 92.6226 93.528L91.5546 93.228C91.0026 93.068 90.5826 92.824 90.2946 92.496C90.0146 92.168 89.8746 91.78 89.8746 91.332C89.8746 90.932 89.9746 90.584 90.1746 90.288C90.3826 89.984 90.6666 89.748 91.0266 89.58C91.3946 89.412 91.8146 89.328 92.2866 89.328C92.9026 89.328 93.4466 89.476 93.9186 89.772C94.3906 90.068 94.7266 90.484 94.9266 91.02L93.7266 91.584C93.6146 91.288 93.4266 91.052 93.1626 90.876C92.8986 90.7 92.6026 90.612 92.2746 90.612C92.0106 90.612 91.8026 90.672 91.6506 90.792C91.4986 90.912 91.4226 91.068 91.4226 91.26C91.4226 91.38 91.4546 91.484 91.5186 91.572C91.5826 91.66 91.6706 91.732 91.7826 91.788C91.9026 91.844 92.0386 91.896 92.1906 91.944L93.2346 92.256C93.7706 92.416 94.1826 92.656 94.4706 92.976C94.7666 93.296 94.9146 93.688 94.9146 94.152C94.9146 94.544 94.8106 94.892 94.6026 95.196C94.3946 95.492 94.1066 95.724 93.7386 95.892C93.3706 96.06 92.9386 96.144 92.4426 96.144ZM98.6066 96.144C97.9106 96.144 97.3026 95.98 96.7826 95.652C96.2706 95.316 95.9186 94.864 95.7266 94.296L96.9026 93.732C97.0706 94.1 97.3026 94.388 97.5986 94.596C97.9026 94.804 98.2386 94.908 98.6066 94.908C98.8946 94.908 99.1226 94.844 99.2906 94.716C99.4586 94.588 99.5426 94.42 99.5426 94.212C99.5426 94.084 99.5066 93.98 99.4346 93.9C99.3706 93.812 99.2786 93.74 99.1586 93.684C99.0466 93.62 98.9226 93.568 98.7866 93.528L97.7186 93.228C97.1666 93.068 96.7466 92.824 96.4586 92.496C96.1786 92.168 96.0386 91.78 96.0386 91.332C96.0386 90.932 96.1386 90.584 96.3386 90.288C96.5466 89.984 96.8306 89.748 97.1906 89.58C97.5586 89.412 97.9786 89.328 98.4506 89.328C99.0666 89.328 99.6106 89.476 100.083 89.772C100.555 90.068 100.891 90.484 101.091 91.02L99.8906 91.584C99.7786 91.288 99.5906 91.052 99.3266 90.876C99.0626 90.7 98.7666 90.612 98.4386 90.612C98.1746 90.612 97.9666 90.672 97.8146 90.792C97.6626 90.912 97.5866 91.068 97.5866 91.26C97.5866 91.38 97.6186 91.484 97.6826 91.572C97.7466 91.66 97.8346 91.732 97.9466 91.788C98.0666 91.844 98.2026 91.896 98.3546 91.944L99.3986 92.256C99.9346 92.416 100.347 92.656 100.635 92.976C100.931 93.296 101.079 93.688 101.079 94.152C101.079 94.544 100.975 94.892 100.767 95.196C100.559 95.492 100.271 95.724 99.9026 95.892C99.5346 96.06 99.1026 96.144 98.6066 96.144ZM104.518 96V89.568H105.418V90.792L105.274 90.612C105.45 90.236 105.71 89.944 106.054 89.736C106.406 89.528 106.79 89.424 107.206 89.424C107.702 89.424 108.15 89.564 108.55 89.844C108.95 90.124 109.234 90.488 109.402 90.936L109.15 90.948C109.31 90.452 109.586 90.076 109.978 89.82C110.378 89.556 110.818 89.424 111.298 89.424C111.73 89.424 112.126 89.528 112.486 89.736C112.854 89.944 113.146 90.232 113.362 90.6C113.586 90.96 113.698 91.368 113.698 91.824V96H112.798V92.172C112.798 91.78 112.726 91.448 112.582 91.176C112.446 90.904 112.258 90.696 112.018 90.552C111.778 90.4 111.502 90.324 111.19 90.324C110.886 90.324 110.61 90.4 110.362 90.552C110.114 90.696 109.918 90.908 109.774 91.188C109.63 91.46 109.558 91.788 109.558 92.172V96H108.658V92.172C108.658 91.78 108.586 91.448 108.442 91.176C108.306 90.904 108.118 90.696 107.878 90.552C107.638 90.4 107.362 90.324 107.05 90.324C106.738 90.324 106.458 90.4 106.21 90.552C105.97 90.696 105.778 90.908 105.634 91.188C105.49 91.46 105.418 91.788 105.418 92.172V96H104.518ZM118.344 96.144C117.744 96.144 117.2 96 116.712 95.712C116.232 95.416 115.852 95.012 115.572 94.5C115.292 93.988 115.152 93.408 115.152 92.76C115.152 92.112 115.288 91.54 115.56 91.044C115.832 90.54 116.2 90.144 116.664 89.856C117.136 89.568 117.664 89.424 118.248 89.424C118.712 89.424 119.124 89.512 119.484 89.688C119.852 89.856 120.164 90.088 120.42 90.384C120.676 90.672 120.872 91 121.008 91.368C121.144 91.728 121.212 92.1 121.212 92.484C121.212 92.564 121.208 92.656 121.2 92.76C121.192 92.856 121.18 92.956 121.164 93.06H115.728V92.22H120.648L120.216 92.58C120.288 92.14 120.236 91.748 120.06 91.404C119.892 91.052 119.648 90.776 119.328 90.576C119.008 90.368 118.648 90.264 118.248 90.264C117.848 90.264 117.476 90.368 117.132 90.576C116.796 90.784 116.532 91.076 116.34 91.452C116.148 91.82 116.072 92.26 116.112 92.772C116.072 93.284 116.152 93.732 116.352 94.116C116.56 94.492 116.84 94.784 117.192 94.992C117.552 95.2 117.936 95.304 118.344 95.304C118.816 95.304 119.212 95.192 119.532 94.968C119.852 94.744 120.112 94.464 120.312 94.128L121.08 94.536C120.952 94.824 120.756 95.092 120.492 95.34C120.228 95.58 119.912 95.776 119.544 95.928C119.184 96.072 118.784 96.144 118.344 96.144ZM122.799 96V89.568H123.699V90.792L123.555 90.612C123.731 90.236 123.991 89.944 124.335 89.736C124.687 89.528 125.071 89.424 125.487 89.424C125.983 89.424 126.431 89.564 126.831 89.844C127.231 90.124 127.515 90.488 127.683 90.936L127.431 90.948C127.591 90.452 127.867 90.076 128.259 89.82C128.659 89.556 129.099 89.424 129.579 89.424C130.011 89.424 130.407 89.528 130.767 89.736C131.135 89.944 131.427 90.232 131.643 90.6C131.867 90.96 131.979 91.368 131.979 91.824V96H131.079V92.172C131.079 91.78 131.007 91.448 130.863 91.176C130.727 90.904 130.539 90.696 130.299 90.552C130.059 90.4 129.783 90.324 129.471 90.324C129.167 90.324 128.891 90.4 128.643 90.552C128.395 90.696 128.199 90.908 128.055 91.188C127.911 91.46 127.839 91.788 127.839 92.172V96H126.939V92.172C126.939 91.78 126.867 91.448 126.723 91.176C126.587 90.904 126.399 90.696 126.159 90.552C125.919 90.4 125.643 90.324 125.331 90.324C125.019 90.324 124.739 90.4 124.491 90.552C124.251 90.696 124.059 90.908 123.915 91.188C123.771 91.46 123.699 91.788 123.699 92.172V96H122.799ZM136.949 96.144C136.397 96.144 135.897 96.02 135.449 95.772C135.009 95.516 134.677 95.156 134.453 94.692L134.597 94.56V96H133.697V86.916H134.597V91.008L134.453 90.756C134.709 90.348 135.049 90.024 135.473 89.784C135.905 89.544 136.397 89.424 136.949 89.424C137.557 89.424 138.097 89.572 138.569 89.868C139.049 90.156 139.425 90.552 139.697 91.056C139.977 91.56 140.117 92.136 140.117 92.784C140.117 93.424 139.977 94 139.697 94.512C139.425 95.016 139.049 95.416 138.569 95.712C138.097 96 137.557 96.144 136.949 96.144ZM136.901 95.244C137.333 95.244 137.717 95.136 138.053 94.92C138.397 94.704 138.665 94.412 138.857 94.044C139.057 93.668 139.157 93.248 139.157 92.784C139.157 92.312 139.057 91.892 138.857 91.524C138.665 91.156 138.397 90.864 138.053 90.648C137.717 90.432 137.333 90.324 136.901 90.324C136.469 90.324 136.077 90.432 135.725 90.648C135.381 90.864 135.105 91.16 134.897 91.536C134.697 91.904 134.597 92.32 134.597 92.784C134.597 93.248 134.697 93.668 134.897 94.044C135.105 94.412 135.381 94.704 135.725 94.92C136.077 95.136 136.469 95.244 136.901 95.244ZM144.629 96.144C144.029 96.144 143.485 96 142.997 95.712C142.517 95.416 142.137 95.012 141.857 94.5C141.577 93.988 141.437 93.408 141.437 92.76C141.437 92.112 141.573 91.54 141.845 91.044C142.117 90.54 142.485 90.144 142.949 89.856C143.421 89.568 143.949 89.424 144.533 89.424C144.997 89.424 145.409 89.512 145.769 89.688C146.137 89.856 146.449 90.088 146.705 90.384C146.961 90.672 147.157 91 147.293 91.368C147.429 91.728 147.497 92.1 147.497 92.484C147.497 92.564 147.493 92.656 147.485 92.76C147.477 92.856 147.465 92.956 147.449 93.06H142.013V92.22H146.933L146.501 92.58C146.573 92.14 146.521 91.748 146.345 91.404C146.177 91.052 145.933 90.776 145.613 90.576C145.293 90.368 144.933 90.264 144.533 90.264C144.133 90.264 143.761 90.368 143.417 90.576C143.081 90.784 142.817 91.076 142.625 91.452C142.433 91.82 142.357 92.26 142.397 92.772C142.357 93.284 142.437 93.732 142.637 94.116C142.845 94.492 143.125 94.784 143.477 94.992C143.837 95.2 144.221 95.304 144.629 95.304C145.101 95.304 145.497 95.192 145.817 94.968C146.137 94.744 146.397 94.464 146.597 94.128L147.365 94.536C147.237 94.824 147.041 95.092 146.777 95.34C146.513 95.58 146.197 95.776 145.829 95.928C145.469 96.072 145.069 96.144 144.629 96.144ZM149.084 96V89.568H149.984V90.624L149.864 90.468C150.016 90.164 150.244 89.924 150.548 89.748C150.86 89.572 151.236 89.484 151.676 89.484H152.084V90.384H151.52C151.056 90.384 150.684 90.528 150.404 90.816C150.124 91.104 149.984 91.512 149.984 92.04V96H149.084Z" fill="white"/>
<g filter="url(#filter0_d_1379_3112)">
<rect x="12" y="105" width="63" height="21" rx="4" fill="white" shape-rendering="crispEdges"/>
<path d="M17.72 119V111.55H20.86C21.3533 111.55 21.7733 111.637 22.12 111.81C22.4733 111.977 22.7433 112.217 22.93 112.53C23.1233 112.837 23.22 113.21 23.22 113.65C23.22 113.99 23.1267 114.31 22.94 114.61C22.76 114.903 22.47 115.147 22.07 115.34V114.71C22.4367 114.85 22.7267 115.023 22.94 115.23C23.1533 115.437 23.3033 115.667 23.39 115.92C23.4767 116.173 23.52 116.44 23.52 116.72C23.52 117.433 23.2833 117.993 22.81 118.4C22.3433 118.8 21.6933 119 20.86 119H17.72ZM19.08 117.8H21C21.3533 117.8 21.6333 117.703 21.84 117.51C22.0533 117.31 22.16 117.047 22.16 116.72C22.16 116.393 22.0533 116.13 21.84 115.93C21.6333 115.73 21.3533 115.63 21 115.63H19.08V117.8ZM19.08 114.44H20.93C21.21 114.44 21.4333 114.36 21.6 114.2C21.7667 114.033 21.85 113.82 21.85 113.56C21.85 113.3 21.7667 113.093 21.6 112.94C21.4333 112.787 21.21 112.71 20.93 112.71H19.08V114.44ZM28.1041 119.12C27.5307 119.12 27.0207 119 26.5741 118.76C26.1341 118.52 25.7874 118.19 25.5341 117.77C25.2807 117.35 25.1541 116.873 25.1541 116.34V111.55H26.5141V116.27C26.5141 116.577 26.5807 116.853 26.7141 117.1C26.8541 117.347 27.0441 117.54 27.2841 117.68C27.5241 117.813 27.7974 117.88 28.1041 117.88C28.4174 117.88 28.6907 117.813 28.9241 117.68C29.1641 117.54 29.3507 117.347 29.4841 117.1C29.6241 116.853 29.6941 116.577 29.6941 116.27V111.55H31.0541V116.34C31.0541 116.873 30.9274 117.35 30.6741 117.77C30.4207 118.19 30.0707 118.52 29.6241 118.76C29.1841 119 28.6774 119.12 28.1041 119.12ZM34.9118 119V115.7L32.4018 111.55H33.9518L35.8718 114.79H35.3218L37.2318 111.55H38.7818L36.2818 115.69V119H34.9118ZM42.5907 119V111.55H43.6507L47.7507 117.07L47.2007 117.18V111.55H48.5607V119H47.4907L43.4507 113.44L43.9507 113.33V119H42.5907ZM54.2728 119.12C53.7261 119.12 53.2161 119.023 52.7428 118.83C52.2695 118.637 51.8561 118.367 51.5028 118.02C51.1495 117.673 50.8728 117.267 50.6728 116.8C50.4795 116.327 50.3828 115.817 50.3828 115.27C50.3828 114.717 50.4795 114.207 50.6728 113.74C50.8661 113.273 51.1395 112.867 51.4928 112.52C51.8461 112.173 52.2595 111.907 52.7328 111.72C53.2061 111.527 53.7195 111.43 54.2728 111.43C54.8261 111.43 55.3395 111.527 55.8128 111.72C56.2861 111.913 56.6995 112.183 57.0528 112.53C57.4061 112.87 57.6795 113.273 57.8728 113.74C58.0728 114.207 58.1728 114.717 58.1728 115.27C58.1728 115.817 58.0728 116.327 57.8728 116.8C57.6728 117.267 57.3961 117.673 57.0428 118.02C56.6895 118.367 56.2761 118.637 55.8028 118.83C55.3361 119.023 54.8261 119.12 54.2728 119.12ZM54.2728 117.88C54.6395 117.88 54.9761 117.817 55.2828 117.69C55.5895 117.557 55.8561 117.373 56.0828 117.14C56.3161 116.907 56.4928 116.63 56.6128 116.31C56.7395 115.99 56.8028 115.643 56.8028 115.27C56.8028 114.897 56.7395 114.553 56.6128 114.24C56.4928 113.92 56.3161 113.643 56.0828 113.41C55.8561 113.17 55.5895 112.987 55.2828 112.86C54.9761 112.733 54.6395 112.67 54.2728 112.67C53.9128 112.67 53.5795 112.733 53.2728 112.86C52.9661 112.987 52.6961 113.17 52.4628 113.41C52.2361 113.643 52.0595 113.92 51.9328 114.24C51.8061 114.553 51.7428 114.897 51.7428 115.27C51.7428 115.643 51.8061 115.99 51.9328 116.31C52.0595 116.63 52.2361 116.907 52.4628 117.14C52.6961 117.373 52.9661 117.557 53.2728 117.69C53.5795 117.817 53.9128 117.88 54.2728 117.88ZM61.1768 119L59.1768 111.55H60.6368L62.2068 117.9H61.8268L63.4668 111.55H64.8768L66.5068 117.9H66.1268L67.6968 111.55H69.1568L67.1568 119H65.5968L63.9468 112.82H64.3868L62.7368 119H61.1768Z" fill="#1C1949"/>
</g>
<g clip-path="url(#clip0_1379_3112)">
<path d="M264.273 51.9166C265.016 51.7174 265.65 51.2311 266.035 50.5646C266.42 49.8981 266.524 49.1061 266.325 48.3627L263.321 37.1513C262.922 35.6646 261.95 34.397 260.617 33.6274C259.284 32.8578 257.7 32.6493 256.213 33.0477L188.945 51.0722C187.458 51.4705 186.19 52.4432 185.421 53.7762C184.651 55.1091 184.443 56.6932 184.841 58.1799L187.845 69.3913C188.044 70.1347 188.531 70.7685 189.197 71.1533C189.863 71.5381 190.656 71.6423 191.399 71.4431C193.629 70.8456 196.005 71.1584 198.005 72.3128C200.004 73.4672 201.463 75.3685 202.06 77.5986C202.658 79.8287 202.345 82.2048 201.191 84.2043C200.036 86.2037 198.135 87.6627 195.905 88.2602C195.162 88.4594 194.528 88.9457 194.143 89.6122C193.758 90.2787 193.654 91.0707 193.853 91.8141L196.857 103.026C197.256 104.512 198.228 105.78 199.561 106.549C200.894 107.319 202.478 107.528 203.965 107.129L271.233 89.1047C272.72 88.7063 273.988 87.7336 274.757 86.4007C275.527 85.0677 275.735 83.4836 275.337 81.9969L272.333 70.7855C272.134 70.0422 271.647 69.4084 270.981 69.0236C270.314 68.6388 269.522 68.5345 268.779 68.7337C266.549 69.3312 264.173 69.0184 262.173 67.864C260.174 66.7097 258.715 64.8083 258.117 62.5782C257.52 60.3481 257.833 57.972 258.987 55.9726C260.141 53.9731 262.043 52.5141 264.273 51.9166ZM200.135 92.8346C203.13 91.3425 205.518 88.8605 206.893 85.8094C208.268 82.7582 208.546 79.3255 207.68 76.0928C206.814 72.8601 204.857 70.0263 202.14 68.0715C199.424 66.1167 196.115 65.1611 192.775 65.3667L190.447 56.6779L210.067 51.4207L222.083 96.2663L202.463 101.523L200.135 92.8346Z" fill="#FFD700"/>
<path d="M234.325 50.3426C234.309 50.2831 234.346 50.2215 234.408 50.2048L236.119 49.7465C236.17 49.7328 236.223 49.754 236.249 49.798L243.628 62.4964C243.661 62.5538 243.635 62.6273 243.574 62.6591C243.083 62.9132 242.395 63.5431 242.858 64.4424C243.328 65.3537 244.328 65.1587 244.856 64.9118C244.913 64.8851 244.982 64.9023 245.013 64.9543L254.624 80.8765C254.662 80.9397 254.627 81.022 254.552 81.0419L253.356 81.3623C253.319 81.3725 253.278 81.3637 253.25 81.3391L239.429 69.5444C239.413 69.53 239.401 69.5111 239.395 69.4901L237.615 62.847C237.615 62.847 237.785 62.8015 237.877 62.7769C237.938 62.7604 237.976 62.6992 237.96 62.6399L237.316 60.1577C237.316 60.1577 239.303 59.6253 239.562 59.5557C239.624 59.5391 239.662 59.4774 239.646 59.4179L239.401 58.5027C239.385 58.4433 239.322 58.4086 239.259 58.4252L237.013 59.0272C237.013 59.0272 236.436 56.876 236.364 56.6047C236.348 56.5452 236.285 56.5105 236.223 56.5271C236.136 56.5504 235.998 56.5873 235.998 56.5873L234.325 50.3426Z" fill="white" fill-opacity="0.4"/>
<path d="M233.763 50.4931C233.747 50.4336 233.684 50.3989 233.622 50.4155L231.911 50.8738C231.86 50.8876 231.824 50.9327 231.824 50.9836L231.783 65.6701C231.783 65.7365 231.842 65.7871 231.911 65.7839C232.464 65.7586 233.374 65.9602 233.422 66.9707C233.471 67.9948 232.508 68.3258 231.927 68.376C231.864 68.3815 231.813 68.4309 231.812 68.4915L231.45 87.0859C231.449 87.1598 231.521 87.2132 231.595 87.1933L232.791 86.8728C232.829 86.8627 232.859 86.8351 232.872 86.7993L238.943 69.6747C238.95 69.6539 238.951 69.6315 238.946 69.6105L237.166 62.9674C237.166 62.9674 236.996 63.0129 236.904 63.0375C236.842 63.0541 236.779 63.0198 236.763 62.9608L236.08 60.4888C236.08 60.4888 234.093 61.0211 233.833 61.0907C233.771 61.1074 233.708 61.0726 233.692 61.0132L233.447 60.098C233.431 60.0385 233.468 59.9769 233.531 59.9602L235.777 59.3583C235.561 58.5507 235.344 57.7432 235.128 56.9357C235.112 56.8763 235.15 56.8146 235.212 56.798C235.298 56.7747 235.436 56.7378 235.436 56.7378L233.763 50.4931Z" fill="white" fill-opacity="0.4"/>
</g>
<path d="M225.5 24.5C225.502 24.8058 225.409 25.1047 225.234 25.3555C225.059 25.6063 224.811 25.7968 224.523 25.9006L219.687 27.6875L217.906 32.5269C217.801 32.8134 217.61 33.0608 217.359 33.2355C217.109 33.4101 216.811 33.5038 216.506 33.5038C216.2 33.5038 215.902 33.4101 215.652 33.2355C215.401 33.0608 215.21 32.8134 215.105 32.5269L213.312 27.6875L208.473 25.9062C208.186 25.8008 207.939 25.6099 207.764 25.3595C207.59 25.109 207.496 24.811 207.496 24.5056C207.496 24.2003 207.59 23.9022 207.764 23.6518C207.939 23.4013 208.186 23.2105 208.473 23.105L213.312 21.3125L215.094 16.4731C215.199 16.1866 215.39 15.9392 215.64 15.7645C215.891 15.5899 216.189 15.4962 216.494 15.4962C216.8 15.4962 217.098 15.5899 217.348 15.7645C217.599 15.9392 217.789 16.1866 217.895 16.4731L219.687 21.3125L224.527 23.0938C224.815 23.1986 225.063 23.3901 225.237 23.642C225.411 23.8939 225.503 24.1937 225.5 24.5ZM220.25 15.5H221.75V17C221.75 17.1989 221.829 17.3897 221.97 17.5303C222.11 17.671 222.301 17.75 222.5 17.75C222.699 17.75 222.89 17.671 223.03 17.5303C223.171 17.3897 223.25 17.1989 223.25 17V15.5H224.75C224.949 15.5 225.14 15.421 225.28 15.2803C225.421 15.1397 225.5 14.9489 225.5 14.75C225.5 14.5511 225.421 14.3603 225.28 14.2197C225.14 14.079 224.949 14 224.75 14H223.25V12.5C223.25 12.3011 223.171 12.1103 223.03 11.9697C222.89 11.829 222.699 11.75 222.5 11.75C222.301 11.75 222.11 11.829 221.97 11.9697C221.829 12.1103 221.75 12.3011 221.75 12.5V14H220.25C220.051 14 219.86 14.079 219.72 14.2197C219.579 14.3603 219.5 14.5511 219.5 14.75C219.5 14.9489 219.579 15.1397 219.72 15.2803C219.86 15.421 220.051 15.5 220.25 15.5ZM228.5 18.5H227.75V17.75C227.75 17.5511 227.671 17.3603 227.53 17.2197C227.39 17.079 227.199 17 227 17C226.801 17 226.61 17.079 226.47 17.2197C226.329 17.3603 226.25 17.5511 226.25 17.75V18.5H225.5C225.301 18.5 225.11 18.579 224.97 18.7197C224.829 18.8603 224.75 19.0511 224.75 19.25C224.75 19.4489 224.829 19.6397 224.97 19.7803C225.11 19.921 225.301 20 225.5 20H226.25V20.75C226.25 20.9489 226.329 21.1397 226.47 21.2803C226.61 21.421 226.801 21.5 227 21.5C227.199 21.5 227.39 21.421 227.53 21.2803C227.671 21.1397 227.75 20.9489 227.75 20.75V20H228.5C228.699 20 228.89 19.921 229.03 19.7803C229.171 19.6397 229.25 19.4489 229.25 19.25C229.25 19.0511 229.171 18.8603 229.03 18.7197C228.89 18.579 228.699 18.5 228.5 18.5Z" fill="#FFD700"/>
<g clip-path="url(#clip1_1379_3112)">
<path d="M272.75 105.75C272.751 105.903 272.704 106.052 272.617 106.178C272.53 106.303 272.405 106.398 272.262 106.45L269.844 107.344L268.953 109.763C268.9 109.907 268.805 110.03 268.68 110.118C268.554 110.205 268.405 110.252 268.253 110.252C268.1 110.252 267.951 110.205 267.826 110.118C267.701 110.03 267.605 109.907 267.552 109.763L266.656 107.344L264.237 106.453C264.093 106.4 263.97 106.305 263.882 106.18C263.795 106.055 263.748 105.905 263.748 105.753C263.748 105.6 263.795 105.451 263.882 105.326C263.97 105.201 264.093 105.105 264.237 105.052L266.656 104.156L267.547 101.737C267.6 101.593 267.695 101.47 267.82 101.382C267.945 101.295 268.094 101.248 268.247 101.248C268.4 101.248 268.549 101.295 268.674 101.382C268.799 101.47 268.895 101.593 268.947 101.737L269.844 104.156L272.263 105.047C272.407 105.099 272.531 105.195 272.619 105.321C272.706 105.447 272.752 105.597 272.75 105.75ZM270.125 101.25H270.875V102C270.875 102.099 270.914 102.195 270.985 102.265C271.055 102.335 271.15 102.375 271.25 102.375C271.349 102.375 271.445 102.335 271.515 102.265C271.585 102.195 271.625 102.099 271.625 102V101.25H272.375C272.474 101.25 272.57 101.21 272.64 101.14C272.71 101.07 272.75 100.974 272.75 100.875C272.75 100.776 272.71 100.68 272.64 100.61C272.57 100.54 272.474 100.5 272.375 100.5H271.625V99.75C271.625 99.6505 271.585 99.5552 271.515 99.4848C271.445 99.4145 271.349 99.375 271.25 99.375C271.15 99.375 271.055 99.4145 270.985 99.4848C270.914 99.5552 270.875 99.6505 270.875 99.75V100.5H270.125C270.025 100.5 269.93 100.54 269.86 100.61C269.789 100.68 269.75 100.776 269.75 100.875C269.75 100.974 269.789 101.07 269.86 101.14C269.93 101.21 270.025 101.25 270.125 101.25ZM274.25 102.75H273.875V102.375C273.875 102.276 273.835 102.18 273.765 102.11C273.695 102.04 273.599 102 273.5 102C273.4 102 273.305 102.04 273.235 102.11C273.164 102.18 273.125 102.276 273.125 102.375V102.75H272.75C272.65 102.75 272.555 102.79 272.485 102.86C272.414 102.93 272.375 103.026 272.375 103.125C272.375 103.224 272.414 103.32 272.485 103.39C272.555 103.46 272.65 103.5 272.75 103.5H273.125V103.875C273.125 103.974 273.164 104.07 273.235 104.14C273.305 104.21 273.4 104.25 273.5 104.25C273.599 104.25 273.695 104.21 273.765 104.14C273.835 104.07 273.875 103.974 273.875 103.875V103.5H274.25C274.349 103.5 274.445 103.46 274.515 103.39C274.585 103.32 274.625 103.224 274.625 103.125C274.625 103.026 274.585 102.93 274.515 102.86C274.445 102.79 274.349 102.75 274.25 102.75Z" fill="#FFD700"/>
</g>
<defs>
<filter id="filter0_d_1379_3112" x="8" y="105" width="71" height="29" filterUnits="userSpaceOnUse" color-interpolation-filters="sRGB">
<feFlood flood-opacity="0" result="BackgroundImageFix"/>
<feColorMatrix in="SourceAlpha" type="matrix" values="0 0 0 0 0 0 0 0 0 0 0 0 0 0 0 0 0 0 127 0" result="hardAlpha"/>
<feOffset dy="4"/>
<feGaussianBlur stdDeviation="2"/>
<feComposite in2="hardAlpha" operator="out"/>
<feColorMatrix type="matrix" values="0 0 0 0 0 0 0 0 0 0 0 0 0 0 0 0 0 0 0.25 0"/>
<feBlend mode="normal" in2="BackgroundImageFix" result="effect1_dropShadow_1379_3112"/>
<feBlend mode="normal" in="SourceGraphic" in2="effect1_dropShadow_1379_3112" result="shape"/>
</filter>
<linearGradient id="paint0_linear_1379_3112" x1="312" y1="0" x2="141" y2="118" gradientUnits="userSpaceOnUse">
<stop stop-color="#01BA76"/>
<stop offset="1" stop-color="#0C7834"/>
</linearGradient>
<clipPath id="clip0_1379_3112">
<rect width="92.8551" height="92.8551" fill="white" transform="translate(173.227 37.2598) rotate(-15)"/>
</clipPath>
<clipPath id="clip1_1379_3112">
<rect width="12" height="12" fill="white" transform="translate(263 99)"/>
</clipPath>
</defs>
</svg>
