<svg width="139" height="111" viewBox="0 0 139 111" fill="none" xmlns="http://www.w3.org/2000/svg">
<path d="M34 1C61.4414 58.2787 83.8899 73.632 138 66.2943" stroke="black" stroke-width="0.5"/>
<path d="M44.5 21C46.3235 18.2335 48.7228 17.5278 50.8806 17.5395C51.5533 17.8812 47.1733 22.0535 47.1733 22.0535C47.1733 22.0535 25.2587 21.3773 16.5095 19.5507C7.76035 17.724 13.7625 40.4359 17.5731 38.415C21.3838 36.3941 42.9296 32.9819 41.2669 34.5248C43.077 36.5172 25.9044 42.9708 20.5023 47.3281C15.1001 51.6853 30.8188 59.246 32.3266 61.2499C33.8344 63.2539 60.0078 43.5039 58.5 41.5C56.9922 39.4961 57 39 57 39C61.2094 36.4322 62.0301 35.1439 60.5 34.5248C57.6326 34.6878 56.8295 34.6969 55 37" stroke="black" stroke-width="0.5"/>
<path d="M69.5013 74.0921C69.8845 73.8596 67.9016 80.6333 64.3292 78.8867C64.3292 78.8867 61.2633 77.1637 60.259 76.4902C59.2548 75.8166 61.0823 75.7566 61.3329 75.9963C61.5835 76.236 64.7771 79.3373 64.043 81.3676C63.3088 83.3979 62.5248 85.9454 65.6232 88.6578C68.7216 91.3702 62.5843 91.6628 62.2001 91.1468C61.8159 90.6308 58.8331 84.1343 59.3774 81.9772C59.9216 79.82 63.0638 79.501 62.144 80.6031C61.5992 81.2559 53.5881 88.7037 53.1134 94.055C52.6388 99.4063 49.9047 100.532 50.327 100.673C48.4172 100.408 45.4597 96.3054 45.788 95.7479C46.1162 95.1904 52.2393 88.2857 50.5851 86.9356C50.1192 85.8429 45.2376 95.113 42.1351 93.9725C39.0327 92.8321 37.0222 91.1224 38.051 88.9401C47.8263 85.3575 49.7339 79.7977 51.5418 79.9913C51.9931 80.553 51.0119 81.5562 50.5571 81.6638C50.1022 81.7713 47.3614 81.4806 46.7401 80.1671C45.9592 78.516 48.3282 77.3355 48.5 78C48.6718 78.6645 56.2781 76.0231 56.2781 76.0231C56.2781 76.0231 58.8657 75.0332 59.0071 74.6269C59.0071 74.6269 58.2242 71.4801 59.2322 70.2549C60.4608 68.7615 61.4405 67.1441 64.1465 67.893C64.0125 66.6802 64.1051 65.7914 64.6624 63.6922C65.5308 61.3536 66.183 60.1848 67.49 58.2249C68.7603 56.3909 69.723 55.8805 71.4056 54.8996C76.0804 48.532 76.5425 48.9291 73.8955 55.9902C75.2608 58.8308 69.5608 63.5828 68.8591 66.5386C68.1575 69.4944 65.1545 70.9874 65.5 69C65.8455 67.0126 67.7003 69.493 69.1075 70.8524C70.5147 72.2118 69.1182 74.3246 69.5013 74.0921ZM69.5013 74.0921C69.5013 74.0921 73.4073 76.7674 73.9888 77.1097C74.5702 77.4521 75.2532 76.923 75 76.0231C74.7468 75.1233 73.1521 74.2636 72.14 76.8908C72.14 76.8908 71.6488 85.0734 73.773 87.4503C75.8971 89.8271 80.6705 88.1304 80 86.6094C79.3295 85.0884 77.0021 74.1983 76.0754 72.6617C75.1487 71.1252 72.5585 71.3247 69.4686 72.1528" stroke="#1C1949" stroke-width="0.5"/>
</svg>
