<svg width="312" height="138" viewBox="0 0 312 138" fill="none" xmlns="http://www.w3.org/2000/svg">
<g clip-path="url(#clip0_1448_8530)">
<rect width="312" height="138" rx="16" fill="url(#paint0_linear_1448_8530)"/>
<path d="M30.74 33.24C29.8067 33.24 28.9267 33.0733 28.1 32.74C27.2867 32.3933 26.58 31.9067 25.98 31.28C25.3933 30.6533 24.9533 29.9133 24.66 29.06L27.2 27.92C27.5733 28.7333 28.0867 29.3733 28.74 29.84C29.4067 30.3067 30.14 30.54 30.94 30.54C31.3667 30.54 31.7333 30.4733 32.04 30.34C32.3467 30.2067 32.5867 30.0267 32.76 29.8C32.9333 29.56 33.02 29.28 33.02 28.96C33.02 28.6133 32.9133 28.32 32.7 28.08C32.4867 27.8267 32.1533 27.6267 31.7 27.48L28.78 26.52C27.5933 26.1333 26.7 25.5867 26.1 24.88C25.5 24.16 25.2 23.3 25.2 22.3C25.2 21.42 25.4133 20.6467 25.84 19.98C26.28 19.3133 26.8867 18.7933 27.66 18.42C28.4467 18.0467 29.3467 17.86 30.36 17.86C31.2533 17.86 32.08 18.0133 32.84 18.32C33.6 18.6267 34.2533 19.06 34.8 19.62C35.36 20.18 35.78 20.8533 36.06 21.64L33.54 22.78C33.26 22.0867 32.84 21.5467 32.28 21.16C31.72 20.76 31.08 20.56 30.36 20.56C29.9467 20.56 29.58 20.6267 29.26 20.76C28.94 20.8933 28.6933 21.0867 28.52 21.34C28.3467 21.58 28.26 21.86 28.26 22.18C28.26 22.5267 28.3733 22.8333 28.6 23.1C28.8267 23.3533 29.1667 23.5533 29.62 23.7L32.48 24.62C33.68 25.0067 34.5733 25.5467 35.16 26.24C35.76 26.9333 36.06 27.78 36.06 28.78C36.06 29.6467 35.8333 30.42 35.38 31.1C34.9267 31.7667 34.3 32.2933 33.5 32.68C32.7133 33.0533 31.7933 33.24 30.74 33.24ZM43.4092 33.24C42.3159 33.24 41.3292 32.9933 40.4492 32.5C39.5826 31.9933 38.8892 31.3067 38.3692 30.44C37.8626 29.5733 37.6092 28.6 37.6092 27.52C37.6092 26.44 37.8626 25.4733 38.3692 24.62C38.8759 23.7533 39.5692 23.0733 40.4492 22.58C41.3292 22.0867 42.3159 21.84 43.4092 21.84C44.2226 21.84 44.9759 21.98 45.6692 22.26C46.3626 22.54 46.9559 22.9333 47.4492 23.44C47.9426 23.9333 48.2959 24.52 48.5092 25.2L45.9092 26.32C45.7226 25.7733 45.4026 25.34 44.9492 25.02C44.5092 24.7 43.9959 24.54 43.4092 24.54C42.8892 24.54 42.4226 24.6667 42.0092 24.92C41.6092 25.1733 41.2892 25.5267 41.0492 25.98C40.8226 26.4333 40.7092 26.9533 40.7092 27.54C40.7092 28.1267 40.8226 28.6467 41.0492 29.1C41.2892 29.5533 41.6092 29.9067 42.0092 30.16C42.4226 30.4133 42.8892 30.54 43.4092 30.54C44.0092 30.54 44.5292 30.38 44.9692 30.06C45.4092 29.74 45.7226 29.3067 45.9092 28.76L48.5092 29.9C48.3092 30.54 47.9626 31.1133 47.4692 31.62C46.9759 32.1267 46.3826 32.5267 45.6892 32.82C44.9959 33.1 44.2359 33.24 43.4092 33.24ZM50.2758 33V17.86H53.2758V24.24L52.9158 23.76C53.1691 23.1067 53.5758 22.6267 54.1358 22.32C54.7091 22 55.3758 21.84 56.1358 21.84C56.9624 21.84 57.6824 22.0133 58.2958 22.36C58.9224 22.7067 59.4091 23.1933 59.7558 23.82C60.1024 24.4333 60.2758 25.1533 60.2758 25.98V33H57.2758V26.62C57.2758 26.1933 57.1891 25.8267 57.0158 25.52C56.8558 25.2133 56.6224 24.9733 56.3158 24.8C56.0224 24.6267 55.6758 24.54 55.2758 24.54C54.8891 24.54 54.5424 24.6267 54.2358 24.8C53.9291 24.9733 53.6891 25.2133 53.5158 25.52C53.3558 25.8267 53.2758 26.1933 53.2758 26.62V33H50.2758ZM67.5084 33.24C66.3484 33.24 65.3418 32.9867 64.4884 32.48C63.6351 31.96 62.9751 31.2667 62.5084 30.4C62.0418 29.5333 61.8084 28.5733 61.8084 27.52C61.8084 26.4267 62.0484 25.4533 62.5284 24.6C63.0218 23.7467 63.6818 23.0733 64.5084 22.58C65.3351 22.0867 66.2684 21.84 67.3084 21.84C68.1751 21.84 68.9418 21.98 69.6084 22.26C70.2751 22.5267 70.8351 22.9067 71.2884 23.4C71.7551 23.8933 72.1084 24.4667 72.3484 25.12C72.5884 25.76 72.7084 26.46 72.7084 27.22C72.7084 27.4333 72.6951 27.6467 72.6684 27.86C72.6551 28.06 72.6218 28.2333 72.5684 28.38H64.3884V26.18H70.8684L69.4484 27.22C69.5818 26.6467 69.5751 26.14 69.4284 25.7C69.2818 25.2467 69.0218 24.8933 68.6484 24.64C68.2884 24.3733 67.8418 24.24 67.3084 24.24C66.7884 24.24 66.3418 24.3667 65.9684 24.62C65.5951 24.8733 65.3151 25.2467 65.1284 25.74C64.9418 26.2333 64.8684 26.8333 64.9084 27.54C64.8551 28.1533 64.9284 28.6933 65.1284 29.16C65.3284 29.6267 65.6351 29.9933 66.0484 30.26C66.4618 30.5133 66.9618 30.64 67.5484 30.64C68.0818 30.64 68.5351 30.5333 68.9084 30.32C69.2951 30.1067 69.5951 29.8133 69.8084 29.44L72.2084 30.58C71.9951 31.1133 71.6551 31.58 71.1884 31.98C70.7351 32.38 70.1951 32.6933 69.5684 32.92C68.9418 33.1333 68.2551 33.24 67.5084 33.24ZM79.615 33.24C78.5483 33.24 77.595 32.9867 76.755 32.48C75.915 31.9733 75.2483 31.2867 74.755 30.42C74.275 29.5533 74.035 28.5933 74.035 27.54C74.035 26.4733 74.2817 25.5133 74.775 24.66C75.2683 23.7933 75.935 23.1067 76.775 22.6C77.615 22.0933 78.555 21.84 79.595 21.84C80.395 21.84 81.1017 21.9933 81.715 22.3C82.3417 22.5933 82.835 23.0133 83.195 23.56L82.735 24.16V17.86H85.735V33H82.935V31L83.215 31.62C82.8417 32.1533 82.335 32.56 81.695 32.84C81.055 33.1067 80.3617 33.24 79.615 33.24ZM79.975 30.54C80.5217 30.54 81.0017 30.4133 81.415 30.16C81.8283 29.9067 82.1483 29.5533 82.375 29.1C82.615 28.6467 82.735 28.1267 82.735 27.54C82.735 26.9533 82.615 26.4333 82.375 25.98C82.1483 25.5267 81.8283 25.1733 81.415 24.92C81.0017 24.6667 80.5217 24.54 79.975 24.54C79.4283 24.54 78.935 24.6733 78.495 24.94C78.0683 25.1933 77.735 25.5467 77.495 26C77.255 26.44 77.135 26.9533 77.135 27.54C77.135 28.1267 77.255 28.6467 77.495 29.1C77.735 29.5533 78.0683 29.9067 78.495 30.16C78.935 30.4133 79.4283 30.54 79.975 30.54ZM91.852 33.24C90.972 33.24 90.2187 33.0533 89.592 32.68C88.9787 32.2933 88.512 31.76 88.192 31.08C87.872 30.4 87.712 29.6067 87.712 28.7V22.08H90.712V28.46C90.712 28.8733 90.792 29.24 90.952 29.56C91.1254 29.8667 91.3654 30.1067 91.672 30.28C91.9787 30.4533 92.3254 30.54 92.712 30.54C93.112 30.54 93.4587 30.4533 93.752 30.28C94.0587 30.1067 94.292 29.8667 94.452 29.56C94.6254 29.24 94.712 28.8733 94.712 28.46V22.08H97.712V33H94.912V30.84L95.072 31.32C94.8187 31.9733 94.4054 32.46 93.832 32.78C93.272 33.0867 92.612 33.24 91.852 33.24ZM99.9047 33V17.86H102.905V33H99.9047ZM110.36 33.24C109.2 33.24 108.193 32.9867 107.34 32.48C106.487 31.96 105.827 31.2667 105.36 30.4C104.893 29.5333 104.66 28.5733 104.66 27.52C104.66 26.4267 104.9 25.4533 105.38 24.6C105.873 23.7467 106.533 23.0733 107.36 22.58C108.187 22.0867 109.12 21.84 110.16 21.84C111.027 21.84 111.793 21.98 112.46 22.26C113.127 22.5267 113.687 22.9067 114.14 23.4C114.607 23.8933 114.96 24.4667 115.2 25.12C115.44 25.76 115.56 26.46 115.56 27.22C115.56 27.4333 115.547 27.6467 115.52 27.86C115.507 28.06 115.473 28.2333 115.42 28.38H107.24V26.18H113.72L112.3 27.22C112.433 26.6467 112.427 26.14 112.28 25.7C112.133 25.2467 111.873 24.8933 111.5 24.64C111.14 24.3733 110.693 24.24 110.16 24.24C109.64 24.24 109.193 24.3667 108.82 24.62C108.447 24.8733 108.167 25.2467 107.98 25.74C107.793 26.2333 107.72 26.8333 107.76 27.54C107.707 28.1533 107.78 28.6933 107.98 29.16C108.18 29.6267 108.487 29.9933 108.9 30.26C109.313 30.5133 109.813 30.64 110.4 30.64C110.933 30.64 111.387 30.5333 111.76 30.32C112.147 30.1067 112.447 29.8133 112.66 29.44L115.06 30.58C114.847 31.1133 114.507 31.58 114.04 31.98C113.587 32.38 113.047 32.6933 112.42 32.92C111.793 33.1333 111.107 33.24 110.36 33.24ZM25.32 55V40.1H31.04C32.0667 40.1 32.9733 40.28 33.76 40.64C34.56 41 35.1867 41.5333 35.64 42.24C36.0933 42.9467 36.32 43.82 36.32 44.86C36.32 45.8733 36.0867 46.7333 35.62 47.44C35.1667 48.1467 34.54 48.6867 33.74 49.06C32.9533 49.42 32.0533 49.6 31.04 49.6H28.42V55H25.32ZM28.42 46.9H31.06C31.5 46.9 31.88 46.8133 32.2 46.64C32.52 46.4667 32.7667 46.2267 32.94 45.92C33.1267 45.6133 33.22 45.26 33.22 44.86C33.22 44.4467 33.1267 44.0867 32.94 43.78C32.7667 43.4733 32.52 43.2333 32.2 43.06C31.88 42.8867 31.5 42.8 31.06 42.8H28.42V46.9ZM38.0883 55V44.08H41.0883V55H38.0883ZM38.0883 43.1V40.1H41.0883V43.1H38.0883ZM48.6436 55.24C47.5503 55.24 46.5636 54.9933 45.6836 54.5C44.8169 53.9933 44.1236 53.3067 43.6036 52.44C43.0969 51.5733 42.8436 50.6 42.8436 49.52C42.8436 48.44 43.0969 47.4733 43.6036 46.62C44.1103 45.7533 44.8036 45.0733 45.6836 44.58C46.5636 44.0867 47.5503 43.84 48.6436 43.84C49.4569 43.84 50.2103 43.98 50.9036 44.26C51.5969 44.54 52.1903 44.9333 52.6836 45.44C53.1769 45.9333 53.5303 46.52 53.7436 47.2L51.1436 48.32C50.9569 47.7733 50.6369 47.34 50.1836 47.02C49.7436 46.7 49.2303 46.54 48.6436 46.54C48.1236 46.54 47.6569 46.6667 47.2436 46.92C46.8436 47.1733 46.5236 47.5267 46.2836 47.98C46.0569 48.4333 45.9436 48.9533 45.9436 49.54C45.9436 50.1267 46.0569 50.6467 46.2836 51.1C46.5236 51.5533 46.8436 51.9067 47.2436 52.16C47.6569 52.4133 48.1236 52.54 48.6436 52.54C49.2436 52.54 49.7636 52.38 50.2036 52.06C50.6436 51.74 50.9569 51.3067 51.1436 50.76L53.7436 51.9C53.5436 52.54 53.1969 53.1133 52.7036 53.62C52.2103 54.1267 51.6169 54.5267 50.9236 54.82C50.2303 55.1 49.4703 55.24 48.6436 55.24ZM55.5102 55V39.86H58.5102V49.56L57.3902 49.2L62.2102 44.08H65.9102L61.9502 48.48L65.8902 55H62.4902L59.1902 49.46L60.9302 49.02L57.5902 52.66L58.5102 50.92V55H55.5102ZM74.7427 55.24C73.8627 55.24 73.1093 55.0533 72.4827 54.68C71.8693 54.2933 71.4027 53.76 71.0827 53.08C70.7627 52.4 70.6027 51.6067 70.6027 50.7V44.08H73.6027V50.46C73.6027 50.8733 73.6827 51.24 73.8427 51.56C74.016 51.8667 74.256 52.1067 74.5627 52.28C74.8693 52.4533 75.216 52.54 75.6027 52.54C76.0027 52.54 76.3493 52.4533 76.6427 52.28C76.9493 52.1067 77.1827 51.8667 77.3427 51.56C77.516 51.24 77.6027 50.8733 77.6027 50.46V44.08H80.6027V55H77.8027V52.84L77.9627 53.32C77.7093 53.9733 77.296 54.46 76.7227 54.78C76.1627 55.0867 75.5027 55.24 74.7427 55.24ZM82.7953 59V44.08H85.5953V46.16L85.3353 45.56C85.6953 45.0133 86.182 44.5933 86.7953 44.3C87.422 43.9933 88.1353 43.84 88.9353 43.84C89.9753 43.84 90.9153 44.0933 91.7553 44.6C92.5953 45.1067 93.262 45.7933 93.7553 46.66C94.2486 47.5133 94.4953 48.4733 94.4953 49.54C94.4953 50.5933 94.2486 51.5533 93.7553 52.42C93.2753 53.2867 92.6153 53.9733 91.7753 54.48C90.9353 54.9867 89.982 55.24 88.9153 55.24C88.1686 55.24 87.4753 55.1067 86.8353 54.84C86.2086 54.56 85.702 54.1533 85.3153 53.62L85.7953 53V59H82.7953ZM88.5553 52.54C89.1153 52.54 89.6086 52.4133 90.0353 52.16C90.462 51.9067 90.7953 51.5533 91.0353 51.1C91.2753 50.6467 91.3953 50.1267 91.3953 49.54C91.3953 48.9533 91.2753 48.44 91.0353 48C90.7953 47.5467 90.462 47.1933 90.0353 46.94C89.6086 46.6733 89.1153 46.54 88.5553 46.54C88.022 46.54 87.542 46.6667 87.1153 46.92C86.702 47.1733 86.3753 47.5267 86.1353 47.98C85.9086 48.4333 85.7953 48.9533 85.7953 49.54C85.7953 50.1267 85.9086 50.6467 86.1353 51.1C86.3753 51.5533 86.702 51.9067 87.1153 52.16C87.542 52.4133 88.022 52.54 88.5553 52.54Z" fill="white"/>
<path d="M27.45 74.18C26.92 74.18 26.45 74.085 26.04 73.895C25.64 73.695 25.325 73.425 25.095 73.085C24.865 72.735 24.75 72.335 24.75 71.885C24.75 71.455 24.84 71.07 25.02 70.73C25.21 70.38 25.5 70.085 25.89 69.845C26.29 69.605 26.79 69.435 27.39 69.335L30.39 68.84V70.01L27.705 70.46C27.185 70.55 26.805 70.715 26.565 70.955C26.335 71.195 26.22 71.49 26.22 71.84C26.22 72.17 26.35 72.445 26.61 72.665C26.88 72.885 27.215 72.995 27.615 72.995C28.125 72.995 28.565 72.89 28.935 72.68C29.315 72.46 29.61 72.165 29.82 71.795C30.04 71.425 30.15 71.015 30.15 70.565V68.51C30.15 68.07 29.985 67.715 29.655 67.445C29.335 67.165 28.91 67.025 28.38 67.025C27.92 67.025 27.51 67.145 27.15 67.385C26.8 67.615 26.54 67.925 26.37 68.315L25.155 67.685C25.305 67.315 25.545 66.985 25.875 66.695C26.205 66.395 26.59 66.16 27.03 65.99C27.47 65.82 27.93 65.735 28.41 65.735C29.03 65.735 29.575 65.855 30.045 66.095C30.515 66.325 30.88 66.65 31.14 67.07C31.41 67.48 31.545 67.96 31.545 68.51V74H30.18V72.47L30.435 72.56C30.265 72.88 30.035 73.16 29.745 73.4C29.455 73.64 29.115 73.83 28.725 73.97C28.335 74.11 27.91 74.18 27.45 74.18ZM36.8464 74.09C36.0564 74.09 35.4464 73.865 35.0164 73.415C34.5964 72.965 34.3864 72.33 34.3864 71.51V67.25H32.9164V65.915H33.2164C33.5764 65.915 33.8614 65.805 34.0714 65.585C34.2814 65.365 34.3864 65.075 34.3864 64.715V64.055H35.7814V65.915H37.5964V67.25H35.7814V71.465C35.7814 71.735 35.8214 71.97 35.9014 72.17C35.9914 72.37 36.1364 72.53 36.3364 72.65C36.5364 72.76 36.8014 72.815 37.1314 72.815C37.2014 72.815 37.2864 72.81 37.3864 72.8C37.4964 72.79 37.5964 72.78 37.6864 72.77V74C37.5564 74.03 37.4114 74.05 37.2514 74.06C37.0914 74.08 36.9564 74.09 36.8464 74.09ZM42.5365 77.3C42.3565 77.3 42.1765 77.285 41.9965 77.255C41.8165 77.225 41.6465 77.175 41.4865 77.105V75.86C41.5965 75.88 41.7315 75.9 41.8915 75.92C42.0615 75.95 42.2265 75.965 42.3865 75.965C42.8565 75.965 43.2115 75.86 43.4515 75.65C43.7015 75.45 43.9365 75.1 44.1565 74.6L44.6665 73.385L44.6365 74.6L41.1865 65.915H42.7015L45.3865 72.815H44.9365L47.6065 65.915H49.1515L45.5065 74.96C45.3365 75.39 45.1165 75.78 44.8465 76.13C44.5865 76.49 44.2665 76.775 43.8865 76.985C43.5065 77.195 43.0565 77.3 42.5365 77.3ZM54.086 74.18C53.306 74.18 52.601 74 51.971 73.64C51.341 73.27 50.841 72.765 50.471 72.125C50.101 71.485 49.916 70.76 49.916 69.95C49.916 69.14 50.096 68.42 50.456 67.79C50.826 67.16 51.326 66.66 51.956 66.29C52.586 65.92 53.296 65.735 54.086 65.735C54.866 65.735 55.571 65.92 56.201 66.29C56.831 66.65 57.326 67.145 57.686 67.775C58.056 68.405 58.241 69.13 58.241 69.95C58.241 70.77 58.051 71.5 57.671 72.14C57.291 72.77 56.786 73.27 56.156 73.64C55.536 74 54.846 74.18 54.086 74.18ZM54.086 72.83C54.586 72.83 55.036 72.705 55.436 72.455C55.846 72.205 56.166 71.86 56.396 71.42C56.636 70.98 56.756 70.49 56.756 69.95C56.756 69.4 56.636 68.915 56.396 68.495C56.166 68.065 55.846 67.725 55.436 67.475C55.036 67.215 54.586 67.085 54.086 67.085C53.576 67.085 53.116 67.215 52.706 67.475C52.306 67.725 51.986 68.065 51.746 68.495C51.506 68.915 51.386 69.4 51.386 69.95C51.386 70.49 51.506 70.98 51.746 71.42C51.986 71.86 52.306 72.205 52.706 72.455C53.116 72.705 53.576 72.83 54.086 72.83ZM62.9255 74.18C62.3455 74.18 61.8205 74.045 61.3505 73.775C60.8905 73.505 60.5305 73.13 60.2705 72.65C60.0205 72.16 59.8955 71.6 59.8955 70.97V65.915H61.2905V70.82C61.2905 71.22 61.3705 71.57 61.5305 71.87C61.7005 72.17 61.9305 72.405 62.2205 72.575C62.5205 72.745 62.8605 72.83 63.2405 72.83C63.6205 72.83 63.9555 72.745 64.2455 72.575C64.5455 72.405 64.7755 72.16 64.9355 71.84C65.1055 71.52 65.1905 71.14 65.1905 70.7V65.915H66.6005V74H65.2355V72.425L65.4605 72.56C65.2705 73.07 64.9455 73.47 64.4855 73.76C64.0355 74.04 63.5155 74.18 62.9255 74.18ZM68.7616 74V65.915H70.1266V67.4L69.9766 67.19C70.1666 66.73 70.4566 66.39 70.8466 66.17C71.2366 65.94 71.7116 65.825 72.2716 65.825H72.7666V67.145H72.0616C71.4916 67.145 71.0316 67.325 70.6816 67.685C70.3316 68.035 70.1566 68.535 70.1566 69.185V74H68.7616ZM28.83 92.18C28.04 92.18 27.335 91.995 26.715 91.625C26.105 91.255 25.625 90.75 25.275 90.11C24.925 89.47 24.75 88.75 24.75 87.95C24.75 87.14 24.925 86.42 25.275 85.79C25.625 85.16 26.105 84.66 26.715 84.29C27.335 83.92 28.04 83.735 28.83 83.735C29.36 83.735 29.855 83.83 30.315 84.02C30.775 84.21 31.18 84.465 31.53 84.785C31.88 85.105 32.135 85.48 32.295 85.91L31.05 86.51C30.86 86.09 30.57 85.75 30.18 85.49C29.79 85.22 29.34 85.085 28.83 85.085C28.34 85.085 27.895 85.21 27.495 85.46C27.105 85.71 26.795 86.05 26.565 86.48C26.335 86.91 26.22 87.405 26.22 87.965C26.22 88.505 26.335 88.995 26.565 89.435C26.795 89.865 27.105 90.205 27.495 90.455C27.895 90.705 28.34 90.83 28.83 90.83C29.34 90.83 29.79 90.7 30.18 90.44C30.57 90.17 30.86 89.815 31.05 89.375L32.295 90.005C32.135 90.425 31.88 90.8 31.53 91.13C31.18 91.45 30.775 91.705 30.315 91.895C29.855 92.085 29.36 92.18 28.83 92.18ZM37.9581 92.18C37.1781 92.18 36.4731 92 35.8431 91.64C35.2131 91.27 34.7131 90.765 34.3431 90.125C33.9731 89.485 33.7881 88.76 33.7881 87.95C33.7881 87.14 33.9681 86.42 34.3281 85.79C34.6981 85.16 35.1981 84.66 35.8281 84.29C36.4581 83.92 37.1681 83.735 37.9581 83.735C38.7381 83.735 39.4431 83.92 40.0731 84.29C40.7031 84.65 41.1981 85.145 41.5581 85.775C41.9281 86.405 42.1131 87.13 42.1131 87.95C42.1131 88.77 41.9231 89.5 41.5431 90.14C41.1631 90.77 40.6581 91.27 40.0281 91.64C39.4081 92 38.7181 92.18 37.9581 92.18ZM37.9581 90.83C38.4581 90.83 38.9081 90.705 39.3081 90.455C39.7181 90.205 40.0381 89.86 40.2681 89.42C40.5081 88.98 40.6281 88.49 40.6281 87.95C40.6281 87.4 40.5081 86.915 40.2681 86.495C40.0381 86.065 39.7181 85.725 39.3081 85.475C38.9081 85.215 38.4581 85.085 37.9581 85.085C37.4481 85.085 36.9881 85.215 36.5781 85.475C36.1781 85.725 35.8581 86.065 35.6181 86.495C35.3781 86.915 35.2581 87.4 35.2581 87.95C35.2581 88.49 35.3781 88.98 35.6181 89.42C35.8581 89.86 36.1781 90.205 36.5781 90.455C36.9881 90.705 37.4481 90.83 37.9581 90.83ZM43.9325 92V83.915H45.2975V85.49L45.0725 85.355C45.2725 84.845 45.5925 84.45 46.0325 84.17C46.4825 83.88 47.0075 83.735 47.6075 83.735C48.1875 83.735 48.7025 83.865 49.1525 84.125C49.6125 84.385 49.9725 84.745 50.2325 85.205C50.5025 85.665 50.6375 86.185 50.6375 86.765V92H49.2275V87.215C49.2275 86.765 49.1475 86.385 48.9875 86.075C48.8275 85.765 48.5975 85.525 48.2975 85.355C48.0075 85.175 47.6725 85.085 47.2925 85.085C46.9125 85.085 46.5725 85.175 46.2725 85.355C45.9825 85.525 45.7525 85.77 45.5825 86.09C45.4125 86.4 45.3275 86.775 45.3275 87.215V92H43.9325ZM54.7372 92L51.5722 83.915H53.1322L55.6672 90.755H55.1272L57.6772 83.915H59.2372L56.0572 92H54.7372ZM64.0588 92.18C63.2788 92.18 62.5838 91.995 61.9738 91.625C61.3638 91.255 60.8838 90.75 60.5338 90.11C60.1838 89.46 60.0088 88.735 60.0088 87.935C60.0088 87.125 60.1788 86.405 60.5188 85.775C60.8688 85.145 61.3388 84.65 61.9288 84.29C62.5288 83.92 63.1988 83.735 63.9388 83.735C64.5388 83.735 65.0688 83.845 65.5288 84.065C65.9988 84.275 66.3938 84.565 66.7138 84.935C67.0438 85.295 67.2938 85.71 67.4638 86.18C67.6438 86.64 67.7338 87.12 67.7338 87.62C67.7338 87.73 67.7238 87.855 67.7038 87.995C67.6938 88.125 67.6788 88.25 67.6588 88.37H61.0288V87.17H66.8488L66.1888 87.71C66.2788 87.19 66.2288 86.725 66.0388 86.315C65.8488 85.905 65.5688 85.58 65.1988 85.34C64.8288 85.1 64.4088 84.98 63.9388 84.98C63.4688 84.98 63.0388 85.1 62.6488 85.34C62.2588 85.58 61.9538 85.925 61.7338 86.375C61.5238 86.815 61.4388 87.34 61.4788 87.95C61.4388 88.54 61.5288 89.06 61.7488 89.51C61.9788 89.95 62.2988 90.295 62.7088 90.545C63.1288 90.785 63.5838 90.905 64.0738 90.905C64.6138 90.905 65.0688 90.78 65.4388 90.53C65.8088 90.28 66.1088 89.96 66.3388 89.57L67.5088 90.17C67.3488 90.54 67.0988 90.88 66.7588 91.19C66.4288 91.49 66.0338 91.73 65.5738 91.91C65.1238 92.09 64.6188 92.18 64.0588 92.18ZM69.5527 92V83.915H70.9177V85.49L70.6927 85.355C70.8927 84.845 71.2127 84.45 71.6527 84.17C72.1027 83.88 72.6277 83.735 73.2277 83.735C73.8077 83.735 74.3227 83.865 74.7727 84.125C75.2327 84.385 75.5927 84.745 75.8527 85.205C76.1227 85.665 76.2577 86.185 76.2577 86.765V92H74.8477V87.215C74.8477 86.765 74.7677 86.385 74.6077 86.075C74.4477 85.765 74.2177 85.525 73.9177 85.355C73.6277 85.175 73.2927 85.085 72.9127 85.085C72.5327 85.085 72.1927 85.175 71.8927 85.355C71.6027 85.525 71.3727 85.77 71.2027 86.09C71.0327 86.4 70.9477 86.775 70.9477 87.215V92H69.5527ZM78.2538 92V83.915H79.6488V92H78.2538ZM78.2538 82.625V80.825H79.6488V82.625H78.2538ZM85.5334 92.18C84.7534 92.18 84.0584 91.995 83.4484 91.625C82.8384 91.255 82.3584 90.75 82.0084 90.11C81.6584 89.46 81.4834 88.735 81.4834 87.935C81.4834 87.125 81.6534 86.405 81.9934 85.775C82.3434 85.145 82.8134 84.65 83.4034 84.29C84.0034 83.92 84.6734 83.735 85.4134 83.735C86.0134 83.735 86.5434 83.845 87.0034 84.065C87.4734 84.275 87.8684 84.565 88.1884 84.935C88.5184 85.295 88.7684 85.71 88.9384 86.18C89.1184 86.64 89.2084 87.12 89.2084 87.62C89.2084 87.73 89.1984 87.855 89.1784 87.995C89.1684 88.125 89.1534 88.25 89.1334 88.37H82.5034V87.17H88.3234L87.6634 87.71C87.7534 87.19 87.7034 86.725 87.5134 86.315C87.3234 85.905 87.0434 85.58 86.6734 85.34C86.3034 85.1 85.8834 84.98 85.4134 84.98C84.9434 84.98 84.5134 85.1 84.1234 85.34C83.7334 85.58 83.4284 85.925 83.2084 86.375C82.9984 86.815 82.9134 87.34 82.9534 87.95C82.9134 88.54 83.0034 89.06 83.2234 89.51C83.4534 89.95 83.7734 90.295 84.1834 90.545C84.6034 90.785 85.0584 90.905 85.5484 90.905C86.0884 90.905 86.5434 90.78 86.9134 90.53C87.2834 90.28 87.5834 89.96 87.8134 89.57L88.9834 90.17C88.8234 90.54 88.5734 90.88 88.2334 91.19C87.9034 91.49 87.5084 91.73 87.0484 91.91C86.5984 92.09 86.0934 92.18 85.5334 92.18ZM91.0273 92V83.915H92.3923V85.49L92.1673 85.355C92.3673 84.845 92.6873 84.45 93.1273 84.17C93.5773 83.88 94.1023 83.735 94.7023 83.735C95.2823 83.735 95.7973 83.865 96.2473 84.125C96.7073 84.385 97.0673 84.745 97.3273 85.205C97.5973 85.665 97.7323 86.185 97.7323 86.765V92H96.3223V87.215C96.3223 86.765 96.2423 86.385 96.0823 86.075C95.9223 85.765 95.6923 85.525 95.3923 85.355C95.1023 85.175 94.7673 85.085 94.3873 85.085C94.0073 85.085 93.6673 85.175 93.3673 85.355C93.0773 85.525 92.8473 85.77 92.6773 86.09C92.5073 86.4 92.4223 86.775 92.4223 87.215V92H91.0273ZM103.478 92.18C102.688 92.18 101.983 91.995 101.363 91.625C100.753 91.255 100.273 90.75 99.9234 90.11C99.5734 89.47 99.3984 88.75 99.3984 87.95C99.3984 87.14 99.5734 86.42 99.9234 85.79C100.273 85.16 100.753 84.66 101.363 84.29C101.983 83.92 102.688 83.735 103.478 83.735C104.008 83.735 104.503 83.83 104.963 84.02C105.423 84.21 105.828 84.465 106.178 84.785C106.528 85.105 106.783 85.48 106.943 85.91L105.698 86.51C105.508 86.09 105.218 85.75 104.828 85.49C104.438 85.22 103.988 85.085 103.478 85.085C102.988 85.085 102.543 85.21 102.143 85.46C101.753 85.71 101.443 86.05 101.213 86.48C100.983 86.91 100.868 87.405 100.868 87.965C100.868 88.505 100.983 88.995 101.213 89.435C101.443 89.865 101.753 90.205 102.143 90.455C102.543 90.705 102.988 90.83 103.478 90.83C103.988 90.83 104.438 90.7 104.828 90.44C105.218 90.17 105.508 89.815 105.698 89.375L106.943 90.005C106.783 90.425 106.528 90.8 106.178 91.13C105.828 91.45 105.423 91.705 104.963 91.895C104.503 92.085 104.008 92.18 103.478 92.18ZM112.487 92.18C111.707 92.18 111.012 91.995 110.402 91.625C109.792 91.255 109.312 90.75 108.962 90.11C108.612 89.46 108.437 88.735 108.437 87.935C108.437 87.125 108.607 86.405 108.947 85.775C109.297 85.145 109.767 84.65 110.357 84.29C110.957 83.92 111.627 83.735 112.367 83.735C112.967 83.735 113.497 83.845 113.957 84.065C114.427 84.275 114.822 84.565 115.142 84.935C115.472 85.295 115.722 85.71 115.892 86.18C116.072 86.64 116.162 87.12 116.162 87.62C116.162 87.73 116.152 87.855 116.132 87.995C116.122 88.125 116.107 88.25 116.087 88.37H109.457V87.17H115.277L114.617 87.71C114.707 87.19 114.657 86.725 114.467 86.315C114.277 85.905 113.997 85.58 113.627 85.34C113.257 85.1 112.837 84.98 112.367 84.98C111.897 84.98 111.467 85.1 111.077 85.34C110.687 85.58 110.382 85.925 110.162 86.375C109.952 86.815 109.867 87.34 109.907 87.95C109.867 88.54 109.957 89.06 110.177 89.51C110.407 89.95 110.727 90.295 111.137 90.545C111.557 90.785 112.012 90.905 112.502 90.905C113.042 90.905 113.497 90.78 113.867 90.53C114.237 90.28 114.537 89.96 114.767 89.57L115.937 90.17C115.777 90.54 115.527 90.88 115.187 91.19C114.857 91.49 114.462 91.73 114.002 91.91C113.552 92.09 113.047 92.18 112.487 92.18Z" fill="white"/>
<g filter="url(#filter0_d_1448_8530)">
<rect x="24" y="103" width="71" height="21" rx="4" fill="white" shape-rendering="crispEdges"/>
<path d="M28.22 117V109.55H31.36C31.8533 109.55 32.2733 109.637 32.62 109.81C32.9733 109.977 33.2433 110.217 33.43 110.53C33.6233 110.837 33.72 111.21 33.72 111.65C33.72 111.99 33.6267 112.31 33.44 112.61C33.26 112.903 32.97 113.147 32.57 113.34V112.71C32.9367 112.85 33.2267 113.023 33.44 113.23C33.6533 113.437 33.8033 113.667 33.89 113.92C33.9767 114.173 34.02 114.44 34.02 114.72C34.02 115.433 33.7833 115.993 33.31 116.4C32.8433 116.8 32.1933 117 31.36 117H28.22ZM29.58 115.8H31.5C31.8533 115.8 32.1333 115.703 32.34 115.51C32.5533 115.31 32.66 115.047 32.66 114.72C32.66 114.393 32.5533 114.13 32.34 113.93C32.1333 113.73 31.8533 113.63 31.5 113.63H29.58V115.8ZM29.58 112.44H31.43C31.71 112.44 31.9333 112.36 32.1 112.2C32.2667 112.033 32.35 111.82 32.35 111.56C32.35 111.3 32.2667 111.093 32.1 110.94C31.9333 110.787 31.71 110.71 31.43 110.71H29.58V112.44ZM39.4041 117.12C38.8574 117.12 38.3474 117.023 37.8741 116.83C37.4007 116.637 36.9874 116.367 36.6341 116.02C36.2807 115.673 36.0041 115.267 35.8041 114.8C35.6107 114.327 35.5141 113.817 35.5141 113.27C35.5141 112.717 35.6107 112.207 35.8041 111.74C35.9974 111.273 36.2707 110.867 36.6241 110.52C36.9774 110.173 37.3907 109.907 37.8641 109.72C38.3374 109.527 38.8507 109.43 39.4041 109.43C39.9574 109.43 40.4707 109.527 40.9441 109.72C41.4174 109.913 41.8307 110.183 42.1841 110.53C42.5374 110.87 42.8107 111.273 43.0041 111.74C43.2041 112.207 43.3041 112.717 43.3041 113.27C43.3041 113.817 43.2041 114.327 43.0041 114.8C42.8041 115.267 42.5274 115.673 42.1741 116.02C41.8207 116.367 41.4074 116.637 40.9341 116.83C40.4674 117.023 39.9574 117.12 39.4041 117.12ZM39.4041 115.88C39.7707 115.88 40.1074 115.817 40.4141 115.69C40.7207 115.557 40.9874 115.373 41.2141 115.14C41.4474 114.907 41.6241 114.63 41.7441 114.31C41.8707 113.99 41.9341 113.643 41.9341 113.27C41.9341 112.897 41.8707 112.553 41.7441 112.24C41.6241 111.92 41.4474 111.643 41.2141 111.41C40.9874 111.17 40.7207 110.987 40.4141 110.86C40.1074 110.733 39.7707 110.67 39.4041 110.67C39.0441 110.67 38.7107 110.733 38.4041 110.86C38.0974 110.987 37.8274 111.17 37.5941 111.41C37.3674 111.643 37.1907 111.92 37.0641 112.24C36.9374 112.553 36.8741 112.897 36.8741 113.27C36.8741 113.643 36.9374 113.99 37.0641 114.31C37.1907 114.63 37.3674 114.907 37.5941 115.14C37.8274 115.373 38.0974 115.557 38.4041 115.69C38.7107 115.817 39.0441 115.88 39.4041 115.88ZM48.7834 117.12C48.2367 117.12 47.7267 117.023 47.2534 116.83C46.78 116.637 46.3667 116.367 46.0134 116.02C45.66 115.673 45.3834 115.267 45.1834 114.8C44.99 114.327 44.8934 113.817 44.8934 113.27C44.8934 112.717 44.99 112.207 45.1834 111.74C45.3767 111.273 45.65 110.867 46.0034 110.52C46.3567 110.173 46.77 109.907 47.2434 109.72C47.7167 109.527 48.23 109.43 48.7834 109.43C49.3367 109.43 49.85 109.527 50.3234 109.72C50.7967 109.913 51.21 110.183 51.5634 110.53C51.9167 110.87 52.19 111.273 52.3834 111.74C52.5834 112.207 52.6834 112.717 52.6834 113.27C52.6834 113.817 52.5834 114.327 52.3834 114.8C52.1834 115.267 51.9067 115.673 51.5534 116.02C51.2 116.367 50.7867 116.637 50.3134 116.83C49.8467 117.023 49.3367 117.12 48.7834 117.12ZM48.7834 115.88C49.15 115.88 49.4867 115.817 49.7934 115.69C50.1 115.557 50.3667 115.373 50.5934 115.14C50.8267 114.907 51.0034 114.63 51.1234 114.31C51.25 113.99 51.3134 113.643 51.3134 113.27C51.3134 112.897 51.25 112.553 51.1234 112.24C51.0034 111.92 50.8267 111.643 50.5934 111.41C50.3667 111.17 50.1 110.987 49.7934 110.86C49.4867 110.733 49.15 110.67 48.7834 110.67C48.4234 110.67 48.09 110.733 47.7834 110.86C47.4767 110.987 47.2067 111.17 46.9734 111.41C46.7467 111.643 46.57 111.92 46.4434 112.24C46.3167 112.553 46.2534 112.897 46.2534 113.27C46.2534 113.643 46.3167 113.99 46.4434 114.31C46.57 114.63 46.7467 114.907 46.9734 115.14C47.2067 115.373 47.4767 115.557 47.7834 115.69C48.09 115.817 48.4234 115.88 48.7834 115.88ZM54.4927 117V109.55H55.8527V113.43L55.4827 113.3L58.6527 109.55H60.3627L57.3927 113.07L57.4727 112.11L60.4527 117H58.8527L56.8527 113.72L55.8527 114.91V117H54.4927ZM64.2571 117V109.55H65.3171L69.4171 115.07L68.8671 115.18V109.55H70.2271V117H69.1571L65.1171 111.44L65.6171 111.33V117H64.2571ZM75.9392 117.12C75.3926 117.12 74.8826 117.023 74.4092 116.83C73.9359 116.637 73.5226 116.367 73.1692 116.02C72.8159 115.673 72.5392 115.267 72.3392 114.8C72.1459 114.327 72.0492 113.817 72.0492 113.27C72.0492 112.717 72.1459 112.207 72.3392 111.74C72.5326 111.273 72.8059 110.867 73.1592 110.52C73.5126 110.173 73.9259 109.907 74.3992 109.72C74.8726 109.527 75.3859 109.43 75.9392 109.43C76.4926 109.43 77.0059 109.527 77.4792 109.72C77.9526 109.913 78.3659 110.183 78.7192 110.53C79.0726 110.87 79.3459 111.273 79.5392 111.74C79.7392 112.207 79.8392 112.717 79.8392 113.27C79.8392 113.817 79.7392 114.327 79.5392 114.8C79.3392 115.267 79.0626 115.673 78.7092 116.02C78.3559 116.367 77.9426 116.637 77.4692 116.83C77.0026 117.023 76.4926 117.12 75.9392 117.12ZM75.9392 115.88C76.3059 115.88 76.6426 115.817 76.9492 115.69C77.2559 115.557 77.5226 115.373 77.7492 115.14C77.9826 114.907 78.1592 114.63 78.2792 114.31C78.4059 113.99 78.4692 113.643 78.4692 113.27C78.4692 112.897 78.4059 112.553 78.2792 112.24C78.1592 111.92 77.9826 111.643 77.7492 111.41C77.5226 111.17 77.2559 110.987 76.9492 110.86C76.6426 110.733 76.3059 110.67 75.9392 110.67C75.5792 110.67 75.2459 110.733 74.9392 110.86C74.6326 110.987 74.3626 111.17 74.1292 111.41C73.9026 111.643 73.7259 111.92 73.5992 112.24C73.4726 112.553 73.4092 112.897 73.4092 113.27C73.4092 113.643 73.4726 113.99 73.5992 114.31C73.7259 114.63 73.9026 114.907 74.1292 115.14C74.3626 115.373 74.6326 115.557 74.9392 115.69C75.2459 115.817 75.5792 115.88 75.9392 115.88ZM82.8432 117L80.8432 109.55H82.3032L83.8732 115.9H83.4932L85.1332 109.55H86.5432L88.1732 115.9H87.7932L89.3632 109.55H90.8232L88.8232 117H87.2632L85.6132 110.82H86.0532L84.4032 117H82.8432Z" fill="#1C1949"/>
</g>
<path d="M199.751 107.016C195.145 107.016 191.413 110.748 191.413 115.353C191.413 119.959 195.145 123.691 199.751 123.691H201.416V107.012H199.751V107.016Z" fill="#263238"/>
<path d="M260.518 107.016C255.913 107.016 252.181 110.748 252.181 115.353C252.181 119.959 255.913 123.691 260.518 123.691H262.183V107.012H260.518V107.016Z" fill="#263238"/>
<path d="M232.979 123.691C237.584 123.691 241.317 119.958 241.317 115.353C241.317 110.748 237.584 107.016 232.979 107.016C228.374 107.016 224.642 110.748 224.642 115.353C224.642 119.958 228.374 123.691 232.979 123.691Z" fill="#263238"/>
<path d="M172.214 123.691C176.819 123.691 180.552 119.958 180.552 115.353C180.552 110.748 176.819 107.016 172.214 107.016C167.61 107.016 163.877 110.748 163.877 115.353C163.877 119.958 167.61 123.691 172.214 123.691Z" fill="#263238"/>
<path d="M242.034 71.1465H210.396V111.344H242.034V71.1465Z" fill="#407BFF"/>
<path opacity="0.2" d="M242.034 71.1465H210.396V111.344H242.034V71.1465Z" fill="black"/>
<path d="M242.033 111.344H281.326V93.8815C281.326 92.5868 280.866 91.3311 280.024 90.3445L267.798 75.9977C265.174 72.9208 261.333 71.1465 257.289 71.1465H242.033V111.344Z" fill="#407BFF"/>
<path d="M248.473 92.2443V77.4646C248.473 76.1271 249.557 75.0391 250.898 75.0391H254.669C258.655 75.0391 262.441 76.7861 265.027 79.82L274.273 90.6689C274.647 91.1095 274.854 91.6672 274.854 92.2404C274.854 93.578 273.77 94.666 272.428 94.666H250.898C249.561 94.666 248.473 93.5819 248.473 92.2404V92.2443Z" fill="white"/>
<path d="M281.327 106.594H276.476C275.325 106.594 274.6 105.358 275.162 104.352L275.981 102.889C276.246 102.414 276.749 102.117 277.295 102.117H281.327V106.594Z" fill="white"/>
<path d="M235.049 64.3965H158.581V111.344H235.049V64.3965Z" fill="#407BFF"/>
<path opacity="0.6" d="M235.049 64.3965H158.581V111.344H235.049V64.3965Z" fill="white"/>
<path opacity="0.5" d="M192.302 104.188H179.289V107.015H192.302V104.188Z" fill="#407BFF"/>
<path opacity="0.5" d="M162.153 104.188H158.581V107.015H162.153V104.188Z" fill="#407BFF"/>
<path opacity="0.4" d="M184.997 64.3965H158.581V111.344H184.997V64.3965Z" fill="#407BFF"/>
<path opacity="0.4" d="M170.452 64.3965H170.027V111.344H170.452V64.3965Z" fill="#407BFF"/>
<path d="M281.709 111.344H158.199C157.846 111.344 157.56 111.63 157.56 111.983V113.96C157.56 114.314 157.846 114.6 158.199 114.6H281.709C282.062 114.6 282.348 114.314 282.348 113.96V111.983C282.348 111.63 282.062 111.344 281.709 111.344Z" fill="#263238"/>
<path d="M262.183 123.691C266.788 123.691 270.521 119.958 270.521 115.353C270.521 110.748 266.788 107.016 262.183 107.016C257.579 107.016 253.846 110.748 253.846 115.353C253.846 119.958 257.579 123.691 262.183 123.691Z" fill="#263238"/>
<path d="M262.183 120.72C265.147 120.72 267.549 118.318 267.549 115.354C267.549 112.391 265.147 109.988 262.183 109.988C259.22 109.988 256.817 112.391 256.817 115.354C256.817 118.318 259.22 120.72 262.183 120.72Z" fill="white"/>
<path d="M201.419 123.691C206.023 123.691 209.756 119.958 209.756 115.353C209.756 110.748 206.023 107.016 201.419 107.016C196.814 107.016 193.081 110.748 193.081 115.353C193.081 119.958 196.814 123.691 201.419 123.691Z" fill="#263238"/>
<path d="M201.42 120.72C204.383 120.72 206.786 118.318 206.786 115.354C206.786 112.391 204.383 109.988 201.42 109.988C198.456 109.988 196.054 112.391 196.054 115.354C196.054 118.318 198.456 120.72 201.42 120.72Z" fill="white"/>
<path d="M212.288 133.493L208.973 133.442L208.072 125.756L211.383 125.81L212.288 133.493Z" fill="#407BFF"/>
<path d="M208.887 133.061L212.498 133.119C212.635 133.119 212.74 133.217 212.756 133.349L213.072 136.305C213.103 136.613 212.838 136.898 212.53 136.886C211.231 136.843 209.355 136.738 207.718 136.711C205.803 136.68 205.99 136.758 203.744 136.722C202.387 136.703 202.168 135.319 202.749 135.205C205.401 134.679 205.67 134.652 208.065 133.306C208.326 133.162 208.607 133.057 208.891 133.061H208.887Z" fill="#263238"/>
<path d="M205.65 34.4305C204.566 36.7507 203.404 38.9384 202.113 41.1184C201.47 42.2025 200.803 43.2827 200.078 44.3434C199.727 44.8737 199.348 45.4041 198.974 45.9305C198.576 46.4531 198.194 46.9717 197.761 47.4865L197.441 47.8726C197.367 47.9622 197.157 48.2235 196.919 48.4458C196.802 48.5589 196.673 48.6681 196.521 48.7773C196.385 48.8865 196.213 48.9918 196.045 49.0854C195.694 49.2764 195.289 49.4324 194.864 49.5026C193.998 49.6586 193.218 49.4675 192.657 49.2374C192.091 48.9957 191.682 48.7071 191.327 48.4263C190.633 47.857 190.145 47.2837 189.712 46.7066C189.283 46.1333 188.917 45.5601 188.574 44.9829C187.903 43.8286 187.341 42.6665 186.842 41.4888C186.343 40.3072 185.902 39.1373 185.528 37.8894C185.314 37.168 185.719 36.4115 186.441 36.1931C187.037 36.0137 187.661 36.2633 187.981 36.7663L188.004 36.8014C189.276 38.8059 190.59 40.8766 192.009 42.6392C192.36 43.0799 192.719 43.4971 193.082 43.8637C193.44 44.2264 193.807 44.5462 194.096 44.7177C194.232 44.7996 194.349 44.8425 194.357 44.823C194.365 44.8035 194.216 44.7333 193.955 44.7606C193.698 44.7957 193.515 44.9205 193.487 44.94C193.468 44.9478 193.448 44.9712 193.561 44.8113L193.803 44.4643C195.082 42.6041 196.268 40.5256 197.406 38.4315C198.541 36.3413 199.664 34.1731 200.729 32.0751L200.748 32.0361C201.431 30.6907 203.073 30.1525 204.418 30.835C205.736 31.5018 206.278 33.0968 205.658 34.4265L205.65 34.4305Z" fill="#407BFF"/>
<path d="M188.129 37.7379L187.24 34.0488L183.777 35.5424C183.777 35.5424 184.085 38.4749 186.511 38.8376L188.129 37.7418V37.7379Z" fill="#263238"/>
<path d="M187.946 36.8359C187.946 36.8359 189.073 38.2866 189.346 38.6844C188.948 39.0665 186.402 40.3651 186.203 40.2364C185.875 39.3122 185.419 38.0955 185.419 38.0955L187.946 36.8398V36.8359Z" fill="#263238"/>
<path d="M184.647 31.708L183.372 32.9325C183.161 33.1353 183.083 33.4434 183.177 33.7241L183.777 35.5414L187.24 34.0478L185.817 31.8445C185.556 31.4428 184.994 31.3765 184.647 31.708Z" fill="#263238"/>
<path d="M186.613 36.018C186.492 35.2693 187.24 32.9217 187.872 32.5863C188.5 32.251 188.137 33.8693 188.219 34.4153C188.445 35.9166 188.523 37.3439 187.755 37.2659C186.987 37.1879 186.823 37.3244 186.613 36.0219V36.018Z" fill="#263238"/>
<path opacity="0.2" d="M208.072 125.76L208.536 129.718L211.851 129.773L211.387 125.81L208.072 125.76Z" fill="black"/>
<path d="M202.971 30.0083C209.273 29.2166 215.372 30.0707 218.695 30.7141C220.106 30.9871 221.007 32.3637 220.715 33.7714C218.242 45.5874 218.628 57.4774 218.422 60.0005C218.422 60.0005 200.702 59.7158 200.702 59.7119C199.489 45.2247 200.253 35.9981 200.721 32.2389C200.865 31.0651 201.797 30.1526 202.971 30.0044V30.0083Z" fill="#407BFF"/>
<path d="M214.163 21.6543C213.602 24.037 212.962 28.428 214.6 30.1672C213.235 31.3761 211.457 32.7566 208.575 32.6435C205.693 32.5304 206.267 30.5923 207.066 29.6096C209.792 29.165 209.796 27.1606 209.394 25.2498L214.163 21.6543Z" fill="#FFB573"/>
<path opacity="0.2" d="M212.222 23.1211L209.398 25.2464C209.496 25.6988 209.566 26.155 209.582 26.5957C210.619 26.5216 212.078 25.4999 212.23 24.4275C212.304 23.8932 212.3 23.3746 212.222 23.1172V23.1211Z" fill="black"/>
<path d="M214.967 18.0392C214.553 21.2954 214.475 23.2257 212.709 24.7817C210.057 27.1215 206.111 25.3237 205.545 21.9973C205.034 19.0063 205.799 14.1785 209.09 13.1178C212.33 12.0688 215.384 14.7791 214.967 18.0392Z" fill="#FFB573"/>
<path d="M215.158 20.8677C213.868 21.6398 212.401 21.2654 212.281 20.4387C212.16 19.612 213.111 18.2042 213.474 17.514C213.372 16.3441 212.546 16.0009 212.698 15.1742C211.735 15.26 206.486 15.5017 206.607 14.3162C206.731 13.1307 208.818 11.9102 211.298 12.2182C213.782 12.5263 215.389 13.6026 215.155 15.1079C216.512 14.8856 217.151 17.2215 215.155 20.8677H215.158Z" fill="#263238"/>
<path d="M216.308 21.358C215.848 22.1106 215.08 22.5747 214.366 22.7307C213.298 22.9608 212.818 21.9897 213.161 21.0109C213.469 20.1335 214.401 18.9519 215.45 19.1586C216.488 19.3614 216.835 20.4962 216.308 21.3541V21.358Z" fill="#FFB573"/>
<path d="M210.974 92.5987C210.841 75.9394 214.526 59.9391 214.526 59.9391L200.71 59.7168C200.71 59.7168 202.297 83.7777 202.851 93.8583C203.424 104.337 207.211 128.94 207.211 128.94L212.818 129.025C212.818 129.025 211.746 105.748 210.97 92.6026L210.974 92.5987Z" fill="#407BFF"/>
<path opacity="0.4" d="M210.974 92.5987C210.841 75.9394 214.526 59.9391 214.526 59.9391L200.71 59.7168C200.71 59.7168 202.297 83.7777 202.851 93.8583C203.424 104.337 207.211 128.94 207.211 128.94L212.818 129.025C212.818 129.025 211.746 105.748 210.97 92.6026L210.974 92.5987Z" fill="black"/>
<path opacity="0.2" d="M211.523 69.102C207.584 74.4913 209.355 84.6343 210.969 91.798C210.965 82.8912 212.018 74.2456 212.978 68.209L211.519 69.102H211.523Z" fill="black"/>
<path d="M206.477 126.77L206.839 129.055L213.04 129.16L213.391 127L206.477 126.77Z" fill="#263238"/>
<path d="M210.607 18.5816C210.591 18.8468 210.435 19.0535 210.26 19.0418C210.084 19.0301 209.959 18.8039 209.975 18.5349C209.991 18.2697 210.147 18.063 210.322 18.0747C210.498 18.0864 210.622 18.3126 210.607 18.5816Z" fill="#263238"/>
<path d="M207.159 18.2008C207.144 18.466 206.988 18.6726 206.812 18.6609C206.637 18.6492 206.512 18.4231 206.528 18.154C206.543 17.8888 206.699 17.6821 206.875 17.6938C207.05 17.7055 207.175 17.9317 207.159 18.2008Z" fill="#263238"/>
<path d="M207.874 18.4141C207.874 18.4141 207.168 19.9076 206.45 20.5979C206.895 21.0736 207.71 20.9332 207.71 20.9332L207.874 18.4141Z" fill="#ED893E"/>
<path d="M208.786 21.8763C209.808 21.8139 210.327 21.147 210.35 21.1158C210.377 21.0807 210.37 21.0339 210.335 21.0066C210.299 20.9794 210.253 20.9872 210.225 21.0222C210.218 21.03 209.617 21.8061 208.451 21.7203C208.408 21.7203 208.369 21.7476 208.369 21.7944C208.369 21.8373 208.4 21.8763 208.443 21.8802C208.564 21.888 208.681 21.888 208.79 21.8802L208.786 21.8763Z" fill="#263238"/>
<path d="M211.157 17.6937C211.184 17.6937 211.208 17.6859 211.231 17.6703C211.305 17.6235 211.325 17.526 211.274 17.4519C210.798 16.7226 210.073 16.7109 210.042 16.7109C209.956 16.7109 209.886 16.7811 209.886 16.8669C209.886 16.9527 209.956 17.0229 210.042 17.0229C210.065 17.0229 210.631 17.0385 211.013 17.6196C211.044 17.6703 211.099 17.6936 211.153 17.6897L211.157 17.6937Z" fill="#263238"/>
<path d="M205.682 16.9647C205.733 16.9725 205.783 16.953 205.818 16.914C206.271 16.3914 206.828 16.4577 206.856 16.4616C206.941 16.4733 207.019 16.4109 207.031 16.3291C207.043 16.2472 206.98 16.1653 206.895 16.1536C206.863 16.1536 206.146 16.0561 205.58 16.7112C205.526 16.7775 205.534 16.875 205.596 16.9335C205.619 16.953 205.651 16.9686 205.678 16.9725L205.682 16.9647Z" fill="#263238"/>
<path d="M229.844 133.493L226.525 133.442L225.16 125.756L228.475 125.81L229.844 133.493Z" fill="#407BFF"/>
<path d="M226.346 133.061L229.961 133.119C230.098 133.119 230.207 133.217 230.226 133.349L230.647 136.305C230.69 136.613 230.437 136.898 230.125 136.886C228.822 136.843 228.409 136.738 226.771 136.711C224.856 136.68 225.742 136.758 223.495 136.723C222.138 136.703 221.869 135.326 222.446 135.206C224.271 134.82 224.728 134.086 225.531 133.306C225.742 133.104 226.061 133.057 226.35 133.061H226.346Z" fill="#263238"/>
<path d="M227.036 133.407C226.459 133.423 226.155 133.396 226.006 133.142C225.858 132.889 225.34 132.121 225.375 131.836C225.41 131.547 227.742 131.321 227.976 131.777C228.206 132.238 228.206 133.372 227.036 133.404V133.407Z" fill="#263238"/>
<path d="M208.763 133.407C208.404 133.423 208.213 133.396 208.127 133.142C208.041 132.889 207.733 132.121 207.76 131.836C207.788 131.547 209.25 131.321 209.383 131.777C209.519 132.238 209.492 133.372 208.759 133.404L208.763 133.407Z" fill="#263238"/>
<path opacity="0.2" d="M225.16 125.76L225.866 129.718L229.185 129.773L228.479 125.81L225.16 125.76Z" fill="black"/>
<path d="M224.171 90.6237C222.615 75.6217 220.782 63.3222 218.43 59.9958L206.712 59.8086C206.712 59.8086 213.552 83.3508 216.192 93.2676C218.933 103.582 224.307 127.951 224.307 127.951L229.65 128.025C229.65 128.025 227.423 102.346 224.171 90.6198V90.6237Z" fill="#407BFF"/>
<path opacity="0.4" d="M224.171 90.6237C222.615 75.6217 220.782 63.3222 218.43 59.9958L206.712 59.8086C206.712 59.8086 213.552 83.3508 216.192 93.2676C218.933 103.582 224.307 127.951 224.307 127.951L229.65 128.025C229.65 128.025 227.423 102.346 224.171 90.6198V90.6237Z" fill="black"/>
<path d="M223.62 126.77L224.053 129.055L230.051 129.16L230.316 127L223.62 126.77Z" fill="#263238"/>
<path d="M210.661 35.0534C210.63 34.2189 209.667 33.0958 209.043 32.6474C213.664 31.3722 214.534 29.6953 214.534 29.6953C214.534 29.6953 215.072 29.8357 215.477 30.1009C215.75 32.6902 212.56 34.4568 210.661 35.0534Z" fill="white"/>
<path d="M207.936 32.5821C207.094 32.898 205.986 33.908 205.514 34.8829C203.592 31.4512 206.279 29.4702 206.279 29.4702C206.279 29.4702 206.938 29.3025 207.199 29.4078C206.68 30.5504 207.293 32.0634 207.936 32.5821Z" fill="white"/>
<path d="M235.37 36.5488L206.016 41.0879L209.305 62.3612L238.66 57.822L235.37 36.5488Z" fill="#407BFF"/>
<path opacity="0.9" d="M235.37 36.5488L206.016 41.0879L209.305 62.3612L238.66 57.822L235.37 36.5488Z" fill="white"/>
<path opacity="0.2" d="M235.373 36.5457L220.069 38.9121L223.359 60.1854L238.662 57.819L235.373 36.5457Z" fill="#407BFF"/>
<path opacity="0.3" d="M213.976 55.6451L210.292 56.2148L210.847 59.8066L214.532 59.2369L213.976 55.6451Z" fill="#407BFF"/>
<path opacity="0.3" d="M213.287 51.192L209.603 51.7617L210.158 55.3535L213.842 54.7838L213.287 51.192Z" fill="#407BFF"/>
<path opacity="0.5" d="M215.477 39.6205L210.282 40.4238L210.559 42.2159L215.754 41.4126L215.477 39.6205Z" fill="#407BFF"/>
<path opacity="0.5" d="M231.727 37.1095L228.077 37.6738L228.354 39.4659L232.004 38.9015L231.727 37.1095Z" fill="#407BFF"/>
<path d="M219.654 31.1007C221.916 32.1848 224.041 33.3937 226.147 34.7976C227.196 35.5073 228.234 36.256 229.255 37.1491C229.766 37.5975 230.277 38.0772 230.784 38.6582C231.037 38.9507 231.287 39.2744 231.537 39.6526C231.782 40.0348 232.036 40.4755 232.231 41.0838C232.324 41.3919 232.406 41.735 232.426 42.1445C232.434 42.2693 232.426 42.2732 232.426 42.3278V42.4643L232.414 42.7334L232.395 43.2715L232.348 43.7746C232.317 44.1099 232.278 44.4453 232.227 44.7612C232.176 45.081 232.137 45.4046 232.075 45.7127C231.868 46.9684 231.56 48.1695 231.256 49.3628C230.612 51.7416 229.864 54.0385 228.928 56.3159C228.643 57.0139 227.848 57.3454 227.15 57.0607C226.572 56.8228 226.241 56.234 226.311 55.6412V55.61C226.592 53.2663 226.931 50.907 227.177 48.5906C227.313 47.4363 227.419 46.2781 227.489 45.1628C227.512 44.8782 227.512 44.6091 227.528 44.3361C227.543 44.0592 227.539 43.7941 227.536 43.5328V43.1389L227.516 42.7802L227.504 42.6008V42.5111C227.497 42.4916 227.497 42.4214 227.497 42.4721C227.5 42.5852 227.508 42.6359 227.508 42.6593C227.512 42.7022 227.465 42.6164 227.372 42.5111C227.282 42.4019 227.153 42.2576 227.001 42.1133C226.701 41.813 226.319 41.4894 225.913 41.1774C225.087 40.5496 224.162 39.9334 223.203 39.3446C221.288 38.1669 219.229 37.0477 217.221 35.987L217.194 35.9714C215.86 35.2655 215.353 33.616 216.055 32.2823C216.741 30.9837 218.332 30.4689 219.647 31.0968L219.654 31.1007Z" fill="#407BFF"/>
<path d="M226.611 55.0254L224.626 57.724L228.401 59.1044C228.401 59.1044 229.902 56.441 228.615 55.4154L226.611 55.0254Z" fill="#263238"/>
<path d="M225.122 61.1719L226.526 61.4332C227.083 61.5385 227.637 61.2187 227.832 60.6844L228.401 59.1051L224.626 57.7246L224.197 59.7914C224.065 60.431 224.482 61.051 225.122 61.168V61.1719Z" fill="#263238"/>
<path d="M226.283 55.7709C226.283 55.7709 226.353 53.9381 226.4 53.4545C226.95 53.4194 229.734 54.0628 229.805 54.2929C229.461 55.2093 229.025 56.4377 229.025 56.4377L226.283 55.7709Z" fill="#263238"/>
<path d="M216.761 17.4784C214.881 17.2678 207.141 15.3843 206.423 14.6394C206.372 13.2005 207.211 11.7459 207.714 11.4183C209.137 10.4824 212.269 10.4473 213.263 10.7281C214.257 11.0089 216.976 12.3932 217.428 13.7269C217.779 14.7681 216.757 17.4745 216.757 17.4745L216.761 17.4784Z" fill="#407BFF"/>
<path d="M208.95 14.1748C206.575 13.8043 204.317 13.972 203.518 15.1731C202.625 16.5145 205.565 14.5179 207.32 15.3798C210.26 16.8226 209.558 17.0488 214.012 16.9552C211.722 15.7775 211.707 14.6076 208.954 14.1787L208.95 14.1748Z" fill="#407BFF"/>
<path opacity="0.6" d="M208.95 14.1748C206.575 13.8043 204.317 13.972 203.518 15.1731C202.625 16.5145 205.565 14.5179 207.32 15.3798C210.26 16.8226 209.558 17.0488 214.012 16.9552C211.722 15.7775 211.707 14.6076 208.954 14.1787L208.95 14.1748Z" fill="white"/>
</g>
<rect x="0.5" y="0.5" width="311" height="137" rx="15.5" stroke="white" stroke-opacity="0.4"/>
<defs>
<filter id="filter0_d_1448_8530" x="20" y="103" width="79" height="29" filterUnits="userSpaceOnUse" color-interpolation-filters="sRGB">
<feFlood flood-opacity="0" result="BackgroundImageFix"/>
<feColorMatrix in="SourceAlpha" type="matrix" values="0 0 0 0 0 0 0 0 0 0 0 0 0 0 0 0 0 0 127 0" result="hardAlpha"/>
<feOffset dy="4"/>
<feGaussianBlur stdDeviation="2"/>
<feComposite in2="hardAlpha" operator="out"/>
<feColorMatrix type="matrix" values="0 0 0 0 0 0 0 0 0 0 0 0 0 0 0 0 0 0 0.25 0"/>
<feBlend mode="normal" in2="BackgroundImageFix" result="effect1_dropShadow_1448_8530"/>
<feBlend mode="normal" in="SourceGraphic" in2="effect1_dropShadow_1448_8530" result="shape"/>
</filter>
<linearGradient id="paint0_linear_1448_8530" x1="325.5" y1="-66.5" x2="141" y2="118" gradientUnits="userSpaceOnUse">
<stop offset="0.0601738" stop-color="#A477FF"/>
<stop offset="1" stop-color="#083B60"/>
</linearGradient>
<clipPath id="clip0_1448_8530">
<rect width="312" height="138" rx="16" fill="white"/>
</clipPath>
</defs>
</svg>
