<svg width="15" height="15" viewBox="0 0 15 15" fill="none" xmlns="http://www.w3.org/2000/svg">
<path d="M6.73073 0.0385029C5.77149 0.161715 4.91415 0.543087 4.24304 1.13861C3.50516 1.79281 3.12217 2.54969 3.06947 3.45618C2.99568 4.7235 3.74058 5.93509 5.02659 6.63623C5.65905 6.98239 6.26692 7.15841 7.00479 7.20828C8.37162 7.29629 9.53816 6.93839 10.4798 6.13751C11.4004 5.35423 11.8115 4.38907 11.6991 3.28016C11.6007 2.32966 11.0982 1.51118 10.2268 0.883387C9.53816 0.390538 8.9057 0.144113 8.03079 0.0385029C7.60915 -0.0113687 7.11723 -0.0143023 6.73073 0.0385029ZM8.22756 0.959661C8.7792 1.07701 9.19382 1.27943 9.65763 1.652C10.262 2.13018 10.5677 2.65823 10.6485 3.34176C10.7434 4.15145 10.4447 4.89072 9.78763 5.47744C9.38004 5.84121 8.7792 6.14924 8.26972 6.25779C7.51428 6.4162 6.61477 6.34873 5.96826 6.08177C5.08632 5.718 4.43278 5.0374 4.19385 4.23359C4.10249 3.92556 4.11303 3.23029 4.21493 2.91346C4.48548 2.0627 5.37093 1.27356 6.35476 1.0066C6.88884 0.862852 7.68645 0.842316 8.22756 0.959661Z" fill="black"/>
<path d="M3.53949 7.27283C3.0019 7.31977 2.44673 7.48992 2.00752 7.73634C0.911254 8.35827 0.201489 9.74881 0.0363461 11.597C-0.0550097 12.6355 0.0187777 13.1489 0.338523 13.6857C0.514207 13.985 0.848007 14.3135 1.18883 14.5248C1.44885 14.6832 1.88454 14.8475 2.26754 14.9296L2.58377 15H7.50293H12.4221L12.7383 14.9325C13.8486 14.689 14.6252 14.0642 14.9027 13.1812C15.0468 12.7264 15.0292 11.641 14.8606 10.7844C14.4916 8.87752 13.557 7.73341 12.0777 7.37551C11.7404 7.29337 11.1361 7.23176 10.9569 7.2611C10.7847 7.2875 10.5458 7.39311 10.0047 7.68354C9.4214 7.99744 9.33004 8.03851 8.89434 8.17052C8.38135 8.326 7.99835 8.38761 7.52401 8.38761C7.03209 8.38761 6.65261 8.32894 6.15367 8.18226C5.68284 8.04144 5.66175 8.03264 4.92388 7.64247C4.53738 7.43711 4.24925 7.3051 4.13682 7.2787C3.94005 7.23763 3.94005 7.23763 3.53949 7.27283ZM4.45305 8.43161C5.11362 8.78658 5.3912 8.90099 5.97096 9.05941C7.48184 9.47305 9.02435 9.27356 10.479 8.47855C11.1361 8.11772 11.122 8.12358 11.3996 8.15292C12.6751 8.28787 13.4727 9.18262 13.81 10.8636C13.947 11.5559 13.9892 12.5211 13.8978 12.8878C13.7503 13.4774 13.2724 13.894 12.5415 14.0671C12.3307 14.117 12.0531 14.1199 7.50293 14.1199C2.94216 14.1199 2.67864 14.117 2.46079 14.0671C1.93725 13.9439 1.48398 13.6447 1.27316 13.2838C1.09045 12.9729 1.04477 12.7118 1.07288 12.081C1.09748 11.4444 1.13262 11.1482 1.25559 10.6289C1.34695 10.2241 1.56129 9.64907 1.71237 9.39971C2.16564 8.6487 2.78053 8.23799 3.57814 8.15292C3.70815 8.13825 3.82761 8.12652 3.84167 8.12358C3.85572 8.12358 4.12979 8.26146 4.45305 8.43161Z" fill="black"/>
</svg>
