<svg width="20" height="20" viewBox="0 0 20 20" fill="none" xmlns="http://www.w3.org/2000/svg">
<mask id="mask0_1_8295" style="mask-type:alpha" maskUnits="userSpaceOnUse" x="0" y="0" width="20" height="20">
<rect width="20" height="20" fill="#D9D9D9"/>
</mask>
<g mask="url(#mask0_1_8295)">
<path d="M9.99967 4.16665C9.76356 4.16665 9.56565 4.08679 9.40592 3.92706C9.2462 3.76734 9.16634 3.56942 9.16634 3.33331V1.66665C9.16634 1.43054 9.2462 1.23262 9.40592 1.0729C9.56565 0.913174 9.76356 0.833313 9.99967 0.833313C10.2358 0.833313 10.4337 0.913174 10.5934 1.0729C10.7531 1.23262 10.833 1.43054 10.833 1.66665V3.33331C10.833 3.56942 10.7531 3.76734 10.5934 3.92706C10.4337 4.08679 10.2358 4.16665 9.99967 4.16665ZM14.1247 5.87498C13.9719 5.7222 13.8955 5.53123 13.8955 5.30206C13.8955 5.0729 13.9719 4.87498 14.1247 4.70831L15.2913 3.52081C15.458 3.35415 15.6559 3.27081 15.8851 3.27081C16.1143 3.27081 16.3122 3.35415 16.4788 3.52081C16.6316 3.67359 16.708 3.86804 16.708 4.10415C16.708 4.34026 16.6316 4.5347 16.4788 4.68748L15.2913 5.87498C15.1386 6.02776 14.9441 6.10415 14.708 6.10415C14.4719 6.10415 14.2775 6.02776 14.1247 5.87498ZM16.6663 10.8333C16.4302 10.8333 16.2323 10.7535 16.0726 10.5937C15.9129 10.434 15.833 10.2361 15.833 9.99998C15.833 9.76387 15.9129 9.56595 16.0726 9.40623C16.2323 9.24651 16.4302 9.16665 16.6663 9.16665H18.333C18.5691 9.16665 18.767 9.24651 18.9268 9.40623C19.0865 9.56595 19.1663 9.76387 19.1663 9.99998C19.1663 10.2361 19.0865 10.434 18.9268 10.5937C18.767 10.7535 18.5691 10.8333 18.333 10.8333H16.6663ZM9.99967 19.1666C9.76356 19.1666 9.56565 19.0868 9.40592 18.9271C9.2462 18.7673 9.16634 18.5694 9.16634 18.3333V16.6666C9.16634 16.4305 9.2462 16.2326 9.40592 16.0729C9.56565 15.9132 9.76356 15.8333 9.99967 15.8333C10.2358 15.8333 10.4337 15.9132 10.5934 16.0729C10.7531 16.2326 10.833 16.4305 10.833 16.6666V18.3333C10.833 18.5694 10.7531 18.7673 10.5934 18.9271C10.4337 19.0868 10.2358 19.1666 9.99967 19.1666ZM4.70801 5.87498L3.52051 4.70831C3.35384 4.54165 3.27051 4.34026 3.27051 4.10415C3.27051 3.86804 3.35384 3.67359 3.52051 3.52081C3.67329 3.36804 3.86773 3.29165 4.10384 3.29165C4.33995 3.29165 4.5344 3.36804 4.68717 3.52081L5.87467 4.70831C6.02745 4.86109 6.10384 5.05554 6.10384 5.29165C6.10384 5.52776 6.02745 5.7222 5.87467 5.87498C5.70801 6.02776 5.51356 6.10415 5.29134 6.10415C5.06912 6.10415 4.87467 6.02776 4.70801 5.87498ZM15.2913 16.4791L14.1247 15.2916C13.9719 15.125 13.8955 14.9271 13.8955 14.6979C13.8955 14.4687 13.9719 14.2778 14.1247 14.125C14.2775 13.9722 14.4684 13.8958 14.6976 13.8958C14.9268 13.8958 15.1247 13.9722 15.2913 14.125L16.4788 15.2916C16.6455 15.4444 16.7254 15.6389 16.7184 15.875C16.7115 16.1111 16.6316 16.3125 16.4788 16.4791C16.3122 16.6458 16.1108 16.7291 15.8747 16.7291C15.6386 16.7291 15.4441 16.6458 15.2913 16.4791ZM1.66634 10.8333C1.43023 10.8333 1.23231 10.7535 1.07259 10.5937C0.912869 10.434 0.833008 10.2361 0.833008 9.99998C0.833008 9.76387 0.912869 9.56595 1.07259 9.40623C1.23231 9.24651 1.43023 9.16665 1.66634 9.16665H3.33301C3.56912 9.16665 3.76704 9.24651 3.92676 9.40623C4.08648 9.56595 4.16634 9.76387 4.16634 9.99998C4.16634 10.2361 4.08648 10.434 3.92676 10.5937C3.76704 10.7535 3.56912 10.8333 3.33301 10.8333H1.66634ZM3.52051 16.4791C3.36773 16.3264 3.29134 16.1319 3.29134 15.8958C3.29134 15.6597 3.36773 15.4653 3.52051 15.3125L4.70801 14.125C4.86079 13.9722 5.05176 13.8958 5.28092 13.8958C5.51009 13.8958 5.70801 13.9722 5.87467 14.125C6.04134 14.2916 6.12467 14.4896 6.12467 14.7187C6.12467 14.9479 6.04134 15.1458 5.87467 15.3125L4.70801 16.4791C4.54134 16.6458 4.33995 16.7291 4.10384 16.7291C3.86773 16.7291 3.67329 16.6458 3.52051 16.4791ZM9.99967 15C8.61079 15 7.43023 14.5139 6.45801 13.5416C5.48579 12.5694 4.99967 11.3889 4.99967 9.99998C4.99967 8.61109 5.48579 7.43054 6.45801 6.45831C7.43023 5.48609 8.61079 4.99998 9.99967 4.99998C11.3886 4.99998 12.5691 5.48609 13.5413 6.45831C14.5136 7.43054 14.9997 8.61109 14.9997 9.99998C14.9997 11.3889 14.5136 12.5694 13.5413 13.5416C12.5691 14.5139 11.3886 15 9.99967 15ZM9.99967 13.3333C10.9163 13.3333 11.7011 13.0069 12.3538 12.3541C13.0066 11.7014 13.333 10.9166 13.333 9.99998C13.333 9.08331 13.0066 8.29859 12.3538 7.64581C11.7011 6.99304 10.9163 6.66665 9.99967 6.66665C9.08301 6.66665 8.29829 6.99304 7.64551 7.64581C6.99273 8.29859 6.66634 9.08331 6.66634 9.99998C6.66634 10.9166 6.99273 11.7014 7.64551 12.3541C8.29829 13.0069 9.08301 13.3333 9.99967 13.3333Z" fill="#1C1B1F"/>
</g>
</svg>
