<svg width="16" height="16" viewBox="0 0 16 16" fill="none" xmlns="http://www.w3.org/2000/svg">
<g id="CaretRight">
<path id="Vector" d="M7.64622 11.3537L2.64621 6.35372C2.59976 6.30727 2.56291 6.25212 2.53777 6.19142C2.51263 6.13072 2.49969 6.06567 2.49969 5.99997C2.49969 5.93427 2.51263 5.86922 2.53777 5.80852C2.56291 5.74783 2.59976 5.69268 2.64621 5.64622C2.69267 5.59977 2.74782 5.56292 2.80852 5.53778C2.86921 5.51263 2.93427 5.49969 2.99996 5.49969C3.06566 5.49969 3.13072 5.51263 3.19141 5.53778C3.25211 5.56292 3.30726 5.59977 3.35371 5.64622L7.99997 10.2931L12.6462 5.64622C12.74 5.5524 12.8673 5.49969 13 5.49969C13.1326 5.49969 13.2599 5.5524 13.3537 5.64622C13.4475 5.74004 13.5002 5.86729 13.5002 5.99997C13.5002 6.13265 13.4475 6.2599 13.3537 6.35372L8.35372 11.3537C8.30728 11.4002 8.25213 11.4371 8.19144 11.4623C8.13074 11.4874 8.06567 11.5004 7.99997 11.5004C7.93426 11.5004 7.86919 11.4874 7.8085 11.4623C7.7478 11.4371 7.69265 11.4002 7.64622 11.3537Z" fill="#1D1949"/>
</g>
</svg>
