<svg width="14" height="14" viewBox="0 0 14 14" fill="none" xmlns="http://www.w3.org/2000/svg">
<g id="CaretRight">
<path id="Vector" d="M4.06523 6.69047L8.44022 2.31547C8.48087 2.27482 8.52913 2.24257 8.58224 2.22058C8.63535 2.19858 8.69227 2.18725 8.74976 2.18725C8.80724 2.18725 8.86416 2.19858 8.91727 2.22058C8.97038 2.24257 9.01864 2.27482 9.05929 2.31547C9.09994 2.35611 9.13218 2.40437 9.15418 2.45748C9.17618 2.51059 9.1875 2.56751 9.1875 2.625C9.1875 2.68248 9.17618 2.73941 9.15418 2.79251C9.13218 2.84562 9.09994 2.89388 9.05929 2.93453L4.99327 7L9.05929 11.0655C9.14138 11.1476 9.1875 11.2589 9.1875 11.375C9.1875 11.4911 9.14138 11.6024 9.05929 11.6845C8.9772 11.7666 8.86585 11.8127 8.74976 11.8127C8.63366 11.8127 8.52232 11.7666 8.44023 11.6845L4.06523 7.30953C4.02455 7.2689 3.99228 7.22065 3.97026 7.16754C3.94824 7.11442 3.93691 7.05749 3.93691 7C3.93691 6.94251 3.94824 6.88558 3.97026 6.83246C3.99228 6.77935 4.02455 6.7311 4.06523 6.69047Z" fill="black"/>
</g>
</svg>
