<svg width="80" height="80" viewBox="0 0 80 80" fill="none" xmlns="http://www.w3.org/2000/svg">
<path d="M74.3749 25.8531C74.1409 25.5859 73.8527 25.3716 73.5294 25.2245C73.2061 25.0774 72.8551 25.0008 72.4999 25H58.6343L41.8749 5.85312C41.6403 5.5871 41.3518 5.37405 41.0285 5.22812C40.7052 5.08219 40.3546 5.00671 39.9999 5.00671C39.6452 5.00671 39.2946 5.08219 38.9713 5.22812C38.6481 5.37405 38.3595 5.5871 38.1249 5.85312L21.3655 25H7.49992C7.14363 25 6.79144 25.0761 6.46697 25.2233C6.1425 25.3705 5.85324 25.5853 5.61857 25.8534C5.38391 26.1215 5.20926 26.4367 5.10634 26.7778C5.00341 27.1189 4.97459 27.4781 5.0218 27.8312L9.73117 63.1625C9.89545 64.3616 10.4875 65.4609 11.3983 66.258C12.309 67.055 13.4771 67.4961 14.6874 67.5H65.3124C66.5227 67.4961 67.6908 67.055 68.6016 66.258C69.5123 65.4609 70.1044 64.3616 70.2687 63.1625L74.978 27.8312C75.0245 27.4776 74.9946 27.1181 74.8906 26.7769C74.7866 26.4357 74.6108 26.1207 74.3749 25.8531ZM25.4999 57.5C25.4156 57.5047 25.3311 57.5047 25.2468 57.5C24.6249 57.5031 24.0241 57.2743 23.5619 56.8583C23.0996 56.4422 22.809 55.8688 22.7468 55.25L20.9968 37.75C20.9305 37.0903 21.129 36.4312 21.5486 35.9178C21.9682 35.4045 22.5746 35.0788 23.2343 35.0125C23.894 34.9462 24.5531 35.1447 25.0664 35.5643C25.5798 35.9839 25.9055 36.5903 25.9718 37.25L27.7218 54.75C27.7918 55.4093 27.5971 56.0694 27.1804 56.5851C26.7637 57.1009 26.1592 57.4299 25.4999 57.5ZM42.4999 55C42.4999 55.663 42.2365 56.2989 41.7677 56.7678C41.2989 57.2366 40.663 57.5 39.9999 57.5C39.3369 57.5 38.701 57.2366 38.2322 56.7678C37.7633 56.2989 37.4999 55.663 37.4999 55V37.5C37.4999 36.837 37.7633 36.2011 38.2322 35.7322C38.701 35.2634 39.3369 35 39.9999 35C40.663 35 41.2989 35.2634 41.7677 35.7322C42.2365 36.2011 42.4999 36.837 42.4999 37.5V55ZM28.0093 25L39.9999 11.2969L51.9905 25H28.0093ZM58.9874 37.75L57.2374 55.25C57.1755 55.8661 56.8871 56.4373 56.4282 56.853C55.9692 57.2687 55.3723 57.4992 54.7531 57.5C54.6687 57.5047 54.5842 57.5047 54.4999 57.5C54.1733 57.4672 53.8563 57.3703 53.567 57.215C53.2778 57.0596 53.022 56.8489 52.8142 56.5947C52.6064 56.3405 52.4508 56.0478 52.3561 55.7335C52.2614 55.4191 52.2296 55.0892 52.2624 54.7625L54.0124 37.2625C54.0787 36.6028 54.4044 35.9964 54.9178 35.5768C55.4312 35.1572 56.0902 34.9587 56.7499 35.025C57.4096 35.0913 58.016 35.417 58.4356 35.9303C58.8552 36.4437 59.0537 37.1028 58.9874 37.7625V37.75Z" fill="#1C1949"/>
</svg>
