<svg width="22" height="19" viewBox="0 0 22 19" fill="none" xmlns="http://www.w3.org/2000/svg">
<path d="M21.3125 6.256C21.2424 6.17582 21.1559 6.11153 21.0589 6.0674C20.9619 6.02327 20.8566 6.00031 20.75 6.00006H16.5904L11.5625 0.255997C11.4922 0.176192 11.4056 0.112276 11.3086 0.0684967C11.2116 0.024717 11.1065 0.0020752 11 0.0020752C10.8936 0.0020752 10.7885 0.024717 10.6915 0.0684967C10.5945 0.112276 10.5079 0.176192 10.4375 0.255997L5.40974 6.00006H1.25005C1.14316 6.00005 1.03751 6.02289 0.940164 6.06705C0.842823 6.11121 0.756044 6.17566 0.685645 6.25609C0.615245 6.33652 0.562851 6.43107 0.531974 6.53341C0.501097 6.63574 0.49245 6.74349 0.506613 6.84943L1.91943 17.4488C1.96871 17.8085 2.14633 18.1383 2.41955 18.3775C2.69278 18.6166 3.04322 18.7489 3.4063 18.7501H18.5938C18.9569 18.7489 19.3073 18.6166 19.5805 18.3775C19.8538 18.1383 20.0314 17.8085 20.0807 17.4488L21.4935 6.84943C21.5074 6.74334 21.4985 6.63549 21.4673 6.53313C21.436 6.43077 21.3833 6.33628 21.3125 6.256ZM6.65005 15.7501C6.62476 15.7515 6.59941 15.7515 6.57411 15.7501C6.38754 15.751 6.20731 15.6824 6.06863 15.5575C5.92995 15.4327 5.84277 15.2607 5.82411 15.0751L5.29911 9.82506C5.27922 9.62714 5.33877 9.42943 5.46465 9.27541C5.59054 9.1214 5.77245 9.0237 5.97036 9.00381C6.16828 8.98392 6.36599 9.04346 6.52001 9.16935C6.67402 9.29523 6.77172 9.47714 6.79161 9.67506L7.31661 14.9251C7.33762 15.1229 7.27919 15.3209 7.15419 15.4756C7.02918 15.6303 6.84784 15.729 6.65005 15.7501ZM11.75 15.0001C11.75 15.199 11.671 15.3897 11.5304 15.5304C11.3897 15.671 11.199 15.7501 11 15.7501C10.8011 15.7501 10.6104 15.671 10.4697 15.5304C10.3291 15.3897 10.25 15.199 10.25 15.0001V9.75006C10.25 9.55115 10.3291 9.36038 10.4697 9.21973C10.6104 9.07908 10.8011 9.00006 11 9.00006C11.199 9.00006 11.3897 9.07908 11.5304 9.21973C11.671 9.36038 11.75 9.55115 11.75 9.75006V15.0001ZM7.40286 6.00006L11 1.88912L14.5972 6.00006H7.40286ZM16.6963 9.82506L16.1713 15.0751C16.1527 15.2599 16.0662 15.4313 15.9285 15.556C15.7908 15.6807 15.6118 15.7498 15.426 15.7501C15.4007 15.7515 15.3753 15.7515 15.35 15.7501C15.2521 15.7402 15.157 15.7112 15.0702 15.6646C14.9834 15.618 14.9067 15.5547 14.8443 15.4785C14.782 15.4022 14.7353 15.3144 14.7069 15.2201C14.6785 15.1258 14.669 15.0268 14.6788 14.9288L15.2038 9.67881C15.2237 9.48089 15.3214 9.29898 15.4754 9.1731C15.6294 9.04721 15.8271 8.98767 16.0251 9.00756C16.223 9.02745 16.4049 9.12515 16.5308 9.27916C16.6566 9.43318 16.7162 9.63089 16.6963 9.82881V9.82506Z" fill="#1D1949"/>
</svg>
