<svg width="80" height="177" viewBox="0 0 80 177" fill="none" xmlns="http://www.w3.org/2000/svg">
<path d="M55.8829 40.1308L49.0086 36.3828C48.8528 36.2966 48.6779 36.251 48.4999 36.25H44.2499C43.9681 36.25 43.6978 36.3619 43.4986 36.5612C43.2993 36.7605 43.1874 37.0307 43.1874 37.3125C43.1874 38.1579 42.8516 38.9686 42.2538 39.5664C41.656 40.1642 40.8453 40.5 39.9999 40.5C39.1545 40.5 38.3438 40.1642 37.746 39.5664C37.1482 38.9686 36.8124 38.1579 36.8124 37.3125C36.8124 37.0307 36.7004 36.7605 36.5012 36.5612C36.3019 36.3619 36.0317 36.25 35.7499 36.25H31.4999C31.3214 36.2507 31.146 36.2964 30.9899 36.3828L24.1168 40.1308C23.6269 40.3897 23.2596 40.8323 23.0956 41.3617C22.9315 41.891 22.984 42.4637 23.2416 42.9544L25.8009 47.8432C25.987 48.1947 26.2659 48.4884 26.6074 48.6924C26.9488 48.8963 27.3396 49.0027 27.7373 49H30.4374V59.625C30.4374 60.1886 30.6613 60.7291 31.0598 61.1276C31.4583 61.5261 31.9988 61.75 32.5624 61.75H47.4374C48.001 61.75 48.5415 61.5261 48.94 61.1276C49.3385 60.7291 49.5624 60.1886 49.5624 59.625V49H52.2638C52.6615 49.0027 53.0523 48.8963 53.3938 48.6924C53.7352 48.4884 54.0141 48.1947 54.2002 47.8432L56.7595 42.9544C57.017 42.4636 57.0693 41.8907 56.905 41.3613C56.7407 40.832 56.3731 40.3895 55.8829 40.1308ZM27.7373 46.875C27.7177 46.8759 27.6984 46.8698 27.6829 46.8577L25.1368 41.9955L30.4374 39.1028V46.875H27.7373ZM52.3169 46.8564C52.3096 46.863 52.301 46.8681 52.2916 46.8713C52.2822 46.8745 52.2723 46.8757 52.2625 46.875H49.5624V39.1028L54.8643 41.9955L52.3169 46.8564Z" fill="#1C1949"/>
<path d="M74.3749 122.853C74.1409 122.586 73.8527 122.372 73.5294 122.224C73.2061 122.077 72.8551 122.001 72.4999 122H58.6343L41.8749 102.853C41.6403 102.587 41.3518 102.374 41.0285 102.228C40.7052 102.082 40.3546 102.007 39.9999 102.007C39.6452 102.007 39.2946 102.082 38.9713 102.228C38.6481 102.374 38.3595 102.587 38.1249 102.853L21.3655 122H7.49992C7.14363 122 6.79144 122.076 6.46697 122.223C6.1425 122.37 5.85324 122.585 5.61857 122.853C5.38391 123.122 5.20926 123.437 5.10634 123.778C5.00341 124.119 4.97459 124.478 5.0218 124.831L9.73117 160.162C9.89545 161.362 10.4875 162.461 11.3983 163.258C12.309 164.055 13.4771 164.496 14.6874 164.5H65.3124C66.5227 164.496 67.6908 164.055 68.6016 163.258C69.5123 162.461 70.1044 161.362 70.2687 160.162L74.978 124.831C75.0245 124.478 74.9946 124.118 74.8906 123.777C74.7866 123.436 74.6108 123.121 74.3749 122.853ZM25.4999 154.5C25.4156 154.505 25.3311 154.505 25.2468 154.5C24.6249 154.503 24.0241 154.274 23.5619 153.858C23.0996 153.442 22.809 152.869 22.7468 152.25L20.9968 134.75C20.9305 134.09 21.129 133.431 21.5486 132.918C21.9682 132.404 22.5746 132.079 23.2343 132.012C23.894 131.946 24.5531 132.145 25.0664 132.564C25.5798 132.984 25.9055 133.59 25.9718 134.25L27.7218 151.75C27.7918 152.409 27.5971 153.069 27.1804 153.585C26.7637 154.101 26.1592 154.43 25.4999 154.5ZM42.4999 152C42.4999 152.663 42.2365 153.299 41.7677 153.768C41.2989 154.237 40.663 154.5 39.9999 154.5C39.3369 154.5 38.701 154.237 38.2322 153.768C37.7633 153.299 37.4999 152.663 37.4999 152V134.5C37.4999 133.837 37.7633 133.201 38.2322 132.732C38.701 132.263 39.3369 132 39.9999 132C40.663 132 41.2989 132.263 41.7677 132.732C42.2365 133.201 42.4999 133.837 42.4999 134.5V152ZM28.0093 122L39.9999 108.297L51.9905 122H28.0093ZM58.9874 134.75L57.2374 152.25C57.1755 152.866 56.8871 153.437 56.4282 153.853C55.9692 154.269 55.3723 154.499 54.7531 154.5C54.6687 154.505 54.5842 154.505 54.4999 154.5C54.1733 154.467 53.8563 154.37 53.567 154.215C53.2778 154.06 53.022 153.849 52.8142 153.595C52.6064 153.34 52.4508 153.048 52.3561 152.733C52.2614 152.419 52.2296 152.089 52.2624 151.762L54.0124 134.262C54.0787 133.603 54.4044 132.996 54.9178 132.577C55.4312 132.157 56.0902 131.959 56.7499 132.025C57.4096 132.091 58.016 132.417 58.4356 132.93C58.8552 133.444 59.0537 134.103 58.9874 134.762V134.75Z" fill="#1C1949"/>
</svg>
