<svg width="24" height="25" viewBox="0 0 24 25" fill="none" xmlns="http://www.w3.org/2000/svg">
<g id="Basket">
<path id="Vector" d="M12.75 11.7501V17.0001C12.75 17.199 12.671 17.3897 12.5303 17.5304C12.3897 17.671 12.1989 17.7501 12 17.7501C11.8011 17.7501 11.6103 17.671 11.4697 17.5304C11.329 17.3897 11.25 17.199 11.25 17.0001V11.7501C11.25 11.5511 11.329 11.3604 11.4697 11.2197C11.6103 11.0791 11.8011 11.0001 12 11.0001C12.1989 11.0001 12.3897 11.0791 12.5303 11.2197C12.671 11.3604 12.75 11.5511 12.75 11.7501ZM16.2037 11.6751L15.6787 16.9251C15.6684 17.0234 15.6775 17.1227 15.7057 17.2175C15.7338 17.3122 15.7805 17.4005 15.8428 17.4771C15.9052 17.5538 15.9821 17.6174 16.0692 17.6642C16.1562 17.7111 16.2516 17.7402 16.35 17.7501C16.3753 17.7515 16.4006 17.7515 16.4259 17.7501C16.6117 17.7498 16.7908 17.6807 16.9285 17.556C17.0661 17.4313 17.1527 17.2599 17.1712 17.0751L17.6962 11.8251C17.7161 11.6271 17.6566 11.4294 17.5307 11.2754C17.4048 11.1214 17.2229 11.0237 17.025 11.0038C16.8271 10.9839 16.6294 11.0435 16.4753 11.1693C16.3213 11.2952 16.2236 11.4771 16.2037 11.6751ZM7.79624 11.6751C7.77635 11.4771 7.67865 11.2952 7.52463 11.1693C7.37062 11.0435 7.17291 10.9839 6.97499 11.0038C6.77707 11.0237 6.59516 11.1214 6.46928 11.2754C6.34339 11.4294 6.28385 11.6271 6.30374 11.8251L6.82874 17.0751C6.84739 17.2607 6.93457 17.4327 7.07326 17.5575C7.21194 17.6824 7.39216 17.751 7.57874 17.7501C7.60403 17.7515 7.62938 17.7515 7.65468 17.7501C7.75268 17.7402 7.84778 17.7112 7.93455 17.6646C8.02132 17.618 8.09806 17.5547 8.16039 17.4785C8.22272 17.4022 8.26942 17.3144 8.29782 17.2201C8.32623 17.1258 8.33578 17.0268 8.32593 16.9288L7.79624 11.6751ZM22.4934 8.84943L21.0806 19.4488C21.0313 19.8085 20.8537 20.1383 20.5805 20.3775C20.3073 20.6166 19.9568 20.7489 19.5937 20.7501H4.40624C4.04316 20.7489 3.69272 20.6166 3.41949 20.3775C3.14626 20.1383 2.96865 19.8085 2.91936 19.4488L1.50655 8.84943C1.49239 8.74349 1.50104 8.63574 1.53191 8.53341C1.56279 8.43107 1.61518 8.33652 1.68558 8.25609C1.75598 8.17566 1.84276 8.11121 1.9401 8.06705C2.03744 8.02289 2.1431 8.00005 2.24999 8.00006H6.40968L11.4375 2.256C11.5079 2.17619 11.5944 2.11228 11.6914 2.0685C11.7884 2.02472 11.8936 2.00208 12 2.00208C12.1064 2.00208 12.2116 2.02472 12.3086 2.0685C12.4056 2.11228 12.4921 2.17619 12.5625 2.256L17.5903 8.00006H21.75C21.8569 8.00005 21.9625 8.02289 22.0599 8.06705C22.1572 8.11121 22.244 8.17566 22.3144 8.25609C22.3848 8.33652 22.4372 8.43107 22.4681 8.53341C22.4989 8.63574 22.5076 8.74349 22.4934 8.84943ZM8.4028 8.00006H15.5972L12 3.88912L8.4028 8.00006ZM20.8931 9.50006H3.10686L4.40624 19.2501H19.5937L20.8931 9.50006Z" fill="#898D97"/>
</g>
</svg>
