<svg width="16" height="16" viewBox="0 0 16 16" fill="none" xmlns="http://www.w3.org/2000/svg">
<path d="M13.7544 11.0588C13.4006 10.45 12.875 8.73312 12.875 6.5C12.875 5.20707 12.3614 3.96709 11.4472 3.05285C10.5329 2.13861 9.29295 1.625 8.00002 1.625C6.70709 1.625 5.46711 2.13861 4.55287 3.05285C3.63863 3.96709 3.12502 5.20707 3.12502 6.5C3.12502 8.73375 2.59877 10.45 2.24502 11.0588C2.1674 11.1917 2.12622 11.3427 2.12562 11.4966C2.12502 11.6505 2.16503 11.8019 2.24161 11.9354C2.31819 12.0689 2.42863 12.1798 2.56179 12.257C2.69494 12.3342 2.8461 12.3749 3.00002 12.375H5.65502C5.7461 12.9309 6.03181 13.4363 6.46114 13.8011C6.89046 14.1658 7.43544 14.366 7.99877 14.366C8.56209 14.366 9.10707 14.1658 9.5364 13.8011C9.96572 13.4363 10.2514 12.9309 10.3425 12.375H13C13.1538 12.3747 13.3048 12.3338 13.4378 12.2565C13.5708 12.1793 13.6811 12.0683 13.7575 11.9348C13.8339 11.8014 13.8738 11.6501 13.8732 11.4963C13.8725 11.3425 13.8313 11.1916 13.7538 11.0588H13.7544ZM8.00002 13.625C7.63433 13.6249 7.27938 13.5014 6.99255 13.2746C6.70572 13.0478 6.50378 12.7308 6.41939 12.375H9.58064C9.49625 12.7308 9.29432 13.0478 9.00749 13.2746C8.72066 13.5014 8.3657 13.6249 8.00002 13.625ZM13.1069 11.5625C13.0966 11.5816 13.0812 11.5976 13.0625 11.6086C13.0438 11.6196 13.0224 11.6253 13.0006 11.625H3.00002C2.97828 11.6253 2.95688 11.6196 2.93815 11.6086C2.91941 11.5976 2.90406 11.5816 2.89377 11.5625C2.88279 11.5435 2.87702 11.5219 2.87702 11.5C2.87702 11.4781 2.88279 11.4565 2.89377 11.4375C3.36689 10.625 3.87502 8.73063 3.87502 6.5C3.87502 5.40598 4.30961 4.35677 5.0832 3.58318C5.85679 2.8096 6.906 2.375 8.00002 2.375C9.09403 2.375 10.1432 2.8096 10.9168 3.58318C11.6904 4.35677 12.125 5.40598 12.125 6.5C12.125 8.73 12.6338 10.6219 13.1069 11.4375C13.1179 11.4565 13.1236 11.4781 13.1236 11.5C13.1236 11.5219 13.1179 11.5435 13.1069 11.5625Z" fill="black" fill-opacity="0.6"/>
</svg>
