<?xml version="1.0" encoding="UTF-8"?>
<svg xmlns="http://www.w3.org/2000/svg" xmlns:xlink="http://www.w3.org/1999/xlink" width="16px" height="16px" viewBox="0 0 16 16" version="1.1">
<g id="surface1">
<path style=" stroke:none;fill-rule:nonzero;fill:rgb(11.372549%,9.803922%,28.627452%);fill-opacity:1;" d="M 6 2 L 4.667969 2 C 4.667969 0.867188 5.535156 0 6.667969 0 L 6.667969 1.332031 C 6.265625 1.332031 6 1.601562 6 2 Z M 6 2 "/>
<path style=" stroke:none;fill-rule:nonzero;fill:rgb(11.372549%,9.803922%,28.627452%);fill-opacity:1;" d="M 11.332031 2 L 10 2 C 10 1.601562 9.734375 1.332031 9.332031 1.332031 L 9.332031 0 C 10.464844 0 11.332031 0.867188 11.332031 2 Z M 11.332031 2 "/>
<path style=" stroke:none;fill-rule:nonzero;fill:rgb(11.372549%,9.803922%,28.627452%);fill-opacity:1;" d="M 11.332031 4 L 4.667969 4 L 4.667969 2 L 6 2 L 6 2.667969 L 10 2.667969 L 10 2 L 11.332031 2 Z M 11.332031 4 "/>
<path style=" stroke:none;fill-rule:nonzero;fill:rgb(11.372549%,9.803922%,28.627452%);fill-opacity:1;" d="M 6.667969 0 L 9.332031 0 L 9.332031 1.332031 L 6.667969 1.332031 Z M 6.667969 0 "/>
<path style=" stroke:none;fill-rule:nonzero;fill:rgb(11.372549%,9.803922%,28.627452%);fill-opacity:1;" d="M 14 4 L 2 4 C 1.601562 4 1.332031 3.734375 1.332031 3.332031 C 1.332031 2.933594 1.601562 2.667969 2 2.667969 L 14 2.667969 C 14.398438 2.667969 14.667969 2.933594 14.667969 3.332031 C 14.667969 3.734375 14.398438 4 14 4 Z M 14 4 "/>
<path style=" stroke:none;fill-rule:nonzero;fill:rgb(11.372549%,9.803922%,28.627452%);fill-opacity:1;" d="M 12.667969 16 L 3.332031 16 C 2.933594 16 2.667969 15.734375 2.667969 15.332031 L 2.667969 6 C 2.667969 5.601562 2.933594 5.332031 3.332031 5.332031 L 12.667969 5.332031 C 13.066406 5.332031 13.332031 5.601562 13.332031 6 L 13.332031 15.332031 C 13.332031 15.734375 13.066406 16 12.667969 16 Z M 4 14.667969 L 12 14.667969 L 12 6.667969 L 4 6.667969 Z M 4 14.667969 "/>
<path style=" stroke:none;fill-rule:nonzero;fill:rgb(11.372549%,9.803922%,28.627452%);fill-opacity:1;" d="M 6.667969 13.332031 C 6.265625 13.332031 6 13.066406 6 12.667969 L 6 8.667969 C 6 8.265625 6.265625 8 6.667969 8 C 7.066406 8 7.332031 8.265625 7.332031 8.667969 L 7.332031 12.667969 C 7.332031 13.066406 7.066406 13.332031 6.667969 13.332031 Z M 6.667969 13.332031 "/>
<path style=" stroke:none;fill-rule:nonzero;fill:rgb(11.372549%,9.803922%,28.627452%);fill-opacity:1;" d="M 9.332031 13.332031 C 8.933594 13.332031 8.667969 13.066406 8.667969 12.667969 L 8.667969 8.667969 C 8.667969 8.265625 8.933594 8 9.332031 8 C 9.734375 8 10 8.265625 10 8.667969 L 10 12.667969 C 10 13.066406 9.734375 13.332031 9.332031 13.332031 Z M 9.332031 13.332031 "/>
</g>
</svg>
