<svg width="11" height="13" viewBox="0 0 11 13" fill="none" xmlns="http://www.w3.org/2000/svg">
<g id="CalendarBlank">
<path id="Vector" d="M9.5625 1.625H8.34375V1.21875C8.34375 1.11101 8.30095 1.00767 8.22476 0.931488C8.14858 0.855301 8.04524 0.8125 7.9375 0.8125C7.82976 0.8125 7.72642 0.855301 7.65024 0.931488C7.57405 1.00767 7.53125 1.11101 7.53125 1.21875V1.625H3.46875V1.21875C3.46875 1.11101 3.42595 1.00767 3.34976 0.931488C3.27358 0.855301 3.17024 0.8125 3.0625 0.8125C2.95476 0.8125 2.85142 0.855301 2.77524 0.931488C2.69905 1.00767 2.65625 1.11101 2.65625 1.21875V1.625H1.4375C1.22201 1.625 1.01535 1.7106 0.862976 1.86298C0.710602 2.01535 0.625 2.22201 0.625 2.4375V10.5625C0.625 10.778 0.710602 10.9847 0.862976 11.137C1.01535 11.2894 1.22201 11.375 1.4375 11.375H9.5625C9.77799 11.375 9.98465 11.2894 10.137 11.137C10.2894 10.9847 10.375 10.778 10.375 10.5625V2.4375C10.375 2.22201 10.2894 2.01535 10.137 1.86298C9.98465 1.7106 9.77799 1.625 9.5625 1.625ZM2.65625 2.4375V2.84375C2.65625 2.95149 2.69905 3.05483 2.77524 3.13101C2.85142 3.2072 2.95476 3.25 3.0625 3.25C3.17024 3.25 3.27358 3.2072 3.34976 3.13101C3.42595 3.05483 3.46875 2.95149 3.46875 2.84375V2.4375H7.53125V2.84375C7.53125 2.95149 7.57405 3.05483 7.65024 3.13101C7.72642 3.2072 7.82976 3.25 7.9375 3.25C8.04524 3.25 8.14858 3.2072 8.22476 3.13101C8.30095 3.05483 8.34375 2.95149 8.34375 2.84375V2.4375H9.5625V4.0625H1.4375V2.4375H2.65625ZM9.5625 10.5625H1.4375V4.875H9.5625V10.5625Z" fill="#646464"/>
</g>
</svg>
