<svg width="20" height="20" viewBox="0 0 20 20" fill="none" xmlns="http://www.w3.org/2000/svg">
<mask id="mask0_1_8336" style="mask-type:alpha" maskUnits="userSpaceOnUse" x="0" y="0" width="20" height="20">
<rect width="20" height="20" fill="#D9D9D9"/>
</mask>
<g mask="url(#mask0_1_8336)">
<path d="M4.16667 18.332C3.70833 18.332 3.31597 18.1688 2.98958 17.8424C2.66319 17.516 2.5 17.1236 2.5 16.6653V4.99863C2.5 4.5403 2.66319 4.14794 2.98958 3.82155C3.31597 3.49516 3.70833 3.33197 4.16667 3.33197H5V2.49863C5 2.26252 5.07986 2.0646 5.23958 1.90488C5.39931 1.74516 5.59722 1.6653 5.83333 1.6653C6.06944 1.6653 6.26736 1.74516 6.42708 1.90488C6.58681 2.0646 6.66667 2.26252 6.66667 2.49863V3.33197H13.3333V2.49863C13.3333 2.26252 13.4132 2.0646 13.5729 1.90488C13.7326 1.74516 13.9306 1.6653 14.1667 1.6653C14.4028 1.6653 14.6007 1.74516 14.7604 1.90488C14.9201 2.0646 15 2.26252 15 2.49863V3.33197H15.8333C16.2917 3.33197 16.684 3.49516 17.0104 3.82155C17.3368 4.14794 17.5 4.5403 17.5 4.99863V16.6653C17.5 17.1236 17.3368 17.516 17.0104 17.8424C16.684 18.1688 16.2917 18.332 15.8333 18.332H4.16667ZM4.16667 16.6653H15.8333V8.33196H4.16667V16.6653ZM4.16667 6.6653H15.8333V4.99863H4.16667V6.6653Z" fill="#6A707D"/>
</g>
</svg>
