<?xml version="1.0" encoding="UTF-8"?>
<svg version="1.1" xmlns="http://www.w3.org/2000/svg" width="512" height="512">
<path d="M0 0 C5.06194079 2.39776143 6.02214649 4.03691082 9 9 C9 15.93 9 22.86 9 30 C29.13 30 49.26 30 70 30 C70 23.07 70 16.14 70 9 C74.75614898 1.86577653 74.75614898 1.86577653 79 0 C84.54808604 -0.82885269 89.47140883 -0.7240695 94.5625 1.6875 C97 4 97 4 100 9 C100 15.93 100 22.86 100 30 C119.8 30 139.6 30 160 30 C160 23.07 160 16.14 160 9 C164.75614898 1.86577653 164.75614898 1.86577653 169 0 C174.54808604 -0.82885269 179.47140883 -0.7240695 184.5625 1.6875 C187 4 187 4 190 9 C190 15.93 190 22.86 190 30 C209.8 30 229.6 30 250 30 C250 23.07 250 16.14 250 9 C254.75614898 1.86577653 254.75614898 1.86577653 259 0 C264.54808604 -0.82885269 269.47140883 -0.7240695 274.5625 1.6875 C277 4 277 4 280 9 C280 15.93 280 22.86 280 30 C300.13 30 320.26 30 341 30 C341 23.07 341 16.14 341 9 C345.75614898 1.86577653 345.75614898 1.86577653 350 0 C355.54808604 -0.82885269 360.47140883 -0.7240695 365.5625 1.6875 C368.70555257 4.66937039 370.79011184 6.90822235 371.23803711 11.37231445 C371.29518868 14.19153806 371.26132985 16.99371402 371.1875 19.8125 C371.17396484 20.79154297 371.16042969 21.77058594 371.14648438 22.77929688 C371.11125312 25.18676625 371.06199265 27.59309564 371 30 C371.69971924 29.97905273 372.39943848 29.95810547 373.12036133 29.93652344 C376.35092264 29.85237066 379.58125226 29.80102929 382.8125 29.75 C383.91271484 29.71648438 385.01292969 29.68296875 386.14648438 29.6484375 C398.91681072 29.49775518 408.43453571 33.59488752 418 42 C425.91758692 50.41702654 431.24402661 60.45552664 431.25726891 72.14191723 C431.26077498 72.84115469 431.26428105 73.54039215 431.26789337 74.26081863 C431.27719607 76.60349873 431.27228702 78.94592963 431.26742554 81.28862 C431.27116238 82.98537852 431.27576403 84.68213531 431.28115618 86.37888938 C431.2933976 91.04156468 431.29312436 95.70416828 431.29076743 100.36685598 C431.29035955 105.39564902 431.30139574 110.42441899 431.31088257 115.45320129 C431.32750024 125.30605341 431.33299248 135.15888159 431.33410732 145.01174655 C431.33505752 153.02114334 431.33916637 161.03053223 431.34550858 169.03992653 C431.36312374 191.74782106 431.37234711 214.45569667 431.37084763 237.16359808 C431.37072776 239.00013778 431.37072776 239.00013778 431.37060547 240.8737793 C431.37052371 242.09963416 431.37044195 243.32548902 431.37035771 244.588491 C431.36954492 264.45234673 431.38868004 284.3161266 431.4168822 304.17996039 C431.44561116 324.57580269 431.45942246 344.97160799 431.45769465 365.36747104 C431.45703071 376.81822684 431.46252461 388.26890315 431.48405075 399.71964073 C431.50226276 409.46996845 431.50660974 419.22018065 431.4930319 428.97051802 C431.48650216 433.94403276 431.48638537 438.91732589 431.5037384 443.89081955 C431.5194739 448.44764941 431.51660055 453.00408201 431.49917014 457.56090222 C431.49610129 459.20559319 431.49972831 460.85031385 431.51089029 462.49496981 C431.60289809 477.01874511 428.80403679 487.84248556 419 499 C410.43108329 507.06046441 400.27634382 512.32806178 388.38956165 512.25726891 C387.63967298 512.26077498 386.88978431 512.26428105 386.11717173 512.26789337 C383.60219511 512.27720372 381.08745023 512.27228501 378.57246399 512.26742554 C376.7519616 512.27116199 374.93146081 512.27576349 373.11096257 512.28115618 C368.10624142 512.29340238 363.10158704 512.2931238 358.09685433 512.29076743 C352.69996045 512.29035967 347.3030881 512.30139457 341.90620422 512.31088257 C331.33144832 512.32750281 320.75671472 512.33299259 310.18194685 512.33410732 C301.58616576 512.33505738 292.99039203 512.33916558 284.39461327 512.34550858 C260.02659316 512.36312436 235.65859068 512.37234701 211.29056416 512.37084763 C209.97659449 512.37076772 208.66262482 512.3706878 207.30883789 512.37060547 C205.99326459 512.37052371 204.67769128 512.37044195 203.32225212 512.37035771 C182.00342373 512.36954488 160.68468837 512.38868089 139.36587737 512.4168822 C117.47841907 512.44560735 95.59099524 512.45942267 73.70351762 512.45769465 C61.41439372 512.45703059 49.12534388 512.46253004 36.83623695 512.48405075 C26.3722545 512.50225773 15.90837968 512.50661386 5.44438825 512.4930319 C0.10633106 512.48649966 -5.23151962 512.48639445 -10.56955719 512.5037384 C-15.45945401 512.51946273 -20.34898046 512.51661184 -25.23886821 512.49917014 C-27.00468881 512.49609884 -28.77053701 512.49973752 -30.53632506 512.51089029 C-45.45992636 512.59888018 -56.50533656 510.10028747 -68 500 C-75.91758692 491.58297346 -81.24402661 481.54447336 -81.25726891 469.85808277 C-81.26077498 469.15884531 -81.26428105 468.45960785 -81.26789337 467.73918137 C-81.27719607 465.39650127 -81.27228702 463.05407037 -81.26742554 460.71138 C-81.27116238 459.01462148 -81.27576403 457.31786469 -81.28115618 455.62111062 C-81.2933976 450.95843532 -81.29312436 446.29583172 -81.29076743 441.63314402 C-81.29035955 436.60435098 -81.30139574 431.57558101 -81.31088257 426.54679871 C-81.32750024 416.69394659 -81.33299248 406.84111841 -81.33410732 396.98825345 C-81.33505752 388.97885666 -81.33916637 380.96946777 -81.34550858 372.96007347 C-81.36312374 350.25217894 -81.37234711 327.54430333 -81.37084763 304.83640192 C-81.37076772 303.61204212 -81.3706878 302.38768232 -81.37060547 301.1262207 C-81.37052371 299.90036584 -81.37044195 298.67451098 -81.37035771 297.411509 C-81.36954492 277.54765327 -81.38868004 257.6838734 -81.4168822 237.82003961 C-81.44561116 217.42419731 -81.45942246 197.02839201 -81.45769465 176.63252896 C-81.45703071 165.18177316 -81.46252461 153.73109685 -81.48405075 142.28035927 C-81.50226276 132.53003155 -81.50660974 122.77981935 -81.4930319 113.02948198 C-81.48650216 108.05596724 -81.48638537 103.08267411 -81.5037384 98.10918045 C-81.5194739 93.55235059 -81.51660055 88.99591799 -81.49917014 84.43909778 C-81.49610129 82.79440681 -81.49972831 81.14968615 -81.51089029 79.50503019 C-81.60289809 64.98125489 -78.80403679 54.15751444 -69 43 C-61.08216404 35.55198327 -51.03766235 29.69033338 -39.9453125 29.8046875 C-38.83671875 29.81113281 -37.728125 29.81757813 -36.5859375 29.82421875 C-35.44382813 29.84097656 -34.30171875 29.85773437 -33.125 29.875 C-31.37703125 29.88853516 -31.37703125 29.88853516 -29.59375 29.90234375 C-26.72895423 29.92582568 -23.86458465 29.95866859 -21 30 C-21.02094727 29.39526855 -21.04189453 28.79053711 -21.06347656 28.16748047 C-21.14708945 25.40349229 -21.19880054 22.63977087 -21.25 19.875 C-21.28351562 18.92367188 -21.31703125 17.97234375 -21.3515625 16.9921875 C-21.43267329 11.15221087 -21.12496676 7.50379023 -17 3 C-11.77740143 -1.05630398 -6.34659858 -0.77397544 0 0 Z M-45.8125 64.4375 C-58.191208 78.93827223 -51 104.38079389 -51 120 C98.16 120 247.32 120 401 120 C404.2946322 96.01528401 404.2946322 96.01528401 396.5625 65.1875 C390.58536096 60.08506424 385.8241321 59.84249884 378.1875 59.9375 C377.49462891 59.94201172 376.80175781 59.94652344 376.08789062 59.95117188 C374.39188932 59.96286844 372.69593297 59.98080076 371 60 C370.98541748 60.60996826 370.97083496 61.21993652 370.95581055 61.84838867 C370.88105225 64.62871064 370.78448518 67.40786824 370.6875 70.1875 C370.66494141 71.14720703 370.64238281 72.10691406 370.61914062 73.09570312 C370.26944817 82.28307769 370.26944817 82.28307769 367 86 C363.3358247 88.83478427 360.58927015 89.41012197 356 89.375 C354.989375 89.38273437 353.97875 89.39046875 352.9375 89.3984375 C349.51532431 88.93425941 347.72646441 88.1093255 345 86 C342 81 342 81 341 60 C320.87 60 300.74 60 280 60 C279.67 66.93 279.34 73.86 279 81 C275.38565737 87.02390438 275.38565737 87.02390438 271 89 C268.0625 89.3984375 268.0625 89.3984375 265 89.375 C263.989375 89.38273437 262.97875 89.39046875 261.9375 89.3984375 C258.51532431 88.93425941 256.72646441 88.1093255 254 86 C251 81 251 81 250 60 C230.2 60 210.4 60 190 60 C189.67 66.93 189.34 73.86 189 81 C185.38565737 87.02390438 185.38565737 87.02390438 181 89 C178.0625 89.3984375 178.0625 89.3984375 175 89.375 C173.989375 89.38273437 172.97875 89.39046875 171.9375 89.3984375 C168.51532431 88.93425941 166.72646441 88.1093255 164 86 C161 81 161 81 160 60 C140.2 60 120.4 60 100 60 C99.67 66.93 99.34 73.86 99 81 C95.38565737 87.02390438 95.38565737 87.02390438 91 89 C88.0625 89.3984375 88.0625 89.3984375 85 89.375 C83.989375 89.38273437 82.97875 89.39046875 81.9375 89.3984375 C78.51532431 88.93425941 76.72646441 88.1093255 74 86 C71 81 71 81 70 60 C49.87 60 29.74 60 9 60 C8.67 66.93 8.34 73.86 8 81 C4.38565737 87.02390438 4.38565737 87.02390438 0 89 C-2.9375 89.3984375 -2.9375 89.3984375 -6 89.375 C-7.010625 89.38273437 -8.02125 89.39046875 -9.0625 89.3984375 C-13.42157009 88.80718065 -15.8810483 87.27209741 -18.76953125 83.98828125 C-20.63134407 79.46673583 -20.57357502 75.03419404 -20.6875 70.1875 C-20.72166016 69.20845703 -20.75582031 68.22941406 -20.79101562 67.22070312 C-20.87319858 64.81391655 -20.94244433 62.40748055 -21 60 C-23.35448675 59.94545591 -25.70767875 59.9060721 -28.0625 59.875 C-29.37347656 59.85179687 -30.68445313 59.82859375 -32.03515625 59.8046875 C-37.55046545 60.07637761 -41.59639733 60.78354435 -45.8125 64.4375 Z M-51 150 C-51.04125 202.160625 -51.0825 254.32125 -51.125 308.0625 C-51.14320801 324.54840088 -51.16141602 341.03430176 -51.18017578 358.01977539 C-51.18686356 372.76366383 -51.18686356 372.76366383 -51.19088745 387.5075531 C-51.19275502 394.08809329 -51.20010195 400.66859966 -51.21115112 407.24913025 C-51.22387159 414.83623079 -51.22967427 422.42329881 -51.2268899 430.0104101 C-51.22568377 433.89248018 -51.22761149 437.77447753 -51.23843026 441.65653431 C-51.24994152 445.81229584 -51.24599322 449.96789869 -51.24050903 454.12367249 C-51.24633436 455.33636527 -51.25215969 456.54905806 -51.25816154 457.79849911 C-51.34826017 468.06884704 -51.34826017 468.06884704 -46.5625 476.8125 C-40.71445663 481.80473214 -36.33669692 482.12448216 -28.81378365 482.12863445 C-27.73953503 482.13126401 -27.73953503 482.13126401 -26.64358443 482.13394669 C-24.23739679 482.1386085 -21.83126952 482.13614072 -19.42507935 482.13371277 C-17.68508666 482.13558065 -15.9450944 482.13788126 -14.2051028 482.14057809 C-9.41844492 482.14670531 -4.63180447 482.14656141 0.15485644 482.14538372 C5.31514427 482.14517994 10.47542646 482.1506962 15.63571167 482.15544128 C25.74737491 482.16375331 35.85903233 482.16649637 45.9706987 482.16705366 C54.18800779 482.16752853 62.40531496 482.16958184 70.62262344 482.17275429 C93.91006102 482.18156215 117.19749399 482.18617342 140.48493324 482.18542381 C141.7407793 482.18538386 142.99662535 482.1853439 144.29052734 482.18530273 C145.5479031 482.18526185 146.80527885 482.18522097 148.1007569 482.18517885 C168.48467592 482.18477228 188.86857647 482.19434426 209.25249015 482.2084411 C230.17260313 482.22279484 251.0927071 482.22971185 272.01282513 482.22884732 C283.76190351 482.22851502 295.51096252 482.2312767 307.26003647 482.24202538 C317.26226899 482.25111717 327.26447338 482.25331649 337.26670824 482.24651595 C342.37130156 482.24324414 347.47584085 482.24321787 352.58042908 482.2518692 C357.25233008 482.25970589 361.92413397 482.25833184 366.59603252 482.24958507 C368.28711394 482.24804383 369.97820251 482.24988962 371.66927551 482.25544515 C373.9670019 482.26249435 376.2643866 482.25722025 378.56210136 482.24888897 C380.47695251 482.24921502 380.47695251 482.24921502 382.43048751 482.24954766 C387.75996802 481.87695914 391.73723428 481.09439696 395.8125 477.5625 C400.34524403 472.25271414 401.12574702 468.26569708 401.12304783 461.43405437 C401.1250387 460.31951445 401.12702957 459.20497452 401.12908077 458.05666065 C401.12616811 456.83814254 401.12325544 455.61962442 401.12025452 454.36418152 C401.12111053 453.06855789 401.12196655 451.77293427 401.12284851 450.43804932 C401.12509203 446.8365312 401.12107725 443.2350428 401.11607273 439.63352846 C401.11170889 435.69209635 401.11316716 431.75066562 401.11389065 427.80923176 C401.11442252 420.15674856 401.10980307 412.50427709 401.10338932 404.85179691 C401.0961931 396.00100961 401.09539478 387.15022936 401.09460449 378.29943848 C401.08935282 354.92879046 401.07539173 331.55814505 401.0625 308.1875 C401.041875 255.985625 401.02125 203.78375 401 150 C251.84 150 102.68 150 -51 150 Z " fill="#000000" transform="translate(81,0)"/>
<path d="M0 0 C0.78375 -0.0103125 1.5675 -0.020625 2.375 -0.03125 C7.42642724 0.99106265 10.6643041 2.68849827 13.70654297 6.81445312 C15.54672572 9.83038177 17.25535562 12.89313341 18.9375 16 C19.90651196 17.73975807 20.87555868 19.47949751 21.84629822 21.21829224 C22.52154501 22.43082766 23.1942501 23.64478172 23.86451721 24.8600769 C26.33254628 29.33340938 28.87770378 33.75640349 31.4609375 38.1640625 C32.55643326 40.04226221 33.65120855 41.92088038 34.74588013 43.79956055 C35.45045832 45.00539297 36.1576671 46.2096926 36.86764526 47.41235352 C44.63309929 60.59277464 47.0978461 72.77596133 44.3828125 87.94921875 C41.31774576 98.32433404 34.721288 107.18458455 26 113.5 C21.05 115.975 21.05 115.975 16 118.5 C15.67 129.39 15.34 140.28 15 151.5 C20.76404297 151.43039062 20.76404297 151.43039062 26.64453125 151.359375 C30.39443646 151.32811899 34.14432677 151.30386551 37.89428711 151.28027344 C40.48680185 151.26024279 43.07927188 151.23301033 45.67163086 151.19824219 C49.41271033 151.14934859 53.1531889 151.12694461 56.89453125 151.109375 C58.61395683 151.07840729 58.61395683 151.07840729 60.36811829 151.04681396 C72.97239825 151.04335307 82.56232422 155.20717447 92 163.5 C96.72218208 168.52005628 100.39461222 174.11618255 103 180.5 C103.34297119 181.27142334 103.68594238 182.04284668 104.03930664 182.83764648 C105.46145692 188.25916527 105.24446068 193.53659093 105.1953125 199.1171875 C105.1924826 200.32948029 105.18965271 201.54177307 105.18673706 202.790802 C105.17556667 206.65230289 105.15046737 210.51356953 105.125 214.375 C105.11496616 216.99739248 105.10584102 219.6197886 105.09765625 222.2421875 C105.07563758 228.66153789 105.04219098 235.0807522 105 241.5 C105.60473145 241.47905273 106.20946289 241.45810547 106.83251953 241.43652344 C109.59650771 241.35291055 112.36022913 241.30119946 115.125 241.25 C116.07632813 241.21648437 117.02765625 241.18296875 118.0078125 241.1484375 C124.03750516 241.06469177 127.41171737 241.48197601 132 245.5 C136.05630398 250.72259857 135.77397544 256.15340142 135 262.5 C132.82907793 267.08305771 130.57507354 269.39975794 126 271.5 C122.62426645 271.94188591 119.2727509 271.90892782 115.87220764 271.88768005 C114.32856676 271.89575836 114.32856676 271.89575836 112.7537412 271.90399987 C109.30063145 271.91832321 105.84790267 271.91116476 102.39477539 271.90405273 C99.92104279 271.90975399 97.44731283 271.91671729 94.97358704 271.92485046 C88.94899151 271.94095643 82.92454602 271.94287705 76.89994366 271.93763756 C72.00307807 271.93359594 67.10624331 271.93503932 62.2093792 271.94038582 C61.16390733 271.94150845 61.16390733 271.94150845 60.09731482 271.94265376 C58.68139287 271.94418524 57.26547092 271.94572359 55.84954899 271.94726873 C42.57166999 271.96099631 29.29384991 271.95555428 16.01597225 271.94408352 C3.8696817 271.93415077 -8.27645653 271.94709202 -20.42272358 271.97101771 C-32.89600359 271.99540236 -45.36921264 272.00501816 -57.84251601 271.99836498 C-64.84474687 271.99487135 -71.84686057 271.99711426 -78.84907341 272.01461601 C-85.43267973 272.03086742 -92.01604215 272.02616623 -98.59965706 272.00731087 C-101.01758899 272.00361583 -103.43554236 272.00675991 -105.85345459 272.01719666 C-109.15104968 272.03034508 -112.44767121 272.01891262 -115.745224 272.00120544 C-116.70485532 272.01081045 -117.66448665 272.02041546 -118.65319771 272.03031152 C-124.2706627 271.96813405 -127.56541679 271.29445704 -132 267.5 C-136.05630398 262.27740143 -135.77397544 256.84659858 -135 250.5 C-132.83283812 245.92488049 -130.59067987 243.55870695 -126 241.5 C-122.38772438 241.13754567 -118.81314237 241.2175369 -115.1875 241.3125 C-114.20845703 241.32603516 -113.22941406 241.33957031 -112.22070312 241.35351562 C-109.81323375 241.38874688 -107.40690436 241.43800735 -105 241.5 C-105.00888245 240.83538254 -105.01776489 240.17076508 -105.0269165 239.48600769 C-105.1158794 232.52599751 -105.17593645 225.56615067 -105.21972656 218.60571289 C-105.23975721 216.01319815 -105.26698967 213.42072812 -105.30175781 210.82836914 C-105.35065141 207.08728967 -105.37305539 203.3468111 -105.390625 199.60546875 C-105.41127014 198.45918503 -105.43191528 197.31290131 -105.45318604 196.13188171 C-105.45664693 183.52760175 -101.29282553 173.93767578 -93 164.5 C-87.97994372 159.77781792 -82.38381745 156.10538778 -76 153.5 C-75.22857666 153.15702881 -74.45715332 152.81405762 -73.66235352 152.46069336 C-68.24083473 151.03854308 -62.96340907 151.25553932 -57.3828125 151.3046875 C-56.17051971 151.3075174 -54.95822693 151.31034729 -53.709198 151.31326294 C-49.84769711 151.32443333 -45.98643047 151.34953263 -42.125 151.375 C-39.50260752 151.38503384 -36.8802114 151.39415898 -34.2578125 151.40234375 C-27.8383794 151.42265841 -21.41945109 151.46181424 -15 151.5 C-15.33 140.61 -15.66 129.72 -16 118.5 C-19.3 116.85 -22.6 115.2 -26 113.5 C-34.87768167 107.41024441 -41.86453433 97.98472697 -44.56640625 87.49609375 C-45.14611357 83.49036841 -45.31878819 79.54433552 -45.375 75.5 C-45.38909912 74.76450928 -45.40319824 74.02901855 -45.41772461 73.27124023 C-45.31781102 61.829237 -40.39471885 53.03007073 -34.6875 43.375 C-33.97265669 42.1521203 -33.2585564 40.92880599 -32.54516602 39.70507812 C-31.45076514 37.82901491 -30.35514554 35.95373915 -29.25486755 34.08111572 C-26.806206 29.90928928 -24.42666583 25.70561181 -22.078125 21.4765625 C-21.46364502 20.38359863 -20.84916504 19.29063477 -20.21606445 18.16455078 C-19.05853069 16.10498282 -17.91314887 14.03852206 -16.78198242 11.96435547 C-12.80335488 4.97456259 -8.7522216 -0.11516081 0 0 Z M-1 47.5 C-3.20272191 51.10420822 -5.35504884 54.73616393 -7.5 58.375 C-8.12003906 59.38820313 -8.74007812 60.40140625 -9.37890625 61.4453125 C-13.10400968 67.8312041 -15.39949717 73.03862122 -14 80.5 C-11.83701163 84.90608743 -9.60319521 87.6987497 -5 89.5 C0.04325384 90.18426057 3.83076884 90.0739862 8.4375 87.8125 C12.47576808 84.1682093 14.16035705 81.52400961 14.4765625 76.078125 C14.39744488 69.15972837 11.02511468 64.13537451 7.5 58.375 C6.87996094 57.323125 6.25992188 56.27125 5.62109375 55.1875 C4.0996997 52.61283314 2.5594847 50.05171003 1 47.5 C0.34 47.5 -0.32 47.5 -1 47.5 Z M-69.8125 185.9375 C-82.191208 200.43827223 -75 225.88079389 -75 241.5 C-25.5 241.5 24 241.5 75 241.5 C78.2946322 217.51528401 78.2946322 217.51528401 70.5625 186.6875 C65.41669661 182.29474101 61.51815718 181.37903656 54.89016724 181.36628723 C53.88371155 181.36202225 52.87725586 181.35775726 51.84030151 181.35336304 C50.74718658 181.35381622 49.65407166 181.35426941 48.52783203 181.35473633 C47.36791748 181.35137772 46.20800293 181.3480191 45.01293945 181.34455872 C41.17788625 181.33505841 37.34287674 181.33310609 33.5078125 181.33203125 C31.51530665 181.32963032 29.52280078 181.32722766 27.53029525 181.32457083 C21.2661246 181.31643667 15.0019683 181.31398565 8.73779297 181.31469727 C2.28659414 181.31529785 -4.16452103 181.30474741 -10.6156987 181.2889536 C-16.16406231 181.27585658 -21.71239865 181.27051427 -27.26077759 181.27115268 C-30.57028773 181.27140702 -33.87970691 181.26766463 -37.18920517 181.25797462 C-40.882555 181.24817288 -44.57568964 181.25105365 -48.26904297 181.25708008 C-49.35810944 181.25146057 -50.4471759 181.24584106 -51.56924438 181.24005127 C-61.42884208 181.24394246 -61.42884208 181.24394246 -69.8125 185.9375 Z " fill="#000000" transform="translate(256,180.5)"/>
</svg>
