<svg width="17" height="16" viewBox="0 0 17 16" fill="none" xmlns="http://www.w3.org/2000/svg">
<g id="CalendarCheck">
<path id="Vector" d="M13.5 2H12V1.5C12 1.36739 11.9473 1.24021 11.8536 1.14645C11.7598 1.05268 11.6326 1 11.5 1C11.3674 1 11.2402 1.05268 11.1464 1.14645C11.0527 1.24021 11 1.36739 11 1.5V2H6V1.5C6 1.36739 5.94732 1.24021 5.85355 1.14645C5.75979 1.05268 5.63261 1 5.5 1C5.36739 1 5.24021 1.05268 5.14645 1.14645C5.05268 1.24021 5 1.36739 5 1.5V2H3.5C3.23478 2 2.98043 2.10536 2.79289 2.29289C2.60536 2.48043 2.5 2.73478 2.5 3V13C2.5 13.2652 2.60536 13.5196 2.79289 13.7071C2.98043 13.8946 3.23478 14 3.5 14H13.5C13.7652 14 14.0196 13.8946 14.2071 13.7071C14.3946 13.5196 14.5 13.2652 14.5 13V3C14.5 2.73478 14.3946 2.48043 14.2071 2.29289C14.0196 2.10536 13.7652 2 13.5 2ZM5 3V3.5C5 3.63261 5.05268 3.75979 5.14645 3.85355C5.24021 3.94732 5.36739 4 5.5 4C5.63261 4 5.75979 3.94732 5.85355 3.85355C5.94732 3.75979 6 3.63261 6 3.5V3H11V3.5C11 3.63261 11.0527 3.75979 11.1464 3.85355C11.2402 3.94732 11.3674 4 11.5 4C11.6326 4 11.7598 3.94732 11.8536 3.85355C11.9473 3.75979 12 3.63261 12 3.5V3H13.5V5H3.5V3H5ZM13.5 13H3.5V6H13.5V13ZM11.1038 7.64625C11.1502 7.69269 11.1871 7.74783 11.2123 7.80853C11.2374 7.86923 11.2504 7.93429 11.2504 8C11.2504 8.06571 11.2374 8.13077 11.2123 8.19147C11.1871 8.25217 11.1502 8.30731 11.1038 8.35375L8.10375 11.3538C8.05731 11.4002 8.00217 11.4371 7.94147 11.4623C7.88077 11.4874 7.81571 11.5004 7.75 11.5004C7.68429 11.5004 7.61923 11.4874 7.55853 11.4623C7.49783 11.4371 7.44269 11.4002 7.39625 11.3538L5.89625 9.85375C5.80243 9.75993 5.74972 9.63268 5.74972 9.5C5.74972 9.36732 5.80243 9.24007 5.89625 9.14625C5.99007 9.05243 6.11732 8.99972 6.25 8.99972C6.38268 8.99972 6.50993 9.05243 6.60375 9.14625L7.75 10.2931L10.3962 7.64625C10.4427 7.59976 10.4978 7.56288 10.5585 7.53772C10.6192 7.51256 10.6843 7.49961 10.75 7.49961C10.8157 7.49961 10.8808 7.51256 10.9415 7.53772C11.0022 7.56288 11.0573 7.59976 11.1038 7.64625Z" fill="black"/>
</g>
</svg>
