<svg width="142" height="141" viewBox="0 0 142 141" fill="none" xmlns="http://www.w3.org/2000/svg">
<path d="M71 0.21875C57.0997 0.21875 43.5116 4.34067 31.9539 12.0633C20.3962 19.7859 11.388 30.7623 6.06862 43.6045C0.749202 56.4467 -0.642601 70.578 2.06922 84.2112C4.78103 97.8444 11.4747 110.367 21.3037 120.196C31.1327 130.025 43.6556 136.719 57.2888 139.431C70.9221 142.143 85.0533 140.751 97.8955 135.431C110.738 130.112 121.714 121.104 129.437 109.546C137.159 97.9885 141.281 84.4003 141.281 70.5C141.262 51.8663 133.851 34.0014 120.675 20.8254C107.499 7.64936 89.6337 0.238428 71 0.21875ZM101.856 58.1062L64.0125 95.9499C63.5104 96.4526 62.9141 96.8513 62.2578 97.1234C61.6015 97.3955 60.898 97.5355 60.1875 97.5355C59.4771 97.5355 58.7736 97.3955 58.1173 97.1234C57.461 96.8513 56.8647 96.4526 56.3626 95.9499L40.1439 79.7312C39.1294 78.7167 38.5595 77.3409 38.5595 75.9062C38.5595 74.4716 39.1294 73.0958 40.1439 72.0813C41.1583 71.0669 42.5342 70.497 43.9688 70.497C45.4034 70.497 46.7793 71.0669 47.7937 72.0813L60.1875 84.4819L94.2064 50.4563C94.7086 49.954 95.305 49.5556 95.9613 49.2837C96.6175 49.0119 97.3209 48.872 98.0313 48.872C98.7416 48.872 99.445 49.0119 100.101 49.2837C100.758 49.5556 101.354 49.954 101.856 50.4563C102.358 50.9586 102.757 51.5549 103.029 52.2112C103.301 52.8675 103.441 53.5709 103.441 54.2812C103.441 54.9916 103.301 55.695 103.029 56.3513C102.757 57.0076 102.358 57.6039 101.856 58.1062Z" fill="white"/>
</svg>
