<svg width="13" height="13" viewBox="0 0 13 13" fill="none" xmlns="http://www.w3.org/2000/svg">
<g id="Clock">
<path id="Vector" d="M6.5 1.21875C5.45547 1.21875 4.43439 1.52849 3.5659 2.1088C2.6974 2.68911 2.02049 3.51393 1.62076 4.47895C1.22104 5.44397 1.11645 6.50586 1.32023 7.53032C1.52401 8.55478 2.027 9.49581 2.76559 10.2344C3.50419 10.973 4.44522 11.476 5.46968 11.6798C6.49414 11.8835 7.55603 11.779 8.52105 11.3792C9.48607 10.9795 10.3109 10.3026 10.8912 9.4341C11.4715 8.56561 11.7813 7.54453 11.7813 6.5C11.7798 5.09978 11.2229 3.75733 10.2328 2.76723C9.24267 1.77712 7.90022 1.22023 6.5 1.21875ZM6.5 10.9687C5.61617 10.9687 4.75218 10.7067 4.0173 10.2156C3.28242 9.7246 2.70964 9.02667 2.37142 8.21012C2.03319 7.39356 1.94469 6.49504 2.11712 5.62819C2.28955 4.76134 2.71515 3.96508 3.34012 3.34012C3.96508 2.71515 4.76134 2.28954 5.62819 2.11712C6.49504 1.94469 7.39356 2.03318 8.21012 2.37141C9.02668 2.70964 9.7246 3.28241 10.2156 4.0173C10.7067 4.75218 10.9688 5.61616 10.9688 6.5C10.9674 7.68477 10.4962 8.82064 9.6584 9.6584C8.82064 10.4962 7.68478 10.9674 6.5 10.9687ZM9.75 6.5C9.75 6.60774 9.7072 6.71108 9.63101 6.78726C9.55483 6.86345 9.4515 6.90625 9.34375 6.90625H6.5C6.39226 6.90625 6.28893 6.86345 6.21274 6.78726C6.13655 6.71108 6.09375 6.60774 6.09375 6.5V3.65625C6.09375 3.54851 6.13655 3.44517 6.21274 3.36899C6.28893 3.2928 6.39226 3.25 6.5 3.25C6.60775 3.25 6.71108 3.2928 6.78726 3.36899C6.86345 3.44517 6.90625 3.54851 6.90625 3.65625V6.09375H9.34375C9.4515 6.09375 9.55483 6.13655 9.63101 6.21274C9.7072 6.28892 9.75 6.39226 9.75 6.5Z" fill="#777777"/>
</g>
</svg>
