<svg width="24" height="17" viewBox="0 0 24 17" fill="none" xmlns="http://www.w3.org/2000/svg">
<path d="M21.1648 16.3875H2.86152C1.28188 16.3858 0.00178274 15.1057 0 13.5262V13.526C0.0023457 12.3866 0.662333 11.4019 1.62051 10.9311L1.63754 10.9236L1.65738 10.9142L12.01 6.22812L22.3605 10.9277C23.3378 11.3996 24 12.383 24 13.5211C24 15.0927 22.7373 16.3693 21.171 16.3917H21.1689L21.1648 16.3875ZM2.53148 12.8117C2.26731 12.9451 2.0892 13.2142 2.08871 13.5249V13.525C2.08871 13.952 2.43458 14.2983 2.86148 14.2988H21.1512C21.5714 14.2895 21.9088 13.9475 21.9104 13.5262V13.526C21.9104 13.2149 21.7322 12.9453 21.4722 12.8138L21.4676 12.8117L12.01 8.52156L2.53148 12.8117ZM13.0544 7.37484H10.9657V7.0615C11.0213 5.85081 11.651 4.79813 12.5871 4.16338L12.6001 4.15508C12.8439 3.98075 13.001 3.69853 13.001 3.37964C13.001 2.85476 12.5755 2.42927 12.0507 2.42927C11.5258 2.42927 11.1003 2.85478 11.1003 3.37964C11.1003 3.38456 11.1003 3.38956 11.1004 3.39448V3.39378L9.01173 3.4251C9.01149 3.41079 9.01135 3.39385 9.01135 3.37691C9.01135 1.69852 10.372 0.337891 12.0504 0.337891C13.7288 0.337891 15.0894 1.69847 15.0894 3.37687C15.0894 4.40607 14.5778 5.31576 13.7951 5.86552L13.7666 5.88452C13.3578 6.15944 13.0847 6.60911 13.0546 7.12399L13.0544 7.12833V7.37484Z" fill="#1C1949"/>
</svg>
