<svg width="195" height="183" viewBox="0 0 195 183" fill="none" xmlns="http://www.w3.org/2000/svg">
<g clip-path="url(#clip0_1546_1823)">
<path d="M97.9997 186.304C151.541 186.304 194.945 183.77 194.945 180.644C194.945 177.518 151.541 174.984 97.9997 174.984C44.4584 174.984 1.05469 177.518 1.05469 180.644C1.05469 183.77 44.4584 186.304 97.9997 186.304Z" fill="#F5F5F5"/>
<path d="M72.0953 142.341C66.1903 142.341 61.4053 147.126 61.4053 153.031C61.4053 158.936 66.1903 163.721 72.0953 163.721H74.2303V142.336H72.0953V142.341Z" fill="#263238"/>
<path d="M150.01 142.341C144.105 142.341 139.32 147.126 139.32 153.031C139.32 158.936 144.105 163.721 150.01 163.721H152.145V142.336H150.01V142.341Z" fill="#263238"/>
<path d="M114.7 163.72C120.604 163.72 125.39 158.934 125.39 153.03C125.39 147.126 120.604 142.34 114.7 142.34C108.796 142.34 104.01 147.126 104.01 153.03C104.01 158.934 108.796 163.72 114.7 163.72Z" fill="#263238"/>
<path d="M36.7896 163.72C42.6935 163.72 47.4796 158.934 47.4796 153.03C47.4796 147.126 42.6935 142.34 36.7896 142.34C30.8857 142.34 26.0996 147.126 26.0996 153.03C26.0996 158.934 30.8857 163.72 36.7896 163.72Z" fill="#263238"/>
<path d="M126.31 96.3496H85.7451V147.89H126.31V96.3496Z" fill="#407BFF"/>
<path opacity="0.2" d="M126.31 96.3496H85.7451V147.89H126.31V96.3496Z" fill="black"/>
<path d="M126.31 147.89H176.69V125.5C176.69 123.84 176.1 122.23 175.02 120.965L159.345 102.57C155.98 98.6246 151.055 96.3496 145.87 96.3496H126.31V147.89Z" fill="#407BFF"/>
<path d="M134.565 123.4V104.45C134.565 102.735 135.955 101.34 137.675 101.34H142.51C147.62 101.34 152.475 103.58 155.79 107.47L167.645 121.38C168.125 121.945 168.39 122.66 168.39 123.395C168.39 125.11 167 126.505 165.28 126.505H137.675C135.96 126.505 134.565 125.115 134.565 123.395V123.4Z" fill="white"/>
<path d="M176.69 141.801H170.47C168.995 141.801 168.065 140.216 168.785 138.926L169.835 137.051C170.175 136.441 170.82 136.061 171.52 136.061H176.69V141.801Z" fill="white"/>
<path d="M117.355 87.6953H19.3096V147.89H117.355V87.6953Z" fill="#407BFF"/>
<path opacity="0.6" d="M117.355 87.6953H19.3096V147.89H117.355V87.6953Z" fill="white"/>
<path opacity="0.5" d="M62.5453 138.715H45.8604V142.34H62.5453V138.715Z" fill="#407BFF"/>
<path opacity="0.5" d="M23.8896 138.715H19.3096V142.34H23.8896V138.715Z" fill="#407BFF"/>
<path opacity="0.4" d="M53.1796 87.6953H19.3096V147.89H53.1796V87.6953Z" fill="#407BFF"/>
<path opacity="0.4" d="M34.5303 87.6953H33.9854V147.89H34.5303V87.6953Z" fill="#407BFF"/>
<path d="M177.18 147.891H18.82C18.3671 147.891 18 148.258 18 148.711V151.246C18 151.698 18.3671 152.066 18.82 152.066H177.18C177.633 152.066 178 151.698 178 151.246V148.711C178 148.258 177.633 147.891 177.18 147.891Z" fill="#263238"/>
<path d="M152.145 163.72C158.049 163.72 162.835 158.934 162.835 153.03C162.835 147.126 158.049 142.34 152.145 142.34C146.241 142.34 141.455 147.126 141.455 153.03C141.455 158.934 146.241 163.72 152.145 163.72Z" fill="#263238"/>
<path d="M152.145 159.91C155.944 159.91 159.025 156.83 159.025 153.03C159.025 149.231 155.944 146.15 152.145 146.15C148.345 146.15 145.265 149.231 145.265 153.03C145.265 156.83 148.345 159.91 152.145 159.91Z" fill="white"/>
<path d="M74.2349 163.72C80.1388 163.72 84.9249 158.934 84.9249 153.03C84.9249 147.126 80.1388 142.34 74.2349 142.34C68.331 142.34 63.5449 147.126 63.5449 153.03C63.5449 158.934 68.331 163.72 74.2349 163.72Z" fill="#263238"/>
<path d="M74.2355 159.91C78.0352 159.91 81.1155 156.83 81.1155 153.03C81.1155 149.231 78.0352 146.15 74.2355 146.15C70.4357 146.15 67.3555 149.231 67.3555 153.03C67.3555 156.83 70.4357 159.91 74.2355 159.91Z" fill="white"/>
<path d="M88.1696 176.289L83.9196 176.224L82.7646 166.369L87.0097 166.439L88.1696 176.289Z" fill="#407BFF"/>
<path d="M83.8101 175.735L88.4401 175.81C88.6151 175.81 88.7501 175.935 88.7701 176.105L89.1751 179.895C89.2151 180.29 88.8751 180.655 88.4801 180.64C86.8151 180.585 84.4101 180.45 82.3101 180.415C79.8551 180.375 80.0951 180.475 77.2151 180.43C75.4751 180.405 75.1951 178.63 75.9401 178.485C79.3401 177.81 79.6851 177.775 82.7551 176.05C83.0901 175.865 83.4501 175.73 83.8151 175.735H83.8101Z" fill="#263238"/>
<path d="M79.6596 49.2746C78.2696 52.2496 76.7796 55.0546 75.1246 57.8496C74.2996 59.2396 73.4446 60.6246 72.5146 61.9846C72.0646 62.6646 71.5796 63.3446 71.0996 64.0196C70.5896 64.6896 70.0996 65.3546 69.5446 66.0146L69.1346 66.5096C69.0396 66.6246 68.7696 66.9596 68.4646 67.2446C68.3146 67.3896 68.1496 67.5296 67.9546 67.6696C67.7796 67.8096 67.5596 67.9446 67.3446 68.0646C66.8946 68.3096 66.3746 68.5096 65.8296 68.5996C64.7196 68.7996 63.7196 68.5546 62.9996 68.2596C62.2746 67.9496 61.7496 67.5796 61.2946 67.2196C60.4046 66.4896 59.7796 65.7546 59.2246 65.0146C58.6746 64.2796 58.2046 63.5446 57.7646 62.8046C56.9046 61.3246 56.1846 59.8346 55.5446 58.3246C54.9046 56.8096 54.3396 55.3096 53.8596 53.7096C53.5846 52.7846 54.1046 51.8146 55.0296 51.5346C55.7946 51.3046 56.5946 51.6246 57.0046 52.2696L57.0346 52.3146C58.6646 54.8846 60.3496 57.5396 62.1696 59.7996C62.6196 60.3646 63.0796 60.8996 63.5446 61.3696C64.0046 61.8346 64.4746 62.2446 64.8446 62.4646C65.0196 62.5696 65.1696 62.6246 65.1796 62.5996C65.1896 62.5746 64.9996 62.4846 64.6646 62.5196C64.3346 62.5646 64.0996 62.7246 64.0646 62.7496C64.0396 62.7596 64.0146 62.7896 64.1596 62.5846L64.4696 62.1396C66.1096 59.7546 67.6296 57.0896 69.0896 54.4046C70.5446 51.7246 71.9846 48.9446 73.3496 46.2546L73.3746 46.2046C74.2496 44.4796 76.3546 43.7896 78.0796 44.6646C79.7696 45.5196 80.4646 47.5646 79.6696 49.2696L79.6596 49.2746Z" fill="#407BFF"/>
<path d="M57.1952 53.5152L56.0552 48.7852L51.6152 50.7002C51.6152 50.7002 52.0102 54.4602 55.1202 54.9252L57.1952 53.5202V53.5152Z" fill="#263238"/>
<path d="M56.9597 52.3594C56.9597 52.3594 58.4047 54.2194 58.7547 54.7294C58.2447 55.2194 54.9797 56.8844 54.7247 56.7194C54.3047 55.5344 53.7197 53.9744 53.7197 53.9744L56.9597 52.3644V52.3594Z" fill="#263238"/>
<path d="M52.7301 45.7854L51.0951 47.3554C50.8251 47.6154 50.7251 48.0104 50.8451 48.3704L51.6151 50.7004L56.0551 48.7854L54.2301 45.9604C53.8951 45.4454 53.1751 45.3604 52.7301 45.7854Z" fill="#263238"/>
<path d="M55.25 51.3097C55.095 50.3497 56.055 47.3397 56.865 46.9097C57.67 46.4797 57.205 48.5547 57.31 49.2547C57.6 51.1797 57.7 53.0097 56.715 52.9097C55.73 52.8097 55.52 52.9847 55.25 51.3147V51.3097Z" fill="#263238"/>
<path opacity="0.2" d="M82.7646 166.375L83.3596 171.45L87.6096 171.52L87.0146 166.44L82.7646 166.375Z" fill="black"/>
<path d="M76.2253 43.6041C84.3053 42.5891 92.1253 43.6841 96.3853 44.5091C98.1953 44.8591 99.3503 46.6241 98.9753 48.4291C95.8053 63.5791 96.3003 78.8241 96.0353 82.0591C96.0353 82.0591 73.3153 81.6941 73.3153 81.6891C71.7603 63.1141 72.7403 51.2841 73.3403 46.4641C73.5253 44.9591 74.7203 43.7891 76.2253 43.5991V43.6041Z" fill="#407BFF"/>
<path d="M90.5748 32.8945C89.8548 35.9495 89.0348 41.5795 91.1348 43.8095C89.3848 45.3595 87.1048 47.1295 83.4098 46.9845C79.7148 46.8395 80.4498 44.3545 81.4748 43.0945C84.9698 42.5245 84.9748 39.9545 84.4598 37.5045L90.5748 32.8945Z" fill="#FFB573"/>
<path opacity="0.2" d="M88.0848 34.7745L84.4648 37.4995C84.5898 38.0795 84.6798 38.6645 84.6998 39.2295C86.0298 39.1345 87.8998 37.8245 88.0948 36.4495C88.1898 35.7645 88.1848 35.0995 88.0848 34.7695V34.7745Z" fill="black"/>
<path d="M91.6053 28.2601C91.0753 32.4351 90.9753 34.91 88.7103 36.905C85.3103 39.905 80.2503 37.6 79.5253 33.335C78.8703 29.5 79.8503 23.3101 84.0703 21.9501C88.2253 20.6051 92.1403 24.0801 91.6053 28.2601Z" fill="#FFB573"/>
<path d="M91.8504 31.8844C90.1954 32.8744 88.3154 32.3944 88.1604 31.3344C88.0054 30.2744 89.2254 28.4694 89.6904 27.5844C89.5604 26.0844 88.5004 25.6444 88.6954 24.5844C87.4604 24.6944 80.7304 25.0044 80.8854 23.4844C81.0454 21.9644 83.7204 20.3994 86.9004 20.7944C90.0854 21.1894 92.1454 22.5694 91.8454 24.4994C93.5854 24.2144 94.4054 27.2094 91.8454 31.8844H91.8504Z" fill="#263238"/>
<path d="M93.3249 32.5146C92.7349 33.4796 91.7499 34.0746 90.8349 34.2746C89.4649 34.5696 88.8499 33.3246 89.2899 32.0696C89.6849 30.9446 90.8799 29.4296 92.2249 29.6946C93.5549 29.9546 93.9999 31.4096 93.3249 32.5096V32.5146Z" fill="#FFB573"/>
<path d="M86.4852 123.855C86.3152 102.495 91.0402 81.9803 91.0402 81.9803L73.3252 81.6953C73.3252 81.6953 75.3602 112.545 76.0702 125.47C76.8052 138.905 81.6602 170.45 81.6602 170.45L88.8502 170.56C88.8502 170.56 87.4752 140.715 86.4802 123.86L86.4852 123.855Z" fill="#407BFF"/>
<path opacity="0.4" d="M86.4852 123.855C86.3152 102.495 91.0402 81.9803 91.0402 81.9803L73.3252 81.6953C73.3252 81.6953 75.3602 112.545 76.0702 125.47C76.8052 138.905 81.6602 170.45 81.6602 170.45L88.8502 170.56C88.8502 170.56 87.4752 140.715 86.4802 123.86L86.4852 123.855Z" fill="black"/>
<path opacity="0.2" d="M87.1897 93.729C82.1397 100.639 84.4097 113.644 86.4797 122.829C86.4747 111.409 87.8247 100.324 89.0547 92.584L87.1847 93.729H87.1897Z" fill="black"/>
<path d="M80.7197 167.67L81.1847 170.6L89.1347 170.735L89.5847 167.965L80.7197 167.67Z" fill="#263238"/>
<path d="M86.0148 28.9553C85.9948 29.2953 85.7948 29.5603 85.5698 29.5453C85.3448 29.5303 85.1848 29.2403 85.2048 28.8953C85.2248 28.5553 85.4248 28.2903 85.6498 28.3053C85.8748 28.3203 86.0348 28.6103 86.0148 28.9553Z" fill="#263238"/>
<path d="M81.5949 28.4651C81.5749 28.8051 81.3749 29.0701 81.1499 29.0551C80.9249 29.0401 80.7649 28.7501 80.7849 28.4051C80.8049 28.0651 81.0049 27.8001 81.2299 27.8151C81.4549 27.8301 81.6149 28.1201 81.5949 28.4651Z" fill="#263238"/>
<path d="M82.5106 28.7402C82.5106 28.7402 81.6055 30.6552 80.6855 31.5402C81.2555 32.1502 82.3006 31.9702 82.3006 31.9702L82.5106 28.7402Z" fill="#ED893E"/>
<path d="M83.6805 33.179C84.9905 33.099 85.6555 32.244 85.6855 32.204C85.7205 32.159 85.7105 32.099 85.6655 32.064C85.6205 32.029 85.5605 32.039 85.5255 32.084C85.5155 32.094 84.7455 33.089 83.2505 32.979C83.1955 32.979 83.1455 33.014 83.1455 33.074C83.1455 33.129 83.1855 33.179 83.2405 33.184C83.3955 33.194 83.5455 33.194 83.6855 33.184L83.6805 33.179Z" fill="#263238"/>
<path d="M86.7198 27.8147C86.7548 27.8147 86.7848 27.8047 86.8148 27.7847C86.9098 27.7247 86.9349 27.5997 86.8699 27.5047C86.2599 26.5697 85.3298 26.5547 85.2898 26.5547C85.1798 26.5547 85.0898 26.6447 85.0898 26.7547C85.0898 26.8647 85.1798 26.9547 85.2898 26.9547C85.3198 26.9547 86.0449 26.9747 86.5349 27.7197C86.5749 27.7847 86.6448 27.8147 86.7148 27.8097L86.7198 27.8147Z" fill="#263238"/>
<path d="M79.7002 26.8806C79.7652 26.8906 79.8303 26.8656 79.8753 26.8156C80.4553 26.1456 81.1703 26.2306 81.2053 26.2356C81.3153 26.2506 81.4153 26.1706 81.4303 26.0656C81.4453 25.9606 81.3652 25.8556 81.2552 25.8406C81.2152 25.8406 80.2953 25.7156 79.5703 26.5556C79.5003 26.6406 79.5102 26.7656 79.5902 26.8406C79.6202 26.8656 79.6603 26.8856 79.6953 26.8906L79.7002 26.8806Z" fill="#263238"/>
<path d="M110.68 176.289L106.425 176.224L104.675 166.369L108.925 166.439L110.68 176.289Z" fill="#407BFF"/>
<path d="M106.195 175.735L110.83 175.81C111.005 175.81 111.145 175.935 111.17 176.105L111.71 179.895C111.765 180.29 111.44 180.655 111.04 180.64C109.37 180.585 108.84 180.45 106.74 180.415C104.285 180.375 105.42 180.475 102.54 180.43C100.8 180.405 100.455 178.64 101.195 178.485C103.535 177.99 104.12 177.05 105.15 176.05C105.42 175.79 105.83 175.73 106.2 175.735H106.195Z" fill="#263238"/>
<path d="M107.08 176.179C106.34 176.199 105.95 176.164 105.76 175.839C105.57 175.514 104.905 174.529 104.95 174.164C104.995 173.794 107.985 173.504 108.285 174.089C108.58 174.679 108.58 176.134 107.08 176.174V176.179Z" fill="#263238"/>
<path d="M83.6505 176.179C83.1905 176.199 82.9455 176.164 82.8355 175.839C82.7255 175.514 82.3305 174.529 82.3655 174.164C82.4005 173.794 84.2755 173.504 84.4455 174.089C84.6205 174.679 84.5855 176.134 83.6455 176.174L83.6505 176.179Z" fill="#263238"/>
<path opacity="0.2" d="M104.675 166.375L105.58 171.45L109.835 171.52L108.93 166.44L104.675 166.375Z" fill="black"/>
<path d="M103.406 121.324C101.411 102.089 99.0605 86.3195 96.0455 82.0545L81.0205 81.8145C81.0205 81.8145 89.7905 111.999 93.1755 124.714C96.6905 137.939 103.581 169.184 103.581 169.184L110.431 169.279C110.431 169.279 107.576 136.354 103.406 121.319V121.324Z" fill="#407BFF"/>
<path opacity="0.4" d="M103.406 121.324C101.411 102.089 99.0605 86.3195 96.0455 82.0545L81.0205 81.8145C81.0205 81.8145 89.7905 111.999 93.1755 124.714C96.6905 137.939 103.581 169.184 103.581 169.184L110.431 169.279C110.431 169.279 107.576 136.354 103.406 121.319V121.324Z" fill="black"/>
<path d="M102.7 167.67L103.255 170.6L110.945 170.735L111.285 167.965L102.7 167.67Z" fill="#263238"/>
<path d="M86.0848 50.0751C86.0448 49.0051 84.8098 47.5651 84.0098 46.9901C89.9348 45.3551 91.0498 43.2051 91.0498 43.2051C91.0498 43.2051 91.7398 43.3851 92.2598 43.7251C92.6098 47.0451 88.5198 49.3101 86.0848 50.0751Z" fill="white"/>
<path d="M82.5904 46.9055C81.5104 47.3105 80.0904 48.6055 79.4854 49.8555C77.0204 45.4555 80.4654 42.9155 80.4654 42.9155C80.4654 42.9155 81.3104 42.7005 81.6454 42.8355C80.9804 44.3005 81.7654 46.2405 82.5904 46.9055Z" fill="white"/>
<path d="M117.766 51.9965L80.1279 57.8164L84.3456 85.0923L121.983 79.2724L117.766 51.9965Z" fill="#407BFF"/>
<path opacity="0.9" d="M117.766 51.9965L80.1279 57.8164L84.3456 85.0923L121.983 79.2724L117.766 51.9965Z" fill="white"/>
<path opacity="0.2" d="M117.768 51.9854L98.1465 55.0195L102.364 82.2954L121.986 79.2613L117.768 51.9854Z" fill="#407BFF"/>
<path opacity="0.3" d="M90.3342 76.4746L85.6104 77.2051L86.3225 81.8103L91.0463 81.0799L90.3342 76.4746Z" fill="#407BFF"/>
<path opacity="0.3" d="M89.4514 70.7656L84.7275 71.4961L85.4396 76.1014L90.1635 75.3709L89.4514 70.7656Z" fill="#407BFF"/>
<path opacity="0.5" d="M92.2595 55.929L85.5986 56.959L85.9539 59.2567L92.6148 58.2267L92.2595 55.929Z" fill="#407BFF"/>
<path opacity="0.5" d="M113.093 52.7081L108.414 53.4316L108.769 55.7293L113.449 55.0058L113.093 52.7081Z" fill="#407BFF"/>
<path d="M97.6155 45.0052C100.516 46.3952 103.241 47.9452 105.941 49.7452C107.286 50.6552 108.616 51.6152 109.926 52.7602C110.581 53.3352 111.236 53.9502 111.886 54.6952C112.211 55.0702 112.531 55.4852 112.851 55.9702C113.166 56.4602 113.491 57.0252 113.741 57.8052C113.861 58.2002 113.966 58.6402 113.991 59.1652C114.001 59.3252 113.991 59.3302 113.991 59.4002V59.5752L113.976 59.9202L113.951 60.6102L113.891 61.2552C113.851 61.6852 113.801 62.1152 113.736 62.5202C113.671 62.9302 113.621 63.3452 113.541 63.7402C113.276 65.3502 112.881 66.8902 112.491 68.4202C111.666 71.4702 110.706 74.4152 109.506 77.3352C109.141 78.2302 108.121 78.6552 107.226 78.2902C106.486 77.9852 106.061 77.2302 106.151 76.4702V76.4302C106.511 73.4252 106.946 70.4002 107.261 67.4302C107.436 65.9502 107.571 64.4652 107.661 63.0352C107.691 62.6702 107.691 62.3252 107.711 61.9752C107.731 61.6202 107.726 61.2802 107.721 60.9452V60.4402L107.696 59.9802L107.681 59.7502V59.6352C107.671 59.6102 107.671 59.5202 107.671 59.5852C107.676 59.7302 107.686 59.7952 107.686 59.8252C107.691 59.8802 107.631 59.7702 107.511 59.6352C107.396 59.4952 107.231 59.3102 107.036 59.1252C106.651 58.7402 106.161 58.3252 105.641 57.9252C104.581 57.1202 103.396 56.3302 102.166 55.5752C99.7105 54.0652 97.0705 52.6302 94.4955 51.2702L94.4605 51.2502C92.7505 50.3452 92.1005 48.2302 93.0005 46.5202C93.8805 44.8552 95.9205 44.1952 97.6055 45.0002L97.6155 45.0052Z" fill="#407BFF"/>
<path d="M106.535 75.6797L103.99 79.1397L108.83 80.9097C108.83 80.9097 110.755 77.4947 109.105 76.1797L106.535 75.6797Z" fill="#263238"/>
<path d="M104.626 83.5606L106.426 83.8956C107.141 84.0306 107.851 83.6206 108.101 82.9356L108.831 80.9106L103.991 79.1406L103.441 81.7906C103.271 82.6106 103.806 83.4056 104.626 83.5556V83.5606Z" fill="#263238"/>
<path d="M106.115 76.6358C106.115 76.6358 106.205 74.2858 106.265 73.6658C106.97 73.6208 110.54 74.4458 110.63 74.7408C110.19 75.9158 109.63 77.4908 109.63 77.4908L106.115 76.6358Z" fill="#263238"/>
<path d="M93.9053 27.5398C91.4953 27.2698 81.5703 24.8548 80.6503 23.8998C80.5853 22.0548 81.6603 20.1898 82.3053 19.7698C84.1303 18.5698 88.1453 18.5248 89.4203 18.8848C90.6953 19.2448 94.1803 21.0198 94.7603 22.7298C95.2103 24.0648 93.9003 27.5348 93.9003 27.5348L93.9053 27.5398Z" fill="#407BFF"/>
<path d="M83.8905 23.3041C80.8455 22.8291 77.9505 23.0441 76.9255 24.5841C75.7805 26.3041 79.5505 23.7441 81.8005 24.8491C85.5705 26.6991 84.6705 26.9891 90.3805 26.8691C87.4455 25.3591 87.4255 23.8591 83.8955 23.3091L83.8905 23.3041Z" fill="#407BFF"/>
<path opacity="0.6" d="M83.8905 23.3041C80.8455 22.8291 77.9505 23.0441 76.9255 24.5841C75.7805 26.3041 79.5505 23.7441 81.8005 24.8491C85.5705 26.6991 84.6705 26.9891 90.3805 26.8691C87.4455 25.3591 87.4255 23.8591 83.8955 23.3091L83.8905 23.3041Z" fill="white"/>
<path d="M33.0981 102V117.351V133H28V118.355V102H33.0981Z" fill="#0E5AC4"/>
<path d="M34.2241 133V117.962L44.8889 133H34.2241Z" fill="#0E5AC4"/>
<path d="M34.123 117.721V102.11C34.123 102.11 39.4574 101.455 41.7979 103.342C43.779 104.94 44.4295 106.651 44.5969 109.152C44.7918 112.064 44.0649 114.203 41.7979 116.107C39.475 118.058 34.123 117.721 34.123 117.721Z" fill="#0E5AC4"/>
<path d="M76.2075 51V53.9712V57H75V54.1654V51H76.2075Z" fill="#0E5AC4"/>
<path d="M76.4741 57V54.0893L79 57H76.4741Z" fill="#0E5AC4"/>
<path d="M76.4502 54.0427V51.0213C76.4502 51.0213 77.7136 50.8945 78.2679 51.2598C78.7371 51.5691 78.8912 51.9002 78.9309 52.3843C78.977 52.9478 78.8049 53.3618 78.2679 53.7303C77.7178 54.108 76.4502 54.0427 76.4502 54.0427Z" fill="#0E5AC4"/>
<path d="M88.7041 60.6475L89.3794 64.7928L90.0677 69.0184L88.3832 69.2928L87.7389 65.3382L87.0195 60.9219L88.7041 60.6475Z" fill="#0E5AC4"/>
<path d="M90.4398 68.9578L89.7783 64.897L93.9638 68.3838L90.4398 68.9578Z" fill="#0E5AC4"/>
<path d="M89.7345 64.8349L89.0478 60.6196C89.0478 60.6196 90.7816 60.1555 91.638 60.5392C92.3629 60.8641 92.6531 61.291 92.8185 61.9574C93.011 62.7331 92.8649 63.3498 92.1995 63.986C91.5178 64.6379 89.7345 64.8349 89.7345 64.8349Z" fill="#0E5AC4"/>
</g>
<defs>
<clipPath id="clip0_1546_1823">
<rect width="195" height="186" fill="white"/>
</clipPath>
</defs>
</svg>
