<svg width="20" height="20" viewBox="0 0 20 20" fill="none" xmlns="http://www.w3.org/2000/svg">
<mask id="mask0_1_8310" style="mask-type:alpha" maskUnits="userSpaceOnUse" x="0" y="0" width="20" height="20">
<rect width="20" height="20" fill="#D9D9D9"/>
</mask>
<g mask="url(#mask0_1_8310)">
<path d="M7.25033 17.5C6.43088 17.5 5.88574 17.3611 5.61491 17.0833C5.34408 16.8056 4.95866 16.6667 4.45866 16.6667C4.26421 16.6667 4.07671 16.7014 3.89616 16.7708C3.7156 16.8403 3.38227 17.0139 2.89616 17.2917C2.61838 17.4444 2.34408 17.441 2.07324 17.2813C1.80241 17.1215 1.66699 16.8819 1.66699 16.5625C1.66699 16.4097 1.70519 16.2674 1.78158 16.1354C1.85796 16.0035 1.9656 15.9028 2.10449 15.8333C2.77116 15.4722 3.23296 15.2431 3.48991 15.1458C3.74685 15.0486 4.06977 15 4.45866 15C5.25033 15 5.78158 15.1389 6.05241 15.4167C6.32324 15.6944 6.70866 15.8333 7.20866 15.8333C7.73644 15.8333 8.1288 15.6944 8.38574 15.4167C8.64269 15.1389 9.18088 15 10.0003 15C10.792 15 11.3267 15.1389 11.6045 15.4167C11.8823 15.6944 12.2642 15.8333 12.7503 15.8333C13.2781 15.8333 13.6705 15.6944 13.9274 15.4167C14.1844 15.1389 14.7225 15 15.542 15C15.9309 15 16.2573 15.0486 16.5212 15.1458C16.785 15.2431 17.2434 15.4722 17.8962 15.8333C18.035 15.9028 18.1427 16.0035 18.2191 16.1354C18.2955 16.2674 18.3337 16.4097 18.3337 16.5625C18.3337 16.8819 18.1948 17.1215 17.917 17.2813C17.6392 17.441 17.3614 17.4444 17.0837 17.2917C16.5975 17.0139 16.2677 16.8403 16.0941 16.7708C15.9205 16.7014 15.7364 16.6667 15.542 16.6667C15.042 16.6667 14.6635 16.8056 14.4066 17.0833C14.1496 17.3611 13.6114 17.5 12.792 17.5C12.0003 17.5 11.4621 17.3611 11.1774 17.0833C10.8927 16.8056 10.5003 16.6667 10.0003 16.6667C9.47255 16.6667 9.08713 16.8056 8.84408 17.0833C8.60102 17.3611 8.06977 17.5 7.25033 17.5ZM5.00033 3.33333C5.00033 3.56944 4.92046 3.76736 4.76074 3.92708C4.60102 4.08681 4.4031 4.16667 4.16699 4.16667H3.33366C3.09755 4.16667 2.89963 4.08681 2.73991 3.92708C2.58019 3.76736 2.50033 3.56944 2.50033 3.33333C2.50033 3.09722 2.58019 2.89931 2.73991 2.73958C2.89963 2.57986 3.09755 2.5 3.33366 2.5H4.16699C4.4031 2.5 4.60102 2.57986 4.76074 2.73958C4.92046 2.89931 5.00033 3.09722 5.00033 3.33333ZM6.27116 6.39583C6.43783 6.5625 6.52116 6.76042 6.52116 6.98958C6.52116 7.21875 6.43783 7.41667 6.27116 7.58333L5.68783 8.16667C5.53505 8.31944 5.34408 8.39583 5.11491 8.39583C4.88574 8.39583 4.68783 8.31944 4.52116 8.16667C4.35449 8 4.27116 7.80208 4.27116 7.57292C4.27116 7.34375 4.35449 7.14583 4.52116 6.97917L5.10449 6.39583C5.25727 6.24306 5.44824 6.16667 5.67741 6.16667C5.90658 6.16667 6.10449 6.24306 6.27116 6.39583ZM10.0003 6.66667C8.84755 6.66667 7.86491 6.26042 7.05241 5.44792C6.23991 4.63542 5.83366 3.65278 5.83366 2.5H7.50033C7.50033 3.19444 7.74338 3.78472 8.22949 4.27083C8.7156 4.75694 9.30588 5 10.0003 5C10.6948 5 11.285 4.75694 11.7712 4.27083C12.2573 3.78472 12.5003 3.19444 12.5003 2.5H14.167C14.167 3.65278 13.7607 4.63542 12.9482 5.44792C12.1357 6.26042 11.1531 6.66667 10.0003 6.66667ZM10.0003 7.5C10.2364 7.5 10.4344 7.57986 10.5941 7.73958C10.7538 7.89931 10.8337 8.09722 10.8337 8.33333V9.16667C10.8337 9.40278 10.7538 9.60069 10.5941 9.76042C10.4344 9.92014 10.2364 10 10.0003 10C9.76421 10 9.5663 9.92014 9.40658 9.76042C9.24685 9.60069 9.16699 9.40278 9.16699 9.16667V8.33333C9.16699 8.09722 9.24685 7.89931 9.40658 7.73958C9.5663 7.57986 9.76421 7.5 10.0003 7.5ZM13.7295 6.41667C13.8823 6.26389 14.0767 6.1875 14.3128 6.1875C14.5489 6.1875 14.7434 6.26389 14.8962 6.41667L15.4795 7C15.6462 7.16667 15.733 7.36111 15.7399 7.58333C15.7469 7.80556 15.667 8 15.5003 8.16667C15.3337 8.33333 15.1357 8.41667 14.9066 8.41667C14.6774 8.41667 14.4795 8.33333 14.3128 8.16667L13.7295 7.58333C13.5767 7.41667 13.4969 7.22222 13.4899 7C13.483 6.77778 13.5628 6.58333 13.7295 6.41667ZM17.5003 3.33333C17.5003 3.56944 17.4205 3.76736 17.2607 3.92708C17.101 4.08681 16.9031 4.16667 16.667 4.16667H15.8337C15.5975 4.16667 15.3996 4.08681 15.2399 3.92708C15.0802 3.76736 15.0003 3.56944 15.0003 3.33333C15.0003 3.09722 15.0802 2.89931 15.2399 2.73958C15.3996 2.57986 15.5975 2.5 15.8337 2.5H16.667C16.9031 2.5 17.101 2.57986 17.2607 2.73958C17.4205 2.89931 17.5003 3.09722 17.5003 3.33333ZM7.25033 14.1667C6.43088 14.1667 5.88574 14.0278 5.61491 13.75C5.34408 13.4722 4.95866 13.3333 4.45866 13.3333C4.26421 13.3333 4.07671 13.3681 3.89616 13.4375C3.7156 13.5069 3.38227 13.6806 2.89616 13.9583C2.61838 14.1111 2.34408 14.1076 2.07324 13.9479C1.80241 13.7882 1.66699 13.5486 1.66699 13.2292C1.66699 13.0764 1.70519 12.934 1.78158 12.8021C1.85796 12.6701 1.9656 12.5694 2.10449 12.5C2.77116 12.1389 3.23296 11.9097 3.48991 11.8125C3.74685 11.7153 4.06977 11.6667 4.45866 11.6667C5.25033 11.6667 5.78158 11.8056 6.05241 12.0833C6.32324 12.3611 6.70866 12.5 7.20866 12.5C7.73644 12.5 8.1288 12.3611 8.38574 12.0833C8.64269 11.8056 9.18088 11.6667 10.0003 11.6667C10.792 11.6667 11.3267 11.8056 11.6045 12.0833C11.8823 12.3611 12.2642 12.5 12.7503 12.5C13.2781 12.5 13.6705 12.3611 13.9274 12.0833C14.1844 11.8056 14.7225 11.6667 15.542 11.6667C15.9309 11.6667 16.2573 11.7153 16.5212 11.8125C16.785 11.9097 17.2434 12.1389 17.8962 12.5C18.035 12.5694 18.1427 12.6701 18.2191 12.8021C18.2955 12.934 18.3337 13.0764 18.3337 13.2292C18.3337 13.5486 18.1948 13.7882 17.917 13.9479C17.6392 14.1076 17.3614 14.1111 17.0837 13.9583C16.5975 13.6806 16.2677 13.5069 16.0941 13.4375C15.9205 13.3681 15.7364 13.3333 15.542 13.3333C15.042 13.3333 14.6635 13.4722 14.4066 13.75C14.1496 14.0278 13.6114 14.1667 12.792 14.1667C12.0003 14.1667 11.4621 14.0278 11.1774 13.75C10.8927 13.4722 10.5003 13.3333 10.0003 13.3333C9.47255 13.3333 9.08713 13.4722 8.84408 13.75C8.60102 14.0278 8.06977 14.1667 7.25033 14.1667Z" fill="#1C1B1F"/>
</g>
</svg>
