<svg width="174" height="173" viewBox="0 0 174 173" fill="none" xmlns="http://www.w3.org/2000/svg">
<g id="CheckCircle">
<path id="Vector" d="M156.306 62.8878C155.836 62.2867 155.258 61.8047 154.608 61.4738C153.959 61.1429 153.254 60.9708 152.541 60.9689H124.699L91.0458 17.9037C90.5747 17.3054 89.9954 16.8262 89.3462 16.498C88.6971 16.1698 87.993 16 87.2808 16C86.5686 16 85.8645 16.1698 85.2154 16.498C84.5662 16.8262 83.9869 17.3054 83.5158 17.9037L49.8627 60.9689H22.0204C21.3049 60.9689 20.5977 61.1401 19.9462 61.4712C19.2946 61.8022 18.7138 62.2855 18.2426 62.8885C17.7714 63.4915 17.4207 64.2004 17.214 64.9676C17.0073 65.7348 16.9495 66.5427 17.0443 67.337L26.5007 146.804C26.8306 149.501 28.0195 151.974 29.8483 153.766C31.6771 155.559 34.0227 156.551 36.453 156.56H138.109C140.539 156.551 142.884 155.559 144.713 153.766C146.542 151.974 147.731 149.501 148.061 146.804L157.517 67.337C157.611 66.5415 157.551 65.7329 157.342 64.9655C157.133 64.1981 156.78 63.4897 156.306 62.8878ZM58.1646 134.068C57.9953 134.078 57.8256 134.078 57.6563 134.068C56.4075 134.075 55.2012 133.56 54.2729 132.625C53.3447 131.689 52.7612 130.399 52.6363 129.007L49.1223 89.6462C48.9891 88.1624 49.3877 86.6801 50.2303 85.5254C51.0729 84.3707 52.2905 83.6382 53.6152 83.4891C54.9399 83.3399 56.2633 83.7864 57.2942 84.7302C58.3251 85.674 58.979 87.0378 59.1121 88.5216L62.6262 127.883C62.7667 129.366 62.3757 130.85 61.539 132.01C60.7023 133.17 59.4885 133.91 58.1646 134.068ZM92.3008 128.445C92.3008 129.936 91.7719 131.367 90.8305 132.421C89.8891 133.476 88.6122 134.068 87.2808 134.068C85.9494 134.068 84.6725 133.476 83.7311 132.421C82.7897 131.367 82.2608 129.936 82.2608 128.445V89.0839C82.2608 87.5926 82.7897 86.1624 83.7311 85.1079C84.6725 84.0534 85.9494 83.4609 87.2808 83.4609C88.6122 83.4609 89.8891 84.0534 90.8305 85.1079C91.7719 86.1624 92.3008 87.5926 92.3008 89.0839V128.445ZM63.2035 60.9689L87.2808 30.1478L111.358 60.9689H63.2035ZM125.408 89.6462L121.894 129.007C121.77 130.393 121.191 131.678 120.269 132.613C119.347 133.548 118.149 134.066 116.905 134.068C116.736 134.078 116.566 134.078 116.397 134.068C115.741 133.994 115.104 133.776 114.524 133.427C113.943 133.078 113.429 132.603 113.012 132.032C112.595 131.46 112.282 130.802 112.092 130.095C111.902 129.388 111.838 128.646 111.904 127.911L115.418 88.5498C115.551 87.0659 116.205 85.7021 117.236 84.7583C118.267 83.8145 119.59 83.368 120.915 83.5172C122.24 83.6663 123.457 84.3988 124.3 85.5535C125.143 86.7082 125.541 88.1905 125.408 89.6744V89.6462Z" fill="#1C1949" fill-opacity="0.2"/>
</g>
</svg>
