<svg width="18" height="20" viewBox="0 0 18 20" fill="none" xmlns="http://www.w3.org/2000/svg">
<path d="M18 9.75V18.75C18 18.9489 17.921 19.1397 17.7803 19.2803C17.6397 19.421 17.4489 19.5 17.25 19.5H0.750009C0.551097 19.5 0.360332 19.421 0.219679 19.2803C0.0790272 19.1397 9.42514e-06 18.9489 9.42514e-06 18.75V9.75C-0.00069249 9.55279 0.0378174 9.35742 0.1133 9.17523C0.188783 8.99304 0.299732 8.82767 0.439697 8.68875L7.9397 1.18875C8.22097 0.907656 8.60236 0.749756 9.00001 0.749756C9.39766 0.749756 9.77905 0.907656 10.0603 1.18875L17.5603 8.68875C17.7003 8.82767 17.8112 8.99304 17.8867 9.17523C17.9622 9.35742 18.0007 9.55279 18 9.75Z" fill="#1D1949"/>
</svg>
