<svg width="24" height="25" viewBox="0 0 24 25" fill="none" xmlns="http://www.w3.org/2000/svg">
<g id="HouseSimple">
<path id="Vector" d="M20.5603 10.6887L13.0603 3.18875C12.779 2.90766 12.3977 2.74976 12 2.74976C11.6024 2.74976 11.221 2.90766 10.9397 3.18875L3.4397 10.6887C3.29973 10.8277 3.18878 10.993 3.1133 11.1752C3.03782 11.3574 2.99931 11.5528 3.00001 11.75V20.75C3.00001 20.9489 3.07903 21.1397 3.21968 21.2803C3.36033 21.421 3.5511 21.5 3.75001 21.5H20.25C20.4489 21.5 20.6397 21.421 20.7803 21.2803C20.921 21.1397 21 20.9489 21 20.75V11.75C21.0007 11.5528 20.9622 11.3574 20.8867 11.1752C20.8112 10.993 20.7003 10.8277 20.5603 10.6887ZM19.5 20H4.50001V11.75L12 4.25L19.5 11.75V20Z" fill="#898D97"/>
</g>
</svg>
