<svg width="21" height="18" viewBox="0 0 21 18" fill="none" xmlns="http://www.w3.org/2000/svg">
<path d="M20.6251 15.0226C20.8705 15.9963 20.9964 16.9963 21 18.0004H0V15.0226H20.6251ZM8.4 5.40039H2.1V2.25039H11.55C11.8285 2.25039 12.0955 2.13977 12.2925 1.94285C12.4894 1.74594 12.6 1.47887 12.6 1.20039C12.6 0.921913 12.4894 0.654842 12.2925 0.457928C12.0955 0.261015 11.8285 0.150391 11.55 0.150391H1.05C0.771523 0.150391 0.504451 0.261015 0.307538 0.457928C0.110625 0.654842 0 0.921913 0 1.20039V12.7504H19.8376C18.8354 10.5585 17.2247 8.70052 15.197 7.39754C13.1694 6.09455 10.8102 5.40136 8.4 5.40039Z" fill="#1C1949"/>
</svg>
