<svg width="13" height="14" viewBox="0 0 13 14" fill="none" xmlns="http://www.w3.org/2000/svg">
<path d="M11.9167 4.83333H9.75V3.38889C9.75 2.62271 9.40759 1.88791 8.7981 1.34614C8.1886 0.804364 7.36195 0.5 6.5 0.5C5.63805 0.5 4.8114 0.804364 4.2019 1.34614C3.59241 1.88791 3.25 2.62271 3.25 3.38889V4.83333H1.08333C0.796016 4.83333 0.520465 4.93479 0.317301 5.11538C0.114137 5.29597 0 5.5409 0 5.7963V12.537C0 12.7924 0.114137 13.0374 0.317301 13.218C0.520465 13.3985 0.796016 13.5 1.08333 13.5H11.9167C12.204 13.5 12.4795 13.3985 12.6827 13.218C12.8859 13.0374 13 12.7924 13 12.537V5.7963C13 5.5409 12.8859 5.29597 12.6827 5.11538C12.4795 4.93479 12.204 4.83333 11.9167 4.83333ZM4.33333 3.38889C4.33333 2.8781 4.56161 2.38823 4.96794 2.02705C5.37426 1.66587 5.92536 1.46296 6.5 1.46296C7.07464 1.46296 7.62574 1.66587 8.03206 2.02705C8.43839 2.38823 8.66667 2.8781 8.66667 3.38889V4.83333H4.33333V3.38889ZM11.9167 12.537H1.08333V5.7963H11.9167V12.537Z" fill="black"/>
</svg>
