<svg width="22" height="22" viewBox="0 0 22 22" fill="none" xmlns="http://www.w3.org/2000/svg">
<g id="MapPinArea">
<path id="Vector" d="M9.625 6.875C9.625 6.60305 9.70564 6.33721 9.85673 6.11109C10.0078 5.88497 10.2226 5.70874 10.4738 5.60467C10.7251 5.5006 11.0015 5.47337 11.2682 5.52642C11.535 5.57947 11.78 5.71043 11.9723 5.90273C12.1646 6.09503 12.2955 6.34003 12.3486 6.60675C12.4016 6.87347 12.3744 7.14994 12.2703 7.40119C12.1663 7.65244 11.99 7.86718 11.7639 8.01827C11.5378 8.16936 11.2719 8.25 11 8.25C10.6353 8.25 10.2856 8.10513 10.0277 7.84727C9.76987 7.58941 9.625 7.23967 9.625 6.875ZM5.5 6.875C5.5 5.41631 6.07946 4.01736 7.11091 2.98591C8.14236 1.95446 9.54131 1.375 11 1.375C12.4587 1.375 13.8576 1.95446 14.8891 2.98591C15.9205 4.01736 16.5 5.41631 16.5 6.875C16.5 12.027 11.5517 14.9136 11.3438 15.0348C11.2399 15.0942 11.1223 15.1254 11.0026 15.1254C10.8829 15.1254 10.7653 15.0942 10.6614 15.0348C10.4483 14.9136 5.5 12.0312 5.5 6.875ZM6.875 6.875C6.875 10.5016 9.955 12.9087 11 13.6211C12.0441 12.9095 15.125 10.5016 15.125 6.875C15.125 5.78098 14.6904 4.73177 13.9168 3.95818C13.1432 3.1846 12.094 2.75 11 2.75C9.90598 2.75 8.85677 3.1846 8.08318 3.95818C7.3096 4.73177 6.875 5.78098 6.875 6.875ZM17.4255 12.687C17.2563 12.6311 17.072 12.643 16.9115 12.7204C16.7509 12.7977 16.6267 12.9344 16.565 13.1016C16.5032 13.2687 16.5088 13.4533 16.5805 13.6165C16.6523 13.7796 16.7845 13.9085 16.9495 13.976C18.3683 14.5011 19.25 15.2041 19.25 15.8125C19.25 16.9606 16.1116 18.5625 11 18.5625C5.88844 18.5625 2.75 16.9606 2.75 15.8125C2.75 15.2041 3.63172 14.5011 5.05055 13.9769C5.21547 13.9094 5.34774 13.7805 5.41947 13.6173C5.49119 13.4542 5.49678 13.2696 5.43504 13.1024C5.37329 12.9353 5.24906 12.7986 5.08851 12.7212C4.92797 12.6439 4.74366 12.6319 4.57445 12.6878C2.51109 13.4484 1.375 14.5587 1.375 15.8125C1.375 18.492 6.33445 19.9375 11 19.9375C15.6655 19.9375 20.625 18.492 20.625 15.8125C20.625 14.5587 19.4889 13.4484 17.4255 12.687Z" fill="black"/>
</g>
</svg>
