<svg width="20" height="20" viewBox="0 0 20 20" fill="none" xmlns="http://www.w3.org/2000/svg">
<mask id="mask0_1_8273" style="mask-type:alpha" maskUnits="userSpaceOnUse" x="0" y="0" width="20" height="20">
<rect width="20" height="20" fill="#D9D9D9"/>
</mask>
<g mask="url(#mask0_1_8273)">
<path d="M16.5003 6.04165C16.6531 6.19442 16.7295 6.38887 16.7295 6.62498C16.7295 6.86109 16.6531 7.05554 16.5003 7.20831L15.8962 7.81248C15.7295 7.97915 15.5316 8.06248 15.3024 8.06248C15.0732 8.06248 14.8753 7.97915 14.7087 7.81248C14.542 7.64581 14.4621 7.4479 14.4691 7.21873C14.476 6.98956 14.5628 6.79165 14.7295 6.62498L15.3337 6.02081C15.5003 5.86804 15.6982 5.79512 15.9274 5.80206C16.1566 5.80901 16.3475 5.88887 16.5003 6.04165ZM2.50033 16.6666C2.26421 16.6666 2.0663 16.5868 1.90658 16.4271C1.74685 16.2673 1.66699 16.0694 1.66699 15.8333C1.66699 15.5972 1.74685 15.3993 1.90658 15.2396C2.0663 15.0798 2.26421 15 2.50033 15H17.5003C17.7364 15 17.9344 15.0798 18.0941 15.2396C18.2538 15.3993 18.3337 15.5972 18.3337 15.8333C18.3337 16.0694 18.2538 16.2673 18.0941 16.4271C17.9344 16.5868 17.7364 16.6666 17.5003 16.6666H2.50033ZM10.0003 3.33331C10.2364 3.33331 10.4344 3.41317 10.5941 3.5729C10.7538 3.73262 10.8337 3.93054 10.8337 4.16665V4.99998C10.8337 5.23609 10.7538 5.43401 10.5941 5.59373C10.4344 5.75345 10.2364 5.83331 10.0003 5.83331C9.76421 5.83331 9.5663 5.75345 9.40658 5.59373C9.24685 5.43401 9.16699 5.23609 9.16699 4.99998V4.16665C9.16699 3.93054 9.24685 3.73262 9.40658 3.5729C9.5663 3.41317 9.76421 3.33331 10.0003 3.33331ZM3.54199 5.99998C3.69477 5.8472 3.88921 5.77081 4.12533 5.77081C4.36144 5.77081 4.55588 5.8472 4.70866 5.99998L5.31283 6.60415C5.47949 6.77081 5.56283 6.96873 5.56283 7.1979C5.56283 7.42706 5.47949 7.62498 5.31283 7.79165C5.14616 7.94442 4.94477 8.02081 4.70866 8.02081C4.47255 8.02081 4.2781 7.93748 4.12533 7.77081L3.52116 7.16665C3.36838 6.99998 3.29546 6.80206 3.30241 6.5729C3.30935 6.34373 3.38921 6.15276 3.54199 5.99998ZM6.18783 11.6666H13.8128C13.4934 10.9166 12.9934 10.3125 12.3128 9.85415C11.6323 9.39581 10.8614 9.16665 10.0003 9.16665C9.13921 9.16665 8.36838 9.39581 7.68783 9.85415C7.00727 10.3125 6.50727 10.9166 6.18783 11.6666ZM4.16699 13.3333C4.16699 11.7083 4.73296 10.3298 5.86491 9.1979C6.99685 8.06595 8.37533 7.49998 10.0003 7.49998C11.6253 7.49998 13.0038 8.06595 14.1357 9.1979C15.2677 10.3298 15.8337 11.7083 15.8337 13.3333H4.16699Z" fill="#1C1B1F"/>
</g>
</svg>
