<svg width="20" height="20" viewBox="0 0 20 20" fill="none" xmlns="http://www.w3.org/2000/svg">
<mask id="mask0_1_8323" style="mask-type:alpha" maskUnits="userSpaceOnUse" x="0" y="0" width="20" height="20">
<rect width="20" height="20" fill="#D9D9D9"/>
</mask>
<g mask="url(#mask0_1_8323)">
<path d="M10.9163 19.1667H8.74967L9.16634 18.9063C9.44412 18.7326 9.7462 18.5382 10.0726 18.3229C10.399 18.1076 10.7011 17.9132 10.9788 17.7396L11.3955 17.4792C12.5205 17.3958 13.5587 17.0556 14.5101 16.4583C15.4615 15.8611 16.215 15.0625 16.7705 14.0625C15.5761 13.9514 14.4441 13.6493 13.3747 13.1563C12.3052 12.6632 11.3469 11.9931 10.4997 11.1458C9.65245 10.2986 8.97884 9.34028 8.47884 8.27084C7.97884 7.20139 7.68023 6.06945 7.58301 4.875C6.51356 5.47223 5.67676 6.29514 5.07259 7.34375C4.46842 8.39237 4.16634 9.52778 4.16634 10.75V11L3.91634 11.1146C3.74967 11.191 3.56565 11.2708 3.36426 11.3542C3.16287 11.4375 2.97884 11.5174 2.81217 11.5938L2.56217 11.7083C2.5344 11.5556 2.51704 11.3958 2.51009 11.2292C2.50315 11.0625 2.49967 10.9028 2.49967 10.75C2.49967 9 3.02745 7.36806 4.08301 5.85417C5.13856 4.34028 6.52051 3.33334 8.22884 2.83334C8.38162 2.79167 8.52051 2.78473 8.64551 2.8125C8.77051 2.84028 8.88856 2.89584 8.99967 2.97917C9.11079 3.0625 9.19065 3.1632 9.23926 3.28125C9.28787 3.39931 9.30523 3.53473 9.29134 3.6875C9.20801 4.86806 9.37815 6.00348 9.80176 7.09375C10.2254 8.18403 10.8538 9.14584 11.6872 9.97917C12.5344 10.8264 13.4893 11.4514 14.5518 11.8542C15.6143 12.2569 16.7358 12.4236 17.9163 12.3542C18.0691 12.3403 18.2115 12.3646 18.3434 12.4271C18.4754 12.4896 18.5761 12.5764 18.6455 12.6875C18.715 12.7986 18.7636 12.9167 18.7913 13.0417C18.8191 13.1667 18.8052 13.3056 18.7497 13.4583C18.1525 15.1944 17.1663 16.5799 15.7913 17.6146C14.4163 18.6493 12.7913 19.1667 10.9163 19.1667ZM4.99967 17.5H8.74967C9.0969 17.5 9.39204 17.3785 9.63509 17.1354C9.87815 16.8924 9.99967 16.5972 9.99967 16.25C9.99967 15.9028 9.88162 15.6076 9.64551 15.3646C9.4094 15.1215 9.12467 15 8.79134 15H7.70801L7.29134 14C7.0969 13.5417 6.79134 13.1771 6.37467 12.9063C5.95801 12.6354 5.49967 12.5 4.99967 12.5C4.30523 12.5 3.71495 12.7396 3.22884 13.2188C2.74273 13.6979 2.49967 14.2917 2.49967 15C2.49967 15.6944 2.74273 16.2847 3.22884 16.7708C3.71495 17.2569 4.30523 17.5 4.99967 17.5ZM4.99967 19.1667C3.8469 19.1667 2.86426 18.7604 2.05176 17.9479C1.23926 17.1354 0.833008 16.1528 0.833008 15C0.833008 13.8472 1.23926 12.8646 2.05176 12.0521C2.86426 11.2396 3.8469 10.8333 4.99967 10.8333C5.83301 10.8333 6.59342 11.059 7.28092 11.5104C7.96842 11.9618 8.47884 12.5694 8.81217 13.3333C9.60384 13.3611 10.2775 13.6563 10.833 14.2188C11.3886 14.7813 11.6663 15.4583 11.6663 16.25C11.6663 17.0556 11.3816 17.7431 10.8122 18.3125C10.2427 18.882 9.55523 19.1667 8.74967 19.1667H4.99967Z" fill="#1C1B1F"/>
</g>
</svg>
