<svg width="24" height="25" viewBox="0 0 24 25" fill="none" xmlns="http://www.w3.org/2000/svg">
<g id="ClipboardText">
<path id="Vector" d="M15.75 14.75C15.75 14.9489 15.671 15.1397 15.5303 15.2803C15.3897 15.421 15.1989 15.5 15 15.5H9C8.80109 15.5 8.61032 15.421 8.46967 15.2803C8.32902 15.1397 8.25 14.9489 8.25 14.75C8.25 14.5511 8.32902 14.3603 8.46967 14.2197C8.61032 14.079 8.80109 14 9 14H15C15.1989 14 15.3897 14.079 15.5303 14.2197C15.671 14.3603 15.75 14.5511 15.75 14.75ZM15 11H9C8.80109 11 8.61032 11.079 8.46967 11.2197C8.32902 11.3603 8.25 11.5511 8.25 11.75C8.25 11.9489 8.32902 12.1397 8.46967 12.2803C8.61032 12.421 8.80109 12.5 9 12.5H15C15.1989 12.5 15.3897 12.421 15.5303 12.2803C15.671 12.1397 15.75 11.9489 15.75 11.75C15.75 11.5511 15.671 11.3603 15.5303 11.2197C15.3897 11.079 15.1989 11 15 11ZM20.25 4.99999V20.75C20.25 21.1478 20.092 21.5293 19.8107 21.8106C19.5294 22.092 19.1478 22.25 18.75 22.25H5.25C4.85218 22.25 4.47064 22.092 4.18934 21.8106C3.90804 21.5293 3.75 21.1478 3.75 20.75V4.99999C3.75 4.60216 3.90804 4.22063 4.18934 3.93933C4.47064 3.65802 4.85218 3.49999 5.25 3.49999H8.64937C9.07079 3.02817 9.58709 2.65066 10.1645 2.3922C10.7419 2.13373 11.3674 2.00012 12 2.00012C12.6326 2.00012 13.2581 2.13373 13.8355 2.3922C14.4129 2.65066 14.9292 3.02817 15.3506 3.49999H18.75C19.1478 3.49999 19.5294 3.65802 19.8107 3.93933C20.092 4.22063 20.25 4.60216 20.25 4.99999ZM9 6.49999H15C15 5.70434 14.6839 4.94127 14.1213 4.37867C13.5587 3.81606 12.7956 3.49999 12 3.49999C11.2044 3.49999 10.4413 3.81606 9.87868 4.37867C9.31607 4.94127 9 5.70434 9 6.49999ZM18.75 4.99999H16.2422C16.4128 5.48169 16.5 5.98896 16.5 6.49999V7.24999C16.5 7.4489 16.421 7.63966 16.2803 7.78032C16.1397 7.92097 15.9489 7.99999 15.75 7.99999H8.25C8.05109 7.99999 7.86032 7.92097 7.71967 7.78032C7.57902 7.63966 7.5 7.4489 7.5 7.24999V6.49999C7.50002 5.98896 7.58721 5.48169 7.75781 4.99999H5.25V20.75H18.75V4.99999Z" fill="#898D97"/>
</g>
</svg>
