<svg width="25" height="25" viewBox="0 0 25 25" fill="none" xmlns="http://www.w3.org/2000/svg">
<path d="M15.6069 23.1788C16.6887 23.8886 17.9819 24.2044 19.2691 24.0731C20.5563 23.9416 21.759 23.371 22.6749 22.457L23.4755 21.6864C23.8265 21.3328 24.0253 20.8559 24.0292 20.3577C24.0331 19.8595 23.8418 19.3794 23.4962 19.0206L20.1502 15.6575C19.7996 15.3075 19.3256 15.1093 18.8303 15.1054C18.335 15.1016 17.8579 15.2924 17.502 15.6368C17.143 15.9824 16.663 16.1736 16.1648 16.1698C15.6665 16.1659 15.1896 15.9671 14.8361 15.616L9.58092 10.2783C9.40559 10.1028 9.26689 9.89417 9.17291 9.6646C9.07893 9.43503 9.03152 9.18905 9.03345 8.94099C9.03539 8.69292 9.08663 8.44772 9.18418 8.21963C9.28173 7.99155 9.42366 7.78513 9.6017 7.61239C9.95164 7.26183 10.1499 6.78783 10.1537 6.29251C10.1576 5.79718 9.96678 5.32016 9.62235 4.96416L6.29412 1.58359C5.94052 1.2325 5.46366 1.03375 4.96546 1.02987C4.46708 1.02598 3.98717 1.21727 3.62814 1.5628L2.8451 2.35121C1.91716 3.25279 1.32788 4.44644 1.17632 5.73142C1.02476 7.01642 1.32037 8.31439 2.01337 9.40709C5.62596 14.8216 10.2399 19.496 15.6069 23.1788Z" stroke="#1C1949" stroke-linecap="round" stroke-linejoin="round"/>
</svg>
