<svg width="20" height="20" viewBox="0 0 20 20" fill="none" xmlns="http://www.w3.org/2000/svg">
<g id="ClockUser">
<path id="Vector" d="M10.625 5.625V8.98829L13.4703 7.56563C13.6186 7.49145 13.7902 7.4792 13.9475 7.53158C14.1048 7.58396 14.2348 7.69667 14.309 7.84493C14.3832 7.99318 14.3954 8.16482 14.343 8.32211C14.2907 8.47939 14.1779 8.60942 14.0297 8.6836L10.2797 10.5586C10.1844 10.6063 10.0786 10.6288 9.97215 10.624C9.86573 10.6193 9.76229 10.5874 9.67165 10.5315C9.58101 10.4755 9.50618 10.3973 9.45426 10.3043C9.40234 10.2113 9.37506 10.1065 9.375 10V5.625C9.375 5.45924 9.44085 5.30027 9.55806 5.18306C9.67527 5.06585 9.83424 5 10 5C10.1658 5 10.3247 5.06585 10.4419 5.18306C10.5592 5.30027 10.625 5.45924 10.625 5.625ZM10 16.875C8.64026 16.875 7.31105 16.4718 6.18046 15.7164C5.04987 14.9609 4.16868 13.8872 3.64833 12.631C3.12798 11.3747 2.99183 9.99238 3.2571 8.65876C3.52238 7.32514 4.17716 6.10013 5.13864 5.13864C6.10013 4.17716 7.32514 3.52238 8.65876 3.2571C9.99238 2.99183 11.3747 3.12798 12.631 3.64833C13.8872 4.16868 14.9609 5.04987 15.7164 6.18046C16.4718 7.31105 16.875 8.64026 16.875 10C16.875 10.1658 16.9409 10.3247 17.0581 10.4419C17.1753 10.5592 17.3342 10.625 17.5 10.625C17.6658 10.625 17.8247 10.5592 17.9419 10.4419C18.0592 10.3247 18.125 10.1658 18.125 10C18.125 8.39303 17.6485 6.82214 16.7557 5.486C15.8629 4.14985 14.594 3.10844 13.1093 2.49348C11.6247 1.87852 9.99099 1.71762 8.4149 2.03112C6.8388 2.34463 5.39106 3.11846 4.25476 4.25476C3.11846 5.39106 2.34463 6.8388 2.03112 8.4149C1.71762 9.99099 1.87852 11.6247 2.49348 13.1093C3.10844 14.594 4.14985 15.8629 5.486 16.7557C6.82215 17.6485 8.39303 18.125 10 18.125C10.1658 18.125 10.3247 18.0592 10.4419 17.9419C10.5592 17.8247 10.625 17.6658 10.625 17.5C10.625 17.3342 10.5592 17.1753 10.4419 17.0581C10.3247 16.9409 10.1658 16.875 10 16.875ZM18.1039 17.3391C18.1268 17.4189 18.1336 17.5026 18.1238 17.5851C18.1139 17.6676 18.0878 17.7473 18.0468 17.8196C18.0058 17.8919 17.9508 17.9553 17.885 18.0061C17.8192 18.0568 17.744 18.094 17.6637 18.1153C17.5834 18.1367 17.4996 18.1418 17.4173 18.1304C17.335 18.119 17.2558 18.0913 17.1843 18.0489C17.1129 18.0065 17.0506 17.9503 17.0011 17.8836C16.9516 17.8168 16.9159 17.7409 16.8961 17.6602C16.675 16.8297 15.8953 16.25 15 16.25C14.1047 16.25 13.325 16.8297 13.1039 17.6602C13.0686 17.7934 12.9902 17.9112 12.881 17.9953C12.7718 18.0793 12.6378 18.125 12.5 18.125C12.4457 18.1249 12.3916 18.1178 12.3391 18.1039C12.1789 18.0612 12.0423 17.9567 11.9592 17.8132C11.8761 17.6698 11.8534 17.4992 11.8961 17.3391C12.0988 16.5863 12.5756 15.9365 13.2328 15.5172C12.8829 15.1677 12.6445 14.7222 12.5479 14.2372C12.4512 13.7522 12.5005 13.2494 12.6897 12.7924C12.8788 12.3354 13.1992 11.9448 13.6104 11.67C14.0216 11.3951 14.505 11.2485 14.9996 11.2485C15.4942 11.2485 15.9776 11.3951 16.3888 11.67C16.8 11.9448 17.1204 12.3354 17.3096 12.7924C17.4987 13.2494 17.5481 13.7522 17.4514 14.2372C17.3547 14.7222 17.1163 15.1677 16.7664 15.5172C17.4239 15.9363 17.901 16.5862 18.1039 17.3391ZM13.75 13.75C13.75 13.9972 13.8233 14.2389 13.9607 14.4445C14.098 14.65 14.2932 14.8102 14.5217 14.9049C14.7501 14.9995 15.0014 15.0242 15.2439 14.976C15.4863 14.9278 15.7091 14.8087 15.8839 14.6339C16.0587 14.4591 16.1778 14.2363 16.226 13.9939C16.2742 13.7514 16.2495 13.5001 16.1549 13.2716C16.0602 13.0432 15.9 12.848 15.6945 12.7107C15.4889 12.5733 15.2472 12.5 15 12.5C14.6685 12.5 14.3505 12.6317 14.1161 12.8661C13.8817 13.1005 13.75 13.4185 13.75 13.75Z" fill="#1D1949"/>
</g>
</svg>
