<svg width="16" height="16" viewBox="0 0 16 16" fill="none" xmlns="http://www.w3.org/2000/svg">
<g id="MagnifyingGlass">
<path id="Vector" d="M14.265 13.735L11.0538 10.5237C11.9695 9.47063 12.4406 8.10312 12.3677 6.70946C12.2949 5.31581 11.6837 4.00489 10.6631 3.05304C9.64256 2.10119 8.29229 1.58278 6.89694 1.60708C5.50159 1.63138 4.17018 2.1965 3.18337 3.18331C2.19656 4.17012 1.63144 5.50153 1.60714 6.89688C1.58284 8.29222 2.10125 9.6425 3.0531 10.6631C4.00495 11.6837 5.31587 12.2948 6.70953 12.3677C8.10318 12.4405 9.47069 11.9695 10.5238 11.0537L13.735 14.265C13.8061 14.3312 13.9002 14.3673 13.9973 14.3656C14.0945 14.3639 14.1872 14.3245 14.2559 14.2558C14.3246 14.1871 14.3639 14.0944 14.3656 13.9972C14.3673 13.9001 14.3313 13.8061 14.265 13.735ZM2.37504 6.99998C2.37504 6.08524 2.6463 5.19105 3.1545 4.43047C3.6627 3.66989 4.38502 3.0771 5.23013 2.72704C6.07524 2.37698 7.00518 2.28539 7.90234 2.46385C8.7995 2.64231 9.6236 3.0828 10.2704 3.72961C10.9172 4.37643 11.3577 5.20053 11.5362 6.09769C11.7146 6.99485 11.623 7.92479 11.273 8.76989C10.9229 9.615 10.3301 10.3373 9.56956 10.8455C8.80898 11.3537 7.91478 11.625 7.00004 11.625C5.77388 11.6235 4.59835 11.1357 3.73132 10.2687C2.86429 9.40167 2.37653 8.22615 2.37504 6.99998Z" fill="black" fill-opacity="0.6"/>
</g>
</svg>
