<svg width="18" height="19" viewBox="0 0 18 19" fill="none" xmlns="http://www.w3.org/2000/svg">
<path d="M16.5 0.5H1.5C1.10218 0.5 0.720644 0.658035 0.43934 0.93934C0.158035 1.22064 0 1.60218 0 2V17C0 17.3978 0.158035 17.7794 0.43934 18.0607C0.720644 18.342 1.10218 18.5 1.5 18.5H16.5C16.8978 18.5 17.2794 18.342 17.5607 18.0607C17.842 17.7794 18 17.3978 18 17V2C18 1.60218 17.842 1.22064 17.5607 0.93934C17.2794 0.658035 16.8978 0.5 16.5 0.5ZM9 14.75C7.96165 14.75 6.94661 14.4421 6.08326 13.8652C5.2199 13.2883 4.54699 12.4684 4.14963 11.5091C3.75227 10.5498 3.64831 9.49418 3.85088 8.47578C4.05345 7.45738 4.55346 6.52192 5.28769 5.78769C6.02192 5.05346 6.95738 4.55345 7.97578 4.35088C8.99418 4.14831 10.0498 4.25227 11.0091 4.64963C11.9684 5.04699 12.7883 5.7199 13.3652 6.58326C13.9421 7.44661 14.25 8.46165 14.25 9.5C14.25 10.8924 13.6969 12.2277 12.7123 13.2123C11.7277 14.1969 10.3924 14.75 9 14.75ZM14.625 5C14.4025 5 14.185 4.93402 14 4.8104C13.815 4.68679 13.6708 4.51109 13.5856 4.30552C13.5005 4.09995 13.4782 3.87375 13.5216 3.65552C13.565 3.43729 13.6722 3.23684 13.8295 3.0795C13.9868 2.92217 14.1873 2.81502 14.4055 2.77162C14.6238 2.72821 14.85 2.75049 15.0555 2.83564C15.2611 2.92078 15.4368 3.06498 15.5604 3.24998C15.684 3.43499 15.75 3.6525 15.75 3.875C15.75 4.17337 15.6315 4.45952 15.4205 4.6705C15.2095 4.88147 14.9234 5 14.625 5ZM9.53063 7.78063L6.53063 10.7806C6.46094 10.8503 6.37822 10.9056 6.28717 10.9433C6.19613 10.981 6.09855 11.0004 6 11.0004C5.90145 11.0004 5.80387 10.981 5.71283 10.9433C5.62178 10.9056 5.53906 10.8503 5.46937 10.7806C5.39969 10.7109 5.34442 10.6282 5.3067 10.5372C5.26899 10.4461 5.24958 10.3485 5.24958 10.25C5.24958 10.1515 5.26899 10.0539 5.3067 9.96283C5.34442 9.87178 5.39969 9.78906 5.46937 9.71937L8.46937 6.71937C8.61011 6.57864 8.80098 6.49958 9 6.49958C9.19902 6.49958 9.38989 6.57864 9.53063 6.71937C9.67136 6.86011 9.75042 7.05098 9.75042 7.25C9.75042 7.44902 9.67136 7.63989 9.53063 7.78063ZM12.5306 7.46937C12.6004 7.53903 12.6557 7.62175 12.6934 7.71279C12.7312 7.80384 12.7506 7.90144 12.7506 8C12.7506 8.09856 12.7312 8.19616 12.6934 8.28721C12.6557 8.37825 12.6004 8.46097 12.5306 8.53063L8.03063 13.0306C7.96094 13.1003 7.87822 13.1556 7.78717 13.1933C7.69613 13.231 7.59855 13.2504 7.5 13.2504C7.40145 13.2504 7.30387 13.231 7.21283 13.1933C7.12178 13.1556 7.03906 13.1003 6.96937 13.0306C6.89969 12.9609 6.84442 12.8782 6.8067 12.7872C6.76899 12.6961 6.74958 12.5985 6.74958 12.5C6.74958 12.4015 6.76899 12.3039 6.8067 12.2128C6.84442 12.1218 6.89969 12.0391 6.96937 11.9694L11.4694 7.46937C11.539 7.39964 11.6217 7.34432 11.7128 7.30658C11.8038 7.26884 11.9014 7.24941 12 7.24941C12.0986 7.24941 12.1962 7.26884 12.2872 7.30658C12.3783 7.34432 12.461 7.39964 12.5306 7.46937Z" fill="#1D1949"/>
</svg>
