<svg width="24" height="25" viewBox="0 0 24 25" fill="none" xmlns="http://www.w3.org/2000/svg">
<g id="WashingMachine">
<path id="Vector" d="M19.5 3.5H4.5C4.10218 3.5 3.72064 3.65804 3.43934 3.93934C3.15804 4.22064 3 4.60218 3 5V20C3 20.3978 3.15804 20.7794 3.43934 21.0607C3.72064 21.342 4.10218 21.5 4.5 21.5H19.5C19.8978 21.5 20.2794 21.342 20.5607 21.0607C20.842 20.7794 21 20.3978 21 20V5C21 4.60218 20.842 4.22064 20.5607 3.93934C20.2794 3.65804 19.8978 3.5 19.5 3.5ZM19.5 20H4.5V5H19.5V20ZM12 6.5C10.8133 6.5 9.65327 6.85189 8.66658 7.51118C7.67988 8.17047 6.91085 9.10754 6.45672 10.2039C6.0026 11.3003 5.88378 12.5067 6.11529 13.6705C6.3468 14.8344 6.91824 15.9035 7.75736 16.7426C8.59647 17.5818 9.66557 18.1532 10.8295 18.3847C11.9933 18.6162 13.1997 18.4974 14.2961 18.0433C15.3925 17.5892 16.3295 16.8201 16.9888 15.8334C17.6481 14.8467 18 13.6867 18 12.5C17.9983 10.9092 17.3656 9.38412 16.2407 8.25928C15.1159 7.13444 13.5908 6.50174 12 6.5ZM12 17C11.11 17 10.24 16.7361 9.49993 16.2416C8.75991 15.7471 8.18314 15.0443 7.84254 14.2221C7.50195 13.3998 7.41283 12.495 7.58647 11.6221C7.7601 10.7492 8.18868 9.94736 8.81802 9.31802C9.44736 8.68868 10.2492 8.2601 11.1221 8.08647C11.995 7.91283 12.8998 8.00195 13.7221 8.34254C14.5443 8.68314 15.2471 9.25991 15.7416 9.99993C16.2361 10.74 16.5 11.61 16.5 12.5C16.4988 13.6931 16.0243 14.837 15.1806 15.6806C14.337 16.5243 13.1931 16.9988 12 17ZM18.75 6.875C18.75 7.0975 18.684 7.31501 18.5604 7.50002C18.4368 7.68502 18.2611 7.82922 18.0555 7.91436C17.85 7.99951 17.6238 8.02179 17.4055 7.97838C17.1873 7.93498 16.9868 7.82783 16.8295 7.6705C16.6722 7.51316 16.565 7.31271 16.5216 7.09448C16.4782 6.87625 16.5005 6.65005 16.5856 6.44448C16.6708 6.23891 16.815 6.06321 17 5.9396C17.185 5.81598 17.4025 5.75 17.625 5.75C17.9234 5.75 18.2095 5.86853 18.4205 6.0795C18.6315 6.29048 18.75 6.57663 18.75 6.875ZM11.7806 11.5306L10.2806 13.0306C10.1399 13.1714 9.94902 13.2504 9.75 13.2504C9.55098 13.2504 9.36011 13.1714 9.21937 13.0306C9.07864 12.8899 8.99958 12.699 8.99958 12.5C8.99958 12.301 9.07864 12.1101 9.21937 11.9694L10.7194 10.4694C10.8601 10.3286 11.051 10.2496 11.25 10.2496C11.449 10.2496 11.6399 10.3286 11.7806 10.4694C11.9214 10.6101 12.0004 10.801 12.0004 11C12.0004 11.199 11.9214 11.3899 11.7806 11.5306ZM14.7806 11.2194C14.8504 11.289 14.9057 11.3717 14.9434 11.4628C14.9812 11.5538 15.0006 11.6514 15.0006 11.75C15.0006 11.8486 14.9812 11.9462 14.9434 12.0372C14.9057 12.1283 14.8504 12.211 14.7806 12.2806L11.7806 15.2806C11.7109 15.3503 11.6282 15.4056 11.5372 15.4433C11.4461 15.481 11.3485 15.5004 11.25 15.5004C11.1515 15.5004 11.0539 15.481 10.9628 15.4433C10.8718 15.4056 10.7891 15.3503 10.7194 15.2806C10.6497 15.2109 10.5944 15.1282 10.5567 15.0372C10.519 14.9461 10.4996 14.8485 10.4996 14.75C10.4996 14.6515 10.519 14.5539 10.5567 14.4628C10.5944 14.3718 10.6497 14.2891 10.7194 14.2194L13.7194 11.2194C13.789 11.1496 13.8717 11.0943 13.9628 11.0566C14.0538 11.0188 14.1514 10.9994 14.25 10.9994C14.3486 10.9994 14.4462 11.0188 14.5372 11.0566C14.6283 11.0943 14.711 11.1496 14.7806 11.2194Z" fill="#898D97"/>
</g>
</svg>
