<svg width="16" height="14" viewBox="0 0 16 14" fill="none" xmlns="http://www.w3.org/2000/svg">
<path d="M15.8331 6.26533L10.1187 0.178519C10.0388 0.0933421 9.93705 0.0353093 9.82621 0.0117593C9.71537 -0.0117907 9.60046 0.000199975 9.49602 0.0462148C9.39158 0.0922296 9.30229 0.170202 9.23945 0.27027C9.17661 0.370339 9.14304 0.488009 9.14299 0.6084V3.67844C7.2901 3.84735 5.24363 4.81363 3.56002 6.33457C1.53284 8.1667 0.270676 10.5276 0.00567097 12.9821C-0.0150382 13.173 0.0212866 13.3659 0.109476 13.5334C0.197665 13.701 0.333225 13.8347 0.496864 13.9154C0.660503 13.9962 0.843883 14.0199 1.02091 13.9832C1.19793 13.9465 1.35958 13.8513 1.48284 13.711C2.26857 12.8201 5.06434 10.0026 9.14299 9.7546V12.782C9.14304 12.9024 9.17661 13.0201 9.23945 13.1202C9.30229 13.2202 9.39158 13.2982 9.49602 13.3442C9.60046 13.3902 9.71537 13.4022 9.82621 13.3787C9.93705 13.3551 10.0388 13.2971 10.1187 13.2119L15.8331 7.1251C15.94 7.01099 16 6.85639 16 6.69522C16 6.53404 15.94 6.37944 15.8331 6.26533ZM10.2859 11.3128V9.12994C10.2859 8.96851 10.2257 8.81369 10.1185 8.69954C10.0113 8.58539 9.86598 8.52126 9.71443 8.52126C7.70868 8.52126 5.75507 9.07896 3.90789 10.1799C2.96712 10.7431 2.09058 11.4202 1.2957 12.1977C1.70999 10.3838 2.7543 8.65897 4.29932 7.26281C5.95793 5.76469 7.98225 4.86917 9.71443 4.86917C9.86598 4.86917 10.0113 4.80504 10.1185 4.69089C10.2257 4.57674 10.2859 4.42192 10.2859 4.26049V2.07837L14.621 6.69522L10.2859 11.3128Z" fill="black"/>
</svg>
