<svg width="23" height="24" viewBox="0 0 23 24" fill="none" xmlns="http://www.w3.org/2000/svg">
<path d="M16.2917 3.84884V10.5837L11.5 8.17836L6.70833 10.5837V3.84884H3.83333C3.57917 3.84884 3.33541 3.9502 3.15569 4.13063C2.97597 4.31107 2.875 4.55578 2.875 4.81095V20.2048C2.875 20.46 2.97597 20.7047 3.15569 20.8852C3.33541 21.0656 3.57917 21.1669 3.83333 21.1669H19.1667C19.4208 21.1669 19.6646 21.0656 19.8443 20.8852C20.024 20.7047 20.125 20.46 20.125 20.2048V4.81095C20.125 4.55578 20.024 4.31107 19.8443 4.13063C19.6646 3.9502 19.4208 3.84884 19.1667 3.84884H16.2917ZM11.5 7.69731L15.8125 2.88672H7.1875L11.5 7.69731ZM10.5417 10.8107L11.5 10.3297L12.4583 10.8107V19.2427H10.5417V10.8107ZM8.625 13.47V15.3942H4.79167V13.47H8.625Z" fill="#1C1949"/>
</svg>
