<svg width="13" height="14" viewBox="0 0 13 14" fill="none" xmlns="http://www.w3.org/2000/svg">
<g id="TrashSimple">
<path id="Vector" d="M10.9688 2.625H2.03125C1.86963 2.625 1.71464 2.69414 1.60036 2.81721C1.48608 2.94028 1.42188 3.1072 1.42188 3.28125C1.42188 3.4553 1.48608 3.62222 1.60036 3.74529C1.71464 3.86836 1.86963 3.9375 2.03125 3.9375H2.23438V11.375C2.23438 11.6651 2.34138 11.9433 2.53184 12.1484C2.72231 12.3535 2.98064 12.4688 3.25 12.4688H9.75C10.0194 12.4688 10.2777 12.3535 10.4682 12.1484C10.6586 11.9433 10.7656 11.6651 10.7656 11.375V3.9375H10.9688C11.1304 3.9375 11.2854 3.86836 11.3996 3.74529C11.5139 3.62222 11.5781 3.4553 11.5781 3.28125C11.5781 3.1072 11.5139 2.94028 11.3996 2.81721C11.2854 2.69414 11.1304 2.625 10.9688 2.625ZM9.54688 11.1562H3.45312V3.9375H9.54688V11.1562ZM3.85938 1.09375C3.85938 0.919702 3.92358 0.752782 4.03786 0.629711C4.15214 0.50664 4.30713 0.4375 4.46875 0.4375H8.53125C8.69287 0.4375 8.84786 0.50664 8.96214 0.629711C9.07642 0.752782 9.14062 0.919702 9.14062 1.09375C9.14062 1.2678 9.07642 1.43472 8.96214 1.55779C8.84786 1.68086 8.69287 1.75 8.53125 1.75H4.46875C4.30713 1.75 4.15214 1.68086 4.03786 1.55779C3.92358 1.43472 3.85938 1.2678 3.85938 1.09375Z" fill="black" fill-opacity="0.6"/>
</g>
</svg>
