<svg width="34" height="34" viewBox="0 0 34 34" fill="none" xmlns="http://www.w3.org/2000/svg">
<path d="M32.8829 8.13078L26.0086 4.38281C25.8528 4.29663 25.6779 4.25096 25.4999 4.25H21.2499C20.9681 4.25 20.6978 4.36194 20.4986 4.5612C20.2993 4.76046 20.1874 5.03071 20.1874 5.3125C20.1874 6.15788 19.8516 6.96863 19.2538 7.5664C18.656 8.16418 17.8453 8.5 16.9999 8.5C16.1545 8.5 15.3438 8.16418 14.746 7.5664C14.1482 6.96863 13.8124 6.15788 13.8124 5.3125C13.8124 5.03071 13.7004 4.76046 13.5012 4.5612C13.3019 4.36194 13.0317 4.25 12.7499 4.25H8.49989C8.32144 4.25074 8.14604 4.29641 7.98989 4.38281L1.11685 8.13078C0.626901 8.3897 0.259628 8.83235 0.0955573 9.36166C-0.0685133 9.89096 -0.0159898 10.4637 0.241611 10.9544L2.80091 15.8432C2.987 16.1947 3.26593 16.4884 3.60736 16.6924C3.94878 16.8963 4.33961 17.0027 4.73731 17H7.43739V27.625C7.43739 28.1886 7.66128 28.7291 8.05979 29.1276C8.45831 29.5261 8.99881 29.75 9.56239 29.75H24.4374C25.001 29.75 25.5415 29.5261 25.94 29.1276C26.3385 28.7291 26.5624 28.1886 26.5624 27.625V17H29.2638C29.6615 17.0027 30.0523 16.8963 30.3938 16.6924C30.7352 16.4884 31.0141 16.1947 31.2002 15.8432L33.7595 10.9544C34.017 10.4636 34.0693 9.89068 33.905 9.36135C33.7407 8.83202 33.3731 8.38947 32.8829 8.13078ZM4.73731 14.875C4.71768 14.8759 4.69837 14.8698 4.68286 14.8577L2.13685 9.99547L7.43739 7.10281V14.875H4.73731ZM29.3169 14.8564C29.3096 14.863 29.301 14.8681 29.2916 14.8713C29.2822 14.8745 29.2723 14.8757 29.2625 14.875H26.5624V7.10281L31.8643 9.99547L29.3169 14.8564Z" fill="#1C1949"/>
</svg>
