<svg width="13" height="13" viewBox="0 0 13 13" fill="none" xmlns="http://www.w3.org/2000/svg">
<g id="UserCircle">
<path id="Vector" d="M6.5 1.21875C5.45547 1.21875 4.43439 1.52849 3.5659 2.1088C2.6974 2.68911 2.02049 3.51393 1.62076 4.47895C1.22104 5.44397 1.11645 6.50586 1.32023 7.53032C1.52401 8.55478 2.027 9.49581 2.76559 10.2344C3.50419 10.973 4.44522 11.476 5.46968 11.6798C6.49414 11.8835 7.55603 11.779 8.52105 11.3792C9.48607 10.9795 10.3109 10.3026 10.8912 9.4341C11.4715 8.56561 11.7813 7.54453 11.7813 6.5C11.7798 5.09978 11.2229 3.75733 10.2328 2.76723C9.24267 1.77712 7.90022 1.22023 6.5 1.21875ZM3.76188 10.0293C4.05577 9.56967 4.46063 9.19141 4.93915 8.9294C5.41767 8.66739 5.95445 8.53006 6.5 8.53006C7.04556 8.53006 7.58233 8.66739 8.06085 8.9294C8.53937 9.19141 8.94424 9.56967 9.23813 10.0293C8.45525 10.6382 7.49177 10.9687 6.5 10.9687C5.50823 10.9687 4.54475 10.6382 3.76188 10.0293ZM4.875 6.09375C4.875 5.77236 4.97031 5.45818 5.14886 5.19095C5.32742 4.92372 5.58121 4.71544 5.87814 4.59245C6.17507 4.46945 6.5018 4.43727 6.81702 4.49997C7.13224 4.56267 7.42179 4.71744 7.64905 4.9447C7.87631 5.17196 8.03108 5.46151 8.09378 5.77673C8.15648 6.09195 8.1243 6.41868 8.00131 6.71561C7.87831 7.01254 7.67003 7.26633 7.4028 7.44489C7.13557 7.62345 6.8214 7.71875 6.5 7.71875C6.06903 7.71875 5.6557 7.54754 5.35095 7.2428C5.04621 6.93805 4.875 6.52473 4.875 6.09375ZM9.83938 9.46613C9.38629 8.80957 8.7492 8.30163 8.0082 8.00617C8.40624 7.69267 8.69668 7.26293 8.83915 6.7767C8.98162 6.29048 8.96904 5.77194 8.80314 5.29321C8.63725 4.81447 8.32629 4.39932 7.91352 4.10551C7.50074 3.81169 7.00667 3.6538 6.5 3.6538C5.99334 3.6538 5.49926 3.81169 5.08649 4.10551C4.67371 4.39932 4.36276 4.81447 4.19686 5.29321C4.03097 5.77194 4.01838 6.29048 4.16085 6.7767C4.30332 7.26293 4.59377 7.69267 4.9918 8.00617C4.25081 8.30163 3.61371 8.80957 3.16063 9.46613C2.5881 8.82231 2.2139 8.02671 2.08307 7.17514C1.95225 6.32356 2.07038 5.45233 2.42324 4.66634C2.77611 3.88035 3.34866 3.21312 4.07195 2.745C4.79524 2.27688 5.63844 2.02782 6.5 2.02782C7.36157 2.02782 8.20476 2.27688 8.92805 2.745C9.65135 3.21312 10.2239 3.88035 10.5768 4.66634C10.9296 5.45233 11.0478 6.32356 10.9169 7.17514C10.7861 8.02671 10.4119 8.82231 9.83938 9.46613Z" fill="#666666"/>
</g>
</svg>
